<?xml version="1.0" encoding="UTF-8" standalone="no"?>
<!-- Created with Inkscape (http://www.inkscape.org/) -->

<svg
   xmlns:ns0="http://www.iki.fi/pav/software/textext/"
   xmlns:dc="http://purl.org/dc/elements/1.1/"
   xmlns:cc="http://creativecommons.org/ns#"
   xmlns:rdf="http://www.w3.org/1999/02/22-rdf-syntax-ns#"
   xmlns:svg="http://www.w3.org/2000/svg"
   xmlns="http://www.w3.org/2000/svg"
   xmlns:sodipodi="http://sodipodi.sourceforge.net/DTD/sodipodi-0.dtd"
   xmlns:inkscape="http://www.inkscape.org/namespaces/inkscape"
   id="svg2"
   version="1.1"
   inkscape:version="0.48.4 r9939"
   width="610"
   height="167.5"
   xml:space="preserve"
   sodipodi:docname="DCmodel.eps"><sodipodi:namedview
     pagecolor="#ffffff"
     bordercolor="#666666"
     borderopacity="1"
     objecttolerance="10"
     gridtolerance="10"
     guidetolerance="10"
     inkscape:pageopacity="0"
     inkscape:pageshadow="2"
     inkscape:window-width="1873"
     inkscape:window-height="1056"
     id="namedview4"
     showgrid="false"
     inkscape:zoom="3.2550096"
     inkscape:cx="415.78575"
     inkscape:cy="43.260753"
     inkscape:window-x="47"
     inkscape:window-y="157"
     inkscape:window-maximized="1"
     inkscape:current-layer="g12" /><metadata
     id="metadata8"><rdf:RDF><cc:Work
         rdf:about=""><dc:format>image/svg+xml</dc:format><dc:type
           rdf:resource="http://purl.org/dc/dcmitype/StillImage" /><dc:title></dc:title></cc:Work></rdf:RDF></metadata><defs
     id="defs6" /><g
     transform="matrix(1.25,0,0,-1.25,0,167.5)"
     inkscape:label="ink_ext_XXXXXX"
     inkscape:groupmode="layer"
     id="g10"><g
       transform="scale(0.1,0.1)"
       id="g12"><path
         id="path14"
         style="fill:#ffffff;fill-opacity:1;fill-rule:nonzero;stroke:none"
         d="m 950.23,600.82 935.781,0 0,404.77 -935.781,0 0,-404.77 z" /><path
         id="path16"
         style="fill:none;stroke:#000000;stroke-opacity:1;stroke-width:9.29155;stroke-linecap:butt;stroke-linejoin:miter;stroke-miterlimit:4;stroke-dasharray:none"
         d="m 950.23,600.793 935.781,0 0,404.801 -935.781,0 0,-404.801 z" /><path
         id="path18"
         style="fill:#000000;fill-opacity:1;fill-rule:nonzero;stroke:none"
         d="m 1439.49,950.09 0,2.57 -0.23,0.199 0,0.231 -0.2,0.199 0,0.231 -0.23,0.199 -0.2,0.23 -0.23,0 -0.2,0.199 -3.2,0 c -9.41,-9.179 -23.09,-9.41 -29.1,-9.41 l 0,-5.359 c 3.63,0 13.48,0 21.6,4.07 l 0,-75.711 c 0,-4.879 0,-6.828 -14.96,-6.828 l -5.55,0 0,-5.351 c 2.54,0 20.94,0.66 26.49,0.66 4.49,0 23.32,-0.66 26.52,-0.66 l 0,5.351 -5.55,0 c -14.96,0 -14.96,1.949 -14.96,6.828 l 0,82.352 z" /><path
         id="path20"
         style="fill:none;stroke:#000000;stroke-opacity:1;stroke-width:8.51066;stroke-linecap:butt;stroke-linejoin:miter;stroke-miterlimit:10.433;stroke-dasharray:none"
         d="m 1110.82,825.004 642.58,0" /><path
         id="path22"
         style="fill:#000000;fill-opacity:1;fill-rule:nonzero;stroke:none"
         d="m 1199.14,748.641 1.68,0.429 1.72,0.43 1.72,0.66 1.48,0.43 1.53,0.629 1.71,0.429 1.49,0.622 1.48,0.671 1.49,0.86 1.52,0.621 1.29,0.859 1.48,0.629 2.58,1.719 1.06,0.859 1.29,0.852 1.05,1.058 1.09,0.864 1.06,1.09 1.91,1.918 0.86,1.05 0.67,1.09 1.25,2.11 0.66,1.101 0.43,1.289 0.43,1.051 0.2,1.289 0.23,1.059 0.2,1.281 0,1.289 c 0,12.82 -15.2,22.891 -36.76,22.891 l -45.78,0 c -2.78,0 -4.69,0 -4.69,-3.2 0,-2.148 1.68,-2.148 4.69,-2.148 0.23,0 3,0 5.78,-0.434 3.01,-0.226 3.44,-0.429 3.44,-1.91 0,-0.43 0,-1.09 -0.67,-3.437 l -19.88,-78.903 c -1.06,-4.929 -1.29,-6.218 -13.05,-6.218 -2.58,0 -4.49,0 -4.49,-3.2 0,-1.48 1.05,-2.148 2.34,-2.148 3.01,0 6.45,0.43 9.42,0.43 2.77,0 7.07,0.238 9.65,0.238 2.96,0 6.6,-0.238 9.6,-0.238 3.21,0 6.84,-0.43 10.04,-0.43 0.67,0 3.01,0 3.01,3.238 0,2.11 -1.52,2.11 -4.92,2.11 -2.34,0 -2.77,0 -5.55,0.242 -3.24,0.429 -3.24,0.859 -3.24,2.34 0,0.199 0,1.058 0.43,3.207 l 9.41,37.652 20.32,0 0.23,4.059 -19.26,0 9.42,38.25 c 1.05,4.289 1.48,4.718 4.69,5.152 l 9.64,0 c 13.68,0 30.98,0 30.98,-15.391 0,-6.011 -2.97,-15.39 -10.04,-20.742 -5.98,-4.73 -15.16,-7.269 -25.43,-7.269 l -0.23,-4.059 c 12.85,0 18.4,-6.441 18.4,-13.473 0,-1.718 -1.49,-6.879 -2.15,-10.277 -1.68,-6.832 -2.35,-9.223 -2.35,-11.563 0,-11.757 10.9,-16.449 21.8,-16.449 13.71,0 19.69,14.539 19.69,17.313 0,0.429 -0.2,2.148 -2.58,2.148 -1.91,0 -2.11,-1.058 -2.54,-2.582 -2.15,-6.598 -7.69,-12.617 -13.91,-12.617 -3.86,0 -6.64,1.527 -6.64,9.648 0,3.629 0.86,11.332 1.53,15.391 0.39,4.059 0.39,5.551 0.39,7.031 0,1.719 0,6.449 -4.06,10.938 -2.78,3.203 -6.84,5.121 -10.24,6.172 z" /><path
         id="path24"
         style="fill:#000000;fill-opacity:1;fill-rule:nonzero;stroke:none"
         d="m 1300.47,711.219 0.23,0.23 0,0.629 0.2,0.434 0,0.226 0.23,0.434 0,0.629 0.2,0.429 0,0.43 0.23,0.43 0,0.43 0.2,0.191 0,0.668 0.23,0.191 0,0.86 0.2,0 0,0.429 c 0,1.911 -1.49,3.871 -3.83,3.871 -2.15,0 -4.49,-1.289 -5.35,-4.3 -2.15,2.769 -6.21,6.41 -12.85,6.41 l 0,-3.641 c 4.72,0 9.41,-2.769 11.13,-9.179 l -4.92,-20.11 c -0.43,-1.488 -0.43,-1.719 -2.35,-3.832 -4.06,-4.488 -9.41,-7.699 -14.76,-7.699 -3.83,0 -9.42,1.922 -9.42,10.672 0,4.918 2.58,16.051 6.21,21.597 4.3,5.782 9.61,8.551 14.11,8.551 l 0,3.641 c -14.96,0 -29.93,-14.531 -29.93,-29.731 0,-10.66 7.93,-18.359 18.6,-18.359 8.79,0 15.62,6.172 16.91,7.461 1.92,-5.352 7.7,-7.461 12.62,-7.461 4.06,0 7.03,2.34 9.18,5.98 2.77,4.059 4.3,9.61 4.3,10.469 0,1.481 -1.72,1.481 -2.15,1.481 -1.92,0 -2.15,-0.621 -2.58,-2.34 -1.91,-7.891 -4.69,-11.961 -8.56,-11.961 -2.96,0 -4.06,2.351 -4.06,5.551 0,1.718 1.1,5.55 1.53,8.558 l 4.45,17.731 z" /><path
         id="path26"
         style="fill:#000000;fill-opacity:1;fill-rule:nonzero;stroke:none"
         d="m 1401.21,731.77 45.55,0 c 1.91,0 5.54,0 5.54,3.628 0,3.633 -3.39,3.633 -5.54,3.633 l -45.55,0 0,45.739 c 0,1.96 0,5.359 -3.63,5.359 -3.63,0 -3.63,-3.399 -3.63,-5.359 l 0,-45.739 -45.79,0 c -1.91,0 -5.54,0 -5.54,-3.633 0,-3.628 3.4,-3.628 5.54,-3.628 l 45.79,0 0,-45.551 c 0,-1.91 0,-5.547 3.63,-5.547 3.63,0 3.63,3.398 3.63,5.547 l 0,45.551 z" /><path
         id="path28"
         style="fill:#000000;fill-opacity:1;fill-rule:nonzero;stroke:none"
         d="m 1524.38,787.59 0.19,0.43 0,0.429 0.23,0.391 0,0.43 0.2,0.429 0.23,0.43 0,0.43 0.2,0.23 0.23,0.43 0.2,0.191 0.23,0.43 0.2,0.238 0.23,0.192 0.2,0.242 0.86,0.386 0.23,0.231 0.39,0.199 0.67,0.231 0.43,0 0.19,0.203 0.67,0 0.43,0.226 1.29,0 0.42,0.203 2.54,0 0.43,0.231 4.73,0 c 4.49,0 5.98,0 5.98,3.207 0,0.191 -0.24,2.141 -2.58,2.141 -3.4,0 -7.46,-0.43 -10.9,-0.43 -3.87,-0.231 -8.36,-0.231 -11.99,-0.231 -3.21,0 -7.03,0.231 -10.24,0.231 -3.2,0 -6.87,0.43 -9.65,0.43 -1.05,0 -3.2,0 -3.2,-3.2 0,-2.148 1.72,-2.148 4.73,-2.148 0.19,0 2.97,0 5.74,-0.434 3.01,-0.226 3.44,-0.429 3.44,-1.91 0,-0.43 0,-1.09 -0.63,-3.437 l -19.88,-78.903 c -1.29,-4.929 -1.52,-6.218 -13.05,-6.218 -2.57,0 -4.49,0 -4.49,-3.2 0,-2.148 1.68,-2.148 4.49,-2.148 l 74.85,0 c 3.83,0 4.06,0.238 5.11,3.008 1.49,4.058 12.62,32.929 12.62,33.98 0,0.43 -0.23,2.149 -2.58,2.149 -1.72,0 -1.91,-0.86 -2.77,-3.2 -5.78,-14.097 -12.38,-30.589 -39.57,-30.589 l -16.88,0 c -4.49,0 -4.72,0.242 -4.72,1.531 0,0.187 0,0.82 0.66,3.199 l 19.89,79.34 z" /><path
         id="path30"
         style="fill:#000000;fill-opacity:1;fill-rule:nonzero;stroke:none"
         d="m 1641.33,711.219 0,0.23 0.23,0.199 0,0.43 0.2,0.434 0,0.66 0.23,0.629 0.2,0.429 0,0.43 0.23,0.43 0,0.621 0.2,0.238 0,0.621 0.23,0.239 0,0.851 0.2,0 0,0.199 c 0,1.911 -1.49,3.871 -4.07,3.871 -1.91,0 -4.49,-1.289 -5.35,-4.3 -1.91,2.769 -5.97,6.41 -12.61,6.41 l 0,-3.641 c 4.72,0 9.41,-2.769 11.13,-9.179 l -4.92,-20.11 c -0.43,-1.488 -0.43,-1.719 -2.35,-3.832 -4.06,-4.488 -9.65,-7.699 -14.76,-7.699 -3.83,0 -9.42,1.922 -9.42,10.672 0,4.918 2.58,16.051 6.21,21.597 4.07,5.782 9.61,8.551 14.11,8.551 l 0,3.641 c -14.97,0 -29.93,-14.531 -29.93,-29.731 0,-10.66 7.89,-18.359 18.6,-18.359 8.79,0 15.62,6.172 16.91,7.461 1.92,-5.352 7.7,-7.461 12.38,-7.461 4.3,0 7.27,2.34 9.42,5.98 2.77,4.059 4.26,9.61 4.26,10.469 0,1.481 -1.92,1.481 -2.11,1.481 -1.96,0 -2.15,-0.621 -2.58,-2.34 -1.92,-7.891 -4.69,-11.961 -8.56,-11.961 -3,0 -4.25,2.351 -4.25,5.551 0,1.718 1.05,5.55 1.68,8.558 l 4.49,17.731 z" /><path
         id="path32"
         style="fill:#000000;fill-opacity:1;fill-rule:nonzero;stroke:none"
         d="m 1737.34,753.988 -0.86,0 -0.19,-0.187 -0.43,-0.242 -0.24,0 -0.39,-0.188 -0.23,-0.242 -0.43,0 -0.43,-0.43 -0.43,-0.187 -0.19,-0.242 -0.24,-0.192 -0.19,-0.238 -0.24,-0.192 -0.19,-0.238 -0.24,-0.191 -0.19,-0.199 -0.24,-0.43 0,-0.231 -0.43,-0.429 0,-0.43 -0.19,-0.191 0,-0.239 -0.2,-0.191 0,-0.668 -0.23,-0.191 0,-0.86 c 0,-3.441 3.01,-4.691 4.92,-4.691 1.48,0 7.26,0.82 7.26,8.32 0,9.609 -10.7,13.051 -19.88,13.051 -23.32,0 -27.38,-17.11 -27.38,-21.801 0,-5.59 3.01,-8.98 5.16,-10.937 3.82,-2.973 6.6,-3.403 16.87,-5.313 3.2,-0.43 12.62,-2.379 12.62,-9.84 0,-2.347 -1.49,-8.129 -7.89,-11.758 -5.78,-3.203 -13.05,-3.203 -14.77,-3.203 -5.97,0 -14.53,1.25 -17.97,6.172 4.92,0.66 8.13,4.289 8.13,8.36 0,3.82 -2.58,5.539 -5.78,5.539 -4.26,0 -8.56,-3.399 -8.56,-10.039 0,-8.782 9.42,-14.329 23.95,-14.329 27.38,0 32.5,18.829 32.5,24.61 0,13.668 -15.16,16.25 -20.51,17.301 -1.49,0.199 -5.12,0.859 -5.98,1.289 -5.58,1.058 -8.36,4.058 -8.36,7.269 0,3.629 2.78,7.5 5.98,9.61 4.06,2.57 9.41,2.769 11.76,2.769 3.24,0 10.94,-0.391 14.33,-5.551 z" /><path
         id="path34"
         style="fill:#ffffff;fill-opacity:1;fill-rule:nonzero;stroke:none"
         d="m 2295.35,653.531 414.34,0 0,302.77 -414.34,0 0,-302.77 z" /><path
         id="path36"
         style="fill:none;stroke:#000000;stroke-opacity:1;stroke-width:10.5168;stroke-linecap:butt;stroke-linejoin:miter;stroke-miterlimit:4;stroke-dasharray:none"
         d="m 2295.35,653.523 414.34,0 0,302.77 -414.34,0 0,-302.77 z" /><path
         id="path38"
         style="fill:#000000;fill-opacity:1;fill-rule:nonzero;stroke:none"
         d="m 2464.61,823.559 -0.12,0 0,0.281 -0.15,0.148 0,0.321 -0.16,0.113 0,0.156 -0.12,0.16 0,0.274 -0.15,0 0,0.578 c 0,0.121 2.57,2.191 4.18,3.32 l 25.23,19.461 c 13.48,9.84 19.14,10.391 23.48,10.859 1.17,0.11 2.61,0.309 2.61,2.891 0,0.578 -0.43,1.598 -1.6,1.598 -3.2,0 -6.79,-0.469 -10.27,-0.469 -5.24,0 -10.9,0.469 -15.98,0.469 -1.01,0 -2.73,0 -2.73,-2.891 0,-1.019 0.74,-1.488 1.72,-1.598 3.2,-0.281 4.49,-1.019 4.49,-3.05 0,-2.621 -4.3,-5.821 -5.2,-6.52 l -56.21,-43.211 11.41,46.25 c 1.33,5.039 1.6,6.531 12.19,6.531 3.63,0 4.96,0 4.96,2.891 0,1.328 -1.17,1.598 -2.07,1.598 -4.03,0 -14.5,-0.469 -18.56,-0.469 -4.02,0 -14.33,0.469 -18.51,0.469 -1.06,0 -2.89,0 -2.89,-2.77 0,-1.719 1.29,-1.719 4.18,-1.719 1.91,0 4.49,-0.16 6.25,-0.281 2.3,-0.308 3.16,-0.738 3.16,-2.34 0,-0.589 -0.12,-1.019 -0.59,-2.769 l -19.37,-77.231 c -1.33,-5.66 -1.6,-6.8 -13.09,-6.8 -2.46,0 -4.06,0 -4.06,-2.77 0,-1.719 1.76,-1.719 2.19,-1.719 4.06,0 14.18,0.59 18.28,0.59 3.05,0 6.25,-0.16 9.26,-0.16 3.2,0 6.36,-0.43 9.41,-0.43 1.06,0 2.89,0 2.89,2.891 0,1.598 -1.29,1.598 -4.02,1.598 -5.39,0 -9.45,0 -9.45,2.621 0,0.98 0.89,4.179 1.28,6.371 2.07,7.5 3.95,15.078 5.86,22.578 l 21.41,16.68 16.68,-38.68 c 1.76,-3.938 1.76,-4.219 1.76,-5.07 0,-4.379 -6.1,-4.5 -7.42,-4.5 -1.57,0 -3.17,0 -3.17,-2.887 0,-1.602 1.72,-1.602 1.99,-1.602 5.67,0 11.76,0.59 17.58,0.59 3.17,0 10.98,-0.59 14.18,-0.59 0.59,0 2.46,0 2.46,2.891 0,1.598 -1.6,1.598 -2.77,1.598 -5.9,0.121 -7.81,1.41 -9.96,6.531 l -20.47,47.219 z" /><path
         id="path40"
         style="fill:#000000;fill-opacity:1;fill-rule:nonzero;stroke:none"
         d="m 2562.89,804.738 0,0.422 0.12,0 0,0.59 0.19,0.121 0,0.149 0.12,0.32 0,0.269 0.16,0.161 0,0.152 0.11,0.117 0,0.16 0.2,0 0,0.153 0.39,0.386 0.31,0 0,0.203 0.43,0 0.16,0.118 0.86,0 c 0.54,0.152 4.06,0.152 6.05,0.152 6.25,0 8.87,0 11.33,-0.742 4.65,-1.449 4.8,-4.34 4.8,-7.93 0,-1.758 0,-2.93 -0.74,-8.277 l -0.15,-1.024 c 0,-1.047 0.74,-1.597 1.6,-1.597 1.6,0 1.72,0.859 2.03,2.621 l 2.77,19.097 c 0,1.481 -1.33,1.481 -3.08,1.481 l -62.15,0 c -2.46,0 -2.74,0 -3.32,-2.031 l -6.41,-17.848 c -0.12,-0.391 -0.58,-1.441 -0.58,-1.871 0,-0.43 0.31,-1.449 1.75,-1.449 1.33,0 1.45,0.55 2.15,2.461 5.86,16.097 9.18,17.109 24.53,17.109 l 4.18,0 c 3.05,0 3.21,-0.152 3.21,-1.012 0,0 0,-0.59 -0.43,-2.039 l -13.32,-53.039 c -0.9,-3.75 -1.18,-4.769 -11.76,-4.769 -3.63,0 -4.65,0 -4.65,-2.192 0,-0.308 0.31,-1.441 1.72,-1.441 2.93,0 5.82,0.269 8.71,0.269 2.77,0 5.82,0.16 8.71,0.16 2.73,0 6.21,0 9.14,-0.16 2.58,0 5.67,-0.269 8.4,-0.269 0.86,0 2.3,0 2.3,2.152 0,1.481 -1.01,1.481 -4.02,1.481 -2.03,0 -4.1,0.117 -5.98,0.277 -3.47,0.312 -3.63,0.582 -3.63,1.91 0,0.699 0,0.82 0.43,2.301 l 13.36,52.898 z" /><path
         id="path42"
         style="fill:#000000;fill-opacity:1;fill-rule:nonzero;stroke:none"
         d="m 3068.16,1323.09 0.16,0.24 0,0.31 0.16,0.39 0.07,0.28 0,0.27 0.16,0.27 0,0.28 0.16,0.27 0,0.12 0.11,0.27 0.16,0.16 0,0.27 0.12,0.12 0,0.11 0.27,0.32 0,0.11 0.27,0.28 0,0.11 0.16,0 0.12,0.16 0,0.16 0.15,0 0.12,0.11 0.12,0 0.15,0.12 0.28,0 0.12,0.16 0.27,0 c 1.21,0.23 5.66,0.23 8.55,0.23 13.52,0 19.61,-0.51 19.61,-10.94 0,-2.03 -0.54,-7.3 -1.09,-10.82 -0.16,-0.54 -0.43,-2.18 -0.43,-2.57 0,-0.82 0.43,-1.8 1.64,-1.8 1.52,0 1.76,1.25 2.03,3.16 l 3.63,23.44 c 0.16,0.51 0.28,1.88 0.28,2.27 0,1.48 -1.33,1.48 -3.63,1.48 l -74.69,0 c -3.21,0 -3.36,-0.16 -4.3,-2.69 l -8.16,-23.72 c -0.08,-0.23 -0.78,-2.14 -0.78,-2.42 0,-0.82 0.7,-1.52 1.6,-1.52 1.36,0 1.48,0.7 2.3,2.89 7.31,20.82 10.82,23.24 30.7,23.24 l 5.32,0 c 3.63,0 3.63,-0.51 3.63,-1.6 0,-0.82 -0.39,-2.42 -0.55,-2.85 l -18,-71.68 c -1.22,-5 -1.61,-6.52 -15.94,-6.52 -4.89,0 -5.71,0 -5.71,-2.58 0,-1.6 1.49,-1.6 2.35,-1.6 3.63,0 7.38,0.43 10.94,0.43 3.79,0 7.69,0.11 11.48,0.11 3.75,0 7.58,-0.11 11.25,-0.11 3.79,0 7.81,-0.43 11.64,-0.43 1.33,0 2.97,0 2.97,2.69 0,1.49 -1.09,1.49 -4.61,1.49 -3.4,0 -5.16,0 -8.67,0.27 -3.79,0.43 -4.85,0.86 -4.85,2.97 0,0.15 0,0.86 0.51,2.89 l 17.85,71.4 z" /><path
         id="path44"
         style="fill:#000000;fill-opacity:1;fill-rule:nonzero;stroke:none"
         d="m 3128.24,1277.78 0.12,0.28 0,0.27 0.16,0.39 0.15,0.27 0,0.16 0.24,0.55 0,0.23 0.27,0.31 0.16,0.24 0.27,0.31 0.27,0.12 0.12,0.11 1.09,0.55 0.28,0 0.23,0.16 0.31,0 0.24,0.15 0.7,0 0.16,0.08 1.56,0 0.27,0.12 3.25,0 c 2.89,0 3.82,0 3.82,2.03 0,0.16 0,1.37 -1.6,1.37 -2.22,0 -4.65,-0.16 -6.91,-0.28 -2.42,-0.11 -5.16,-0.11 -7.62,-0.11 -1.83,0 -4.45,0.11 -6.48,0.11 -1.92,0 -4.18,0.28 -6.06,0.28 -0.54,0 -2.03,0 -2.03,-2.03 0,-1.37 1.21,-1.37 3.13,-1.37 0,0 1.87,0 3.51,-0.12 1.99,-0.23 2.15,-0.39 2.15,-1.33 0,-0.15 0,-0.7 -0.39,-2.03 l -12.46,-50.04 c -0.98,-3.12 -1.1,-3.94 -8.4,-3.94 -1.6,0 -2.7,0 -2.7,-2.03 0,-1.37 1.1,-1.37 2.7,-1.37 l 47.46,0 c 2.31,0 2.46,0.16 3.13,1.91 0.97,2.54 7.96,20.82 7.96,21.49 0,0.27 -0.11,1.37 -1.44,1.37 -1.25,0 -1.41,-0.55 -1.91,-2.04 -3.64,-8.94 -7.74,-19.33 -25.04,-19.33 l -10.67,0 c -2.89,0 -2.97,0.12 -2.97,0.94 0,0.11 0,0.54 0.39,2.07 l 12.58,50.15 z" /><path
         id="path46"
         style="fill:#000000;fill-opacity:1;fill-rule:nonzero;stroke:none"
         d="m 4502.97,995.789 0,2.109 -0.16,0.704 0,0.507 -0.19,0.7 0,0.511 -0.16,0.7 -0.16,0.51 -0.19,0.55 -0.2,0.51 -0.15,0.54 -0.2,0.32 -0.15,0.54 -0.16,0.35 -0.35,0.51 -0.35,0.71 -0.9,0.89 -0.35,0.16 -0.16,0.35 -0.35,0.16 -0.7,0.39 -0.36,0.15 -0.35,0 -0.35,0.16 -0.31,0 -0.35,0.2 -0.39,0 c -4.53,0 -9.07,-4.22 -9.07,-8.211 0,-1.75 0.9,-3.668 2.62,-5.231 2.81,-2.617 5.98,-7.34 5.98,-14.488 0,-7 -3.32,-16.961 -8.6,-24.809 -5.19,-7.461 -11.68,-13.402 -19.88,-13.402 -9.92,0 -15.19,6.293 -16.76,15.512 1.92,4.531 5.78,15.699 5.78,20.629 0,2.07 -0.89,3.82 -3,3.82 -1.37,0 -3.28,-0.352 -4.69,-2.961 -1.91,-3.52 -3.98,-14.848 -3.98,-20.938 -5.79,-8.203 -12.78,-16.062 -23.6,-16.062 -11.52,0 -15.19,10.281 -15.19,19.891 0,21.64 17.65,39.96 17.65,42.22 0,1.92 -1.4,3.32 -3.16,3.32 -2.27,0 -3.48,-2.3 -4.53,-3.86 -8.91,-12.891 -15.55,-33.481 -15.55,-49.18 0,-12.032 4.06,-24.77 18.36,-24.77 12.19,0 20.43,8.52 26.68,18.129 1.6,-10.117 8.4,-18.129 19.02,-18.129 13.64,0 21.99,10.469 28.13,23.52 4.18,8.39 10.78,31.949 10.78,42.769 z" /><path
         id="path48"
         style="fill:#000000;fill-opacity:1;fill-rule:nonzero;stroke:none"
         d="m 4558.98,915.012 -0.15,-0.16 0,-0.543 -0.16,-0.2 0,-0.308 -0.23,-0.199 0,-0.512 -0.16,-0.738 -0.31,-1.012 0,-0.199 -0.2,-0.313 0,-0.547 -0.15,-0.191 0,-0.512 -0.2,-0.156 0,-0.703 -0.19,-0.199 0,-0.7 c 0,-2.621 2.11,-3.832 4.02,-3.832 2.27,0 4.22,1.571 4.88,2.621 0.55,1.211 1.6,5.082 2.11,7.7 0.71,2.261 1.92,7.851 2.81,10.82 0.67,2.609 1.37,5.43 1.88,8.199 1.45,5.231 1.45,5.434 3.87,9.223 3.82,5.937 9.92,12.73 19.37,12.73 6.8,0 7.31,-5.543 7.31,-8.359 0,-7.301 -5.43,-20.742 -7.31,-25.973 -1.21,-3.32 -1.76,-4.379 -1.76,-6.488 0,-6.441 5.43,-10.473 11.53,-10.473 12.18,0 17.46,16.762 17.46,18.524 0,1.758 -1.6,1.758 -1.95,1.758 -1.57,0 -1.72,-0.899 -2.27,-2.11 -2.77,-9.808 -8.01,-14.648 -12.89,-14.648 -2.42,0 -2.97,1.558 -2.97,4.179 0,2.77 0.55,4.368 2.81,9.758 1.37,3.832 6.41,16.762 6.41,23.563 0,1.91 0,6.988 -4.53,10.468 -2.07,1.559 -5.59,3.321 -11.33,3.321 -10.82,0 -17.62,-7.153 -21.48,-12.391 -1.02,10.469 -9.58,12.391 -15.86,12.391 -10.12,0 -16.92,-6.289 -20.43,-10.981 -0.86,8.2 -8.01,10.981 -13.05,10.981 -5.27,0 -8.05,-3.832 -9.61,-6.641 -2.62,-4.34 -4.37,-11.332 -4.37,-12.031 0,-1.57 1.75,-1.57 2.1,-1.57 1.76,0 1.76,0.351 2.58,3.679 1.96,7.141 4.22,13.043 8.91,13.043 3.16,0 4.02,-2.582 4.02,-5.902 0,-2.301 -1.01,-6.828 -1.91,-9.957 -0.9,-3.32 -2.11,-8.363 -2.62,-10.973 l -4.02,-15.551 c -0.35,-1.558 -1.21,-4.687 -1.21,-5.078 0,-2.621 2.26,-3.832 4.18,-3.832 2.11,0 4.21,1.571 4.72,2.621 0.71,1.211 1.57,5.082 2.27,7.7 0.55,2.261 1.91,7.851 2.62,10.82 0.7,2.609 1.4,5.43 2.07,8.199 1.4,4.883 1.6,5.902 5.07,10.82 3.52,4.883 9.11,11.133 18.32,11.133 7,0 7.15,-6.09 7.15,-8.359 0,-3.121 -0.31,-4.684 -2.11,-11.481 l -5.04,-20.429 z" /><path
         id="path50"
         style="fill:#000000;fill-opacity:1;fill-rule:nonzero;stroke:none"
         d="m 318.629,982.309 0,1.961 -0.149,0.351 0,1.168 -0.242,0.742 -0.578,2.348 -0.16,0.582 -0.23,0.551 -0.161,0.578 -0.23,0.551 -0.359,0.39 -0.192,0.59 -0.387,0.391 -0.203,0.386 -1.359,1.372 -0.359,0.191 -0.391,0.16 -0.391,0.231 -0.386,0.16 -0.192,0.226 -0.39,0.16 -0.391,0 -0.359,0.192 -0.579,0 -0.39,0.199 -0.391,0 c -4.808,0 -9.422,-5 -9.422,-9.258 0,-2.5 0.942,-3.633 3.051,-5.742 4.063,-3.867 6.563,-8.867 6.563,-15.59 0,-8.121 -11.762,-51.988 -34.102,-51.988 -9.801,0 -14.219,6.719 -14.219,16.719 0,10.82 5.199,24.648 11.168,40.468 1.332,3.243 2.313,5.942 2.313,9.614 0,8.629 -6.172,15.777 -15.821,15.777 -17.89,0 -25.203,-27.73 -25.203,-29.449 0,-1.918 1.922,-1.918 2.313,-1.918 1.91,0 2.148,0.387 3.078,3.437 5.59,19.262 13.672,23.672 19.262,23.672 1.519,0 4.808,0 4.808,-6.133 0,-4.839 -1.918,-10 -3.289,-13.476 -8.238,-22.152 -10.738,-31.012 -10.738,-39.102 0,-20.781 16.719,-23.672 25.59,-23.672 32.148,0 43.117,63.161 43.117,73.161 z" /><path
         id="path52"
         style="fill:#000000;fill-opacity:1;fill-rule:nonzero;stroke:none"
         d="m 2056.41,1004.89 0,0.74 -0.16,0.36 0,0.54 -0.2,0.35 0,0.32 -0.15,0.19 0,0.39 -0.2,0.16 -0.19,0.39 -0.16,0.16 -0.19,0.35 -0.36,0.35 -0.19,0.35 -0.16,0.2 -0.35,0.15 -0.39,0.39 -0.31,0.16 -0.2,0.19 -0.39,0.16 -0.31,0 -0.2,0.16 -0.35,0.23 -0.7,0 -0.39,0.16 -1.06,0 c -4.8,0 -9.68,-4.65 -9.68,-9.46 0,-3.239 2.54,-6.29 6.83,-6.29 4.1,0 9.46,4.109 9.46,9.3 z" /><path
         id="path54"
         style="fill:#000000;fill-opacity:1;fill-rule:nonzero;stroke:none"
         d="m 2042.81,938.211 0.2,0.348 0.19,0.55 0.16,0.352 0.16,0.309 0.19,0.589 0.2,0.313 0,0.199 0.19,0.348 0.31,0.742 0,0.16 0.2,0.348 0,0.191 0.39,0.711 0.31,1.051 0,0.387 0.2,0.203 0.19,0.308 0,0.2 0.16,0.351 0,0.348 0.19,0.39 0.16,0.161 0,0.539 0.2,0.351 0.35,0.75 c 1.4,3.59 2.3,6.051 2.3,9.449 0,8.09 -5.7,14.692 -14.65,14.692 -16.64,0 -23.43,-25.781 -23.43,-27.391 0,-1.789 1.79,-1.789 2.14,-1.789 1.8,0 1.96,0.391 2.9,3.238 4.84,16.641 11.95,21.993 17.89,21.993 1.4,0 4.45,0 4.45,-5.743 0,-3.75 -1.25,-7.5 -1.95,-9.3 -1.45,-4.649 -9.34,-25.188 -12.19,-32.887 -1.8,-4.453 -4.1,-10.352 -4.1,-14.141 0,-8.402 6.09,-14.453 14.49,-14.453 16.8,0 23.44,25.742 23.44,27.344 0,1.758 -1.64,1.758 -2.15,1.758 -1.8,0 -1.8,-0.7 -2.7,-3.2 -3.24,-11.25 -9.1,-22.152 -18.24,-22.152 -2.85,0 -4.3,1.801 -4.3,5.863 0,4.489 1.06,6.989 5.2,17.731 l 6.95,18.789 z" /><path
         id="path56"
         style="fill:#000000;fill-opacity:1;fill-rule:nonzero;stroke:none"
         d="m 2119.73,914.77 -0.2,0.359 -0.35,0.351 -0.16,0.348 -0.35,0.391 -0.19,0.312 -0.71,0.739 -0.19,0.359 -0.35,0.351 -0.35,0.192 -0.71,0.707 -0.39,0.191 -0.35,0.352 -0.35,0.156 -0.55,0.391 -0.35,0.16 -0.35,0.351 -0.35,0.192 -0.55,0.199 -0.35,0.149 -0.55,0.16 -0.51,0.199 -0.39,0.191 -0.51,0 -0.54,0.2 -0.35,0.152 -1.1,0 -0.54,0.156 -1.06,0 0,-3.558 c 8.56,0 11.09,-9.489 11.09,-10.7 0,-0.582 -0.35,-1.48 -0.54,-1.8 l -5.74,-23.239 c -0.9,-3.59 -3.75,-5.941 -6.41,-8.441 -1.09,-0.852 -6.09,-4.84 -11.45,-4.84 -4.64,0 -9.14,3.238 -9.14,11.988 0,6.602 3.6,20.203 6.45,25.242 5.9,10 12.15,11.79 15.74,11.79 l 0,3.558 c -16.09,0 -32.19,-17.5 -32.19,-35.387 0,-12.152 8.05,-20.742 18.75,-20.742 6.84,0 12.7,3.942 17.74,8.75 2.3,-7.5 9.65,-8.75 12.89,-8.75 4.45,0 7.5,2.653 9.8,6.602 2.7,4.84 4.3,11.988 4.3,12.34 0,1.8 -1.6,1.8 -1.95,1.8 -1.8,0 -1.96,-0.55 -2.7,-3.91 -1.6,-5.941 -3.94,-13.281 -9.1,-13.281 -3.24,0 -4.1,2.699 -4.1,6.09 0,2.148 0.86,6.648 1.76,9.851 0.89,3.2 2.15,8.438 2.89,11.047 l 2.46,9.532 c 0.74,3.21 2.15,9.109 2.15,9.609 0,2.891 -2.15,4.141 -4.26,4.141 -1.99,0 -4.85,-1.598 -5.74,-5 z" /><path
         id="path58"
         style="fill:#000000;fill-opacity:1;fill-rule:nonzero;stroke:none"
         d="m 466.371,936.691 41.68,0 c 2.109,0 4.801,0 4.801,3.008 0,3 -2.692,3 -4.801,3 l -41.68,0 0,41.641 c 0,2.109 0,4.969 -3.012,4.969 -2.968,0 -2.968,-2.86 -2.968,-4.969 l 0,-41.641 -41.68,0 c -2.109,0 -4.961,0 -4.961,-3 0,-3.008 2.852,-3.008 4.961,-3.008 l 41.68,0 0,-41.679 c 0,-2.114 0,-4.961 2.968,-4.961 3.012,0 3.012,2.847 3.012,4.961 l 0,41.679 z" /><path
         id="path60"
         style="fill:#000000;fill-opacity:1;fill-rule:nonzero;stroke:none"
         d="m 724.84,664.031 2.148,0 0.16,0.239 0.782,0 0.16,0.191 0.461,0 0.16,0.238 0.16,0.192 0.149,0 0.121,0.199 0.16,0.23 0.148,0 0.16,0.2 0.161,0.23 0,0.199 0.152,0.192 0,0.429 0.156,0.2 0,0.66 0.152,0.199 0,0.621 c 0,4.219 -2.769,4.219 -5.39,4.219 l -82.809,0 c -2.621,0 -5.39,0 -5.39,-4.219 0,-4.219 2.769,-4.219 5.39,-4.219 l 82.809,0 z" /><path
         id="path62"
         style="fill:#000000;fill-opacity:1;fill-rule:nonzero;stroke:none"
         d="m 2913.75,914.891 41.64,0 c 2.11,0 4.81,0 4.81,3.007 0,2.973 -2.7,2.973 -4.81,2.973 l -41.64,0 0,41.68 c 0,2.109 0,4.961 -3.01,4.961 -3.01,0 -3.01,-2.852 -3.01,-4.961 l 0,-41.68 -41.68,0 c -2.1,0 -4.96,0 -4.96,-2.973 0,-3.007 2.86,-3.007 4.96,-3.007 l 41.68,0 0,-41.68 c 0,-2.109 0,-4.961 3.01,-4.961 3.01,0 3.01,2.852 3.01,4.961 l 0,41.68 z" /><path
         id="path64"
         style="fill:#000000;fill-opacity:1;fill-rule:nonzero;stroke:none"
         d="m 3246.41,1002.82 2.14,0 0.16,0.2 0.78,0 0.16,0.23 0.47,0 0.31,0.39 0.16,0 0.11,0.24 0.16,0.19 0.16,0 0.15,0.2 0.16,0.23 0,0.2 0.15,0.23 0,0.39 0.16,0.24 0,0.62 0.16,0.2 0,0.62 c 0,4.22 -2.78,4.22 -5.39,4.22 l -82.82,0 c -2.61,0 -5.39,0 -5.39,-4.22 0,-4.18 2.78,-4.18 5.39,-4.18 l 82.82,0 z" /><path
         id="path66"
         style="fill:#000000;fill-opacity:1;fill-rule:nonzero;stroke:none"
         d="m 2915.9,698.988 0.15,0.352 0,0.32 0.16,0.43 0.16,0.308 0,0.352 0.11,0.27 0,0.32 0.2,0.308 0,0.192 0.12,0.281 0.19,0.149 0,0.281 0.16,0.187 0,0.16 0.31,0.313 0,0.117 0.12,0.192 0.15,0.121 0,0.199 0.16,0 0.16,0.07 0,0.199 0.19,0 0.12,0.161 0.19,0 0.08,0.152 0.35,0 0.16,0.199 0.31,0 c 1.37,0.309 6.49,0.309 9.73,0.309 15.47,0 22.42,-0.66 22.42,-12.539 0,-2.34 -0.62,-8.36 -1.25,-12.379 -0.19,-0.59 -0.47,-2.461 -0.47,-2.934 0,-0.898 0.47,-1.988 1.88,-1.988 1.68,0 1.99,1.398 2.3,3.512 l 4.14,26.757 c 0.16,0.629 0.32,2.153 0.32,2.621 0,1.719 -1.53,1.719 -4.14,1.719 l -85.32,0 c -3.71,0 -3.83,-0.16 -4.92,-3.09 l -9.3,-27.031 c -0.15,-0.348 -0.89,-2.5 -0.89,-2.808 0,-0.899 0.74,-1.68 1.83,-1.68 1.56,0 1.72,0.781 2.66,3.238 8.32,23.793 12.3,26.602 35.04,26.602 l 6.01,0 c 4.18,0 4.18,-0.66 4.18,-1.91 0,-0.899 -0.43,-2.782 -0.58,-3.211 l -20.59,-81.911 c -1.37,-5.699 -1.84,-7.378 -18.2,-7.378 -5.59,0 -6.49,0 -6.49,-2.969 0,-1.879 1.72,-1.879 2.62,-1.879 4.18,0 8.48,0.508 12.5,0.508 4.34,0 8.83,0.16 13.16,0.16 4.3,0 8.64,-0.16 12.82,-0.16 4.33,0 8.94,-0.508 13.32,-0.508 1.48,0 3.36,0 3.36,3.129 0,1.719 -1.25,1.719 -5.28,1.719 -3.83,0 -5.86,0 -9.88,0.269 -4.3,0.512 -5.55,0.902 -5.55,3.402 0,0.188 0,0.938 0.63,3.278 l 20.39,81.519 z" /><g
         transform="scale(10,10)"
         id="g68"><text
           id="text70"
           transform="matrix(1,0,0,-1,-0.224609,125.122)"><tspan
             id="tspan72"
             sodipodi:role="line"
             y="0"
             x="0 8.840325 15.3821655 21.924006 25.1890327 28.4540594 33.6875318"
             style="fill:#000000;fill-opacity:1;fill-rule:nonzero;stroke:none;font-family:Cmr10;font-variant:normal;font-weight:normal;font-size:11.7871;writing-mode:lr;-inkscape-font-specification:Cmr10">Applied</tspan><tspan
             id="tspan74"
             sodipodi:role="line"
             y="14.734"
             x="0 6.2118017 12.1053517 15.3703784 19.9437732 25.8373232 31.7308732"
             style="fill:#000000;fill-opacity:1;fill-rule:nonzero;stroke:none;font-family:Cmr10;font-variant:normal;font-weight:normal;font-size:11.7871;writing-mode:lr;-inkscape-font-specification:Cmr10">voltage</tspan></text>
</g><path
         id="path76"
         style="fill:#ffffff;fill-opacity:1;fill-rule:nonzero;stroke:none"
         d="m 3410.62,557 425.117,0 0,465.512 -425.117,0 0,-465.512 z" /><path
         id="path78"
         style="fill:none;stroke:#000000;stroke-opacity:1;stroke-width:11.0969;stroke-linecap:butt;stroke-linejoin:miter;stroke-miterlimit:4;stroke-dasharray:none"
         d="m 3410.62,556.996 425.117,0 0,465.508 -425.117,0 0,-465.508 z" /><path
         id="path88"
         style="fill:#ffffff;fill-opacity:1;fill-rule:nonzero;stroke:none"
         d="m 3135.7,807.629 c 0,-24.809 -20.08,-44.891 -44.88,-44.891 -24.77,0 -44.88,20.082 -44.88,44.891 0,24.762 20.11,44.84 44.88,44.84 24.8,0 44.88,-20.078 44.88,-44.84 z" /><g
         transform="scale(0.92982,-1.07018)"
         id="g90"><path
           id="path92"
           style="fill:none;stroke:#000000;stroke-opacity:1;stroke-width:6.26579;stroke-linecap:butt;stroke-linejoin:miter;stroke-miterlimit:4;stroke-dasharray:none"
           d="m 3372.38,-754.663 c 0,23.174 -21.6,41.899 -48.27,41.899 -26.64,0 -48.28,-18.725 -48.28,-41.899 0,-23.145 21.64,-41.907 48.28,-41.907 26.67,0 48.27,18.762 48.27,41.907 z" /></g><path
         id="path94"
         style="fill:#000000;fill-opacity:1;fill-rule:nonzero;stroke:none"
         d="m 4388.98,802.238 c 0,-16.527 -13.39,-29.929 -29.92,-29.929 -16.52,0 -29.92,13.402 -29.92,29.929 0,16.524 13.4,29.883 29.92,29.883 16.53,0 29.92,-13.359 29.92,-29.883 z" /><g
         transform="scale(0.92982,-1.07018)"
         id="g96"><path
           id="path98"
           style="fill:none;stroke:#000000;stroke-opacity:1;stroke-width:4.17718;stroke-linecap:butt;stroke-linejoin:miter;stroke-miterlimit:4;stroke-dasharray:none"
           d="m 4720.25,-749.626 c 0,15.436 -14.41,27.956 -32.19,27.956 -17.76,0 -32.17,-12.52 -32.17,-27.956 0,-15.436 14.41,-27.919 32.17,-27.919 17.78,0 32.19,12.483 32.19,27.919 z" /></g><path
         id="path100"
         style="fill:#ffffff;fill-opacity:1;fill-rule:nonzero;stroke:none"
         d="m 2294.88,14.7695 414.453,0 0,308.441 -414.453,0 0,-308.441 z" /><path
         id="path102"
         style="fill:none;stroke:#000000;stroke-opacity:1;stroke-width:9.54169;stroke-linecap:butt;stroke-linejoin:miter;stroke-miterlimit:4;stroke-dasharray:none"
         d="m 2294.88,14.7734 414.453,0 0,308.441 -414.453,0 0,-308.441 z" /><path
         id="path104"
         style="fill:#000000;fill-opacity:1;fill-rule:nonzero;stroke:none"
         d="m 2457.19,188.25 -0.2,0 0,0.309 -0.11,0.16 0,0.269 -0.16,0.121 0,0.161 -0.16,0.152 0,0.277 -0.11,0 0,0.582 c 0,0.16 2.61,2.149 4.21,3.321 l 25.2,19.457 c 13.48,9.839 19.14,10.429 23.48,10.851 1.17,0.16 2.61,0.281 2.61,2.899 0,0.582 -0.47,1.601 -1.6,1.601 -3.16,0 -6.8,-0.43 -10.27,-0.43 -5.24,0 -10.9,0.43 -15.94,0.43 -1.02,0 -2.77,0 -2.77,-2.93 0,-0.98 0.74,-1.41 1.75,-1.57 3.17,-0.269 4.5,-1.012 4.5,-3.039 0,-2.621 -4.38,-5.781 -5.24,-6.531 l -56.25,-43.16 11.49,46.211 c 1.29,5.078 1.56,6.519 12.15,6.519 3.63,0 4.92,0 4.92,2.899 0,1.32 -1.14,1.601 -1.99,1.601 -4.11,0 -14.5,-0.43 -18.6,-0.43 -4.06,0 -14.33,0.43 -18.55,0.43 -1.02,0 -2.89,0 -2.89,-2.738 0,-1.762 1.32,-1.762 4.22,-1.762 1.87,0 4.49,-0.148 6.24,-0.269 2.31,-0.313 3.17,-0.743 3.17,-2.34 0,-0.551 -0.16,-1.02 -0.59,-2.742 l -19.41,-77.258 c -1.29,-5.672 -1.6,-6.84 -13.05,-6.84 -2.46,0 -4.06,0 -4.06,-2.731 0,-1.761 1.72,-1.761 2.19,-1.761 4.02,0 14.18,0.59 18.24,0.59 3.05,0 6.25,-0.118 9.26,-0.118 3.2,0 6.4,-0.472 9.45,-0.472 1.02,0 2.89,0 2.89,2.929 0,1.563 -1.29,1.563 -4.06,1.563 -5.35,0 -9.42,0 -9.42,2.66 0,1.008 0.9,4.18 1.29,6.367 2.03,7.532 3.95,15.071 5.82,22.571 l 21.45,16.679 16.68,-38.707 c 1.72,-3.902 1.72,-4.179 1.72,-5.043 0,-4.367 -6.1,-4.527 -7.39,-4.527 -1.6,0 -3.2,0 -3.2,-2.891 0,-1.601 1.76,-1.601 2.07,-1.601 5.63,0 11.72,0.59 17.5,0.59 3.21,0 11.02,-0.59 14.22,-0.59 0.55,0 2.46,0 2.46,2.929 0,1.563 -1.6,1.563 -2.73,1.563 -5.98,0.16 -7.85,1.488 -10,6.559 l -20.43,47.23 z" /><path
         id="path106"
         style="fill:#000000;fill-opacity:1;fill-rule:nonzero;stroke:none"
         d="m 2586.33,131.73 0,0.149 0.12,0 0,0.281 0.15,0.149 0,0.121 0.12,0.199 0,0.391 0.19,0 0,0.429 c 0,0.582 -0.46,1.481 -1.75,1.481 -0.16,0 -0.75,0 -1.02,-0.469 -0.31,-0.121 -0.31,-0.231 -1.6,-2.891 -6.52,-14.492 -11.76,-19.57 -28.13,-19.57 l -17.26,0 c -3.01,0 -3.2,0.16 -3.2,1.059 0,0.113 0,0.543 0.46,2.14 l 6.8,26.961 11.33,0 c 7.97,0 9.14,-1.289 9.14,-4.648 0,-1.133 -0.31,-2.742 -0.74,-4.492 -0.28,-0.86 -0.28,-0.981 -0.28,-1.29 0,-0.16 0.12,-1.289 1.72,-1.289 1.45,0 1.45,0.43 1.88,2.188 l 5.51,21.992 c 0.31,1.289 0.31,1.481 0.31,1.598 0,1.019 -0.74,1.293 -1.6,1.293 -1.29,0 -1.45,-0.434 -2.03,-2.582 -2.19,-7.809 -5.24,-9.141 -13.75,-9.141 l -10.59,0 6.09,24.063 c 0.71,3.046 0.82,3.32 5.08,3.32 l 16.49,0 c 13.2,0 16.56,-2.731 16.56,-11.602 0,-2.73 -0.47,-5.66 -0.47,-6.211 0,-0.738 0.27,-1.757 1.76,-1.757 1.44,0 1.6,1.019 1.72,2.617 l 1.91,17.543 c 0.27,3.047 -0.43,3.047 -2.93,3.047 l -55.51,0 c -1.99,0 -3.36,0 -3.36,-2.149 0,-1.488 1.17,-1.488 3.52,-1.488 1.6,0 1.87,0 3.75,-0.113 2.03,-0.321 2.19,-0.469 2.19,-1.489 0,-0.699 -0.28,-1.718 -0.28,-2.148 l -13.36,-52.774 c -1.01,-3.91 -1.01,-4.648 -8.98,-4.648 -1.72,0 -3.05,0 -3.05,-2.148 0,-1.442 1.33,-1.442 3.05,-1.442 l 57.11,0 c 2.46,0 2.62,0 3.36,1.871 l 9.57,21.449 z" /><path
         id="path108"
         style="fill:none;stroke:#000000;stroke-opacity:1;stroke-width:8;stroke-linecap:butt;stroke-linejoin:miter;stroke-miterlimit:4;stroke-dasharray:none"
         d="m 2710,171.574 1648.59,0 0,638.399" /><path
         id="path110"
         style="fill:#000000;fill-opacity:1;fill-rule:evenodd;stroke:none"
         d="m 2795.55,136.059 -96.17,35.351 96.17,35.36 c -15.35,-20.86 -15.28,-49.418 0,-70.711 z" /><path
         id="path112"
         style="fill:none;stroke:#000000;stroke-opacity:1;stroke-width:8;stroke-linecap:butt;stroke-linejoin:miter;stroke-miterlimit:4;stroke-dasharray:none"
         d="m 568.48,809.973 363.668,0" /><path
         id="path114"
         style="fill:#000000;fill-opacity:1;fill-rule:evenodd;stroke:none"
         d="M 846.641,845.48 942.77,810.129 846.641,774.77 c 15.347,20.859 15.269,49.421 0,70.71 z" /><path
         id="path116"
         style="fill:none;stroke:#000000;stroke-opacity:1;stroke-width:8;stroke-linecap:butt;stroke-linejoin:miter;stroke-miterlimit:4;stroke-dasharray:none"
         d="m 1885.74,809.973 395.98,0" /><path
         id="path118"
         style="fill:#000000;fill-opacity:1;fill-rule:evenodd;stroke:none"
         d="m 2196.17,845.48 96.17,-35.351 -96.17,-35.359 c 15.39,20.859 15.28,49.421 0,70.71 z" /><path
         id="path120"
         style="fill:none;stroke:#000000;stroke-opacity:1;stroke-width:8;stroke-linecap:butt;stroke-linejoin:miter;stroke-miterlimit:4;stroke-dasharray:none"
         d="m 2710,809.973 331.33,0" /><path
         id="path122"
         style="fill:#000000;fill-opacity:1;fill-rule:evenodd;stroke:none"
         d="m 2955.82,845.48 96.13,-35.351 -96.13,-35.359 c 15.35,20.859 15.27,49.421 0,70.71 z" /><path
         id="path124"
         style="fill:none;stroke:#000000;stroke-opacity:1;stroke-width:8;stroke-linecap:butt;stroke-linejoin:miter;stroke-miterlimit:4;stroke-dasharray:none"
         d="m 3138.32,809.973 266.68,0" /><path
         id="path126"
         style="fill:#000000;fill-opacity:1;fill-rule:evenodd;stroke:none"
         d="m 3319.49,845.48 96.13,-35.351 -96.13,-35.359 c 15.35,20.859 15.28,49.421 0,70.71 z" /><path
         id="path128"
         style="fill:none;stroke:#000000;stroke-opacity:1;stroke-width:8;stroke-linecap:butt;stroke-linejoin:miter;stroke-miterlimit:4;stroke-dasharray:none"
         d="m 3833.32,809.973 1026.29,0" /><path
         id="path130"
         style="fill:#000000;fill-opacity:1;fill-rule:evenodd;stroke:none"
         d="m 4774.1,845.48 96.13,-35.351 -96.13,-35.359 c 15.35,20.859 15.28,49.421 0,70.71 z" /><path
         id="path132"
         style="fill:none;stroke:#000000;stroke-opacity:1;stroke-width:8;stroke-linecap:butt;stroke-linejoin:miter;stroke-miterlimit:4;stroke-dasharray:none"
         d="m 563.75,753.176 0.859,-589.692 1721.131,0" /><path
         id="path134"
         style="fill:#000000;fill-opacity:1;fill-rule:evenodd;stroke:none"
         d="m 528.359,667.629 35.231,96.172 35.469,-96.102 c -20.899,15.36 -49.45,15.199 -70.7,-0.07 z" /><path
         id="path136"
         style="fill:#ffffff;fill-opacity:1;fill-rule:nonzero;stroke:none"
         d="m 613.359,809.969 c 0,-24.77 -20.078,-44.879 -44.879,-44.879 -24.769,0 -44.851,20.109 -44.851,44.879 0,24.801 20.082,44.883 44.851,44.883 24.801,0 44.879,-20.082 44.879,-44.883 z" /><g
         transform="scale(0.92982,-1.07018)"
         id="g138"><path
           id="path140"
           style="fill:none;stroke:#000000;stroke-opacity:1;stroke-width:6.26579;stroke-linecap:butt;stroke-linejoin:miter;stroke-miterlimit:4;stroke-dasharray:none"
           d="m 659.654,-756.857 c 0,23.146 -21.594,41.943 -48.271,41.943 -26.63,0 -48.224,-18.797 -48.224,-41.943 0,-23.174 21.594,-41.976 48.224,-41.976 26.677,0 48.271,18.802 48.271,41.976 z" /></g><path
         id="path142"
         style="fill:none;stroke:#000000;stroke-opacity:1;stroke-width:8;stroke-linecap:butt;stroke-linejoin:miter;stroke-miterlimit:4;stroke-dasharray:none"
         d="m 85.9805,809.973 437.0705,0 -6.063,0" /><path
         id="path144"
         style="fill:#000000;fill-opacity:1;fill-rule:evenodd;stroke:none"
         d="m 431.449,845.48 96.172,-35.351 -96.172,-35.359 c 15.352,20.859 15.27,49.421 0,70.71 z" /><path
         id="path146"
         style="fill:none;stroke:#000000;stroke-opacity:1;stroke-width:8;stroke-linecap:butt;stroke-linejoin:miter;stroke-miterlimit:4;stroke-dasharray:none"
         d="m 3091.84,860.473 0,329.297" /><path
         id="path148"
         style="fill:#000000;fill-opacity:1;fill-rule:evenodd;stroke:none"
         d="m 3127.34,946.02 -35.35,-96.168 -35.35,96.168 c 20.86,-15.391 49.41,-15.27 70.7,0 z" /><g
         ns0:preamble=""
         ns0:text="$ \\frac{1}{Js}$"
         word-spacing="normal"
         letter-spacing="normal"
         font-size-adjust="none"
         font-stretch="normal"
         font-weight="normal"
         font-variant="normal"
         font-style="normal"
         stroke-miterlimit="10.433"
         xml:space="preserve"
         transform="matrix(23.121387,0,0,23.121387,-1670.2441,-15606.906)"
         id="content"
         style="font-style:normal;font-variant:normal;font-weight:normal;font-stretch:normal;letter-spacing:normal;word-spacing:normal;text-anchor:start;fill:none;stroke:#000000;stroke-linecap:butt;stroke-linejoin:miter;stroke-miterlimit:10.43299961;stroke-opacity:1;stroke-dasharray:none;stroke-dashoffset:0"><path
           id="path3200"
           d="m 229.39,715.47 0,0.01 0,0.01 0,0.01 0,0 0,0.01 0,0.01 0,0.01 0,0 0,0.01 0,0.01 0,0 0,0.01 -0.01,0 0,0.01 0,0.01 0,0 0,0.01 0,0 0,0.01 0,0.01 -0.01,0 0,0.01 0,0.01 -0.01,0 0,0.01 -0.01,0 -0.01,0.01 0,0 -0.01,0 -0.01,0.01 -0.01,0 -0.01,0 0,0 -0.01,0 0,0 -0.01,0 0,0 -0.01,0 -0.01,0 0,0 -0.01,0 -0.01,0 0,0 -0.01,0 -0.01,0 -0.01,0 0,0 -0.01,0 -0.01,0 -0.01,0 c -0.45,-0.43 -1.08,-0.44 -1.37,-0.44 v -0.25 c 0.17,0 0.63,0 1.01,0.19 v -3.54 c 0,-0.23 0,-0.32 -0.69,-0.32 h -0.27 v -0.25 c 0.13,0 0.99,0.03 1.24,0.03 0.22,0 1.1,-0.03 1.25,-0.03 v 0.25 h -0.26 c -0.7,0 -0.7,0.09 -0.7,0.32 z"
           inkscape:connector-curvature="0"
           style="fill:#000000;stroke-width:0" /><line
           id="line3202"
           y2="709.62"
           x2="233.45"
           y1="709.62"
           x1="224.63"
           style="stroke-width:0.398" /><path
           id="path3204"
           d="m 228.79,707.9 0,0.03 0.01,0.02 0,0.02 0.01,0.02 0,0.01 0.01,0.02 0,0.02 0.01,0.01 0.01,0.01 0,0.02 0.01,0.01 0.01,0.01 0,0.01 0.01,0.01 0.01,0.01 0.01,0.01 0.01,0 0.02,0.01 0.01,0.01 0.01,0 0.02,0.01 0.02,0 0.02,0.01 0.01,0 0.01,0 0.01,0 0.01,0 0.01,0 0.01,0 0.02,0 0.01,0.01 0.01,0 0.02,0 0.01,0 0.02,0 0.01,0 0.02,0 0.01,0 0.02,0 0.02,0 0.01,0 c 0.09,0 0.19,0 0.19,0.15 0,0.07 -0.06,0.1 -0.11,0.1 -0.17,0 -0.58,-0.03 -0.75,-0.03 -0.15,0 -0.38,0.01 -0.54,0.01 -0.17,0 -0.37,0.02 -0.55,0.02 -0.05,0 -0.15,0 -0.15,-0.15 0,-0.1 0.06,-0.1 0.27,-0.1 0.16,0 0.19,0 0.36,-0.02 0.21,-0.02 0.23,-0.04 0.23,-0.12 0,-0.05 0,-0.06 -0.03,-0.16 l -0.8,-3.18 c -0.13,-0.53 -0.58,-0.96 -1.03,-0.96 -0.1,0 -0.54,0.02 -0.7,0.36 0.41,0 0.49,0.32 0.49,0.45 0,0.19 -0.16,0.3 -0.32,0.3 -0.18,0 -0.46,-0.15 -0.46,-0.54 0,-0.46 0.42,-0.77 1.01,-0.77 0.68,0 1.45,0.44 1.63,1.13 z"
           inkscape:connector-curvature="0"
           style="fill:#000000;stroke-width:0" /><path
           id="path3206"
           d="m 232.69,706.3 -0.01,0 -0.02,0 -0.02,-0.01 -0.01,-0.01 -0.02,0 -0.01,-0.01 -0.02,-0.01 -0.01,0 -0.01,-0.01 -0.02,-0.01 -0.01,-0.01 -0.01,-0.01 -0.01,-0.01 -0.01,-0.01 -0.01,-0.01 -0.01,-0.01 -0.01,-0.01 -0.01,-0.01 -0.01,-0.02 -0.01,-0.01 0,-0.01 -0.01,-0.01 0,-0.02 -0.01,-0.01 0,-0.01 -0.01,-0.01 0,-0.02 0,-0.01 -0.01,-0.01 0,-0.02 0,-0.01 0,-0.01 c 0,-0.16 0.14,-0.22 0.23,-0.22 0.07,0 0.33,0.04 0.33,0.39 0,0.45 -0.5,0.61 -0.92,0.61 -1.09,0 -1.28,-0.8 -1.28,-1.02 0,-0.26 0.14,-0.42 0.24,-0.51 0.18,-0.14 0.31,-0.16 0.79,-0.25 0.14,-0.02 0.59,-0.11 0.59,-0.46 0,-0.11 -0.08,-0.38 -0.37,-0.55 -0.27,-0.15 -0.61,-0.15 -0.7,-0.15 -0.27,0 -0.67,0.06 -0.83,0.29 0.23,0.03 0.38,0.2 0.38,0.39 0,0.18 -0.12,0.26 -0.27,0.26 -0.2,0 -0.4,-0.16 -0.4,-0.47 0,-0.41 0.44,-0.67 1.12,-0.67 1.28,0 1.51,0.88 1.51,1.15 0,0.64 -0.7,0.76 -0.96,0.81 -0.06,0.01 -0.23,0.04 -0.27,0.06 -0.26,0.05 -0.39,0.19 -0.39,0.34 0,0.17 0.13,0.35 0.28,0.45 0.19,0.12 0.43,0.13 0.55,0.13 0.15,0 0.51,-0.02 0.66,-0.26 z"
           inkscape:connector-curvature="0"
           style="fill:#000000;stroke-width:0" /></g></g></g></svg>