<?xml version="1.0" encoding="UTF-8" standalone="no"?>
<!-- Created with Inkscape (http://www.inkscape.org/) -->

<svg
   xmlns:dc="http://purl.org/dc/elements/1.1/"
   xmlns:cc="http://creativecommons.org/ns#"
   xmlns:rdf="http://www.w3.org/1999/02/22-rdf-syntax-ns#"
   xmlns:svg="http://www.w3.org/2000/svg"
   xmlns="http://www.w3.org/2000/svg"
   xmlns:sodipodi="http://sodipodi.sourceforge.net/DTD/sodipodi-0.dtd"
   xmlns:inkscape="http://www.inkscape.org/namespaces/inkscape"
   id="svg2"
   version="1.1"
   inkscape:version="0.48.4 r9939"
   width="605"
   height="181.25"
   xml:space="preserve"
   sodipodi:docname="LQI.eps"><metadata
     id="metadata8"><rdf:RDF><cc:Work
         rdf:about=""><dc:format>image/svg+xml</dc:format><dc:type
           rdf:resource="http://purl.org/dc/dcmitype/StillImage" /><dc:title></dc:title></cc:Work></rdf:RDF></metadata><defs
     id="defs6" /><sodipodi:namedview
     pagecolor="#ffffff"
     bordercolor="#666666"
     borderopacity="1"
     objecttolerance="10"
     gridtolerance="10"
     guidetolerance="10"
     inkscape:pageopacity="0"
     inkscape:pageshadow="2"
     inkscape:window-width="1873"
     inkscape:window-height="1056"
     id="namedview4"
     showgrid="false"
     inkscape:zoom="3.2819105"
     inkscape:cx="363.44943"
     inkscape:cy="43.276888"
     inkscape:window-x="47"
     inkscape:window-y="157"
     inkscape:window-maximized="1"
     inkscape:current-layer="g12" /><g
     id="g10"
     inkscape:groupmode="layer"
     inkscape:label="ink_ext_XXXXXX"
     transform="matrix(1.25,0,0,-1.25,0,181.25)"><g
       id="g12"
       transform="scale(0.1,0.1)"><path
         d="m 3172.7,1434.87 0.15,0.28 0,0.27 0.12,0.43 0.15,0.27 0,0.28 0.12,0.27 0,0.27 0.16,0.28 0,0.11 0.12,0.28 0.15,0.15 0,0.28 0.12,0.12 0,0.15 0.27,0.27 0,0.12 0.28,0.28 0,0.15 0.15,0 0.12,0.12 0,0.16 0.16,0 0.11,0.11 0.16,0 0.12,0.16 0.27,0 0.16,0.12 0.27,0 c 1.21,0.27 5.7,0.27 8.55,0.27 13.64,0 19.77,-0.55 19.77,-11.02 0,-2.07 -0.55,-7.34 -1.09,-10.89 -0.12,-0.55 -0.39,-2.19 -0.39,-2.62 0,-0.82 0.39,-1.76 1.64,-1.76 1.48,0 1.75,1.21 2.03,3.13 l 3.67,23.59 c 0.12,0.55 0.27,1.91 0.27,2.3 0,1.49 -1.36,1.49 -3.67,1.49 l -75.23,0 c -3.25,0 -3.36,-0.12 -4.34,-2.7 l -8.16,-23.86 c -0.12,-0.28 -0.82,-2.19 -0.82,-2.47 0,-0.82 0.7,-1.48 1.6,-1.48 1.36,0 1.52,0.66 2.34,2.85 7.35,20.98 10.9,23.44 30.9,23.44 l 5.35,0 c 3.67,0 3.67,-0.55 3.67,-1.64 0,-0.82 -0.43,-2.46 -0.54,-2.85 l -18.13,-72.23 c -1.25,-5 -1.64,-6.52 -16.05,-6.52 -4.93,0 -5.75,0 -5.75,-2.62 0,-1.6 1.49,-1.6 2.31,-1.6 3.71,0 7.5,0.43 11.05,0.43 3.83,0 7.74,0.12 11.57,0.12 3.79,0 7.61,-0.12 11.32,-0.12 3.79,0 7.89,-0.43 11.68,-0.43 1.37,0 3.01,0 3.01,2.69 0,1.53 -1.09,1.53 -4.61,1.53 -3.4,0 -5.19,0 -8.71,0.27 -3.83,0.39 -4.92,0.82 -4.92,3.01 0,0.15 0,0.82 0.55,2.85 l 17.97,71.91 z"
         style="fill:#000000;fill-opacity:1;fill-rule:nonzero;stroke:none"
         id="path14" /><path
         d="m 3233.2,1389.25 0.12,0.27 0,0.28 0.16,0.43 0.11,0.27 0,0.12 0.28,0.54 0,0.28 0.27,0.27 0.16,0.27 0.27,0.28 0.27,0.15 0.12,0.12 1.09,0.55 0.28,0 0.27,0.15 0.28,0 0.27,0.12 0.7,0 0.12,0.12 1.6,0 0.31,0.11 3.28,0 c 2.86,0 3.79,0 3.79,2.08 0,0.11 0,1.36 -1.6,1.36 -2.19,0 -4.69,-0.15 -6.95,-0.27 -2.46,-0.16 -5.2,-0.16 -7.66,-0.16 -1.87,0 -4.49,0.16 -6.52,0.16 -1.92,0 -4.26,0.27 -6.13,0.27 -0.55,0 -2.04,0 -2.04,-2.07 0,-1.37 1.22,-1.37 3.13,-1.37 0,0 1.87,0 3.52,-0.11 2.07,-0.24 2.18,-0.39 2.18,-1.33 0,-0.16 0,-0.7 -0.39,-2.07 l -12.54,-50.39 c -0.97,-3.17 -1.09,-3.99 -8.47,-3.99 -1.6,0 -2.7,0 -2.7,-2.03 0,-1.33 1.1,-1.33 2.7,-1.33 l 47.85,0 c 2.3,0 2.46,0.12 3.12,1.88 0.98,2.58 8.05,20.98 8.05,21.68 0,0.27 -0.16,1.37 -1.52,1.37 -1.21,0 -1.37,-0.59 -1.88,-2.07 -3.67,-8.99 -7.77,-19.5 -25.23,-19.5 l -10.75,0 c -2.89,0 -3,0.16 -3,0.98 0,0.12 0,0.55 0.39,2.03 l 12.69,50.55 z"
         style="fill:#000000;fill-opacity:1;fill-rule:nonzero;stroke:none"
         id="path16" /><path
         d="m 4510.86,1002.84 0,2.27 -0.16,0.78 0,0.51 -0.19,0.78 0,0.58 -0.24,0.75 -0.15,0.58 -0.39,1.1 -0.16,0.58 -0.19,0.35 -0.2,0.59 -0.2,0.35 -0.39,0.59 -0.35,0.74 -0.39,0.35 -0.19,0.24 -0.36,0.35 -0.39,0.19 -0.15,0.35 -0.39,0.24 -0.75,0.35 -0.39,0.2 -0.39,0 -0.35,0.15 -0.39,0 -0.39,0.2 -0.35,0 c -4.88,0 -9.77,-4.5 -9.77,-8.83 0,-1.88 0.9,-3.95 2.82,-5.67 3,-2.772 6.36,-7.85 6.36,-15.541 0,-7.539 -3.55,-18.239 -9.18,-26.68 -5.66,-8.129 -12.61,-14.488 -21.44,-14.488 -10.7,0 -16.33,6.75 -18.05,16.75 2.07,4.89 6.21,16.879 6.21,22.148 0,2.27 -0.93,4.102 -3.2,4.102 -1.49,0 -3.56,-0.352 -5.04,-3.16 -2.07,-3.789 -4.34,-16.02 -4.34,-22.539 -6.21,-8.832 -13.71,-17.301 -25.39,-17.301 -12.38,0 -16.32,11.09 -16.32,21.398 0,23.321 18.94,43.051 18.94,45.511 0,2.03 -1.48,3.55 -3.32,3.55 -2.46,0 -3.79,-2.42 -4.92,-4.14 -9.57,-13.901 -16.72,-36.05 -16.72,-52.96 0,-12.969 4.3,-26.68 19.73,-26.68 13.16,0 21.99,9.18 28.75,19.532 1.68,-10.903 9.02,-19.532 20.5,-19.532 14.65,0 23.68,11.25 30.24,25.348 4.49,9.024 11.64,34.371 11.64,46.012 z"
         style="fill:#000000;fill-opacity:1;fill-rule:nonzero;stroke:none"
         id="path18" /><path
         d="m 4571.17,915.852 -0.19,-0.192 0,-0.551 -0.16,-0.199 0,-0.39 -0.2,-0.149 0,-0.59 -0.19,-0.742 -0.16,-0.59 -0.19,-0.539 0,-0.16 -0.24,-0.391 0,-0.589 -0.15,-0.149 0,-0.59 -0.2,-0.203 0,-0.777 -0.19,-0.153 0,-0.738 c 0,-2.859 2.26,-4.148 4.33,-4.148 2.42,0 4.49,1.718 5.28,2.859 0.54,1.289 1.68,5.43 2.26,8.238 0.71,2.422 2.03,8.442 2.97,11.641 0.78,2.809 1.52,5.859 2.07,8.828 1.52,5.66 1.52,5.82 4.14,9.961 4.14,6.402 10.7,13.75 20.86,13.75 7.31,0 7.89,-6.019 7.89,-9.059 0,-7.859 -5.82,-22.351 -7.89,-27.968 -1.33,-3.602 -1.87,-4.731 -1.87,-6.961 0,-6.949 5.86,-11.289 12.38,-11.289 13.16,0 18.79,18.047 18.79,19.929 0,1.868 -1.68,1.868 -2.03,1.868 -1.72,0 -1.92,-0.938 -2.46,-2.258 -3.01,-10.512 -8.64,-15.789 -13.91,-15.789 -2.62,0 -3.16,1.718 -3.16,4.539 0,3 0.54,4.679 2.96,10.5 1.53,4.14 7,18.051 7,25.39 0,2.039 0,7.5 -4.93,11.25 -2.26,1.68 -6.01,3.598 -12.18,3.598 -11.68,0 -19.03,-7.738 -23.13,-13.359 -1.13,11.289 -10.35,13.359 -17.11,13.359 -10.9,0 -18.2,-6.801 -21.95,-11.879 -0.98,8.828 -8.67,11.879 -14.14,11.879 -5.63,0 -8.63,-4.18 -10.31,-7.148 -2.86,-4.731 -4.69,-12.231 -4.69,-12.969 0,-1.684 1.83,-1.684 2.26,-1.684 1.84,0 1.84,0.352 2.78,3.953 2.11,7.649 4.53,14.098 9.61,14.098 3.4,0 4.29,-2.848 4.29,-6.449 0,-2.418 -1.13,-7.301 -2.03,-10.66 -0.97,-3.602 -2.26,-9.02 -2.85,-11.84 l -4.3,-16.762 c -0.39,-1.668 -1.32,-5.027 -1.32,-5.418 0,-2.859 2.46,-4.148 4.49,-4.148 2.26,0 4.53,1.718 5.12,2.859 0.7,1.289 1.68,5.43 2.42,8.238 0.54,2.422 2.03,8.442 2.81,11.641 0.78,2.809 1.48,5.859 2.27,8.828 1.48,5.274 1.68,6.363 5.43,11.684 3.75,5.226 9.76,12.027 19.72,12.027 7.54,0 7.74,-6.598 7.74,-9.059 0,-3.402 -0.39,-5.039 -2.27,-12.39 l -5.47,-21.988 z"
         style="fill:#000000;fill-opacity:1;fill-rule:nonzero;stroke:none"
         id="path20" /><path
         d="m 453.281,978.16 41.68,0 c 2.109,0 4.809,0 4.809,3 0,2.969 -2.7,2.969 -4.809,2.969 l -41.68,0 0,41.681 c 0,2.11 0,4.96 -3.011,4.96 -3,0 -3,-2.85 -3,-4.96 l 0,-41.681 -41.649,0 c -2.101,0 -4.961,0 -4.961,-2.969 0,-3 2.86,-3 4.961,-3 l 41.649,0 0,-41.68 c 0,-2.109 0,-4.968 3,-4.968 3.011,0 3.011,2.859 3.011,4.968 l 0,41.68 z"
         style="fill:#000000;fill-opacity:1;fill-rule:nonzero;stroke:none"
         id="path22" /><path
         d="m 688.91,711.238 2.141,0 0.16,0.203 0.777,0 0.121,0.188 0.469,0 0.152,0.242 0.161,0.188 0.16,0 0.148,0.242 0.16,0.187 0.161,0 0.152,0.203 0.156,0.231 0,0.199 0.152,0.231 0,0.386 0.161,0.242 0,0.622 0.16,0.199 0,0.621 c 0,4.219 -2.781,4.219 -5.391,4.219 l -82.859,0 c -2.61,0 -5.352,0 -5.352,-4.219 0,-4.184 2.742,-4.184 5.352,-4.184 l 82.859,0 z"
         style="fill:#000000;fill-opacity:1;fill-rule:nonzero;stroke:none"
         id="path24" /><path
         d="m 1552.19,990.109 41.68,0 c 2.11,0 4.8,0 4.8,3.012 0,3 -2.69,3 -4.8,3 l -41.68,0 0,41.679 c 0,2.07 0,4.93 -3.01,4.93 -3.01,0 -3.01,-2.86 -3.01,-4.93 l 0,-41.679 -41.68,0 c -2.07,0 -4.92,0 -4.92,-3 0,-3.012 2.85,-3.012 4.92,-3.012 l 41.68,0 0,-41.679 c 0,-2.071 0,-4.918 3.01,-4.918 3.01,0 3.01,2.847 3.01,4.918 l 0,41.679 z"
         style="fill:#000000;fill-opacity:1;fill-rule:nonzero;stroke:none"
         id="path26" /><path
         d="m 1886.13,692.41 2.19,0 0.12,0.199 0.78,0 0.16,0.192 0.46,0 0.16,0.238 0.16,0.191 0.15,0 0.16,0.239 0.15,0.191 0.16,0 0.16,0.199 0.11,0.231 0,0.199 0.16,0.191 0,0.43 0.16,0.238 0,0.622 0.15,0.199 0,0.621 c 0,4.219 -2.77,4.219 -5.39,4.219 l -82.81,0 c -2.62,0 -5.39,0 -5.39,-4.219 0,-4.18 2.77,-4.18 5.39,-4.18 l 82.81,0 z"
         style="fill:#000000;fill-opacity:1;fill-rule:nonzero;stroke:none"
         id="path28" /><g
         id="g30"
         transform="scale(10,10)"><text
           transform="matrix(1,0,0,-1,-0.391406,133.608)"
           id="text32"><tspan
             style="fill:#000000;fill-opacity:1;fill-rule:nonzero;stroke:none;font-family:Cmr10;font-variant:normal;font-weight:normal;font-size:11.7871;writing-mode:lr;-inkscape-font-specification:Cmr10"
             x="0 8.6753056 13.908778 17.5038435 22.7373159 27.346072 32.5795444 39.1213849 44.31960645"
             y="0"
             sodipodi:role="line"
             id="tspan34">Reference</tspan><tspan
             style="fill:#000000;fill-opacity:1;fill-rule:nonzero;stroke:none;font-family:Cmr10;font-variant:normal;font-weight:normal;font-size:11.7871;writing-mode:lr;-inkscape-font-specification:Cmr10"
             x="0 4.6441174 11.1859579 16.4194303 21.6529027"
             y="14.7344"
             sodipodi:role="line"
             id="tspan36">speed</tspan></text>
</g><path
         d="m 934.379,626.75 380,0 0,466.129 -380,0 0,-466.129 z"
         style="fill:#ffffff;fill-opacity:1;fill-rule:nonzero;stroke:none"
         id="path38" /><path
         d="m 934.379,626.75 380,0 0,466.129 -380,0 0,-466.129 z"
         style="fill:none;stroke:#000000;stroke-opacity:1;stroke-width:10.4983;stroke-linecap:butt;stroke-linejoin:miter;stroke-miterlimit:4;stroke-dasharray:none"
         id="path40" /><path
         d="m 1084.49,1003.27 0,0.47 0.28,0 0,0.98 0.23,0.19 0,0.71 0.23,0 0,0.27 c 0,0.7 -0.74,2.38 -2.89,2.38 -3.04,0 -16.87,-1.4 -21.17,-1.68 -1.21,-0.23 -3.55,-0.47 -3.55,-3.83 0,-2.34 2.34,-2.34 4.26,-2.34 8.08,0 8.08,-1.209 8.08,-2.658 0,-0.934 -0.47,-2.141 -0.7,-3.551 l -23.6,-93.672 c -0.7,-3.09 -0.7,-3.359 -0.7,-3.789 0,-2.422 1.88,-5.27 5.7,-5.27 4.3,0 6.68,3.348 7.66,6.95 0.2,0.699 7.34,29.761 8.09,32.148 11.68,-1.168 21.21,-5 21.21,-13.598 0,-0.699 0,-1.679 -0.24,-3.32 -0.74,-2.379 -0.74,-3.359 -0.74,-5.039 0,-11.871 9.53,-17.141 17.66,-17.141 15.97,0 20.97,25.27 20.97,25.27 0,2.148 -2.15,2.148 -2.65,2.148 -2.35,0 -2.58,-0.738 -3.32,-3.789 -1.88,-7.187 -6.41,-18.828 -14.53,-18.828 -4.5,0 -5.98,4.02 -5.98,8.547 0,2.863 0,3.094 1.21,7.434 0,0.429 0.74,3.316 0.74,5 0,14.718 -20.08,17.148 -26.95,17.566 4.8,3.133 10.98,8.602 13.83,10.981 8.36,8.132 16.68,15.742 25.97,15.742 2.15,0 4.3,-0.473 5.47,-2.141 -7.15,-1.18 -8.59,-6.648 -8.59,-9.301 0,-3.558 2.85,-6.168 6.68,-6.168 4.57,0 9.57,3.789 9.57,10.7 0,5.468 -4.1,11.679 -12.89,11.679 -9.53,0 -18.09,-6.91 -26.45,-14.769 -7.15,-6.442 -12.61,-11.68 -19.29,-14.571 l 16.4,66.29 z"
         style="fill:#000000;fill-opacity:1;fill-rule:nonzero;stroke:none"
         id="path42" /><path
         d="m 1203.2,892.18 -5,0 c -0.27,-2.149 -1.44,-9.489 -3.36,-10.7 -0.93,-0.71 -10.93,-0.71 -12.61,-0.71 l -23.36,0 c 7.89,5.71 16.68,12.39 23.83,17.152 10.74,7.379 20.5,14.34 20.5,26.68 0,15.269 -14.29,23.628 -31.25,23.628 -15.93,0 -27.65,-9.101 -27.65,-20.742 0,-6.207 5.27,-7.379 6.72,-7.379 3.36,0 7.1,2.153 7.1,7.153 0,4.25 -3.04,6.636 -6.87,6.867 3.32,5.512 10.27,8.832 18.32,8.832 11.48,0 20.98,-6.68 20.98,-18.359 0,-10 -6.88,-17.622 -15.94,-25.274 l -28.83,-24.527 c -1.21,-0.942 -1.48,-0.942 -1.48,-1.922 l 0,-3.551 55.08,0 3.82,22.852 z"
         style="fill:#000000;fill-opacity:1;fill-rule:nonzero;stroke:none"
         id="path44" /><path
         d="m 1032.54,855.27 193.55,0"
         style="fill:none;stroke:#000000;stroke-opacity:1;stroke-width:9.48534;stroke-linecap:butt;stroke-linejoin:miter;stroke-miterlimit:10.433;stroke-dasharray:none"
         id="path46" /><path
         d="m 1156.02,776.121 -0.75,0 -0.47,-0.23 -0.23,-0.2 -0.47,0 -0.23,-0.269 -0.47,-0.231 -0.28,0 -0.19,-0.242 -0.51,-0.23 -0.19,-0.278 -0.28,-0.23 -1.4,-1.41 -0.28,-0.473 -0.19,-0.226 0,-0.231 -0.28,-0.281 -0.23,-0.469 0,-0.23 -0.19,-0.231 0,-0.75 -0.28,-0.191 0,-1.207 c 0,-3.793 3.32,-5.242 5.47,-5.242 1.68,0 7.85,0.98 7.85,9.3 0,10.7 -11.87,14.532 -21.87,14.532 -25.98,0 -30.55,-19.063 -30.55,-24.34 0,-6.172 3.32,-10 5.74,-12.141 4.3,-3.32 7.38,-3.793 18.56,-5.941 3.59,-0.469 14.29,-2.621 14.29,-10.942 0,-2.66 -1.87,-9.097 -8.79,-13.117 -6.4,-3.562 -14.76,-3.562 -16.68,-3.562 -6.67,0 -15.97,1.41 -19.8,6.882 5.51,0.7 9.1,4.758 9.1,9.289 0,4.301 -3.12,6.211 -6.44,6.211 -4.81,0 -9.81,-3.82 -9.81,-11.211 0,-9.761 10.74,-15.968 26.95,-15.968 30.51,0 35.98,20.968 35.98,27.418 0,15.23 -16.68,18.082 -22.85,19.3 -1.45,0.231 -5.7,0.93 -6.68,1.442 -5.98,1.168 -9.06,4.488 -9.06,8.09 0,4.058 3.08,8.359 6.64,10.738 4.57,2.852 10.27,3.078 13.12,3.078 3.32,0 12.15,-0.457 15.75,-6.207 z"
         style="fill:#000000;fill-opacity:1;fill-rule:nonzero;stroke:none"
         id="path48" /><path
         d="m 1760.59,856.16 c 0,-24.762 -20.08,-44.84 -44.89,-44.84 -24.76,0 -44.88,20.078 -44.88,44.84 0,24.809 20.12,44.891 44.88,44.891 24.81,0 44.89,-20.082 44.89,-44.891 z"
         style="fill:#ffffff;fill-opacity:1;fill-rule:nonzero;stroke:none"
         id="path50" /><g
         id="g52"
         transform="scale(0.929821,-1.07018)"><path
           d="m 1893.47,-800.023 c 0,23.145 -21.6,41.91 -48.27,41.91 -26.63,0 -48.28,-18.765 -48.28,-41.91 0,-23.174 21.65,-41.936 48.28,-41.936 26.67,0 48.27,18.762 48.27,41.936 z"
           style="fill:none;stroke:#000000;stroke-opacity:1;stroke-width:6.26579;stroke-linecap:butt;stroke-linejoin:miter;stroke-miterlimit:4;stroke-dasharray:none"
           id="path54" /></g><path
         d="m 4353.05,849.41 c 0,-16.531 -13.4,-29.93 -29.93,-29.93 -16.52,0 -29.92,13.399 -29.92,29.93 0,16.52 13.4,29.918 29.92,29.918 16.53,0 29.93,-13.398 29.93,-29.918 z"
         style="fill:#000000;fill-opacity:1;fill-rule:nonzero;stroke:none"
         id="path56" /><g
         id="g58"
         transform="scale(0.929821,-1.07018)"><path
           d="m 4681.6,-793.705 c 0,15.444 -14.42,27.956 -32.18,27.956 -17.77,0 -32.18,-12.512 -32.18,-27.956 0,-15.44 14.41,-27.959 32.18,-27.959 17.76,0 32.18,12.519 32.18,27.959 z"
           style="fill:none;stroke:#000000;stroke-opacity:1;stroke-width:4.17718;stroke-linecap:butt;stroke-linejoin:miter;stroke-miterlimit:4;stroke-dasharray:none"
           id="path60" /></g><path
         d="m 2258.48,83.8203 370.59,0 0,286.988 -370.59,0 0,-286.988 z"
         style="fill:#ffffff;fill-opacity:1;fill-rule:nonzero;stroke:none"
         id="path62" /><path
         d="m 2258.48,83.8164 370.59,0 0,286.992 -370.59,0 0,-286.992 z"
         style="fill:none;stroke:#000000;stroke-opacity:1;stroke-width:8.70309;stroke-linecap:butt;stroke-linejoin:miter;stroke-miterlimit:4;stroke-dasharray:none"
         id="path64" /><path
         d="m 2638.36,217.297 677.81,-2.109 -2.15,474.839"
         style="fill:none;stroke:#000000;stroke-opacity:1;stroke-width:8;stroke-linecap:butt;stroke-linejoin:miter;stroke-miterlimit:4;stroke-dasharray:none"
         id="path66" /><path
         d="m 2723.75,181.551 -96.02,35.668 96.25,35.043 c -15.43,-20.821 -15.43,-49.383 -0.23,-70.711 z"
         style="fill:#000000;fill-opacity:1;fill-rule:evenodd;stroke:none"
         id="path68" /><path
         d="m 532.539,857.137 363.672,0"
         style="fill:none;stroke:#000000;stroke-opacity:1;stroke-width:8;stroke-linecap:butt;stroke-linejoin:miter;stroke-miterlimit:4;stroke-dasharray:none"
         id="path70" /><path
         d="m 810.66,892.648 96.18,-35.347 -96.18,-35.36 c 15.36,20.86 15.281,49.418 0,70.707 z"
         style="fill:#000000;fill-opacity:1;fill-rule:evenodd;stroke:none"
         id="path72" /><path
         d="m 1755.82,857.137 701.37,0"
         style="fill:none;stroke:#000000;stroke-opacity:1;stroke-width:8;stroke-linecap:butt;stroke-linejoin:miter;stroke-miterlimit:4;stroke-dasharray:none"
         id="path74" /><path
         d="m 2371.68,892.648 96.13,-35.347 -96.13,-35.36 c 15.35,20.86 15.23,49.418 0,70.707 z"
         style="fill:#000000;fill-opacity:1;fill-rule:evenodd;stroke:none"
         id="path76" /><path
         d="m 1312.38,857.809 345.47,-0.672"
         style="fill:none;stroke:#000000;stroke-opacity:1;stroke-width:8;stroke-linecap:butt;stroke-linejoin:miter;stroke-miterlimit:4;stroke-dasharray:none"
         id="path78" /><path
         d="m 1572.42,892.801 96.06,-35.539 -96.21,-35.16 c 15.39,20.859 15.35,49.41 0.15,70.699 z"
         style="fill:#000000;fill-opacity:1;fill-rule:evenodd;stroke:none"
         id="path80" /><path
         d="m 3797.34,857.137 1026.33,0"
         style="fill:none;stroke:#000000;stroke-opacity:1;stroke-width:8;stroke-linecap:butt;stroke-linejoin:miter;stroke-miterlimit:4;stroke-dasharray:none"
         id="path82" /><path
         d="m 4738.12,892.648 96.18,-35.347 -96.18,-35.36 c 15.4,20.86 15.28,49.418 0,70.707 z"
         style="fill:#000000;fill-opacity:1;fill-rule:evenodd;stroke:none"
         id="path84" /><path
         d="m 1719.3,800.77 -0.43,-590.543 c 534.96,-0.118 355.15,0.511 535.23,0.429"
         style="fill:none;stroke:#000000;stroke-opacity:1;stroke-width:8;stroke-linecap:butt;stroke-linejoin:miter;stroke-miterlimit:4;stroke-dasharray:none"
         id="path86" /><path
         d="m 1683.75,715.262 35.39,96.136 35.31,-96.168 c -20.86,15.348 -49.41,15.309 -70.7,0.032 z"
         style="fill:#000000;fill-opacity:1;fill-rule:evenodd;stroke:none"
         id="path88" /><path
         d="m 577.422,857.141 c 0,-24.77 -20.121,-44.84 -44.883,-44.84 -24.809,0 -44.879,20.07 -44.879,44.84 0,24.8 20.07,44.879 44.879,44.879 24.762,0 44.883,-20.079 44.883,-44.879 z"
         style="fill:#ffffff;fill-opacity:1;fill-rule:nonzero;stroke:none"
         id="path90" /><g
         id="g92"
         transform="scale(0.929821,-1.07018)"><path
           d="m 620.999,-800.928 c 0,23.134 -21.631,41.899 -48.262,41.899 -26.681,0 -48.274,-18.765 -48.274,-41.899 0,-23.186 21.593,-41.94 48.274,-41.94 26.631,0 48.262,18.754 48.262,41.94 z"
           style="fill:none;stroke:#000000;stroke-opacity:1;stroke-width:6.26579;stroke-linecap:butt;stroke-linejoin:miter;stroke-miterlimit:4;stroke-dasharray:none"
           id="path94" /></g><path
         d="m 50,857.137 437.07,0 -6.05,0"
         style="fill:none;stroke:#000000;stroke-opacity:1;stroke-width:8;stroke-linecap:butt;stroke-linejoin:miter;stroke-miterlimit:4;stroke-dasharray:none"
         id="path96" /><path
         d="m 395.512,892.648 96.129,-35.347 -96.129,-35.36 c 15.347,20.86 15.269,49.418 0,70.707 z"
         style="fill:#000000;fill-opacity:1;fill-rule:evenodd;stroke:none"
         id="path98" /><path
         d="m 3198.59,1047.45 0,244.46"
         style="fill:none;stroke:#000000;stroke-opacity:1;stroke-width:8;stroke-linecap:butt;stroke-linejoin:miter;stroke-miterlimit:4;stroke-dasharray:none"
         id="path100" /><path
         d="m 3234.1,1132.96 -35.35,-96.13 -35.35,96.13 c 20.86,-15.35 49.41,-15.27 70.7,0 z"
         style="fill:#000000;fill-opacity:1;fill-rule:evenodd;stroke:none"
         id="path102" /><path
         d="m 3487.46,505.5 0,0.551 0.16,0.5 0.19,0.551 0.16,0.699 0.19,0.75 0.16,0.699 0.2,0.699 0.35,0.903 0.19,0.699 1.06,2.699 0.35,0.859 0.55,0.903 0.35,0.898 0.54,0.891 0.51,0.898 0.55,0.711 0.55,0.891 0.7,0.711 0.7,0.898 0.74,0.699 0.71,0.7 0.7,0.55 1.8,1.09 0.35,0.16 0.55,0.352 0.35,0.199 0.5,0.149 0.55,0.203 0.55,0 0.51,0.148 0.39,0.199 1.25,0 0.51,0.192 0.54,0 c 0.9,0 5.16,0 8.91,-2.34 -5,-0.902 -8.56,-5.352 -8.56,-9.609 0,-2.852 1.96,-6.25 6.76,-6.25 3.95,0 9.65,3.199 9.65,10.347 0,9.262 -10.51,11.762 -16.6,11.762 -10.31,0 -16.56,-9.449 -18.52,-13.551 -4.45,11.75 -14.1,13.551 -19.26,13.551 -18.35,0 -28.55,-23.012 -28.55,-27.27 0,-1.793 1.8,-1.793 2.15,-1.793 1.44,0 1.95,0.352 2.34,1.954 6.06,18.707 17.62,23.199 23.71,23.199 3.36,0 9.61,-1.602 9.61,-11.949 0,-5.551 -3.01,-17.301 -9.61,-42.114 -2.85,-11.047 -9.1,-18.508 -16.75,-18.508 -1.1,0 -5.2,0 -8.95,2.301 4.45,0.899 8.4,4.649 8.4,9.649 0,4.8 -3.95,6.211 -6.6,6.211 -5.35,0 -9.81,-4.61 -9.81,-10.313 0,-8.207 8.91,-11.598 16.76,-11.598 11.6,0 18.01,12.301 18.55,13.348 2.11,-6.598 8.56,-13.348 19.07,-13.348 18.36,0 28.51,22.809 28.51,27.258 0,1.801 -1.6,1.801 -2.11,1.801 -1.6,0 -1.99,-0.898 -2.34,-1.961 -5.86,-19.098 -18.01,-23.348 -23.71,-23.348 -6.76,0 -9.61,5.7 -9.61,11.75 0,3.911 1.05,7.848 3.01,15.508 l 6.09,24.262 z"
         style="fill:#000000;fill-opacity:1;fill-rule:nonzero;stroke:none"
         id="path104" /><path
         d="m 4324.73,857.137 0,-843.1175 -3795.75,0 -1.011,795.1485"
         style="fill:none;stroke:#000000;stroke-opacity:1;stroke-width:8;stroke-linecap:butt;stroke-linejoin:miter;stroke-miterlimit:4;stroke-dasharray:none"
         id="path106" /><path
         d="m 492.621,723.621 35.231,96.18 35.468,-96.102 c -20.898,15.313 -49.449,15.199 -70.699,-0.078 z"
         style="fill:#000000;fill-opacity:1;fill-rule:evenodd;stroke:none"
         id="path108" /><path
         d="m 2463.55,694.371 1497.77,0 0,338.117 -1497.77,0 0,-338.117 z"
         style="fill:#ffffff;fill-opacity:1;fill-rule:nonzero;stroke:none"
         id="path110" /><path
         d="m 2463.55,694.367 1497.77,0 0,338.121 -1497.77,0 0,-338.121 z"
         style="fill:none;stroke:#000000;stroke-opacity:1;stroke-width:10.7424;stroke-linecap:butt;stroke-linejoin:miter;stroke-miterlimit:4;stroke-dasharray:none"
         id="path112" /><g
         id="g3125"
         transform="matrix(0.94405594,0,0,0.94405594,160.92979,44.370407)"><path
           id="path114"
           style="fill:#000000;fill-opacity:1;fill-rule:nonzero;stroke:none"
           d="m 2651.13,918.121 0,1.438 -0.15,0.351 0,0.551 -0.2,0.348 -0.19,0.55 -0.16,0.391 -0.2,0.352 -0.15,0.347 -0.2,0.551 -0.35,0.352 -0.19,0.347 -0.36,0.391 -0.19,0.351 -0.7,0.707 -0.36,0.192 -0.39,0.351 -0.35,0.2 -0.35,0.347 -0.35,0.16 -0.39,0.391 -0.51,0.152 -0.39,0.2 -0.51,0.187 -0.39,0 -0.51,0.16 -0.39,0 -0.54,0.203 -1.06,0 c -5.94,0 -9.57,-5.043 -9.57,-9.57 0,-4.691 4.14,-9.34 9.38,-9.34 6.13,0 9.72,5.039 9.72,9.34 z"
           inkscape:connector-curvature="0" /><path
           id="path116"
           style="fill:#000000;fill-opacity:1;fill-rule:nonzero;stroke:none"
           d="m 2645.39,861.941 0,0.508 0.16,0.551 0.19,0.551 0.16,0.738 0.39,1.402 0.16,0.75 0.39,0.887 0.15,0.711 0.35,0.902 0.39,0.93 0.71,1.801 0.54,0.898 0.36,0.899 1.09,1.793 0.55,0.707 0.5,0.902 0.75,0.738 0.7,0.903 0.74,0.699 0.71,0.738 0.74,0.551 0.9,0.512 0.89,0.539 0.36,0.199 0.54,0.352 0.35,0.199 0.55,0.148 0.55,0.199 0.54,0 0.51,0.192 0.39,0.16 1.25,0 0.55,0.191 0.55,0 c 0.9,0 5.19,0 8.98,-2.339 -5.04,-0.903 -8.63,-5.43 -8.63,-9.731 0,-2.891 1.95,-6.32 6.83,-6.32 3.95,0 9.73,3.238 9.73,10.461 0,9.379 -10.62,11.879 -16.76,11.879 -10.43,0 -16.75,-9.532 -18.71,-13.672 -4.53,11.871 -14.26,13.672 -19.45,13.672 -18.56,0 -28.83,-23.243 -28.83,-27.539 0,-1.801 1.8,-1.801 2.15,-1.801 1.44,0 1.99,0.359 2.34,1.961 6.14,18.898 17.85,23.429 23.95,23.429 3.44,0 9.73,-1.64 9.73,-12.07 0,-5.582 -3.05,-17.461 -9.73,-42.5 -2.85,-11.172 -9.18,-18.75 -16.92,-18.75 -1.09,0 -5.23,0 -9.02,2.348 4.53,0.902 8.48,4.691 8.48,9.722 0,4.848 -3.95,6.289 -6.68,6.289 -5.39,0 -9.89,-4.679 -9.89,-10.429 0,-8.281 8.99,-11.723 16.92,-11.723 11.72,0 18.2,12.434 18.75,13.524 2.15,-6.68 8.63,-13.524 19.26,-13.524 18.55,0 28.83,23.051 28.83,27.582 0,1.801 -1.61,1.801 -2.15,1.801 -1.64,0 -2,-0.902 -2.35,-1.992 -5.93,-19.258 -18.2,-23.598 -23.98,-23.598 -6.84,0 -9.73,5.789 -9.73,11.879 0,3.98 1.1,7.93 3.09,15.699 l 6.13,24.492 z"
           inkscape:connector-curvature="0" /><path
           id="path118"
           style="fill:#000000;fill-opacity:1;fill-rule:nonzero;stroke:none"
           d="m 2860.98,866.441 1.44,0 0.35,0.188 1.29,0 0.16,0.16 0.55,0 0.19,0.191 0.16,0 0.39,0.161 0.15,0 0.2,0.187 0.16,0.203 0.19,0.16 0.2,0.188 0,0.16 0.15,0 0,0.191 0.2,0.2 0,0.148 0.15,0.203 0,0.899 0.2,0 0,0.351 c 0,3.59 -3.44,3.59 -5.94,3.59 l -107.34,0 c -2.54,0 -5.98,0 -5.98,-3.59 0,-3.59 3.44,-3.59 6.13,-3.59 l 107,0 z"
           inkscape:connector-curvature="0" /><path
           id="path120"
           style="fill:#000000;fill-opacity:1;fill-rule:nonzero;stroke:none"
           d="m 2861.17,831.871 2.7,0 0.19,0.149 0.51,0 0.2,0.199 0.19,0 0.35,0.152 0.2,0 0.15,0.199 0.2,0 0.16,0.192 0.19,0.16 0.2,0.199 0,0.149 0.15,0.199 0,0.191 0.2,0 0,0.352 0.15,0 0,0.898 0.2,0.199 0,0.352 c 0,3.398 -3.44,3.398 -6.13,3.398 l -107,0 c -2.69,0 -6.13,0 -6.13,-3.398 0,-3.59 3.44,-3.59 5.98,-3.59 l 107.34,0 z"
           inkscape:connector-curvature="0" /><path
           id="path122"
           style="fill:#000000;fill-opacity:1;fill-rule:nonzero;stroke:none"
           d="m 2959.34,828.621 -0.71,-1.09 -0.54,-1.09 -0.75,-1.062 -0.7,-0.938 -0.74,-0.89 -0.51,-0.711 -0.74,-0.899 -0.7,-0.742 -0.55,-0.699 -0.74,-0.699 -0.71,-0.551 -0.74,-0.551 -0.51,-0.539 -0.74,-0.551 -0.7,-0.347 -0.74,-0.551 -0.55,-0.352 -1.41,-0.699 -0.74,-0.398 -0.7,-0.153 -0.74,-0.199 -0.55,-0.351 -0.71,-0.188 -0.7,-0.16 -0.74,-0.199 -0.7,0 -0.75,-0.192 -1.44,-0.16 -1.45,-0.191 c -2.14,-0.16 -3.75,-0.16 -3.75,-3.598 0,-1.09 0.9,-1.992 2.35,-1.992 4.65,0 10.23,0.742 15.27,0.742 5.98,0 12.27,-0.742 18.05,-0.742 1.05,0 3.4,0 3.4,3.441 0,1.989 -1.61,2.149 -2.89,2.149 -4.15,0.351 -8.44,1.793 -8.44,6.332 0,2.14 1.05,4.14 2.5,6.64 l 13.71,22.887 44.84,0 -0.54,5.582 -41.06,0 35.31,59.07 5.75,-59.07 0.54,-5.582 c 0.35,-3.789 2.89,-28.129 2.89,-29.918 0,-5.398 -9.37,-5.941 -12.97,-5.941 -2.34,0 -4.14,0 -4.14,-3.598 0,-1.992 2.15,-1.992 2.5,-1.992 7.23,0 14.96,0.742 22.35,0.742 4.49,0 15.66,-0.742 20.15,-0.742 1.1,0 3.25,0 3.25,3.601 0,1.989 -1.8,1.989 -4.14,1.989 -10.98,0 -10.98,1.25 -11.53,6.48 l -10.97,111.879 c -0.36,3.594 -0.36,4.293 -3.44,4.293 -2.85,0 -3.6,-1.25 -4.69,-3.043 l -62.3,-104.457 z"
           inkscape:connector-curvature="0" /><path
           id="path124"
           style="fill:#000000;fill-opacity:1;fill-rule:nonzero;stroke:none"
           d="m 3121.64,861.941 0.16,0.508 0.39,1.102 0.15,0.738 0.2,0.699 0.16,0.703 0.19,0.75 0.35,0.887 0.2,0.711 0.35,0.902 0.35,0.93 0.35,0.899 0.39,0.902 0.35,0.898 1.1,1.801 0.51,0.891 0.54,0.707 0.55,0.902 0.74,0.738 0.51,0.903 0.74,0.699 0.9,0.738 0.7,0.551 0.9,0.512 0.74,0.539 0.55,0.199 0.51,0.352 0.39,0.199 0.55,0.148 0.5,0.199 0.55,0 0.35,0.192 0.55,0.16 1.29,0 0.51,0.191 0.54,0 c 0.9,0 5.24,0 9.03,-2.339 -5.04,-0.903 -8.68,-5.43 -8.68,-9.731 0,-2.891 2,-6.32 6.88,-6.32 3.94,0 9.53,3.238 9.53,10.461 0,9.379 -10.43,11.879 -16.56,11.879 -10.47,0 -16.76,-9.532 -18.91,-13.672 -4.33,11.871 -14.06,13.672 -19.29,13.672 -18.72,0 -28.83,-23.243 -28.83,-27.539 0,-1.801 1.83,-1.801 2.18,-1.801 1.45,0 1.96,0.359 2.35,1.961 6.09,18.898 17.81,23.429 23.94,23.429 3.44,0 9.73,-1.64 9.73,-12.07 0,-5.582 -3.05,-17.461 -9.73,-42.5 -2.89,-11.172 -9.18,-18.75 -16.91,-18.75 -1.29,0 -5.23,0 -9.02,2.348 4.49,0.902 8.47,4.691 8.47,9.722 0,4.848 -3.98,6.289 -6.68,6.289 -5.39,0 -9.92,-4.679 -9.92,-10.429 0,-8.281 9.02,-11.723 16.76,-11.723 11.91,0 18.4,12.434 18.94,13.524 2.15,-6.68 8.64,-13.524 19.26,-13.524 18.56,0 28.83,23.051 28.83,27.582 0,1.801 -1.64,1.801 -2.19,1.801 -1.6,0 -1.95,-0.902 -2.34,-1.992 -5.94,-19.258 -18.17,-23.598 -23.95,-23.598 -6.83,0 -9.72,5.789 -9.72,11.879 0,3.98 1.09,7.93 3.08,15.699 l 5.94,24.492 z"
           inkscape:connector-curvature="0" /><path
           id="path126"
           style="fill:#000000;fill-opacity:1;fill-rule:nonzero;stroke:none"
           d="m 3277.62,849.129 49.88,0 c 2.54,0 5.94,0 5.94,3.601 0,3.629 -3.4,3.629 -5.94,3.629 l -49.88,0 0,50.082 c 0,2.5 0,5.93 -3.6,5.93 -3.59,0 -3.59,-3.43 -3.59,-5.93 l 0,-50.082 -50.27,0 c -2.35,0 -5.78,0 -5.78,-3.629 0,-3.601 3.43,-3.601 5.78,-3.601 l 50.27,0 0,-50.078 c 0,-2.5 0,-5.93 3.59,-5.93 3.6,0 3.6,3.43 3.6,5.93 l 0,50.078 z"
           inkscape:connector-curvature="0" /><path
           id="path128"
           style="fill:#000000;fill-opacity:1;fill-rule:nonzero;stroke:none"
           d="m 3426.56,930.191 0,0.539 -0.15,0 0,0.348 -0.2,0.203 0,0.199 -0.16,0 0,0.149 -0.19,0 0,0.199 -0.2,0 -0.15,0.152 -0.55,0 0,0.2 -0.7,0 c -4.18,0 -17.15,-1.45 -21.8,-1.801 -1.44,-0.188 -3.44,-0.348 -3.44,-3.59 0,-2.187 1.6,-2.187 4.34,-2.187 8.44,0 8.83,-1.25 8.83,-3.051 0,-1.25 -1.64,-7.223 -2.35,-10.973 l -14.76,-58.359 c -2.19,-9.028 -2.89,-11.918 -2.89,-18.008 0,-17.152 9.53,-28.133 22.69,-28.133 l 0,3.793 c -6.13,0 -11.91,4.848 -11.91,18.207 0,3.402 0,6.641 2.89,18 l 3.98,16.57 c 0.9,3.793 0.9,4.141 2.5,6.133 8.83,11.719 16.96,14.41 21.64,14.41 6.49,0 11.33,-5.429 11.33,-16.953 0,-10.429 -5.93,-30.976 -9.18,-37.808 -5.93,-12.071 -14.22,-18.559 -21.25,-18.559 l 0,-3.793 c 21.25,0 43.21,26.684 43.21,52.434 0,16.207 -9.54,28.629 -23.75,28.629 -8.29,0 -15.67,-5.231 -21.1,-10.782 l 13.32,53.832 z"
           inkscape:connector-curvature="0" /><path
           id="path130"
           style="fill:#000000;fill-opacity:1;fill-rule:nonzero;stroke:none"
           d="m 3523.48,817.961 0.19,-0.699 0.2,-0.551 0.35,-0.699 0.16,-0.551 0.39,-0.742 0.35,-0.508 0.15,-0.551 0.39,-0.539 0.51,-0.551 0.39,-0.55 0.35,-0.54 0.55,-0.511 0.35,-0.391 0.55,-0.508 0.55,-0.39 0.89,-0.899 0.55,-0.16 0.51,-0.391 0.74,-0.351 0.55,-0.348 0.51,-0.203 0.74,-0.348 0.55,-0.152 0.7,-0.199 0.55,-0.188 0.7,-0.16 0.74,0 0.7,-0.203 2.19,0 c 6.09,0 10.27,3.992 13.13,9.731 3.08,6.492 5.43,17.461 5.43,17.851 0,1.801 -1.64,1.801 -2.19,1.801 -1.8,0 -1.95,-0.902 -2.5,-3.242 -2.54,-10.078 -5.94,-22.348 -13.32,-22.348 -3.79,0 -5.59,2.348 -5.59,8.289 0,3.981 2.15,12.418 3.6,18.551 l 5.03,19.449 c 0.36,2.699 2.15,9.379 2.9,12.07 0.89,4.141 2.69,10.981 2.69,12.071 0,3.25 -2.54,4.847 -5.23,4.847 -0.71,0 -5.39,-0.16 -6.84,-6.289 -3.44,-13.168 -11.37,-44.488 -13.52,-53.871 -0.19,-0.699 -7.38,-15.117 -20.35,-15.117 -9.37,0 -11.17,8.09 -11.17,14.77 0,9.918 5.04,24.14 9.73,36.558 2.15,5.242 3.08,7.742 3.08,11.172 0,8.129 -5.78,14.77 -14.8,14.77 -17.11,0 -23.59,-25.942 -23.59,-27.539 0,-1.801 1.79,-1.801 2.18,-1.801 1.8,0 1.96,0.359 2.85,3.25 4.34,15.461 11.18,22.14 18.05,22.14 1.6,0 4.49,-0.191 4.49,-5.929 0,-4.34 -1.99,-9.571 -3.08,-12.274 -6.64,-17.66 -10.43,-28.828 -10.43,-37.457 0,-17.109 12.42,-21.453 22.15,-21.453 11.72,0 18.2,7.934 21.25,11.883 z"
           inkscape:connector-curvature="0" /><path
           id="path132"
           style="fill:#000000;fill-opacity:1;fill-rule:nonzero;stroke:none"
           d="m 3676.6,849.129 50.08,0 c 2.5,0 5.94,0 5.94,3.601 0,3.629 -3.44,3.629 -5.94,3.629 l -50.08,0 0,50.082 c 0,2.5 0,5.93 -3.59,5.93 -3.63,0 -3.63,-3.43 -3.63,-5.93 l 0,-50.082 -50.08,0 c -2.5,0 -5.94,0 -5.94,-3.629 0,-3.601 3.44,-3.601 5.94,-3.601 l 50.08,0 0,-50.078 c 0,-2.5 0,-5.93 3.63,-5.93 3.59,0 3.59,3.43 3.59,5.93 l 0,50.078 z"
           inkscape:connector-curvature="0" /><path
           id="path134"
           style="fill:#000000;fill-opacity:1;fill-rule:nonzero;stroke:none"
           d="m 3875.27,930.191 0,0.539 -0.19,0.2 0,0.148 -0.16,0.203 0,0.199 -0.19,0 0,0.149 -0.16,0 0,0.199 -0.19,0 -0.2,0.152 -0.55,0 0,0.2 -0.7,0 c -2.7,0 -19.65,-1.602 -22.7,-1.989 -1.44,-0.16 -2.53,-1.062 -2.53,-3.402 0,-2.187 1.64,-2.187 4.33,-2.187 8.63,0 8.83,-1.25 8.83,-3.051 l -0.55,-3.59 -10.62,-42.34 c -3.24,6.68 -8.48,11.52 -16.57,11.52 -20.89,0 -43.24,-26.481 -43.24,-52.582 0,-16.758 9.92,-28.481 23.99,-28.481 l 0.35,3.793 c -9.02,0 -11.52,9.93 -11.52,16.918 0,8.832 5.74,31.012 9.88,39.102 5.58,10.621 13.71,17.3 20.74,17.3 11.68,0 14.22,-14.761 14.22,-15.863 0,-1.09 -0.35,-2.137 -0.55,-3.039 l -9.02,-34.961 c -0.9,-3.25 -0.9,-3.598 -3.59,-6.68 -7.93,-9.886 -15.12,-12.777 -20.16,-12.777 l -0.35,-3.793 c 3.59,0 12.58,0.551 23.2,13.332 1.45,-7.539 7.77,-13.332 16.41,-13.332 6.13,0 10.27,3.992 13.16,9.731 3.05,6.492 5.39,17.461 5.39,17.851 0,1.801 -1.64,1.801 -2.15,1.801 -1.79,0 -1.99,-0.902 -2.54,-3.242 -3.04,-11.719 -6.13,-22.348 -13.51,-22.348 -4.85,0 -5.39,4.688 -5.39,8.289 0,4.328 0.35,5.578 1.09,8.629 l 25.74,103.402 z"
           inkscape:connector-curvature="0" /></g><path
         d="m 2226.37,940.379 0.39,-0.82 0.23,-0.547 0.16,-0.782 0.39,-0.582 0.19,-0.738 0.79,-1.18 0.35,-0.582 0.78,-1.136 0.58,-0.582 0.39,-0.59 0.55,-0.391 0.39,-0.539 1.17,-0.832 0.59,-0.539 0.55,-0.199 0.62,-0.391 1.13,-0.777 0.75,-0.16 0.62,-0.434 0.74,-0.148 0.59,-0.239 0.78,-0.152 0.74,-0.199 0.59,0 0.78,-0.192 2.31,0 c 6.71,0 11.17,4.262 14.25,10.391 3.28,6.949 5.55,18.672 5.55,19.063 0,1.91 -1.68,1.91 -2.27,1.91 -1.75,0 -1.95,-0.934 -2.5,-3.434 -2.73,-10.816 -6.36,-23.906 -14.45,-23.906 -4.06,0 -5.98,2.5 -5.98,8.867 0,4.223 2.31,13.32 3.87,19.84 l 5.35,20.781 c 0.59,2.891 2.5,10.039 3.28,12.93 0.98,4.422 2.93,11.72 2.93,12.89 0,3.48 -2.73,5.2 -5.62,5.2 -0.94,0 -5.94,-0.2 -7.5,-6.72 -3.67,-14.062 -12.15,-47.581 -14.41,-57.581 -0.24,-0.777 -7.74,-16.207 -21.8,-16.207 -10,0 -11.95,8.707 -11.95,15.816 0,10.59 5.43,25.782 10.43,39.063 2.3,5.59 3.28,8.277 3.28,11.961 0,8.668 -6.18,15.778 -15.82,15.778 -18.09,0 -25.2,-27.739 -25.2,-29.462 0,-1.906 1.92,-1.906 2.31,-1.906 1.91,0 2.11,0.348 3.04,3.476 4.85,16.562 12.19,23.672 19.3,23.672 1.72,0 4.8,-0.24 4.8,-6.37 0,-4.61 -2.14,-10.188 -3.28,-13.079 -7.11,-18.871 -10.97,-30.82 -10.97,-40.082 0,-18.277 13.08,-22.891 23.51,-22.891 12.66,0 19.45,8.473 22.7,12.731 z"
         style="fill:#000000;fill-opacity:1;fill-rule:nonzero;stroke:none"
         id="path136" /><path
         d="m 158.711,1034.76 0,0.39 0.238,0.54 0,0.39 0.352,0.71 0,0.54 0.187,0.94 0.352,0.9 0.59,2.81 0.16,0.35 0,0.4 0.191,0.35 0,0.54 0.16,0.36 0,0.39 0.188,0.39 0,0.15 0.199,0.39 0,0.71 0.192,0.23 0,0.55 c 0,3.32 -2.571,4.96 -5.391,4.96 -2.219,0 -5.508,-1.49 -6.789,-5.16 -0.551,-1.29 -9.262,-36.4 -10.551,-41.21 -1.289,-5.552 -1.68,-8.669 -1.68,-11.989 0,-2.032 0,-2.422 0.192,-3.321 -4.063,-9.808 -9.602,-15.511 -16.789,-15.511 -14.813,0 -14.813,13.632 -14.813,16.8 0,5.903 0.942,12.931 9.61,35.661 2.031,5.35 3.171,7.93 3.171,11.64 0,8.28 -6.101,15.16 -15.16,15.16 -17.3786,0 -24.1794,-26.64 -24.1794,-28.28 0,-1.88 1.8399,-1.88 2.1875,-1.88 1.8321,0 2.0703,0.39 2.9336,3.36 5.0391,16.96 12.2188,22.7 18.5083,22.7 1.64,0 4.609,-0.16 4.609,-6.1 0,-4.61 -2.027,-9.76 -3.32,-12.89 -7.9692,-21.64 -10.1879,-29.96 -10.1879,-36.949 0,-16.84 12.2189,-23.121 26.0899,-23.121 3.129,0 11.801,0 18.988,12.731 4.801,-11.602 17.571,-12.731 23.121,-12.731 13.668,0 21.801,11.442 26.602,22.531 6.289,14.219 12.187,38.789 12.187,47.659 0,10.2 -4.961,12.97 -8.129,12.97 -4.609,0 -9.21,-4.81 -9.21,-8.91 0,-2.38 1.089,-3.47 2.769,-4.96 1.992,-2.03 6.641,-6.83 6.641,-15.54 0,-6.29 -5.391,-24.38 -10.2,-33.64 -4.8,-9.758 -11.05,-16.211 -20.07,-16.211 -8.75,0 -13.711,5.511 -13.711,16.062 0,5.149 1.281,10.699 2.031,13.279 l 7.731,30.86 z"
         style="fill:#000000;fill-opacity:1;fill-rule:nonzero;stroke:none"
         id="path138" /><path
         d="m 252.031,1071.32 1.129,0.39 0.899,0.55 0.941,0.39 0.699,0.39 0.942,0.31 0.781,0.39 0.898,0.39 0.739,0.16 0.742,0.39 0.551,0.35 0.738,0.2 0.75,0.39 0.539,0.15 0.551,0.2 0.59,0.39 1.089,0.35 0.551,0.2 0.539,0.15 0.391,0.39 0.551,0.16 0.347,0.23 0.391,0.16 0.551,0.16 0.39,0 0.352,0.23 0.738,0.35 0.551,0.35 0.738,0.2 c 2.422,1.09 3.52,1.64 3.52,4.06 0,2.23 -1.68,4.06 -4.098,4.06 -0.711,0 -1.101,0 -2.543,-1.13 l -17.578,-11.6 2.031,18.83 c 0.199,2.38 0,5.54 -3.871,5.54 -1.68,0 -4.058,-0.89 -4.058,-3.71 0,-1.29 0.546,-5.15 0.738,-6.44 0.16,-2.03 1.101,-11.45 1.289,-14.22 l -17.379,11.6 c -1.25,0.78 -1.641,1.13 -2.77,1.13 -2.429,0 -4.07,-1.83 -4.07,-4.06 0,-2.58 1.641,-3.32 2.781,-3.71 l 19.411,-8.09 c -10.551,-4.64 -15.352,-6.48 -18.481,-7.97 -2.383,-1.09 -3.711,-1.64 -3.711,-4.06 0,-2.22 1.641,-4.06 4.07,-4.06 0.93,0 1.129,0 2.77,1.09 l 17.379,11.68 -2.027,-20.7 c 0,-2.77 2.378,-3.71 4.058,-3.71 1.488,0 3.871,0.94 3.871,3.71 0,1.25 -0.511,5.16 -0.511,6.45 -0.391,2.03 -1.168,11.44 -1.52,14.25 l 15.551,-10.19 c 3.32,-2.58 3.469,-2.58 4.57,-2.58 2.418,0 4.098,1.84 4.098,4.06 0,2.58 -1.489,3.32 -2.77,3.67 l -19.418,8.13 z"
         style="fill:#000000;fill-opacity:1;fill-rule:nonzero;stroke:none"
         id="path140" /><path
         d="m 261.449,937.371 -0.16,-0.152 0,-0.547 -0.199,-0.192 0,-0.55 -0.192,-0.551 -0.16,-0.551 -0.226,-0.777 -0.16,-0.539 0,-0.551 -0.153,-0.16 0,-0.539 -0.238,-0.391 0,-0.391 -0.16,-0.16 0,-0.742 -0.192,-0.199 0,-0.348 c 0,-2.972 2.379,-4.261 4.45,-4.261 2.191,0 4.261,1.679 4.961,2.781 0.55,1.277 1.679,5.347 2.23,8.121 0.738,2.418 2.23,8.316 2.969,11.449 0.703,2.957 1.48,5.738 2.191,8.707 1.32,5.5 1.32,5.703 3.899,9.762 4.07,6.289 10.511,13.48 20.711,13.48 7.179,0 7.531,-5.898 7.531,-8.832 0,-7.769 -5.5,-21.988 -7.531,-27.34 -1.489,-3.707 -2.071,-4.808 -2.071,-7.07 0,-6.797 5.742,-11.058 12.223,-11.058 12.93,0 18.668,17.742 18.668,19.769 0,1.68 -1.68,1.68 -2.219,1.68 -1.68,0 -1.883,-0.778 -2.422,-2.231 -2.929,-10.347 -8.519,-15.508 -13.64,-15.508 -2.61,0 -3.161,1.84 -3.161,4.418 0,2.93 0.551,4.614 2.93,10.352 1.481,4.059 6.832,17.691 6.832,24.922 0,2.066 0,7.379 -4.801,11.09 -2.187,1.679 -5.898,3.519 -11.988,3.519 -11.449,0 -18.641,-7.582 -22.742,-12.929 -1.09,10.898 -10.149,12.929 -16.641,12.929 -10.699,0 -17.886,-6.64 -21.758,-11.64 -0.929,8.871 -8.511,11.64 -13.859,11.64 -5.551,0 -8.48,-4.062 -10.16,-7.031 -2.813,-4.609 -4.652,-11.988 -4.652,-12.738 0,-1.684 1.839,-1.684 2.23,-1.684 1.871,0 2.031,0.402 2.77,3.871 2.031,7.582 4.461,13.871 9.421,13.871 3.321,0 4.25,-2.769 4.25,-6.289 0,-2.383 -1.089,-7.191 -2.031,-10.511 -0.929,-3.508 -2.219,-8.86 -2.769,-11.641 l -4.258,-16.438 c -0.352,-1.679 -1.094,-4.812 -1.094,-5.16 0,-2.972 2.223,-4.261 4.262,-4.261 2.379,0 4.41,1.679 4.961,2.781 0.738,1.277 1.679,5.347 2.418,8.121 0.551,2.418 2.031,8.316 2.769,11.449 0.742,2.957 1.684,5.738 2.231,8.707 1.48,5.113 1.64,6.25 5.351,11.442 3.711,5.16 9.77,11.8 19.379,11.8 7.422,0 7.571,-6.449 7.571,-8.832 0,-3.359 -0.348,-5.039 -2.219,-12.226 l -5.352,-21.641 z"
         style="fill:#000000;fill-opacity:1;fill-rule:nonzero;stroke:none"
         id="path142" /><path
         d="m 740.078,964.289 4.801,0 0.781,0.191 2.699,0 0.981,0.2 0.93,0 0.98,0.191 2.109,0.238 1.911,0.153 2.109,0.199 2.152,0.391 2.11,0.386 1.949,0.59 1.14,0.152 0.969,0.391 0.942,0.238 0.98,0.352 1.949,0.777 c 13.239,5.782 14.219,16.953 14.219,19.653 0,8.48 -7.34,16.369 -20.43,16.369 l 0,-4.26 c 8.871,0 14.063,-5.59 14.063,-12.109 0,-19.879 -30.621,-19.879 -38.512,-19.879 l -7.859,0 c 7.5,29.136 27.308,31.988 32.308,31.988 l 0,4.26 c -21.328,0 -50.238,-18.709 -50.238,-52.19 0,-19.449 11.367,-34.449 30.039,-34.449 27.309,0 43.52,20.188 43.52,22.5 0,1.168 -1.168,2.539 -2.301,2.539 -0.981,0 -1.367,-0.43 -2.539,-1.961 -15,-19.058 -35.981,-19.058 -38.289,-19.058 -14.84,0 -16.563,16.168 -16.563,22.3 0,2.348 0.203,8.129 2.891,19.848 l 10.199,0 z"
         style="fill:#000000;fill-opacity:1;fill-rule:nonzero;stroke:none"
         id="path144" /><path
         d="m 2413.28,284.09 0,0.32 -0.12,0 0,0.461 -0.15,0 0,0.16 -0.16,0.16 0,0.149 -0.15,0 0,0.16 -0.32,0 0,0.16 -0.43,0 0,0.149 -0.62,0 c -3.52,0 -14.65,-1.25 -18.63,-1.52 -1.06,-0.199 -2.74,-0.309 -2.74,-3.051 0,-1.828 1.37,-1.828 3.52,-1.828 7.3,0 7.61,-1.101 7.61,-2.621 l -0.43,-3.051 -21.99,-87.258 c -0.58,-2.109 -0.58,-2.429 -0.58,-3.32 0,-3.398 3,-4.148 4.41,-4.148 1.95,0 4.26,1.218 5.16,3.047 0.78,1.371 7.5,29.453 8.39,33.281 5.2,-0.512 17.74,-2.93 17.74,-13.012 0,-0.887 0,-1.519 -0.51,-3.039 -0.27,-1.801 -0.58,-3.668 -0.58,-5.309 0,-9.031 6.13,-14.968 13.9,-14.968 4.57,0 8.67,2.269 12.03,7.898 3.83,6.75 5.51,15.11 5.51,15.418 0,1.531 -1.41,1.531 -1.87,1.531 -1.53,0 -1.65,-0.738 -2.11,-2.738 -3.05,-11.133 -6.57,-18.941 -13.25,-18.941 -2.93,0 -4.92,1.718 -4.92,7.191 0,2.57 0.63,6.09 1.25,8.551 0.59,2.578 0.59,3.199 0.59,4.726 0,9.762 -9.45,14.223 -22.42,15.864 4.72,2.769 9.64,7.457 13.12,11.168 7.35,8.082 14.18,14.609 21.68,14.609 0.9,0 1.06,0 1.37,-0.16 1.83,-0.309 1.95,-0.309 3.16,-1.207 0.31,-0.121 0.31,-0.313 0.63,-0.621 -7.31,-0.43 -8.67,-6.371 -8.67,-8.25 0,-2.422 1.68,-5.313 5.78,-5.313 3.98,0 8.4,3.364 8.4,9.301 0,4.57 -3.52,9.609 -10.4,9.609 -4.25,0 -11.28,-1.207 -22.1,-13.437 -5.2,-5.781 -11.14,-11.723 -16.92,-14.02 l 15.82,63.899 z"
         style="fill:#000000;fill-opacity:1;fill-rule:nonzero;stroke:none"
         id="path146" /><path
         d="m 2484.41,225.23 0,1.829 -0.15,0 0,0.472 -0.16,0 0,0.309 -0.15,0 0,0.121 -0.32,0 -0.11,0.16 -0.63,0 0,0.149 -1.68,0 c -6.76,-6.68 -16.48,-6.872 -20.78,-6.872 l 0,-3.789 c 2.46,0 9.65,0 15.43,3.012 l 0,-54.109 c 0,-3.512 0,-4.922 -10.7,-4.922 l -3.95,0 0,-3.828 c 1.84,0.199 14.96,0.468 18.91,0.468 3.2,0 16.64,-0.269 18.94,-0.468 l 0,3.828 -3.94,0 c -10.71,0 -10.71,1.41 -10.71,4.922 l 0,58.718 z"
         style="fill:#000000;fill-opacity:1;fill-rule:nonzero;stroke:none"
         id="path148" /></g></g></svg>