<?xml version="1.0" encoding="UTF-8" standalone="no"?>
<!-- Created with Inkscape (http://www.inkscape.org/) -->

<svg
   xmlns:dc="http://purl.org/dc/elements/1.1/"
   xmlns:cc="http://creativecommons.org/ns#"
   xmlns:rdf="http://www.w3.org/1999/02/22-rdf-syntax-ns#"
   xmlns:svg="http://www.w3.org/2000/svg"
   xmlns="http://www.w3.org/2000/svg"
   xmlns:sodipodi="http://sodipodi.sourceforge.net/DTD/sodipodi-0.dtd"
   xmlns:inkscape="http://www.inkscape.org/namespaces/inkscape"
   id="svg2"
   version="1.1"
   inkscape:version="0.48.4 r9939"
   width="410"
   height="330"
   xml:space="preserve"
   sodipodi:docname="circuit.eps"><metadata
     id="metadata8"><rdf:RDF><cc:Work
         rdf:about=""><dc:format>image/svg+xml</dc:format><dc:type
           rdf:resource="http://purl.org/dc/dcmitype/StillImage" /><dc:title></dc:title></cc:Work></rdf:RDF></metadata><defs
     id="defs6" /><sodipodi:namedview
     pagecolor="#ffffff"
     bordercolor="#666666"
     borderopacity="1"
     objecttolerance="10"
     gridtolerance="10"
     guidetolerance="10"
     inkscape:pageopacity="0"
     inkscape:pageshadow="2"
     inkscape:window-width="936"
     inkscape:window-height="1028"
     id="namedview4"
     showgrid="false"
     inkscape:zoom="1.430303"
     inkscape:cx="233.98406"
     inkscape:cy="163.05496"
     inkscape:window-x="983"
     inkscape:window-y="157"
     inkscape:window-maximized="0"
     inkscape:current-layer="g188" /><g
     id="g10"
     inkscape:groupmode="layer"
     inkscape:label="ink_ext_XXXXXX"
     transform="matrix(1.25,0,0,-1.25,0,330)"><g
       id="g12"
       transform="scale(0.1,0.1)"><g
         id="g14"
         transform="scale(1.024,-0.976)"><path
           d="m 501.366,-2017.59 c 0,69.24 -53.486,125.35 -119.48,125.35 -65.987,0 -119.473,-56.11 -119.473,-125.35 0,-69.25 53.486,-125.36 119.473,-125.36 65.994,0 119.48,56.11 119.48,125.36 z"
           style="fill:none;stroke:#0000ff;stroke-opacity:1;stroke-width:3.29065;stroke-linecap:butt;stroke-linejoin:miter;stroke-miterlimit:4;stroke-dasharray:none"
           id="path16" /></g><path
         d="m 290.199,1973.59 c 0,0 29.84,38.59 51.172,38.36 43.039,-0.43 58.59,-80.09 101.598,-79.57 21.679,0.23 50.191,41.21 50.191,41.21"
         style="fill:none;stroke:#0000ff;stroke-opacity:1;stroke-width:3.37656;stroke-linecap:butt;stroke-linejoin:miter;stroke-miterlimit:4;stroke-dasharray:none"
         id="path18" /><g
         id="g20"
         transform="scale(1.024,-0.976)"><path
           d="m 702.667,-1540.8 c 0,69.24 -53.478,125.39 -119.472,125.39 -65.998,0 -119.484,-56.15 -119.484,-125.39 0,-69.2 53.486,-125.35 119.484,-125.35 65.994,0 119.472,56.15 119.472,125.35 z"
           style="fill:none;stroke:#0000ff;stroke-opacity:1;stroke-width:3.29065;stroke-linecap:butt;stroke-linejoin:miter;stroke-miterlimit:4;stroke-dasharray:none"
           id="path22" /></g><path
         d="m 496.328,1508.2 c 0,0 29.844,38.59 51.172,38.35 43.051,-0.42 58.59,-80.08 101.602,-79.57 21.679,0.23 50.199,41.22 50.199,41.22"
         style="fill:none;stroke:#0000ff;stroke-opacity:1;stroke-width:3.37656;stroke-linecap:butt;stroke-linejoin:miter;stroke-miterlimit:4;stroke-dasharray:none"
         id="path24" /><g
         id="g26"
         transform="scale(1.024,-0.976)"><path
           d="m 322.109,-1550.32 c 0,69.23 -53.478,125.35 -119.472,125.35 -65.995,0 -119.4728,-56.12 -119.4728,-125.35 0,-69.24 53.4778,-125.35 119.4728,-125.35 65.994,0 119.472,56.11 119.472,125.35 z"
           style="fill:none;stroke:#0000ff;stroke-opacity:1;stroke-width:3.29065;stroke-linecap:butt;stroke-linejoin:miter;stroke-miterlimit:4;stroke-dasharray:none"
           id="path28" /></g><path
         d="m 106.641,1517.54 c 0,0 29.839,38.59 51.168,38.34 43.05,-0.45 58.601,-80.11 101.601,-79.59 21.68,0.26 50.199,41.25 50.199,41.25"
         style="fill:none;stroke:#0000ff;stroke-opacity:1;stroke-width:3.37656;stroke-linecap:butt;stroke-linejoin:miter;stroke-miterlimit:4;stroke-dasharray:none"
         id="path30" /><path
         d="m 394.262,1844.84 0,-110.87 -109.184,-126.2"
         style="fill:none;stroke:#000000;stroke-opacity:1;stroke-width:5.53225;stroke-linecap:butt;stroke-linejoin:miter;stroke-miterlimit:4;stroke-dasharray:none"
         id="path32" /><path
         d="M 394.531,1735.61 514.488,1596.86"
         style="fill:none;stroke:#000000;stroke-opacity:1;stroke-width:5.53225;stroke-linecap:butt;stroke-linejoin:miter;stroke-miterlimit:4;stroke-dasharray:none"
         id="path34" /><path
         d="m 676.52,1410.34 120,-138.75"
         style="fill:none;stroke:#000000;stroke-opacity:1;stroke-width:5.53225;stroke-linecap:butt;stroke-linejoin:miter;stroke-miterlimit:4;stroke-dasharray:none"
         id="path36" /><path
         d="m 389.262,2092.96 -0.043,195.85 612.581,0 0,-342.45 474.72,0"
         style="fill:none;stroke:#000000;stroke-opacity:1;stroke-width:5.53225;stroke-linecap:butt;stroke-linejoin:miter;stroke-miterlimit:4;stroke-dasharray:none"
         id="path38" /><path
         d="M 131.328,1418.36 16.5586,1278.07"
         style="fill:none;stroke:#000000;stroke-opacity:1;stroke-width:5.53225;stroke-linecap:butt;stroke-linejoin:miter;stroke-miterlimit:4;stroke-dasharray:none"
         id="path40" /><path
         d="m 17.3398,1278.63 0,-301.845 1254.6102,0 0,274.955 1147.27,0"
         style="fill:none;stroke:#000000;stroke-opacity:1;stroke-width:5.53225;stroke-linecap:butt;stroke-linejoin:miter;stroke-miterlimit:4;stroke-dasharray:none"
         id="path42" /><path
         d="m 794.18,1273.5 200.351,0 0,317.2 943.199,0"
         style="fill:none;stroke:#000000;stroke-opacity:1;stroke-width:5.53225;stroke-linecap:butt;stroke-linejoin:miter;stroke-miterlimit:4;stroke-dasharray:none"
         id="path44" /><path
         d="m 1360.12,2412.68 230.08,0"
         style="fill:none;stroke:#000000;stroke-opacity:1;stroke-width:5.53225;stroke-linecap:butt;stroke-linejoin:miter;stroke-miterlimit:4;stroke-dasharray:none"
         id="path46" /><path
         d="m 1363.09,2215.97 112.65,194.84 112.42,-195 -225.07,0.16 z"
         style="fill:#000000;fill-opacity:1;fill-rule:nonzero;stroke:none"
         id="path48" /><path
         d="m 1363.09,2215.96 112.65,194.85 112.42,-195 -225.07,0.15 z"
         style="fill:none;stroke:#000000;stroke-opacity:1;stroke-width:3.40738;stroke-linecap:butt;stroke-linejoin:miter;stroke-miterlimit:4;stroke-dasharray:none"
         id="path50" /><path
         d="m 2840.16,2477.69 53.9,93.28 53.83,-93.32 -107.73,0.04 z"
         style="fill:#000000;fill-opacity:1;fill-rule:nonzero;stroke:none"
         id="path52" /><path
         d="m 2840.16,2477.68 53.9,93.28 53.83,-93.32 -107.73,0.04 z"
         style="fill:none;stroke:#000000;stroke-opacity:1;stroke-width:1.63089;stroke-linecap:butt;stroke-linejoin:miter;stroke-miterlimit:4;stroke-dasharray:none"
         id="path54" /><path
         d="m 1475.47,2412.56 0,-1387.34"
         style="fill:none;stroke:#000000;stroke-opacity:1;stroke-width:5.53225;stroke-linecap:butt;stroke-linejoin:miter;stroke-miterlimit:4;stroke-dasharray:none"
         id="path56" /><path
         d="m 1944.14,2431.24 0,-1387.35"
         style="fill:none;stroke:#000000;stroke-opacity:1;stroke-width:5.53225;stroke-linecap:butt;stroke-linejoin:miter;stroke-miterlimit:4;stroke-dasharray:none"
         id="path58" /><path
         d="m 2421.68,2382.64 0,-1387.335"
         style="fill:none;stroke:#000000;stroke-opacity:1;stroke-width:5.53225;stroke-linecap:butt;stroke-linejoin:miter;stroke-miterlimit:4;stroke-dasharray:none"
         id="path60" /><path
         d="m 2893.67,2477.99 0,-1920.306"
         style="fill:none;stroke:#000000;stroke-opacity:1;stroke-width:6.50873;stroke-linecap:butt;stroke-linejoin:miter;stroke-miterlimit:4;stroke-dasharray:none"
         id="path62" /><path
         d="m 1474.77,1046.86 0,-517.575 1417.57,0"
         style="fill:none;stroke:#000000;stroke-opacity:1;stroke-width:5.53225;stroke-linecap:butt;stroke-linejoin:miter;stroke-miterlimit:4;stroke-dasharray:none"
         id="path64" /><path
         d="m 1475.47,2409.05 0,198.79 1418.08,0"
         style="fill:none;stroke:#000000;stroke-opacity:1;stroke-width:5.53225;stroke-linecap:butt;stroke-linejoin:miter;stroke-miterlimit:4;stroke-dasharray:none"
         id="path66" /><path
         d="m 1943.52,2412.56 0,193.48"
         style="fill:none;stroke:#000000;stroke-opacity:1;stroke-width:5.53225;stroke-linecap:butt;stroke-linejoin:miter;stroke-miterlimit:4;stroke-dasharray:none"
         id="path68" /><path
         d="m 2422.7,2408.36 0,197.68"
         style="fill:none;stroke:#000000;stroke-opacity:1;stroke-width:5.53225;stroke-linecap:butt;stroke-linejoin:miter;stroke-miterlimit:4;stroke-dasharray:none"
         id="path70" /><path
         d="m 1944.22,1043.74 0,-514.455"
         style="fill:none;stroke:#000000;stroke-opacity:1;stroke-width:5.53225;stroke-linecap:butt;stroke-linejoin:miter;stroke-miterlimit:4;stroke-dasharray:none"
         id="path72" /><path
         d="m 2421.09,1041 0,-509.758"
         style="fill:none;stroke:#000000;stroke-opacity:1;stroke-width:5.53225;stroke-linecap:butt;stroke-linejoin:miter;stroke-miterlimit:4;stroke-dasharray:none"
         id="path74" /><path
         d="m 2897.5093,504.33008 c 0,-5.72213 -4.9012,-10.38538 -10.9616,-10.38538 -6.0943,0 -10.9887,4.66325 -10.9887,10.38538 0,5.71467 4.8944,10.35149 10.9887,10.35149 6.0604,0 10.9616,-4.63682 10.9616,-10.35149 z"
         style="fill:#ffffff;fill-opacity:1;fill-rule:nonzero;stroke:none"
         id="path76"
         inkscape:connector-curvature="0" /><path
         d="m 2897.5093,504.32466 c 0,-5.71942 -4.9012,-10.37725 -10.9616,-10.37725 -6.0943,0 -10.9887,4.65783 -10.9887,10.37725 0,5.72281 4.8944,10.35962 10.9887,10.35962 6.0604,0 10.9616,-4.63681 10.9616,-10.35962 z"
         style="fill:none;stroke:#000000;stroke-width:3.75029659;stroke-linecap:butt;stroke-linejoin:miter;stroke-miterlimit:4;stroke-opacity:1;stroke-dasharray:none"
         id="path78"
         inkscape:connector-curvature="0" /><path
         d="m 2909.73,2608.04 c 0,-8.44 -7.23,-15.28 -16.18,-15.28 -8.98,0 -16.21,6.84 -16.21,15.28 0,8.43 7.23,15.27 16.21,15.27 8.95,0 16.18,-6.84 16.18,-15.27 z"
         style="fill:#ffffff;fill-opacity:1;fill-rule:nonzero;stroke:none"
         id="path80" /><path
         d="m 2909.73,2608.04 c 0,-8.43 -7.23,-15.27 -16.18,-15.27 -8.98,0 -16.21,6.84 -16.21,15.27 0,8.43 7.23,15.27 16.21,15.27 8.95,0 16.18,-6.84 16.18,-15.27 z"
         style="fill:none;stroke:#000000;stroke-opacity:1;stroke-width:5.53225;stroke-linecap:butt;stroke-linejoin:miter;stroke-miterlimit:4;stroke-dasharray:none"
         id="path82" /><path
         d="m 2436.84,528.898 c 0,-8.437 -7.27,-15.277 -16.22,-15.277 -8.94,0 -16.21,6.84 -16.21,15.277 0,8.43 7.27,15.274 16.21,15.274 8.95,0 16.22,-6.844 16.22,-15.274 z"
         style="fill:#000000;fill-opacity:1;fill-rule:nonzero;stroke:none"
         id="path84" /><path
         d="m 2436.84,528.895 c 0,-8.43 -7.27,-15.27 -16.22,-15.27 -8.94,0 -16.21,6.84 -16.21,15.27 0,8.441 7.27,15.281 16.21,15.281 8.95,0 16.22,-6.84 16.22,-15.281 z"
         style="fill:none;stroke:#000000;stroke-opacity:1;stroke-width:5.53225;stroke-linecap:butt;stroke-linejoin:miter;stroke-miterlimit:4;stroke-dasharray:none"
         id="path86" /><path
         d="m 1960.08,528.898 c 0,-8.437 -7.27,-15.277 -16.21,-15.277 -8.95,0 -16.21,6.84 -16.21,15.277 0,8.43 7.26,15.274 16.21,15.274 8.94,0 16.21,-6.844 16.21,-15.274 z"
         style="fill:#000000;fill-opacity:1;fill-rule:nonzero;stroke:none"
         id="path88" /><path
         d="m 1960.08,528.895 c 0,-8.43 -7.27,-15.27 -16.21,-15.27 -8.95,0 -16.21,6.84 -16.21,15.27 0,8.441 7.26,15.281 16.21,15.281 8.94,0 16.21,-6.84 16.21,-15.281 z"
         style="fill:none;stroke:#000000;stroke-opacity:1;stroke-width:5.53225;stroke-linecap:butt;stroke-linejoin:miter;stroke-miterlimit:4;stroke-dasharray:none"
         id="path90" /><path
         d="m 1959.73,2608.15 c 0,-8.43 -7.27,-15.27 -16.21,-15.27 -8.95,0 -16.22,6.84 -16.22,15.27 0,8.44 7.27,15.28 16.22,15.28 8.94,0 16.21,-6.84 16.21,-15.28 z"
         style="fill:#000000;fill-opacity:1;fill-rule:nonzero;stroke:none"
         id="path92" /><path
         d="m 1959.73,2608.15 c 0,-8.44 -7.27,-15.27 -16.21,-15.27 -8.95,0 -16.22,6.83 -16.22,15.27 0,8.44 7.27,15.28 16.22,15.28 8.94,0 16.21,-6.84 16.21,-15.28 z"
         style="fill:none;stroke:#000000;stroke-opacity:1;stroke-width:5.53225;stroke-linecap:butt;stroke-linejoin:miter;stroke-miterlimit:4;stroke-dasharray:none"
         id="path94" /><path
         d="m 2438.36,2607.1 c 0,-8.44 -7.27,-15.27 -16.21,-15.27 -8.99,0 -16.21,6.83 -16.21,15.27 0,8.44 7.22,15.27 16.21,15.27 8.94,0 16.21,-6.83 16.21,-15.27 z"
         style="fill:#000000;fill-opacity:1;fill-rule:nonzero;stroke:none"
         id="path96" /><path
         d="m 2438.36,2607.11 c 0,-8.45 -7.27,-15.29 -16.21,-15.29 -8.99,0 -16.21,6.84 -16.21,15.29 0,8.43 7.22,15.27 16.21,15.27 8.94,0 16.21,-6.84 16.21,-15.27 z"
         style="fill:none;stroke:#000000;stroke-opacity:1;stroke-width:5.53225;stroke-linecap:butt;stroke-linejoin:miter;stroke-miterlimit:4;stroke-dasharray:none"
         id="path98" /><path
         d="m 1491.29,1946.67 c 0,-8.44 -7.27,-15.27 -16.21,-15.27 -8.95,0 -16.21,6.83 -16.21,15.27 0,8.44 7.26,15.27 16.21,15.27 8.94,0 16.21,-6.83 16.21,-15.27 z"
         style="fill:#000000;fill-opacity:1;fill-rule:nonzero;stroke:none"
         id="path100" /><path
         d="m 1491.29,1946.68 c 0,-8.45 -7.27,-15.29 -16.21,-15.29 -8.95,0 -16.21,6.84 -16.21,15.29 0,8.43 7.26,15.27 16.21,15.27 8.94,0 16.21,-6.84 16.21,-15.27 z"
         style="fill:none;stroke:#000000;stroke-opacity:1;stroke-width:5.53225;stroke-linecap:butt;stroke-linejoin:miter;stroke-miterlimit:4;stroke-dasharray:none"
         id="path102" /><path
         d="m 1960.31,1590.97 c 0,-8.44 -7.26,-15.28 -16.21,-15.28 -8.94,0 -16.21,6.84 -16.21,15.28 0,8.47 7.27,15.31 16.21,15.31 8.95,0 16.21,-6.84 16.21,-15.31 z"
         style="fill:#000000;fill-opacity:1;fill-rule:nonzero;stroke:none"
         id="path104" /><path
         d="m 1960.31,1590.96 c 0,-8.42 -7.26,-15.26 -16.21,-15.26 -8.94,0 -16.21,6.84 -16.21,15.26 0,8.49 7.27,15.33 16.21,15.33 8.95,0 16.21,-6.84 16.21,-15.33 z"
         style="fill:none;stroke:#000000;stroke-opacity:1;stroke-width:5.53225;stroke-linecap:butt;stroke-linejoin:miter;stroke-miterlimit:4;stroke-dasharray:none"
         id="path106" /><path
         d="m 2437.54,1252.26 c 0,-8.44 -7.27,-15.28 -16.21,-15.28 -8.99,0 -16.21,6.84 -16.21,15.28 0,8.43 7.22,15.27 16.21,15.27 8.94,0 16.21,-6.84 16.21,-15.27 z"
         style="fill:#000000;fill-opacity:1;fill-rule:nonzero;stroke:none"
         id="path108" /><path
         d="m 2437.54,1252.25 c 0,-8.44 -7.27,-15.27 -16.21,-15.27 -8.99,0 -16.21,6.83 -16.21,15.27 0,8.45 7.22,15.29 16.21,15.29 8.94,0 16.21,-6.84 16.21,-15.29 z"
         style="fill:none;stroke:#000000;stroke-opacity:1;stroke-width:5.53225;stroke-linecap:butt;stroke-linejoin:miter;stroke-miterlimit:4;stroke-dasharray:none"
         id="path110" /><path
         d="m 146.949,2026.12 40.121,69.42 40.078,-69.46 -80.199,0.04 z"
         style="fill:#000000;fill-opacity:1;fill-rule:nonzero;stroke:none"
         id="path112" /><path
         d="m 146.949,2026.13 40.121,69.41 40.078,-69.45 -80.199,0.04 z"
         style="fill:none;stroke:#000000;stroke-opacity:1;stroke-width:1.21415;stroke-linecap:butt;stroke-linejoin:miter;stroke-miterlimit:4;stroke-dasharray:none"
         id="path114" /><path
         d="m 187.031,2094.99 0,-173.13"
         style="fill:none;stroke:#000000;stroke-opacity:1;stroke-width:2.55295;stroke-linecap:butt;stroke-linejoin:miter;stroke-miterlimit:4;stroke-dasharray:none"
         id="path116" /><g
         id="g3228"
         transform="matrix(0.73417924,0,0,0.73417924,317.61334,599.04041)"><path
           id="path118"
           style="fill:#000000;fill-opacity:1;fill-rule:nonzero;stroke:none"
           d="m 1212.77,2287.88 -0.15,-0.62 0,-0.43 -0.32,-0.94 -0.15,-0.43 -0.12,-0.47 -0.15,-0.31 -0.16,-0.43 -0.47,-0.94 -0.31,-0.27 -0.16,-0.32 -0.31,-0.15 -0.27,-0.31 -0.63,-0.32 -0.47,-0.15 -0.43,-0.16 -0.47,-0.16 -0.47,-0.11 -0.27,0 -0.16,-0.16 -0.62,0 -0.31,-0.15 -1.06,0 -0.31,-0.16 -2.85,0 -0.47,-0.16 -2.58,0 c -2.58,0 -4.26,0 -4.26,-2.89 0,-1.79 1.37,-1.79 4.26,-1.79 l 49.81,0 -2.7,4.68 -16.99,0 c -2.11,0 -2.42,0 -3.32,0.16 -1.52,0.16 -1.95,0.27 -1.95,1.48 0,0.47 0,0.78 0.74,3.52 l 20.58,82.5 c 1.37,5.31 1.68,5.78 8.21,5.78 l 16.01,0 c 14.85,0 27.42,-7.89 27.42,-27.89 0,-7.27 -3,-31.95 -15.89,-48.59 -4.38,-5.47 -16.22,-16.96 -34.81,-16.96 l 2.7,-4.68 c 31.36,0 61.01,31.79 61.01,64.8 0,21.17 -12.69,38.01 -35.43,38.01 l -50.54,0 c -2.9,0 -4.57,0 -4.57,-2.89 0,-1.84 1.36,-1.84 4.41,-1.84 1.95,0 4.69,-0.12 6.48,-0.27 2.43,-0.31 3.36,-0.78 3.36,-2.42 0,-0.63 -0.15,-1.06 -0.62,-2.89 l -20.24,-80.67 z"
           inkscape:connector-curvature="0" /><path
           id="path120"
           style="fill:#000000;fill-opacity:1;fill-rule:nonzero;stroke:none"
           d="m 1349.06,2320.42 0,1.88 -0.15,0.15 0,0.31 -0.16,0 0,0.28 -0.16,0 0,0.15 -0.31,0 0,0.16 -0.74,0 0,0.16 -1.72,0 c -6.64,-6.64 -16.21,-6.8 -20.59,-6.8 l 0,-3.79 c 2.58,0 9.54,0 15.28,3.05 l 0,-53.79 c 0,-3.48 0,-4.85 -10.59,-4.85 l -3.94,0 0,-3.78 c 1.83,0.15 14.84,0.46 18.79,0.46 3.16,0 16.48,-0.31 18.78,-0.46 l 0,3.78 -3.94,0 c -10.59,0 -10.59,1.37 -10.59,4.85 l 0,27.62 0.04,30.62 z"
           inkscape:connector-curvature="0" /></g><g
         id="g3232"
         transform="matrix(0.74888075,0,0,0.74888075,413.36489,565.90979)"><path
           id="path122"
           style="fill:#000000;fill-opacity:1;fill-rule:nonzero;stroke:none"
           d="m 1663.63,2287.26 -0.15,-0.63 0,-0.43 -0.16,-0.43 -0.16,-0.47 -0.15,-0.43 -0.12,-0.47 -0.16,-0.27 -0.15,-0.47 -0.16,-0.27 -0.15,-0.31 -0.12,-0.28 -0.31,-0.31 -0.16,-0.31 -0.27,-0.12 -0.32,-0.31 -0.31,-0.16 -0.27,-0.15 -0.47,-0.12 -0.86,-0.31 -0.47,-0.16 -0.27,0 -0.16,-0.16 -0.58,0 -0.32,-0.11 -1.05,0 -0.28,-0.16 -2.81,0 -0.47,-0.16 -2.5,0 c -2.54,0 -4.18,0 -4.18,-2.81 0,-1.8 1.37,-1.8 4.18,-1.8 l 48.79,0 -2.65,4.61 -16.61,0 c -2.1,0 -2.38,0 -3.28,0.16 -1.48,0.16 -1.91,0.27 -1.91,1.48 0,0.43 0,0.75 0.74,3.4 l 20.16,80.86 c 1.33,5.2 1.64,5.63 8.01,5.63 l 15.74,0 c 14.53,0 26.83,-7.7 26.83,-27.27 0,-7.15 -2.97,-31.33 -15.58,-47.65 -4.3,-5.32 -15.86,-16.61 -34.1,-16.61 l 2.65,-4.61 c 30.71,0 59.81,31.18 59.81,63.52 0,20.78 -12.46,37.23 -34.73,37.23 l -49.53,0 c -2.85,0 -4.45,0 -4.45,-2.82 0,-1.79 1.32,-1.79 4.29,-1.79 1.92,0 4.61,-0.12 6.37,-0.28 2.38,-0.31 3.28,-0.74 3.28,-2.38 0,-0.58 -0.15,-1.05 -0.62,-2.81 l -19.85,-79.06 z"
           inkscape:connector-curvature="0" /><path
           id="path124"
           style="fill:#000000;fill-opacity:1;fill-rule:nonzero;stroke:none"
           d="m 1814.8,2272.41 -3.59,0 c -0.27,-2.38 -1.33,-8.47 -2.66,-9.49 -0.89,-0.59 -8.75,-0.59 -10.23,-0.59 l -18.98,0 c 10.82,9.61 14.37,12.47 20.62,17.35 7.7,6.09 14.84,12.46 14.84,22.26 0,12.46 -10.97,20.16 -24.18,20.16 -12.92,0 -21.52,-9.06 -21.52,-18.55 0,-5.2 4.45,-5.79 5.47,-5.79 2.38,0 5.51,1.8 5.51,5.51 0,1.92 -0.74,5.47 -6.1,5.47 3.13,7.27 10.24,9.65 15,9.65 10.4,0 15.71,-8.01 15.71,-16.45 0,-8.9 -6.37,-16.05 -9.65,-19.76 l -24.92,-24.61 c -1.02,-0.9 -1.02,-1.06 -1.02,-4.02 l 42.58,0 3.12,18.86 z"
           inkscape:connector-curvature="0" /></g><g
         id="g3236"
         transform="matrix(0.74044266,0,0,0.74044266,556.17169,584.92545)"><path
           id="path126"
           style="fill:#000000;fill-opacity:1;fill-rule:nonzero;stroke:none"
           d="m 2160.2,2289.13 -0.16,-0.58 0,-0.47 -0.12,-0.43 -0.15,-0.43 -0.16,-0.47 -0.16,-0.43 -0.11,-0.27 -0.16,-0.47 -0.16,-0.28 -0.15,-0.31 -0.16,-0.27 -0.27,-0.32 -0.16,-0.31 -0.27,-0.12 -0.31,-0.31 -0.32,-0.15 -0.27,-0.12 -0.43,-0.16 -0.47,-0.15 -0.86,-0.32 -0.31,0 -0.16,-0.11 -0.58,0 -0.28,-0.16 -1.05,0 -0.27,-0.16 -2.82,0 -0.47,-0.15 -2.5,0 c -2.5,0 -4.14,0 -4.14,-2.78 0,-1.79 1.33,-1.79 4.14,-1.79 l 48.56,0 -2.66,4.57 -16.52,0 c -2.07,0 -2.34,0 -3.24,0.15 -1.49,0.16 -1.92,0.32 -1.92,1.49 0,0.43 0,0.74 0.75,3.4 l 20.03,80.43 c 1.33,5.15 1.64,5.58 7.97,5.58 l 15.67,0 c 14.45,0 26.72,-7.65 26.72,-27.15 0,-7.07 -2.97,-31.13 -15.51,-47.38 -4.26,-5.31 -15.78,-16.52 -33.95,-16.52 l 2.66,-4.57 c 30.55,0 59.49,31.01 59.49,63.16 0,20.67 -12.42,37.03 -34.53,37.03 l -49.3,0 c -2.81,0 -4.45,0 -4.45,-2.77 0,-1.8 1.33,-1.8 4.3,-1.8 1.91,0 4.57,-0.11 6.32,-0.27 2.39,-0.31 3.29,-0.74 3.29,-2.38 0,-0.59 -0.16,-1.02 -0.63,-2.82 l -19.76,-78.63 z"
           inkscape:connector-curvature="0" /><path
           id="path128"
           style="fill:#000000;fill-opacity:1;fill-rule:nonzero;stroke:none"
           d="m 2286.68,2289.87 1.48,0 0.75,-0.15 0.7,0 0.62,-0.16 0.71,-0.27 0.62,-0.16 0.71,-0.31 0.62,-0.27 0.59,-0.32 0.58,-0.27 0.59,-0.31 0.43,-0.43 0.58,-0.47 0.47,-0.43 0.43,-0.59 0.43,-0.43 0.47,-0.58 0.43,-0.63 0.31,-0.58 0.43,-0.75 0.28,-0.7 0.62,-1.48 0.12,-0.75 0.31,-0.89 0.16,-0.75 0.11,-0.86 0,-1.05 0.16,-0.86 0,-2.07 c 0,-12.7 -7.38,-16.56 -13.28,-16.56 -4.14,0 -13.13,1.21 -17.42,7.26 4.72,0.28 5.93,3.67 5.93,5.75 0,3.24 -2.53,5.62 -5.62,5.62 -2.97,0 -5.74,-1.8 -5.74,-5.94 0,-9.57 10.62,-15.93 23.01,-15.93 14.29,0 24.21,9.6 24.21,19.8 0,8.09 -6.64,16.05 -17.89,18.44 10.79,3.83 14.61,11.52 14.61,17.85 0,8.12 -9.29,14.18 -20.62,14.18 -11.53,0 -20.24,-5.63 -20.24,-13.75 0,-3.52 2.35,-5.43 5.32,-5.43 3.24,0 5.31,2.34 5.31,5.16 0,2.92 -2.07,5.15 -5.31,5.31 3.67,4.57 10.78,5.74 14.61,5.74 4.57,0 11.05,-2.34 11.05,-11.21 0,-4.3 -1.44,-8.99 -4.1,-12.27 -3.4,-3.82 -6.37,-4.1 -11.37,-4.41 -2.65,-0.16 -2.81,-0.16 -3.4,-0.27 -0.15,0 -1.05,-0.16 -1.05,-1.33 0,-1.49 1.05,-1.49 2.81,-1.49 l 5.47,0 z"
           inkscape:connector-curvature="0" /></g><g
         id="g3207"
         transform="matrix(0.7143495,0,0,0.7143495,152.78889,543.48425)"><path
           id="path130"
           style="fill:#000000;fill-opacity:1;fill-rule:nonzero;stroke:none"
           d="m 616.051,2001.59 0,1.88 -0.192,0.35 0,1.13 -0.39,1.49 -0.16,0.74 -0.188,0.74 -0.391,1.09 -0.16,0.55 -0.191,0.59 -0.399,0.35 -0.152,0.55 -0.387,0.39 -0.203,0.39 -1.289,1.29 -0.347,0.19 -0.391,0.16 -0.352,0.19 -0.39,0.2 -0.199,0.19 -0.348,0.16 -0.391,0 -0.351,0.19 -0.59,0 -0.352,0.2 -0.386,0 c -4.614,0 -9.102,-4.84 -9.102,-8.91 0,-2.42 0.941,-3.55 3.012,-5.58 3.859,-3.71 6.289,-8.56 6.289,-15.04 0,-7.81 -11.332,-50.16 -32.852,-50.16 -9.5,0 -13.75,6.49 -13.75,16.17 0,10.39 5,23.75 10.781,38.99 1.29,3.16 2.219,5.78 2.219,9.3 0,8.35 -5.969,15.23 -15.23,15.23 -17.309,0 -24.34,-26.76 -24.34,-28.44 0,-1.83 1.84,-1.83 2.23,-1.83 1.84,0 2.032,0.35 2.969,3.32 5.391,18.59 13.203,22.85 18.551,22.85 1.492,0 4.652,0 4.652,-5.94 0,-4.65 -1.832,-9.65 -3.16,-13.01 -7.973,-21.36 -10.391,-29.88 -10.391,-37.69 0,-20.08 16.168,-22.85 24.719,-22.85 31.02,0 41.602,60.93 41.602,70.58 z"
           inkscape:connector-curvature="0" /><path
           id="path132"
           style="fill:#000000;fill-opacity:1;fill-rule:nonzero;stroke:none"
           d="m 710.59,1979.29 0.351,0.93 0.188,0.55 0,0.39 0.199,0.55 0.192,0.39 0.16,0.35 0.199,0.39 0.191,0.55 0.2,0.39 0.351,0.35 0.188,0.39 0.351,0.35 0.199,0.39 0.391,0.36 0.352,0.19 0.386,0.35 0.352,0.39 0.551,0.2 0.39,0.15 0.547,0.4 0.582,0.19 0.551,0.16 0.551,0.19 0.738,0.2 0.551,0.19 0.738,0.16 0.742,0.19 1.68,0 0.551,0.2 1.328,0 c 0.738,0 2.57,0.19 2.57,2.77 0,0.94 -0.539,1.88 -1.832,1.88 -4.098,0 -9.098,-0.55 -13.398,-0.55 -4.258,0 -9.649,0.55 -13.559,0.55 -0.742,0 -2.57,0 -2.57,-2.81 0,-1.65 1.679,-1.84 2.769,-1.84 6.129,-0.2 8.36,-2.03 8.36,-5.39 0,-0.55 -0.2,-1.13 -0.2,-1.68 -2.031,-8.36 -11.519,-47.34 -13.16,-51.25 -7.269,-16.52 -22.3,-23.2 -32.89,-23.2 -8.711,0 -18.008,4.45 -18.008,17.26 0,2.97 0.547,6.13 1.289,9.1 l 12.461,49.77 c 1.289,4.26 1.488,5.39 11.488,5.39 2.07,0 3.75,0 3.75,2.77 0,0.55 -0.39,1.88 -2.07,1.88 -3.719,0 -13.168,-0.55 -16.879,-0.55 -2.231,0 -6.723,0 -8.941,0.16 -2.579,0.19 -5.75,0.39 -8.168,0.39 -0.743,0 -2.582,0 -2.582,-2.81 0,-1.84 1.492,-1.84 4.07,-1.84 0,0 2.609,0 4.84,-0.2 2.769,-0.35 2.968,-0.54 2.968,-1.83 0,-0.74 -1.289,-5.78 -2.027,-8.75 l -2.82,-11.33 -7.422,-29.53 c -1.289,-5.39 -1.289,-6.33 -1.289,-8.91 0,-15.97 13.172,-25.62 28.789,-25.62 17.82,0 35.082,14.49 39.383,31.36 l 11.328,45.32 z"
           inkscape:connector-curvature="0" /></g><g
         id="g3211"
         transform="matrix(0.7143495,0,0,0.7143495,209.73903,467.81626)"><path
           id="path134"
           style="fill:#000000;fill-opacity:1;fill-rule:nonzero;stroke:none"
           d="m 759.41,1680.69 0,1.88 -0.191,0.35 0,1.13 -0.16,0.75 -0.579,2.22 -0.16,0.55 -0.199,0.55 -0.191,0.58 -0.2,0.55 -0.351,0.35 -0.188,0.59 -0.351,0.35 -0.199,0.39 -0.391,0.35 -0.352,0.39 -0.546,0.55 -0.391,0.19 -0.352,0.2 -0.39,0.15 -0.391,0.2 -0.156,0.19 -0.391,0.2 -0.351,0 -0.391,0.16 -0.551,0 -0.386,0.19 -0.352,0 c -4.648,0 -9.102,-4.84 -9.102,-8.9 0,-2.43 0.942,-3.56 2.973,-5.59 3.899,-3.71 6.328,-8.56 6.328,-15.04 0,-7.81 -11.328,-50.16 -32.898,-50.16 -9.449,0 -13.75,6.53 -13.75,16.18 0,10.39 5.039,23.78 10.789,38.98 1.289,3.16 2.219,5.78 2.219,9.3 0,8.36 -5.93,15.23 -15.231,15.23 -17.269,0 -24.34,-26.76 -24.34,-28.4 0,-1.87 1.883,-1.87 2.231,-1.87 1.871,0 2.07,0.39 2.972,3.36 5.387,18.55 13.2,22.81 18.59,22.81 1.489,0 4.649,0 4.649,-5.94 0,-4.65 -1.879,-9.65 -3.16,-13.01 -8.008,-21.32 -10.399,-29.88 -10.399,-37.69 0,-20.04 16.141,-22.85 24.688,-22.85 31.019,0 41.601,60.94 41.601,70.58 z"
           inkscape:connector-curvature="0" /><path
           id="path136"
           style="fill:#000000;fill-opacity:1;fill-rule:nonzero;stroke:none"
           d="m 855.078,1657.1 0.352,0.74 0.59,0.59 0.351,0.54 0.539,0.55 0.391,0.55 0.359,0.58 0.578,0.55 0.352,0.55 0.941,0.94 0.348,0.39 0.59,0.35 0.351,0.39 0.391,0.35 0.551,0.39 0.386,0.35 0.551,0.39 0.539,0.16 0.391,0.39 0.551,0.2 0.55,0.35 0.391,0.19 0.539,0.2 0.551,0.15 0.551,0.2 0.578,0.19 0.551,0.2 0.55,0 0.739,0.16 0.55,0 0.579,0.19 0.742,0 c 1.488,0.2 2.969,0.2 2.969,2.77 0,0.4 -0.391,1.88 -1.872,1.88 -3.168,0 -7.027,-0.55 -10.386,-0.55 -4.102,0 -9.461,0.55 -13.364,0.55 -1.128,0 -2.617,-0.39 -2.617,-2.77 0,-1.68 1.879,-1.88 2.231,-1.88 4.289,-0.19 5.386,-1.83 5.386,-3.71 0,-1.87 -0.937,-3.16 -2.418,-5.2 l -42.351,-62.57 -11.68,66.09 c -0.39,1.13 -0.39,1.33 -0.39,1.88 0,3.51 7.269,3.51 8.171,3.51 2.219,0 3.899,0 3.899,2.77 0,0.2 -0.188,1.88 -2.219,1.88 -3.711,0 -12.82,-0.55 -16.719,-0.55 -3.171,0 -11.14,0.55 -14.3,0.55 -1.09,0 -2.621,-0.39 -2.621,-2.77 0,-1.88 1.878,-1.88 3.359,-1.88 7.23,0 7.23,-0.74 8.012,-4.06 l 14.097,-78.6 c 0.352,-2.77 0.551,-3.51 2.973,-3.51 2.617,0 3.168,0.94 4.449,2.97 l 49.418,72.42 z"
           inkscape:connector-curvature="0" /></g><g
         id="g3215"
         transform="matrix(0.71428571,0,0,0.71428571,37.411714,358.76857)"><path
           id="path138"
           style="fill:#000000;fill-opacity:1;fill-rule:nonzero;stroke:none"
           d="m 212.109,1354.68 0,1.87 -0.16,0.35 0,1.14 -0.578,2.22 -0.16,0.75 -0.191,0.54 -0.2,0.59 -0.199,0.55 -0.152,0.54 -0.391,0.39 -0.199,0.55 -0.348,0.35 -0.191,0.39 -0.391,0.35 -0.359,0.39 -0.539,0.55 -0.391,0.2 -0.359,0.19 -0.391,0.16 -0.351,0.19 -0.188,0.2 -0.391,0.19 -0.359,0 -0.391,0.2 -0.539,0 -0.351,0.16 -0.391,0 c -4.648,0 -9.109,-4.81 -9.109,-8.91 0,-2.42 0.941,-3.52 2.969,-5.59 3.91,-3.71 6.332,-8.51 6.332,-15.04 0,-7.77 -11.332,-50.15 -32.891,-50.15 -9.449,0 -13.75,6.52 -13.75,16.17 0,10.39 5.039,23.79 10.781,39.02 1.289,3.13 2.231,5.75 2.231,9.26 0,8.36 -5.942,15.24 -15.242,15.24 -17.258,0 -24.329,-26.72 -24.329,-28.4 0,-1.88 1.868,-1.88 2.258,-1.88 1.84,0 2.031,0.39 2.973,3.36 5.348,18.56 13.168,22.85 18.558,22.85 1.481,0 4.649,0 4.649,-5.97 0,-4.61 -1.879,-9.65 -3.168,-12.97 -7.973,-21.37 -10.391,-29.92 -10.391,-37.74 0,-20.04 16.168,-22.81 24.692,-22.81 31.008,0 41.597,60.9 41.597,70.55 z"
           inkscape:connector-curvature="0" /><path
           id="path140"
           style="fill:#000000;fill-opacity:1;fill-rule:nonzero;stroke:none"
           d="m 349.379,1331.28 2.223,3.36 c 2.777,3.51 5.777,6.68 12.269,7.23 1.289,0.19 2.969,0.19 2.969,2.81 0,0.9 -0.75,1.83 -1.84,1.83 -3.012,0 -6.719,-0.54 -9.84,-0.54 -4.5,0 -10.039,0.54 -14.34,0.54 -0.742,0 -2.769,0 -2.769,-2.77 0,-1.68 1.871,-1.87 2.418,-1.87 2.769,-0.16 7.07,-0.9 7.07,-4.46 0,-1.48 -1.488,-3.9 -2.07,-4.65 l -36.41,-59.8 -7.028,65.19 c 0,3.56 7.418,3.72 8.91,3.72 1.829,0 3.508,0 3.508,2.81 0,0.15 0,1.83 -2.219,1.83 -2.429,0 -5.55,-0.19 -7.968,-0.35 -2.621,-0.19 -5.942,-0.19 -8.563,-0.19 -2.969,0 -10.578,0.54 -13.551,0.54 -0.546,0 -2.617,0 -2.617,-2.77 0,-1.87 1.68,-1.87 3.36,-1.87 5.589,0 6.328,-0.9 6.679,-2.23 0.2,-0.74 0.391,-4.26 0.942,-8.36 l -35.672,-58.32 -6.871,63.16 c 0,0.55 -0.199,1.84 -0.199,2.03 0,3.72 8.011,3.72 9.109,3.72 1.672,0 3.351,0 3.351,2.81 0,0.54 -0.39,1.83 -2.07,1.83 -3.711,0 -12.808,-0.54 -16.519,-0.54 -4.262,0 -9.84,0.54 -13.75,0.54 -1.289,0 -2.582,-0.54 -2.582,-2.77 0,-1.87 1.679,-1.87 3.711,-1.87 6.14,0 6.14,-0.75 6.492,-4.07 l 8.547,-78.59 c 0.39,-2.58 0.55,-3.52 2.781,-3.52 2.262,0 3.16,1.14 3.898,2.62 l 40.313,66.49 7.269,-65.75 c 0.16,-2.61 0.739,-3.36 2.77,-3.36 2.23,0 2.969,1.14 3.91,2.78 l 44.379,72.81 z"
           inkscape:connector-curvature="0" /></g><g
         id="g3244"
         transform="matrix(0.66996064,0,0,0.66996064,975.71846,491.65303)"><path
           id="path142"
           style="fill:#000000;fill-opacity:1;fill-rule:nonzero;stroke:none"
           d="m 3043.91,1595.07 0,1.99 -0.2,0.39 0,1.21 -0.19,0.82 -0.24,0.78 -0.19,0.82 -0.2,0.79 -0.19,0.62 -0.4,1.17 -0.19,0.63 -0.43,0.39 -0.2,0.58 -0.39,0.43 -0.19,0.39 -0.39,0.39 -0.43,0.4 -0.2,0.23 -0.39,0.39 -0.39,0.2 -0.43,0.19 -0.78,0.39 -0.19,0.24 -0.4,0.19 -0.42,0 -0.4,0.2 -0.58,0 -0.43,0.19 -0.39,0 c -5,0 -9.81,-5.19 -9.81,-9.61 0,-2.61 1.02,-3.83 3.21,-6.01 4.22,-4.03 6.79,-9.22 6.79,-16.25 0,-8.4 -12.22,-54.07 -35.43,-54.07 -10.23,0 -14.84,7 -14.84,17.43 0,11.21 5.43,25.62 11.64,42.07 1.37,3.4 2.38,6.21 2.38,10 0,9.02 -6.4,16.44 -16.4,16.44 -18.64,0 -26.25,-28.87 -26.25,-30.66 0,-1.99 1.99,-1.99 2.38,-1.99 2.03,0 2.23,0.39 3.2,3.59 5.82,20.04 14.22,24.65 20.04,24.65 1.6,0 5,0 5,-6.41 0,-5 -1.99,-10.43 -3.4,-14.02 -8.59,-23.05 -11.21,-32.27 -11.21,-40.67 0,-21.64 17.42,-24.64 26.64,-24.64 33.48,0 44.89,65.7 44.89,76.13 z"
           inkscape:connector-curvature="0" /><path
           id="path144"
           style="fill:#000000;fill-opacity:1;fill-rule:nonzero;stroke:none"
           d="m 3121.45,1528.15 0,1.41 -0.24,1.41 -0.19,1.4 -0.2,1.18 -0.2,1.4 -0.78,2.42 -0.43,1.21 -0.58,0.98 -0.63,1.21 -0.58,1.02 -0.59,0.97 -0.82,0.82 -0.59,1.02 -0.82,0.78 -0.97,0.82 -0.82,0.78 -0.98,0.59 -0.82,0.82 -1.01,0.58 -0.98,0.63 -1.21,0.39 -1.02,0.59 -1.17,0.43 -1.02,0.39 -1.21,0.19 -1.21,0.39 -1.17,0.2 -1.21,0.23 -1.21,0 -1.41,0.2 -1.21,0 c -20.62,0 -40.23,-19.46 -40.23,-38.48 0,-14.02 10.19,-24.45 25.43,-24.45 l 0.19,4.02 c -7.03,0 -14.02,4.42 -14.02,15.43 0,5.59 2.62,19.22 8.2,27.23 5.82,8.63 14.03,12.22 20.24,12.22 7.61,0 14.02,-5 14.02,-15.43 0,-3.39 -1.8,-17.03 -7.81,-26.83 -5.39,-8.2 -13.64,-12.62 -20.63,-12.62 l -0.19,-4.02 c 20.04,0 40.08,18.44 40.08,38.47 z"
           inkscape:connector-curvature="0" /><path
           id="path146"
           style="fill:#000000;fill-opacity:1;fill-rule:nonzero;stroke:none"
           d="m 3185.12,1513.74 0,-0.43 -0.2,-0.19 0,-0.59 -0.19,-0.39 0,-0.2 -0.2,-0.62 -0.19,-0.78 -0.2,-0.63 -0.19,-0.78 0,-0.62 -0.24,-0.2 0,-0.39 -0.19,-0.2 0,-0.58 -0.2,-0.24 0,-0.58 -0.2,-0.2 0,-0.39 -0.19,0 0,-0.23 c -2.62,-4.38 -8.2,-11.8 -17.03,-11.8 -9.42,0 -9.42,9.02 -9.42,11.41 0,8.2 3.79,18.24 7.82,28.24 1.01,2.81 1.79,5.04 1.79,7.23 0,7.22 -6.01,12.03 -13.2,12.03 -14.02,0 -20.23,-19.26 -20.23,-21.45 0,-1.79 1.99,-1.79 2.38,-1.79 2.03,0 2.03,0.78 2.42,2.18 3.4,11.45 9.61,17.03 15,17.03 2.42,0 3.44,-1.4 3.44,-4.8 0,-3.2 -1.02,-6.21 -2.42,-9.41 -7.62,-19.22 -7.62,-23.25 -7.62,-26.84 0,-2.42 0,-8.83 5.23,-13.44 3.99,-3.2 9.42,-4.41 14.42,-4.41 8.79,0 13.4,4.8 18.01,9.22 3.2,-8.79 12.42,-9.22 14.21,-9.22 4.61,0 8.25,2.81 11.06,7.42 2.97,5.43 5,13.44 5,13.83 0,1.99 -2.03,1.99 -2.42,1.99 -1.99,0 -2.19,-0.59 -3.01,-4.41 -1.8,-6.61 -4.41,-14.81 -10.2,-14.81 -3.63,0 -4.61,3.2 -4.61,6.8 0,2.42 0.98,7.42 2,11.01 1.01,3.64 2.42,9.42 3.2,12.43 l 3.2,12.42 c 0.82,3.63 2.23,9.61 2.23,10.43 0,2.61 -2.23,4.41 -4.61,4.41 -5.04,0 -6.02,-4.02 -7.23,-8.63 l -7.22,-28.83 z"
           inkscape:connector-curvature="0" /><path
           id="path148"
           style="fill:#000000;fill-opacity:1;fill-rule:nonzero;stroke:none"
           d="m 3254.84,1546.2 14.22,0 c 2.62,0 4.42,0 4.42,2.97 0,2.03 -1.8,2.03 -4.22,2.03 l -13.21,0 5.2,20.63 c 0,0.58 0.39,1.4 0.39,1.99 0,2.42 -1.99,4.41 -4.8,4.41 -3.4,0 -5.59,-2.38 -6.61,-6.01 -0.78,-3.6 1.02,3.2 -5.19,-21.02 l -14.22,0 c -2.62,0 -4.41,0 -4.41,-3.2 0,-1.8 1.6,-1.8 3.98,-1.8 l 13.44,0 -8.21,-32.89 c -1.01,-3.59 -2.22,-8.59 -2.22,-10.39 0,-8.2 7.03,-13.24 15.04,-13.24 15.43,0 24.26,19.45 24.26,21.25 0,1.99 -1.84,1.99 -2.23,1.99 -1.8,0 -1.8,-0.39 -3.01,-2.81 -3.79,-8.6 -11.01,-16.41 -18.63,-16.41 -3.01,0 -5,1.8 -5,6.8 0,1.4 0.58,4.22 1.01,5.62 l 10,40.08 z"
           inkscape:connector-curvature="0" /></g><path
         d="m 2989.0797,522.12488 0,1.34766 -0.1356,0.2915 0,0.79449 -0.1288,0.55588 -0.1627,0.5274 -0.1288,0.55588 -0.1356,0.52944 -0.1288,0.42639 -0.1356,0.39454 -0.1355,0.4264 -0.1288,0.39182 -0.2915,0.26506 -0.1356,0.42911 -0.2644,0.26167 -0.1288,0.26505 -0.9558,0.95584 -0.2644,0.12948 -0.2915,0.13558 -0.2644,0.12947 -0.2644,0.16134 -0.1288,0.13016 -0.2711,0.1349 -0.2847,0 -0.2712,0.12948 -0.3932,0 -0.2915,0.13558 -0.2643,0 c -3.3895,0 -6.6502,-3.52507 -6.6502,-6.51459 0,-1.77677 0.6914,-2.5977 2.176,-4.08026 2.8608,-2.69871 4.603,-6.24412 4.603,-10.9894 0,-5.71467 -8.284,-36.67559 -24.0179,-36.67559 -6.9349,0 -10.06,4.73986 -10.06,11.81033 0,7.59719 3.6809,17.40026 7.8907,28.51913 0.9287,2.30417 1.6134,4.20771 1.6134,6.80541 0,6.09362 -4.3386,11.12497 -11.1175,11.12497 -12.636,0 -17.7948,-19.54513 -17.7948,-20.79246 0,-1.34834 1.349,-1.34834 1.6134,-1.34834 1.3761,0 1.5117,0.26506 2.1692,2.43907 3.9454,13.5871 9.6397,16.70407 13.5851,16.70407 1.0846,0 3.3895,0 3.3895,-4.33787 0,-3.38948 -1.349,-7.06978 -2.3049,-9.50344 -5.8231,-15.6262 -7.5992,-21.87574 -7.5992,-27.57143 0,-14.67037 11.809,-16.70949 18.0592,-16.70949 22.696,0 30.4308,44.5453 30.4308,51.61577 z"
         style="fill:#000000;fill-opacity:1;fill-rule:nonzero;stroke:none"
         id="path150"
         inkscape:connector-curvature="0" /><path
         d="m 3070.2918,505.83434 0.1355,0.66433 0.2644,0.68332 0.1288,0.26506 0.1356,0.42911 0.1288,0.26167 0.1627,0.26506 0.1288,0.26506 0.1356,0.29081 0.1288,0.39996 0.2644,0.26506 0.1355,0.29082 0.2915,0.13015 0.7932,0.79179 0.2915,0.16405 0.2643,0.26506 0.4,0.1349 0.2915,0.26438 0.7931,0.26234 0.5559,0.1566 0.3932,0.13761 0.5559,0.12677 0.5355,0.1349 0.5559,0.13016 1.2134,0 0.2644,0.1349 1.0914,0 c 0.4203,0 1.9049,0.12948 1.9049,2.04182 0,0.68332 -0.5559,1.34766 -1.4846,1.34766 -3.1251,0 -6.6705,-0.39996 -9.7956,-0.39996 -2.3048,0 -7.7348,0.39996 -10.0397,0.39996 -0.4203,0 -1.9048,0 -1.9048,-2.01267 0,-1.24733 1.2202,-1.37681 2.0404,-1.37681 4.4741,-0.1349 6.1147,-1.48256 6.1147,-3.91621 0,-0.69417 -0.1288,-1.11243 -0.4203,-2.20317 l -10.3041,-41.12124 -24.045,49.00925 c -0.6847,1.62085 -0.949,1.62085 -3.1251,1.62085 l -13.0292,0 c -1.7693,0 -2.9895,0 -2.9895,-2.01267 0,-1.37681 1.0846,-1.37681 3.1251,-1.37681 2.0405,0 4.0809,-0.1349 5.9587,-0.52673 l -12.6292,-50.39487 c -0.7999,-3.65455 -2.4404,-6.51663 -9.7753,-6.77897 -0.6847,0 -2.0405,-0.13762 -2.0405,-2.04183 0,-0.9477 0.8203,-1.37681 1.5118,-1.37681 3.1251,0 6.5145,0.42911 9.7685,0.42911 2.3048,0 7.7348,-0.42911 10.0396,-0.42911 0.9558,0 1.9049,0.55588 1.9049,2.04183 0,1.23919 -1.2134,1.37681 -2.1693,1.37681 -5.9858,0.26234 -5.9858,2.69531 -5.9858,3.91621 0,0.42639 0,0.95583 0.4271,2.46009 l 12.0733,48.32932 27.5633,-56.48239 c 0.8203,-1.47782 1.0847,-1.64187 2.1761,-1.64187 1.5049,0 1.5049,0.2915 1.9049,2.04183 l 13.1851,52.16351 z"
         style="fill:#000000;fill-opacity:1;fill-rule:nonzero;stroke:none"
         id="path152"
         inkscape:connector-curvature="0" /><g
         id="g3240"
         transform="matrix(0.678196,0,0,0.678196,951.3717,810.60496)"><path
           id="path154"
           style="fill:#000000;fill-opacity:1;fill-rule:nonzero;stroke:none"
           d="m 3043.91,2622.88 0,1.99 -0.2,0.43 0,1.21 -0.19,0.79 -0.24,0.82 -0.19,0.78 -0.2,0.82 -0.39,1.17 -0.2,0.62 -0.19,0.59 -0.43,0.39 -0.2,0.63 -0.39,0.39 -0.19,0.39 -0.39,0.43 -0.43,0.39 -0.59,0.58 -0.39,0.2 -0.43,0.19 -0.39,0.24 -0.39,0.19 -0.19,0.2 -0.4,0.19 -0.42,0 -0.4,0.2 -0.58,0 -0.43,0.19 -0.39,0 c -5,0 -9.81,-5.19 -9.81,-9.6 0,-2.62 1.02,-3.79 3.21,-6.02 4.22,-3.98 6.79,-9.22 6.79,-16.21 0,-8.44 -12.22,-54.1 -35.43,-54.1 -10.23,0 -14.84,7.03 -14.84,17.42 0,11.21 5.43,25.66 11.64,42.07 1.37,3.4 2.38,6.21 2.38,10.04 0,8.98 -6.4,16.4 -16.4,16.4 -18.64,0 -26.25,-28.82 -26.25,-30.62 0,-2.03 1.99,-2.03 2.38,-2.03 2.03,0 2.23,0.43 3.2,3.63 5.82,20 14.22,24.61 20.04,24.61 1.6,0 5,0 5,-6.41 0,-5 -1.99,-10.39 -3.4,-14.02 -8.59,-23.01 -11.21,-32.23 -11.21,-40.66 0,-21.64 17.42,-24.65 26.64,-24.65 33.48,0 44.89,65.74 44.89,76.13 z"
           inkscape:connector-curvature="0" /><path
           id="path156"
           style="fill:#000000;fill-opacity:1;fill-rule:nonzero;stroke:none"
           d="m 3095,2562.18 0.39,4.41 9.61,37.66 c 1.02,4.41 1.21,4.8 7.03,4.8 l 16.41,0 c 13.01,0 21.05,-3.98 21.05,-13.83 0,-4.17 -1.83,-15.19 -8.63,-21.6 -5,-4.41 -13.01,-7.03 -23.05,-7.03 l -22.42,0 -0.39,-4.41 25.23,0 c 23.44,0 43.48,15.04 43.48,30.27 0,11.6 -11.44,21.64 -30.66,21.64 l -48.67,0 c -2.82,0 -4.61,0 -4.61,-3.01 0,-2.03 1.6,-2.03 4.61,-2.03 2.38,0 2.81,0 5.39,-0.19 2.81,-0.39 3,-0.59 3,-1.99 0,-0.2 0,-1.02 -0.58,-3.01 l -18.44,-73.52 c -1.41,-5.43 -1.41,-6.4 -12.42,-6.4 -2.42,0 -4.03,0 -4.03,-3.01 0,-0.2 0,-1.99 2.23,-1.99 3.99,0 14.02,0.58 18.01,0.58 2.42,0 7.23,0 9.65,-0.19 2.77,0 6.4,-0.39 8.98,-0.39 0.82,0 3.01,0 3.01,2.96 0,2.04 -1.8,2.04 -4.61,2.04 0,0 -2.77,0 -5.19,0.39 -3.21,0.19 -3.21,0.58 -3.21,1.99 0,0.19 0,1.01 0.59,3.01 l 8.24,32.85 z"
           inkscape:connector-curvature="0" /></g><g
         id="g3219"
         transform="matrix(0.66771275,0,0,0.66771275,429.0434,240.41378)"><path
           id="path158"
           style="fill:#000000;fill-opacity:1;fill-rule:nonzero;stroke:none"
           d="m 1212.73,772.691 -0.15,-0.589 0,-0.473 -0.16,-0.43 -0.31,-0.937 -0.12,-0.434 -0.15,-0.308 -0.16,-0.469 -0.16,-0.27 -0.31,-0.633 -0.31,-0.308 -0.12,-0.27 -0.31,-0.16 -0.31,-0.308 -0.32,-0.161 -0.27,-0.152 -0.94,-0.32 -0.43,-0.11 -0.47,-0.16 -0.31,0 -0.15,-0.148 -0.59,0 -0.31,-0.16 -1.06,0 -0.31,-0.161 -2.85,0 -0.47,-0.152 -2.58,0 c -2.58,0 -4.22,0 -4.22,-2.859 0,-1.828 1.33,-1.828 4.22,-1.828 l 49.81,0 -2.7,4.687 -16.99,0 c -2.11,0 -2.42,0 -3.32,0.152 -1.52,0.161 -1.95,0.321 -1.95,1.532 0,0.429 0,0.738 0.74,3.468 l 20.58,82.54 c 1.37,5.281 1.68,5.742 8.21,5.742 l 16.05,0 c 14.81,0 27.38,-7.891 27.38,-27.852 0,-7.262 -3,-31.949 -15.89,-48.629 -4.38,-5.429 -16.22,-16.953 -34.81,-16.953 l 2.7,-4.687 c 31.36,0 61.05,31.8 61.05,64.8 0,21.207 -12.73,38.008 -35.47,38.008 l -50.54,0 c -2.9,0 -4.57,0 -4.57,-2.89 0,-1.797 1.36,-1.797 4.41,-1.797 1.95,0 4.69,-0.153 6.52,-0.313 2.42,-0.308 3.32,-0.738 3.32,-2.418 0,-0.59 -0.15,-1.062 -0.62,-2.89 l -20.28,-80.7 z"
           inkscape:connector-curvature="0" /><path
           id="path160"
           style="fill:#000000;fill-opacity:1;fill-rule:nonzero;stroke:none"
           d="m 1345.08,896.238 0,0.16 0.15,0 0,0.313 0.16,0 0,0.469 0.12,0 0,0.269 0.15,0.16 0,0.621 0.16,0 0,0.59 c 0,2.731 -2.42,4.41 -4.69,4.41 -3.04,0 -3.94,-2.261 -4.25,-3.468 l -11.65,-32.582 c -0.31,-0.739 -0.31,-1.059 -0.31,-1.059 0,-1.359 3.2,-1.949 3.2,-1.949 0.75,0 0.9,0.269 1.37,1.207 l 15.59,30.859 z"
           inkscape:connector-curvature="0" /><path
           id="path162"
           style="fill:#000000;fill-opacity:1;fill-rule:nonzero;stroke:none"
           d="m 1349.02,790.578 0,1.641 -0.15,0.152 0,0.32 -0.16,0.149 0,0.16 -0.16,0 0,0.148 -0.31,0 0,0.161 -0.58,0 -0.16,0.121 -1.68,0 c -6.64,-6.641 -16.21,-6.801 -20.59,-6.801 l 0,-3.789 c 2.58,0 9.54,0 15.32,3.051 l 0,-53.75 c 0,-3.52 0,-4.84 -10.63,-4.84 l -3.94,0 0,-3.789 c 1.83,0.148 14.84,0.429 18.79,0.429 3.16,0 16.52,-0.281 18.78,-0.429 l 0,3.789 -3.94,0 c -10.59,0 -10.59,1.32 -10.59,4.84 l 0,58.437 z"
           inkscape:connector-curvature="0" /></g><path
         d="m 1658.0354,756.34945 -0.1002,-0.39329 0,-0.31583 -0.1068,-0.28711 -0.207,-0.62565 -0.1068,-0.28979 -0.073,-0.20565 -0.1068,-0.31316 -0.1069,-0.18028 -0.2069,-0.42266 -0.207,-0.20566 -0.1069,-0.18028 -0.1802,-0.10684 -0.207,-0.20565 -0.4207,-0.209 -0.2871,-0.10683 -0.3138,-0.10683 -0.3139,-0.0734 -0.2871,-0.10684 -0.207,0 -0.1001,-0.0988 -0.394,0 -0.207,-0.10683 -0.7077,0 -0.207,-0.1075 -1.9297,0 -0.2871,-0.1015 -1.7227,0 c -1.7227,0 -2.8445,0 -2.8445,-1.90899 0,-1.22058 0.9148,-1.22058 2.8445,-1.22058 l 33.2587,0 -1.8295,3.12957 -11.3177,0 c -1.4089,0 -1.6159,0 -2.2168,0.1015 -1.0216,0.1075 -1.3021,0.21433 -1.3021,1.02293 0,0.28645 0,0.49277 0.4941,2.31563 l 13.7416,55.11301 c 0.9147,3.52619 1.1217,3.83401 5.4552,3.83401 l 10.7168,0 c 9.9155,0 18.3086,-5.26892 18.3086,-18.59714 0,-4.84893 -2.0298,-21.33275 -10.6099,-32.4702 C 1700.7089,759.29473 1692.8032,751.6 1680.3637,751.6 l 1.8295,-3.12957 c 20.9395,0 40.7372,21.23327 40.7372,43.26779 0,14.16019 -8.4733,25.37843 -23.6571,25.37843 l -33.7462,0 c -1.9363,0 -3.0581,0 -3.0581,-1.92969 0,-1.19988 0.9148,-1.19988 2.9513,-1.19988 1.302,0 3.1316,-0.10216 4.3268,-0.209 1.6225,-0.20565 2.2435,-0.49277 2.2435,-1.61453 0,-0.39395 -0.1002,-0.70911 -0.414,-1.92969 l -13.5412,-53.88441 z"
         style="fill:#000000;fill-opacity:1;fill-rule:nonzero;stroke:none"
         id="path164"
         inkscape:connector-curvature="0" /><path
         d="m 1746.4072,838.84335 0,0.10684 0.1001,0 0,0.20899 0.08,0 0,0.31316 0.1069,0 0,0.17961 0.1001,0.10684 0,0.41465 0.1069,0 0,0.39395 c 0,1.82352 -1.6159,2.94461 -3.1316,2.94461 -2.0298,0 -2.6308,-1.5097 -2.8445,-2.31563 l -7.7721,-21.75541 c -0.207,-0.49344 -0.207,-0.70711 -0.207,-0.70711 0,-0.90742 2.1166,-1.30137 2.1166,-1.30137 0.5208,0 0.621,0.17961 0.9081,0.80592 l 10.4364,20.60495 z"
         style="fill:#000000;fill-opacity:1;fill-rule:nonzero;stroke:none"
         id="path166"
         inkscape:connector-curvature="0" /><path
         d="m 1761.0635,736.33676 -2.4238,0 c -0.207,-1.5077 -0.9148,-5.76169 -1.8296,-6.46346 -0.5942,-0.41999 -5.9693,-0.41999 -6.9842,-0.41999 l -12.9403,0 c 7.3782,6.5783 9.8087,8.60748 14.0553,11.84389 5.275,4.14716 10.1226,8.47461 10.1226,15.15173 0,8.60682 -7.4851,13.74821 -16.4859,13.74821 -8.7871,0 -14.6563,-6.15564 -14.6563,-12.51961 0,-3.65173 3.0248,-3.93884 3.7326,-3.93884 1.6158,0 3.7525,1.09572 3.7525,3.62568 0,1.32741 -0.5208,3.75054 -4.1465,3.75054 2.11,5.03656 6.9642,6.57831 10.196,6.57831 7.0978,0 10.7234,-5.48259 10.7234,-11.24429 0,-6.04881 -4.3534,-10.90241 -6.5769,-13.43504 l -16.9733,-16.79231 c -0.7078,-0.59961 -0.7078,-0.70644 -0.7078,-2.70958 l 29.0055,0 2.1367,12.82476 z"
         style="fill:#000000;fill-opacity:1;fill-rule:nonzero;stroke:none"
         id="path168"
         inkscape:connector-curvature="0" /><g
         id="g3224"
         transform="matrix(0.65996436,0,0,0.65996436,728.59436,246.01986)"><path
           id="path170"
           style="fill:#000000;fill-opacity:1;fill-rule:nonzero;stroke:none"
           d="m 2160.55,774.828 -0.16,-0.617 0,-0.43 -0.31,-0.941 -0.16,-0.43 -0.12,-0.469 -0.15,-0.312 -0.16,-0.43 -0.47,-0.937 -0.31,-0.274 -0.12,-0.308 -0.31,-0.16 -0.31,-0.309 -0.31,-0.16 -0.28,-0.11 -0.93,-0.32 -0.43,-0.152 -0.47,-0.16 -0.32,0 -0.15,-0.161 -0.59,0 -0.31,-0.148 -1.06,0 -0.31,-0.16 -2.85,0 -0.47,-0.149 -2.58,0 c -2.57,0 -4.21,0 -4.21,-2.863 0,-1.828 1.32,-1.828 4.21,-1.828 l 49.81,0 -2.7,4.691 -16.99,0 c -2.11,0 -2.42,0 -3.32,0.149 -1.52,0.16 -1.95,0.308 -1.95,1.531 0,0.457 0,0.777 0.74,3.469 l 20.59,82.539 c 1.36,5.312 1.68,5.742 8.2,5.742 l 16.05,0 c 14.81,0 27.39,-7.851 27.39,-27.851 0,-7.258 -3.01,-31.95 -15.9,-48.59 -4.38,-5.469 -16.21,-16.989 -34.81,-16.989 l 2.7,-4.691 c 31.37,0 61.05,31.801 61.05,64.801 0,21.211 -12.73,38.008 -35.47,38.008 l -50.54,0 c -2.89,0 -4.57,0 -4.57,-2.848 0,-1.84 1.36,-1.84 4.41,-1.84 1.95,0 4.69,-0.152 6.52,-0.312 2.43,-0.27 3.33,-0.739 3.33,-2.418 0,-0.59 -0.16,-1.063 -0.63,-2.852 l -20.27,-80.711 z"
           inkscape:connector-curvature="0" /><path
           id="path172"
           style="fill:#000000;fill-opacity:1;fill-rule:nonzero;stroke:none"
           d="m 2292.89,898.391 0,0.16 0.16,0 0,0.269 0.15,0 0,0.469 0.12,0 0,0.313 0.16,0.16 0,0.578 0.15,0 0,0.629 c 0,2.691 -2.42,4.371 -4.68,4.371 -3.05,0 -3.95,-2.262 -4.26,-3.469 l -11.64,-32.582 c -0.32,-0.738 -0.32,-1.059 -0.32,-1.059 0,-1.359 3.21,-1.949 3.21,-1.949 0.74,0 0.9,0.309 1.36,1.207 l 15.59,30.903 z"
           inkscape:connector-curvature="0" /></g><path
         d="m 2240.1173,748.07455 1.4982,0 0.4883,-0.10031 0.4158,-0.10296 0.4884,-0.0798 0.4092,-0.20657 0.4883,-0.20327 0.4158,-0.10559 0.3894,-0.20393 0.4092,-0.28379 0.3893,-0.20591 0.3102,-0.30952 0.3828,-0.28378 0.3102,-0.30887 0.3102,-0.38938 0.2838,-0.30424 0.3101,-0.38938 0.3102,-0.41776 0.1782,-0.38146 0.3102,-0.51543 0.2046,-0.49497 0.1782,-0.4072 0.2112,-0.59595 0.099,-0.48705 0.2112,-0.62103 0.099,-0.48771 0.1056,-0.59529 0,-0.69362 0.079,-0.61839 0,-1.39252 c 0,-8.5868 -4.9761,-11.18838 -8.9755,-11.18838 -2.8114,0 -8.8963,0.79922 -11.8067,4.89826 3.1942,0.20393 3.9993,2.5006 3.9993,3.89247 0,2.19174 -1.7027,3.79017 -3.7948,3.79017 -2.0062,0 -3.8937,-1.083 -3.8937,-4.00136 0,-6.49405 7.1936,-10.76798 15.5751,-10.76798 9.6949,0 16.3935,6.49405 16.3935,13.37682 0,5.49156 -4.4811,10.90261 -12.0905,12.4984 7.2992,2.58046 9.8995,7.89384 9.8995,12.09847 0,5.4909 -6.2895,9.5873 -13.9979,9.5873 -7.7876,0 -13.6877,-3.81261 -13.6877,-9.31144 0,-2.39501 1.5972,-3.68128 3.6101,-3.68128 2.191,0 3.5836,1.5958 3.5836,3.47736 0,2.11914 -1.3926,3.50375 -3.5836,3.60934 2.5012,3.09589 7.2926,3.89511 9.873,3.89511 3.1151,0 7.5038,-1.59843 7.5038,-7.57639 0,-2.91836 -1.0097,-6.11259 -2.785,-8.30367 -2.3231,-2.6062 -4.3096,-2.81013 -7.7084,-2.98832 -1.8083,-0.1056 -1.9073,-0.1056 -2.2967,-0.21119 -0.1056,0 -0.693,-0.10031 -0.693,-0.89689 0,-1.01107 0.693,-1.01107 1.8809,-1.01107 l 3.709,0 z"
         style="fill:#000000;fill-opacity:1;fill-rule:nonzero;stroke:none"
         id="path174"
         inkscape:connector-curvature="0" /><path
         d="M 69.2188,1573.78 0.699219,1550.5 14.8008,1621.47 69.2188,1573.78 z"
         style="fill:#000000;fill-opacity:1;fill-rule:nonzero;stroke:none"
         id="path176" /><path
         d="m 69.2227,1573.78 -68.519575,-23.28 14.101575,70.98 54.418,-47.7 z"
         style="fill:none;stroke:#000000;stroke-opacity:1;stroke-width:1.09522;stroke-linecap:butt;stroke-linejoin:miter;stroke-miterlimit:4;stroke-dasharray:none"
         id="path178" /><path
         d="M 2.14453,1551.04 132.066,1699.52"
         style="fill:none;stroke:#000000;stroke-opacity:1;stroke-width:2.9086;stroke-linecap:butt;stroke-linejoin:miter;stroke-miterlimit:4;stroke-dasharray:none"
         id="path180" /><path
         d="m 521.02,1379.64 16.32,-78.52 -76.168,25.12 59.848,53.4 z"
         style="fill:#000000;fill-opacity:1;fill-rule:nonzero;stroke:none"
         id="path182" /><path
         d="m 521.008,1379.64 16.34,-78.51 -76.176,25.11 59.836,53.4 z"
         style="fill:none;stroke:#000000;stroke-opacity:1;stroke-width:1.21415;stroke-linecap:butt;stroke-linejoin:miter;stroke-miterlimit:4;stroke-dasharray:none"
         id="path184" /><path
         d="M 537.027,1301.55 421.68,1430.69"
         style="fill:none;stroke:#000000;stroke-opacity:1;stroke-width:2.55294;stroke-linecap:butt;stroke-linejoin:miter;stroke-miterlimit:4;stroke-dasharray:none"
         id="path186" /><g
         id="g188"
         transform="scale(10,10)"><text
           transform="matrix(1,0,0,-1,11.2391,83.7504)"
           id="text190"><tspan
             style="fill:#000000;fill-opacity:1;fill-rule:nonzero;stroke:none;font-family:Cmr10;font-variant:normal;font-weight:normal;font-size:11.2px;writing-mode:lr;-inkscape-font-specification:Cmr10"
             x="0 6.08545 10.1383597 16.8932092 23.6480587 29.7335087 34.5288433 39.9327229 43.9856326 53.1138076"
             y="0"
             sodipodi:role="line"
             id="tspan192">3-phase AC</tspan><tspan
             style="fill:#000000;fill-opacity:1;fill-rule:nonzero;stroke:none;font-family:Cmr10;font-variant:normal;font-weight:normal;font-size:11.2px;writing-mode:lr;-inkscape-font-specification:Cmr10"
             x="-4.38555 2.3692995 8.4547495 17.2421393 22.6460189 27.4048408 31.4577505 36.2530851 43.0079346 49.7627841 56.5176336 59.8889729"
             y="15.2137"
             sodipodi:role="line"
             id="tspan194">power supply</tspan><tspan
             style="fill:#000000;fill-opacity:1;fill-rule:nonzero;stroke:none;font-family:Cmr10;font-variant:normal;font-weight:normal;font-size:11.2px;writing-mode:lr;-inkscape-font-specification:Cmr10"
             x="136.87845 146.006625 152.7614745 158.1653541 164.2508041 171.0056536 175.7279628 180.4867847 186.5722347 189.943574 193.3149133 198.7187929"
             y="49.8153"
             sodipodi:role="line"
             id="tspan196">Uncontrolled</tspan><tspan
             style="fill:#000000;fill-opacity:1;fill-rule:nonzero;stroke:none;font-family:Cmr10;font-variant:normal;font-weight:normal;font-size:11.2px;writing-mode:lr;-inkscape-font-specification:Cmr10"
             x="136.87845 145.6658398 151.7512898 158.5061393 164.9202036 170.3240832 175.0829051 179.8052143 185.2090939"
             y="65.029"
             sodipodi:role="line"
             id="tspan198">Converter</tspan><tspan
             style="fill:#000000;fill-opacity:1;fill-rule:nonzero;stroke:none;font-family:Cmr10;font-variant:normal;font-weight:normal;font-size:11.2px;writing-mode:lr;-inkscape-font-specification:Cmr10"
             x="136.87845 143.6332995 148.4286341 151.7999734 158.5548229 164.6402729 168.6931826 175.4480321 178.8193714 184.9048214 191.6596709 197.0635505"
             y="80.2427"
             sodipodi:role="line"
             id="tspan200">using diodes</tspan></text>
</g><path
         d="m 1827.77,2412.68 230.12,0"
         style="fill:none;stroke:#000000;stroke-opacity:1;stroke-width:5.53225;stroke-linecap:butt;stroke-linejoin:miter;stroke-miterlimit:4;stroke-dasharray:none"
         id="path202" /><path
         d="m 1830.78,2215.97 112.62,194.84 112.42,-195 -225.04,0.16 z"
         style="fill:#000000;fill-opacity:1;fill-rule:nonzero;stroke:none"
         id="path204" /><path
         d="m 1830.78,2215.96 112.62,194.85 112.42,-195 -225.04,0.15 z"
         style="fill:none;stroke:#000000;stroke-opacity:1;stroke-width:3.40738;stroke-linecap:butt;stroke-linejoin:miter;stroke-miterlimit:4;stroke-dasharray:none"
         id="path206" /><path
         d="m 2306.88,2412.68 230.11,0"
         style="fill:none;stroke:#000000;stroke-opacity:1;stroke-width:5.53225;stroke-linecap:butt;stroke-linejoin:miter;stroke-miterlimit:4;stroke-dasharray:none"
         id="path208" /><path
         d="m 2309.88,2215.97 112.62,194.84 112.42,-195 -225.04,0.16 z"
         style="fill:#000000;fill-opacity:1;fill-rule:nonzero;stroke:none"
         id="path210" /><path
         d="m 2309.88,2215.96 112.62,194.85 112.42,-195 -225.04,0.15 z"
         style="fill:none;stroke:#000000;stroke-opacity:1;stroke-width:3.40738;stroke-linecap:butt;stroke-linejoin:miter;stroke-miterlimit:4;stroke-dasharray:none"
         id="path212" /><path
         d="m 1359.34,1047.99 230.11,0"
         style="fill:none;stroke:#000000;stroke-opacity:1;stroke-width:5.53225;stroke-linecap:butt;stroke-linejoin:miter;stroke-miterlimit:4;stroke-dasharray:none"
         id="path214" /><path
         d="M 1362.34,851.238 1475,1046.08 1587.42,851.121 1362.34,851.238 z"
         style="fill:#000000;fill-opacity:1;fill-rule:nonzero;stroke:none"
         id="path216" /><path
         d="M 1362.34,851.242 1475,1046.09 1587.42,851.125 1362.34,851.242 z"
         style="fill:none;stroke:#000000;stroke-opacity:1;stroke-width:3.40738;stroke-linecap:butt;stroke-linejoin:miter;stroke-miterlimit:4;stroke-dasharray:none"
         id="path218" /><path
         d="m 1828.91,1047.99 230.11,0"
         style="fill:none;stroke:#000000;stroke-opacity:1;stroke-width:5.53225;stroke-linecap:butt;stroke-linejoin:miter;stroke-miterlimit:4;stroke-dasharray:none"
         id="path220" /><path
         d="m 1831.91,851.238 112.62,194.842 112.42,-194.959 -225.04,0.117 z"
         style="fill:#000000;fill-opacity:1;fill-rule:nonzero;stroke:none"
         id="path222" /><path
         d="m 1831.91,851.242 112.62,194.848 112.42,-194.965 -225.04,0.117 z"
         style="fill:none;stroke:#000000;stroke-opacity:1;stroke-width:3.40738;stroke-linecap:butt;stroke-linejoin:miter;stroke-miterlimit:4;stroke-dasharray:none"
         id="path224" /><path
         d="m 2307.03,1047.99 230.12,0"
         style="fill:none;stroke:#000000;stroke-opacity:1;stroke-width:5.53225;stroke-linecap:butt;stroke-linejoin:miter;stroke-miterlimit:4;stroke-dasharray:none"
         id="path226" /><path
         d="m 2310.04,851.238 112.66,194.842 112.38,-194.959 -225.04,0.117 z"
         style="fill:#000000;fill-opacity:1;fill-rule:nonzero;stroke:none"
         id="path228" /><path
         d="m 2310.04,851.242 112.66,194.848 112.38,-194.965 -225.04,0.117 z"
         style="fill:none;stroke:#000000;stroke-opacity:1;stroke-width:3.40738;stroke-linecap:butt;stroke-linejoin:miter;stroke-miterlimit:4;stroke-dasharray:none"
         id="path230" /></g></g></svg>