<?xml version="1.0" encoding="UTF-8" standalone="no"?>
<!-- Created with Inkscape (http://www.inkscape.org/) -->

<svg
   xmlns:dc="http://purl.org/dc/elements/1.1/"
   xmlns:cc="http://creativecommons.org/ns#"
   xmlns:rdf="http://www.w3.org/1999/02/22-rdf-syntax-ns#"
   xmlns:svg="http://www.w3.org/2000/svg"
   xmlns="http://www.w3.org/2000/svg"
   xmlns:sodipodi="http://sodipodi.sourceforge.net/DTD/sodipodi-0.dtd"
   xmlns:inkscape="http://www.inkscape.org/namespaces/inkscape"
   id="svg2"
   version="1.1"
   inkscape:version="0.48.4 r9939"
   width="1775"
   height="745"
   xml:space="preserve"
   sodipodi:docname="calic.eps"><metadata
     id="metadata8"><rdf:RDF><cc:Work
         rdf:about=""><dc:format>image/svg+xml</dc:format><dc:type
           rdf:resource="http://purl.org/dc/dcmitype/StillImage" /><dc:title></dc:title></cc:Work></rdf:RDF></metadata><defs
     id="defs6"><clipPath
       clipPathUnits="userSpaceOnUse"
       id="clipPath18"><path
         d="m 0,0 14196,0 0,5960 L 0,5960 0,0 z"
         id="path20" /></clipPath><clipPath
       clipPathUnits="userSpaceOnUse"
       id="clipPath3138"><rect
         style="fill:none;stroke:none"
         id="rect3140"
         width="724.10449"
         height="616.82983"
         x="-3.5758245"
         y="133.53394" /></clipPath><clipPath
       clipPathUnits="userSpaceOnUse"
       id="clipPath3142"><rect
         style="fill:none;stroke:none"
         id="rect3144"
         width="5792.8359"
         height="4934.6387"
         x="-28.606596"
         y="-4891.7285"
         transform="scale(1,-1)" /></clipPath></defs><sodipodi:namedview
     pagecolor="#ffffff"
     bordercolor="#666666"
     borderopacity="1"
     objecttolerance="10"
     gridtolerance="10"
     guidetolerance="10"
     inkscape:pageopacity="0"
     inkscape:pageshadow="2"
     inkscape:window-width="1873"
     inkscape:window-height="1056"
     id="namedview4"
     showgrid="false"
     inkscape:zoom="0.5593115"
     inkscape:cx="347.87448"
     inkscape:cy="347.43239"
     inkscape:window-x="47"
     inkscape:window-y="157"
     inkscape:window-maximized="1"
     inkscape:current-layer="g10" /><g
     id="g10"
     inkscape:groupmode="layer"
     inkscape:label="ink_ext_XXXXXX"
     transform="matrix(1.25,0,0,-1.25,0,745)"><g
       id="g12"
       transform="scale(0.1,0.1)"
       clip-path="url(#clipPath3142)"><path
         d="m 454.734,378.98 5115.76,0 0,4198.71 -5115.76,0 0,-4198.71 z"
         style="fill:#ffffff;fill-opacity:1;fill-rule:nonzero;stroke:none"
         id="path26" /><path
         d="m 454.734,378.98 5115.756,0"
         style="fill:none;stroke:#262626;stroke-opacity:1;stroke-width:5.00207;stroke-linecap:square;stroke-linejoin:round;stroke-miterlimit:10;stroke-dasharray:none"
         id="path28" /><path
         d="m 454.734,4577.69 5115.756,0"
         style="fill:none;stroke:#262626;stroke-opacity:1;stroke-width:5.00207;stroke-linecap:square;stroke-linejoin:round;stroke-miterlimit:10;stroke-dasharray:none"
         id="path30" /><path
         d="m 454.734,378.98 0,51.161"
         style="fill:none;stroke:#262626;stroke-opacity:1;stroke-width:5.00207;stroke-linecap:square;stroke-linejoin:round;stroke-miterlimit:10;stroke-dasharray:none"
         id="path32" /><path
         d="m 966.309,378.98 0,51.161"
         style="fill:none;stroke:#262626;stroke-opacity:1;stroke-width:5.00207;stroke-linecap:square;stroke-linejoin:round;stroke-miterlimit:10;stroke-dasharray:none"
         id="path34" /><path
         d="m 1477.89,378.98 0,51.161"
         style="fill:none;stroke:#262626;stroke-opacity:1;stroke-width:5.00207;stroke-linecap:square;stroke-linejoin:round;stroke-miterlimit:10;stroke-dasharray:none"
         id="path36" /><path
         d="m 1989.46,378.98 0,51.161"
         style="fill:none;stroke:#262626;stroke-opacity:1;stroke-width:5.00207;stroke-linecap:square;stroke-linejoin:round;stroke-miterlimit:10;stroke-dasharray:none"
         id="path38" /><path
         d="m 2501.04,378.98 0,51.161"
         style="fill:none;stroke:#262626;stroke-opacity:1;stroke-width:5.00207;stroke-linecap:square;stroke-linejoin:round;stroke-miterlimit:10;stroke-dasharray:none"
         id="path40" /><path
         d="m 3012.61,378.98 0,51.161"
         style="fill:none;stroke:#262626;stroke-opacity:1;stroke-width:5.00207;stroke-linecap:square;stroke-linejoin:round;stroke-miterlimit:10;stroke-dasharray:none"
         id="path42" /><path
         d="m 3524.19,378.98 0,51.161"
         style="fill:none;stroke:#262626;stroke-opacity:1;stroke-width:5.00207;stroke-linecap:square;stroke-linejoin:round;stroke-miterlimit:10;stroke-dasharray:none"
         id="path44" /><path
         d="m 4035.77,378.98 0,51.161"
         style="fill:none;stroke:#262626;stroke-opacity:1;stroke-width:5.00207;stroke-linecap:square;stroke-linejoin:round;stroke-miterlimit:10;stroke-dasharray:none"
         id="path46" /><path
         d="m 4547.34,378.98 0,51.161"
         style="fill:none;stroke:#262626;stroke-opacity:1;stroke-width:5.00207;stroke-linecap:square;stroke-linejoin:round;stroke-miterlimit:10;stroke-dasharray:none"
         id="path48" /><path
         d="m 5058.91,378.98 0,51.161"
         style="fill:none;stroke:#262626;stroke-opacity:1;stroke-width:5.00207;stroke-linecap:square;stroke-linejoin:round;stroke-miterlimit:10;stroke-dasharray:none"
         id="path50" /><path
         d="m 5570.49,378.98 0,51.161"
         style="fill:none;stroke:#262626;stroke-opacity:1;stroke-width:5.00207;stroke-linecap:square;stroke-linejoin:round;stroke-miterlimit:10;stroke-dasharray:none"
         id="path52" /><path
         d="m 454.734,4577.69 0,-51.15"
         style="fill:none;stroke:#262626;stroke-opacity:1;stroke-width:5.00207;stroke-linecap:square;stroke-linejoin:round;stroke-miterlimit:10;stroke-dasharray:none"
         id="path54" /><path
         d="m 966.309,4577.69 0,-51.15"
         style="fill:none;stroke:#262626;stroke-opacity:1;stroke-width:5.00207;stroke-linecap:square;stroke-linejoin:round;stroke-miterlimit:10;stroke-dasharray:none"
         id="path56" /><path
         d="m 1477.89,4577.69 0,-51.15"
         style="fill:none;stroke:#262626;stroke-opacity:1;stroke-width:5.00207;stroke-linecap:square;stroke-linejoin:round;stroke-miterlimit:10;stroke-dasharray:none"
         id="path58" /><path
         d="m 1989.46,4577.69 0,-51.15"
         style="fill:none;stroke:#262626;stroke-opacity:1;stroke-width:5.00207;stroke-linecap:square;stroke-linejoin:round;stroke-miterlimit:10;stroke-dasharray:none"
         id="path60" /><path
         d="m 2501.04,4577.69 0,-51.15"
         style="fill:none;stroke:#262626;stroke-opacity:1;stroke-width:5.00207;stroke-linecap:square;stroke-linejoin:round;stroke-miterlimit:10;stroke-dasharray:none"
         id="path62" /><path
         d="m 3012.61,4577.69 0,-51.15"
         style="fill:none;stroke:#262626;stroke-opacity:1;stroke-width:5.00207;stroke-linecap:square;stroke-linejoin:round;stroke-miterlimit:10;stroke-dasharray:none"
         id="path64" /><path
         d="m 3524.19,4577.69 0,-51.15"
         style="fill:none;stroke:#262626;stroke-opacity:1;stroke-width:5.00207;stroke-linecap:square;stroke-linejoin:round;stroke-miterlimit:10;stroke-dasharray:none"
         id="path66" /><path
         d="m 4035.77,4577.69 0,-51.15"
         style="fill:none;stroke:#262626;stroke-opacity:1;stroke-width:5.00207;stroke-linecap:square;stroke-linejoin:round;stroke-miterlimit:10;stroke-dasharray:none"
         id="path68" /><path
         d="m 4547.34,4577.69 0,-51.15"
         style="fill:none;stroke:#262626;stroke-opacity:1;stroke-width:5.00207;stroke-linecap:square;stroke-linejoin:round;stroke-miterlimit:10;stroke-dasharray:none"
         id="path70" /><path
         d="m 5058.91,4577.69 0,-51.15"
         style="fill:none;stroke:#262626;stroke-opacity:1;stroke-width:5.00207;stroke-linecap:square;stroke-linejoin:round;stroke-miterlimit:10;stroke-dasharray:none"
         id="path72" /><path
         d="m 5570.49,4577.69 0,-51.15"
         style="fill:none;stroke:#262626;stroke-opacity:1;stroke-width:5.00207;stroke-linecap:square;stroke-linejoin:round;stroke-miterlimit:10;stroke-dasharray:none"
         id="path74" /><g
         id="g76"
         transform="scale(10,10)"><text
           transform="matrix(1,0,0,-1,40.9262,20.9684)"
           id="text78"><tspan
             style="fill:#262626;fill-opacity:1;fill-rule:nonzero;stroke:none;font-family:Helvetica;font-variant:normal;font-weight:normal;font-size:13.642;writing-mode:lr;-inkscape-font-specification:Helvetica"
             x="0 51.1581821 102.31595494 153.47372778 204.63150062 255.78968272 306.94745556 358.1052284 409.26300124 460.42077408 507.41050666 514.99545866"
             y="0"
             sodipodi:role="line"
             id="tspan80">012345678910</tspan></text>
<text
           transform="matrix(1,0,0,-1,288.3792,4.0528)"
           id="text82"><tspan
             style="fill:#262626;fill-opacity:1;fill-rule:nonzero;stroke:none;font-family:Helvetica;font-variant:normal;font-weight:normal;font-size:15.1578;writing-mode:lr;-inkscape-font-specification:Helvetica"
             x="0 4.2138684 8.4277368 12.6416052 20.2205052"
             y="0"
             sodipodi:role="line"
             id="tspan84">t [s]</tspan></text>
</g><path
         d="m 454.734,378.98 0,4198.71"
         style="fill:none;stroke:#262626;stroke-opacity:1;stroke-width:5.00207;stroke-linecap:square;stroke-linejoin:round;stroke-miterlimit:10;stroke-dasharray:none"
         id="path86" /><path
         d="m 5570.49,378.98 0,4198.71"
         style="fill:none;stroke:#262626;stroke-opacity:1;stroke-width:5.00207;stroke-linecap:square;stroke-linejoin:round;stroke-miterlimit:10;stroke-dasharray:none"
         id="path88" /><path
         d="m 454.734,378.98 51.157,0"
         style="fill:none;stroke:#262626;stroke-opacity:1;stroke-width:5.00207;stroke-linecap:square;stroke-linejoin:round;stroke-miterlimit:10;stroke-dasharray:none"
         id="path90" /><path
         d="m 454.734,1024.94 51.157,0"
         style="fill:none;stroke:#262626;stroke-opacity:1;stroke-width:5.00207;stroke-linecap:square;stroke-linejoin:round;stroke-miterlimit:10;stroke-dasharray:none"
         id="path92" /><path
         d="m 454.734,1670.9 51.157,0"
         style="fill:none;stroke:#262626;stroke-opacity:1;stroke-width:5.00207;stroke-linecap:square;stroke-linejoin:round;stroke-miterlimit:10;stroke-dasharray:none"
         id="path94" /><path
         d="m 454.734,2316.85 51.157,0"
         style="fill:none;stroke:#262626;stroke-opacity:1;stroke-width:5.00207;stroke-linecap:square;stroke-linejoin:round;stroke-miterlimit:10;stroke-dasharray:none"
         id="path96" /><path
         d="m 454.734,2962.8 51.157,0"
         style="fill:none;stroke:#262626;stroke-opacity:1;stroke-width:5.00207;stroke-linecap:square;stroke-linejoin:round;stroke-miterlimit:10;stroke-dasharray:none"
         id="path98" /><path
         d="m 454.734,3608.76 51.157,0"
         style="fill:none;stroke:#262626;stroke-opacity:1;stroke-width:5.00207;stroke-linecap:square;stroke-linejoin:round;stroke-miterlimit:10;stroke-dasharray:none"
         id="path100" /><path
         d="m 454.734,4254.72 51.157,0"
         style="fill:none;stroke:#262626;stroke-opacity:1;stroke-width:5.00207;stroke-linecap:square;stroke-linejoin:round;stroke-miterlimit:10;stroke-dasharray:none"
         id="path102" /><path
         d="m 5570.49,378.98 -51.15,0"
         style="fill:none;stroke:#262626;stroke-opacity:1;stroke-width:5.00207;stroke-linecap:square;stroke-linejoin:round;stroke-miterlimit:10;stroke-dasharray:none"
         id="path104" /><path
         d="m 5570.49,1024.94 -51.15,0"
         style="fill:none;stroke:#262626;stroke-opacity:1;stroke-width:5.00207;stroke-linecap:square;stroke-linejoin:round;stroke-miterlimit:10;stroke-dasharray:none"
         id="path106" /><path
         d="m 5570.49,1670.9 -51.15,0"
         style="fill:none;stroke:#262626;stroke-opacity:1;stroke-width:5.00207;stroke-linecap:square;stroke-linejoin:round;stroke-miterlimit:10;stroke-dasharray:none"
         id="path108" /><path
         d="m 5570.49,2316.85 -51.15,0"
         style="fill:none;stroke:#262626;stroke-opacity:1;stroke-width:5.00207;stroke-linecap:square;stroke-linejoin:round;stroke-miterlimit:10;stroke-dasharray:none"
         id="path110" /><path
         d="m 5570.49,2962.8 -51.15,0"
         style="fill:none;stroke:#262626;stroke-opacity:1;stroke-width:5.00207;stroke-linecap:square;stroke-linejoin:round;stroke-miterlimit:10;stroke-dasharray:none"
         id="path112" /><path
         d="m 5570.49,3608.76 -51.15,0"
         style="fill:none;stroke:#262626;stroke-opacity:1;stroke-width:5.00207;stroke-linecap:square;stroke-linejoin:round;stroke-miterlimit:10;stroke-dasharray:none"
         id="path114" /><path
         d="m 5570.49,4254.72 -51.15,0"
         style="fill:none;stroke:#262626;stroke-opacity:1;stroke-width:5.00207;stroke-linecap:square;stroke-linejoin:round;stroke-miterlimit:10;stroke-dasharray:none"
         id="path116" /><g
         id="g118"
         transform="scale(10,10)"><text
           transform="matrix(1,0,0,-1,27.0316,32.9684)"
           id="text120"><tspan
             style="fill:#262626;fill-opacity:1;fill-rule:nonzero;stroke:none;font-family:Helvetica;font-variant:normal;font-weight:normal;font-size:13.642;writing-mode:lr;-inkscape-font-specification:Helvetica"
             x="0 4.542786"
             y="0"
             sodipodi:role="line"
             id="tspan122">-6</tspan><tspan
             style="fill:#262626;fill-opacity:1;fill-rule:nonzero;stroke:none;font-family:Helvetica;font-variant:normal;font-weight:normal;font-size:13.642;writing-mode:lr;-inkscape-font-specification:Helvetica"
             x="0 4.542786"
             y="-64.5961"
             sodipodi:role="line"
             id="tspan124">-4</tspan><tspan
             style="fill:#262626;fill-opacity:1;fill-rule:nonzero;stroke:none;font-family:Helvetica;font-variant:normal;font-weight:normal;font-size:13.642;writing-mode:lr;-inkscape-font-specification:Helvetica"
             x="0 4.542786"
             y="-129.1922"
             sodipodi:role="line"
             id="tspan126">-2</tspan><tspan
             style="fill:#262626;fill-opacity:1;fill-rule:nonzero;stroke:none;font-family:Helvetica;font-variant:normal;font-weight:normal;font-size:13.642;writing-mode:lr;-inkscape-font-specification:Helvetica"
             x="4.54727"
             y="-193.7879"
             id="tspan128">0</tspan><tspan
             style="fill:#262626;fill-opacity:1;fill-rule:nonzero;stroke:none;font-family:Helvetica;font-variant:normal;font-weight:normal;font-size:13.642;writing-mode:lr;-inkscape-font-specification:Helvetica"
             x="4.54727"
             y="-258.384"
             id="tspan130">2</tspan><tspan
             style="fill:#262626;fill-opacity:1;fill-rule:nonzero;stroke:none;font-family:Helvetica;font-variant:normal;font-weight:normal;font-size:13.642;writing-mode:lr;-inkscape-font-specification:Helvetica"
             x="4.54727"
             y="-322.9797"
             id="tspan132">4</tspan><tspan
             style="fill:#262626;fill-opacity:1;fill-rule:nonzero;stroke:none;font-family:Helvetica;font-variant:normal;font-weight:normal;font-size:13.642;writing-mode:lr;-inkscape-font-specification:Helvetica"
             x="4.54727"
             y="-387.5758"
             id="tspan134">6</tspan></text>
<text
           transform="matrix(0,1,1,0,21.7578,236.084)"
           id="text136"><tspan
             style="fill:#262626;fill-opacity:1;fill-rule:nonzero;stroke:none;font-family:Helvetica;font-variant:normal;font-weight:normal;font-size:15.1578;writing-mode:lr;-inkscape-font-specification:Helvetica"
             x="0 7.5789 12.6264474 16.8403158"
             y="0"
             sodipodi:role="line"
             id="tspan138">x(t)</tspan></text>
</g><path
         d="m 454.734,701.957 51.157,1170.883 51.16,782.67 51.156,520.35 51.156,342.44 51.16,221.19 51.157,138 51.156,80.45 51.16,40.15 51.156,11.6 51.157,-8.92 51.161,-23.94 51.16,-35.04 51.15,-43.34 51.16,-49.57 51.16,-54.22 51.15,-57.57 51.16,-59.86 51.16,-61.21 51.16,-61.73 51.16,-61.51 51.15,-60.54 51.16,-58.91 51.16,-56.65 51.16,-53.8 51.15,-50.38 51.16,-46.45 51.16,-42.04 51.15,-37.22 51.16,-32 51.16,-26.47 51.16,-20.69 51.16,-14.67 51.15,-8.53 51.16,-2.29 51.16,3.98 51.16,10.19 51.15,16.31 51.16,22.27 51.16,28 51.16,33.45 51.16,38.58 51.15,43.31 51.16,47.61 51.16,51.44 51.15,54.75 51.16,57.51 51.16,59.71 51.16,61.3 51.16,62.28"
         style="fill:none;stroke:#0000ff;stroke-opacity:1;stroke-width:5.00207;stroke-linecap:butt;stroke-linejoin:round;stroke-miterlimit:10;stroke-dasharray:none"
         id="path140" /><path
         d="m 2910.3,3510.55 51.16,62.28 51.15,62.64 51.16,62.37 51.16,61.48 51.16,59.98 51.15,57.88 51.16,55.18 51.16,51.96 51.15,48.22 51.17,43.96 51.15,39.3 51.16,34.24 51.16,28.82 51.15,23.12 51.16,17.21 51.16,11.1 51.16,4.89 51.15,-1.36 51.16,-7.62 51.16,-13.78 51.16,-19.82 51.16,-25.65 51.15,-31.22 51.16,-36.48 51.16,-41.4 51.15,-45.88 51.16,-49.9 51.16,-53.44 51.16,-56.43 51.15,-58.87 51.16,-60.71 51.16,-61.95 51.16,-62.56 51.16,-62.56 51.15,-61.93 51.16,-60.68 51.16,-58.82 51.16,-56.37 51.15,-53.37 51.16,-49.83 51.16,-45.79 51.15,-41.3 51.16,-36.37 51.16,-31.11 51.16,-25.54 51.16,-19.69 51.15,-13.66 51.16,-7.47 51.16,-1.24 51.16,5.02 51.16,11.23"
         style="fill:none;stroke:#0000ff;stroke-opacity:1;stroke-width:5.00207;stroke-linecap:butt;stroke-linejoin:round;stroke-miterlimit:10;stroke-dasharray:none"
         id="path142" /><path
         d="m 5468.18,2987.4 51.16,11.23 51.15,17.32"
         style="fill:none;stroke:#0000ff;stroke-opacity:1;stroke-width:5.00207;stroke-linecap:butt;stroke-linejoin:round;stroke-miterlimit:10;stroke-dasharray:none"
         id="path144" /><rect
         style="fill:none;stroke:none"
         id="rect3136"
         width="716.95294"
         height="602.52649"
         x="5.3637376"
         y="140.68559"
         transform="matrix(8,0,0,-8,0,5960)" /></g><rect
       style="fill:none;fill-opacity:1;stroke:none;stroke-width:2.12598419000000005;stroke-miterlimit:4;stroke-opacity:0.98120302999999998;stroke-dasharray:none;stroke-dashoffset:0"
       id="rect3121"
       width="750.92322"
       height="627.55725"
       x="1.7879125"
       y="126.38229"
       transform="matrix(0.8,0,0,-0.8,0,596)"
       clip-path="url(#clipPath3138)" /></g></svg>