<?xml version="1.0" encoding="UTF-8" standalone="no"?>
<!-- Created with Inkscape (http://www.inkscape.org/) -->

<svg
   xmlns:dc="http://purl.org/dc/elements/1.1/"
   xmlns:cc="http://creativecommons.org/ns#"
   xmlns:rdf="http://www.w3.org/1999/02/22-rdf-syntax-ns#"
   xmlns:svg="http://www.w3.org/2000/svg"
   xmlns="http://www.w3.org/2000/svg"
   xmlns:sodipodi="http://sodipodi.sourceforge.net/DTD/sodipodi-0.dtd"
   xmlns:inkscape="http://www.inkscape.org/namespaces/inkscape"
   width="210mm"
   height="297mm"
   id="svg2"
   version="1.1"
   inkscape:version="0.48.4 r9939"
   sodipodi:docname="cali_202.eps">
  <defs
     id="defs4">
    <clipPath
       id="clipPath3001"
       clipPathUnits="userSpaceOnUse">
      <path
         id="path3003"
         d="m 0,0.0390625 14195.3,0 0,6025.2200375 -14195.3,0 L 0,0.0390625 z" />
    </clipPath>
    <clipPath
       clipPathUnits="userSpaceOnUse"
       id="clipPath3205">
      <rect
         style="fill:none;stroke:none"
         id="rect3207"
         width="670.1004"
         height="496.39005"
         x="0.80847901"
         y="-515.67194"
         transform="scale(1,-1)"
         ry="0" />
    </clipPath>
  </defs>
  <sodipodi:namedview
     id="base"
     pagecolor="#ffffff"
     bordercolor="#666666"
     borderopacity="1.0"
     inkscape:pageopacity="0.0"
     inkscape:pageshadow="2"
     inkscape:zoom="0.49497475"
     inkscape:cx="43.153403"
     inkscape:cy="815.10846"
     inkscape:document-units="px"
     inkscape:current-layer="g2995"
     showgrid="false"
     inkscape:window-width="936"
     inkscape:window-height="1028"
     inkscape:window-x="983"
     inkscape:window-y="157"
     inkscape:window-maximized="0" />
  <metadata
     id="metadata7">
    <rdf:RDF>
      <cc:Work
         rdf:about="">
        <dc:format>image/svg+xml</dc:format>
        <dc:type
           rdf:resource="http://purl.org/dc/dcmitype/StillImage" />
        <dc:title></dc:title>
      </cc:Work>
    </rdf:RDF>
  </metadata>
  <g
     inkscape:label="レイヤー 1"
     inkscape:groupmode="layer"
     id="layer1">
    <g
       transform="matrix(0.75494299,0,0,-0.75494299,59.389643,419.67453)"
       inkscape:label="ink_ext_XXXXXX"
       id="g2993">
      <g
         transform="matrix(0.1,0,0,0.1,-171.27058,-139.42631)"
         id="g2995">
        <g
           id="g3209"
           transform="matrix(1.0907723,0,0,1.0907723,-299.1493,-561.78416)">
          <path
             transform="translate(2354.9705,1525.3786)"
             clip-path="url(#clipPath3205)"
             inkscape:connector-curvature="0"
             d="m 447.156,371.402 5964.59,0 0,4289.66 -5964.59,0 0,-4289.66 z"
             style="fill:#ffffff;fill-opacity:1;fill-rule:nonzero;stroke:none"
             id="path3009" />
          <path
             inkscape:connector-curvature="0"
             d="m 2802.1265,1896.7806 5964.594,0"
             style="fill:none;stroke:#262626;stroke-width:5.00206995;stroke-linecap:square;stroke-linejoin:round;stroke-miterlimit:10;stroke-opacity:1;stroke-dasharray:none"
             id="path3011" />
          <path
             inkscape:connector-curvature="0"
             d="m 2802.1265,6186.4386 5964.594,0"
             style="fill:none;stroke:#262626;stroke-width:5.00206995;stroke-linecap:square;stroke-linejoin:round;stroke-miterlimit:10;stroke-opacity:1;stroke-dasharray:none"
             id="path3013" />
          <path
             inkscape:connector-curvature="0"
             d="m 2802.1265,1896.7806 0,59.649"
             style="fill:none;stroke:#262626;stroke-width:5.00206995;stroke-linecap:square;stroke-linejoin:round;stroke-miterlimit:10;stroke-opacity:1;stroke-dasharray:none"
             id="path3015" />
          <path
             inkscape:connector-curvature="0"
             d="m 3398.5805,1896.7806 0,59.649"
             style="fill:none;stroke:#262626;stroke-width:5.00206995;stroke-linecap:square;stroke-linejoin:round;stroke-miterlimit:10;stroke-opacity:1;stroke-dasharray:none"
             id="path3017" />
          <path
             inkscape:connector-curvature="0"
             d="m 3995.0405,1896.7806 0,59.649"
             style="fill:none;stroke:#262626;stroke-width:5.00206995;stroke-linecap:square;stroke-linejoin:round;stroke-miterlimit:10;stroke-opacity:1;stroke-dasharray:none"
             id="path3019" />
          <path
             inkscape:connector-curvature="0"
             d="m 4591.5105,1896.7806 0,59.649"
             style="fill:none;stroke:#262626;stroke-width:5.00206995;stroke-linecap:square;stroke-linejoin:round;stroke-miterlimit:10;stroke-opacity:1;stroke-dasharray:none"
             id="path3021" />
          <path
             inkscape:connector-curvature="0"
             d="m 5187.9605,1896.7806 0,59.649"
             style="fill:none;stroke:#262626;stroke-width:5.00206995;stroke-linecap:square;stroke-linejoin:round;stroke-miterlimit:10;stroke-opacity:1;stroke-dasharray:none"
             id="path3023" />
          <path
             inkscape:connector-curvature="0"
             d="m 5784.4205,1896.7806 0,59.649"
             style="fill:none;stroke:#262626;stroke-width:5.00206995;stroke-linecap:square;stroke-linejoin:round;stroke-miterlimit:10;stroke-opacity:1;stroke-dasharray:none"
             id="path3025" />
          <path
             inkscape:connector-curvature="0"
             d="m 6380.8805,1896.7806 0,59.649"
             style="fill:none;stroke:#262626;stroke-width:5.00206995;stroke-linecap:square;stroke-linejoin:round;stroke-miterlimit:10;stroke-opacity:1;stroke-dasharray:none"
             id="path3027" />
          <path
             inkscape:connector-curvature="0"
             d="m 6977.3405,1896.7806 0,59.649"
             style="fill:none;stroke:#262626;stroke-width:5.00206995;stroke-linecap:square;stroke-linejoin:round;stroke-miterlimit:10;stroke-opacity:1;stroke-dasharray:none"
             id="path3029" />
          <path
             inkscape:connector-curvature="0"
             d="m 7573.8005,1896.7806 0,59.649"
             style="fill:none;stroke:#262626;stroke-width:5.00206995;stroke-linecap:square;stroke-linejoin:round;stroke-miterlimit:10;stroke-opacity:1;stroke-dasharray:none"
             id="path3031" />
          <path
             inkscape:connector-curvature="0"
             d="m 8170.2605,1896.7806 0,59.649"
             style="fill:none;stroke:#262626;stroke-width:5.00206995;stroke-linecap:square;stroke-linejoin:round;stroke-miterlimit:10;stroke-opacity:1;stroke-dasharray:none"
             id="path3033" />
          <path
             inkscape:connector-curvature="0"
             d="m 8766.7205,1896.7806 0,59.649"
             style="fill:none;stroke:#262626;stroke-width:5.00206995;stroke-linecap:square;stroke-linejoin:round;stroke-miterlimit:10;stroke-opacity:1;stroke-dasharray:none"
             id="path3035" />
          <path
             inkscape:connector-curvature="0"
             d="m 2802.1265,6186.4386 0,-59.65"
             style="fill:none;stroke:#262626;stroke-width:5.00206995;stroke-linecap:square;stroke-linejoin:round;stroke-miterlimit:10;stroke-opacity:1;stroke-dasharray:none"
             id="path3037" />
          <path
             inkscape:connector-curvature="0"
             d="m 3398.5805,6186.4386 0,-59.65"
             style="fill:none;stroke:#262626;stroke-width:5.00206995;stroke-linecap:square;stroke-linejoin:round;stroke-miterlimit:10;stroke-opacity:1;stroke-dasharray:none"
             id="path3039" />
          <path
             inkscape:connector-curvature="0"
             d="m 3995.0405,6186.4386 0,-59.65"
             style="fill:none;stroke:#262626;stroke-width:5.00206995;stroke-linecap:square;stroke-linejoin:round;stroke-miterlimit:10;stroke-opacity:1;stroke-dasharray:none"
             id="path3041" />
          <path
             inkscape:connector-curvature="0"
             d="m 4591.5105,6186.4386 0,-59.65"
             style="fill:none;stroke:#262626;stroke-width:5.00206995;stroke-linecap:square;stroke-linejoin:round;stroke-miterlimit:10;stroke-opacity:1;stroke-dasharray:none"
             id="path3043" />
          <path
             inkscape:connector-curvature="0"
             d="m 5187.9605,6186.4386 0,-59.65"
             style="fill:none;stroke:#262626;stroke-width:5.00206995;stroke-linecap:square;stroke-linejoin:round;stroke-miterlimit:10;stroke-opacity:1;stroke-dasharray:none"
             id="path3045" />
          <path
             inkscape:connector-curvature="0"
             d="m 5784.4205,6186.4386 0,-59.65"
             style="fill:none;stroke:#262626;stroke-width:5.00206995;stroke-linecap:square;stroke-linejoin:round;stroke-miterlimit:10;stroke-opacity:1;stroke-dasharray:none"
             id="path3047" />
          <path
             inkscape:connector-curvature="0"
             d="m 6380.8805,6186.4386 0,-59.65"
             style="fill:none;stroke:#262626;stroke-width:5.00206995;stroke-linecap:square;stroke-linejoin:round;stroke-miterlimit:10;stroke-opacity:1;stroke-dasharray:none"
             id="path3049" />
          <path
             inkscape:connector-curvature="0"
             d="m 6977.3405,6186.4386 0,-59.65"
             style="fill:none;stroke:#262626;stroke-width:5.00206995;stroke-linecap:square;stroke-linejoin:round;stroke-miterlimit:10;stroke-opacity:1;stroke-dasharray:none"
             id="path3051" />
          <path
             inkscape:connector-curvature="0"
             d="m 7573.8005,6186.4386 0,-59.65"
             style="fill:none;stroke:#262626;stroke-width:5.00206995;stroke-linecap:square;stroke-linejoin:round;stroke-miterlimit:10;stroke-opacity:1;stroke-dasharray:none"
             id="path3053" />
          <path
             inkscape:connector-curvature="0"
             d="m 8170.2605,6186.4386 0,-59.65"
             style="fill:none;stroke:#262626;stroke-width:5.00206995;stroke-linecap:square;stroke-linejoin:round;stroke-miterlimit:10;stroke-opacity:1;stroke-dasharray:none"
             id="path3055" />
          <path
             inkscape:connector-curvature="0"
             d="m 8766.7205,6186.4386 0,-59.65"
             style="fill:none;stroke:#262626;stroke-width:5.00206995;stroke-linecap:square;stroke-linejoin:round;stroke-miterlimit:10;stroke-opacity:1;stroke-dasharray:none"
             id="path3057" />
          <g
             id="g3059"
             transform="matrix(10,0,0,10,2354.9705,1525.3786)">
            <text
               transform="matrix(1,0,0,-1,39.4105,17.5371)"
               id="text3061">
              <tspan
                 style="font-size:15.91569996px;font-variant:normal;font-weight:normal;writing-mode:lr-tb;fill:#262626;fill-opacity:1;fill-rule:nonzero;stroke:none;font-family:Helvetica;-inkscape-font-specification:Helvetica"
                 x="0 59.646473 119.29263 178.9391 238.58525 293.30566 302.15479 352.95181 361.80093 412.5983 421.44742 472.24445 481.09357 531.89093 540.74005 591.53741 600.38654"
                 y="0"
                 sodipodi:role="line"
                 id="tspan3063">02468101214161820</tspan>
            </text>
            <text
               transform="matrix(1,0,0,-1,328.1685,-1.6524)"
               id="text3065">
              <tspan
                 style="font-size:17.43149948px;font-variant:normal;font-weight:normal;writing-mode:lr-tb;fill:#262626;fill-opacity:1;fill-rule:nonzero;stroke:none;font-family:Helvetica;-inkscape-font-specification:Helvetica"
                 x="0 4.8459568 9.6919136 14.537871 23.25362"
                 y="0"
                 sodipodi:role="line"
                 id="tspan3067">t [s]</tspan>
            </text>
          </g>
          <path
             inkscape:connector-curvature="0"
             d="m 2802.1265,1896.7806 0,4289.658"
             style="fill:none;stroke:#262626;stroke-width:5.00206995;stroke-linecap:square;stroke-linejoin:round;stroke-miterlimit:10;stroke-opacity:1;stroke-dasharray:none"
             id="path3069" />
          <path
             inkscape:connector-curvature="0"
             d="m 8766.7205,1896.7806 0,4289.658"
             style="fill:none;stroke:#262626;stroke-width:5.00206995;stroke-linecap:square;stroke-linejoin:round;stroke-miterlimit:10;stroke-opacity:1;stroke-dasharray:none"
             id="path3071" />
          <path
             inkscape:connector-curvature="0"
             d="m 2802.1265,1896.7806 59.645,0"
             style="fill:none;stroke:#262626;stroke-width:5.00206995;stroke-linecap:square;stroke-linejoin:round;stroke-miterlimit:10;stroke-opacity:1;stroke-dasharray:none"
             id="path3073" />
          <path
             inkscape:connector-curvature="0"
             d="m 2802.1265,2556.7286 59.645,0"
             style="fill:none;stroke:#262626;stroke-width:5.00206995;stroke-linecap:square;stroke-linejoin:round;stroke-miterlimit:10;stroke-opacity:1;stroke-dasharray:none"
             id="path3075" />
          <path
             inkscape:connector-curvature="0"
             d="m 2802.1265,3216.6786 59.645,0"
             style="fill:none;stroke:#262626;stroke-width:5.00206995;stroke-linecap:square;stroke-linejoin:round;stroke-miterlimit:10;stroke-opacity:1;stroke-dasharray:none"
             id="path3077" />
          <path
             inkscape:connector-curvature="0"
             d="m 2802.1265,3876.6286 59.645,0"
             style="fill:none;stroke:#262626;stroke-width:5.00206995;stroke-linecap:square;stroke-linejoin:round;stroke-miterlimit:10;stroke-opacity:1;stroke-dasharray:none"
             id="path3079" />
          <path
             inkscape:connector-curvature="0"
             d="m 2802.1265,4536.5786 59.645,0"
             style="fill:none;stroke:#262626;stroke-width:5.00206995;stroke-linecap:square;stroke-linejoin:round;stroke-miterlimit:10;stroke-opacity:1;stroke-dasharray:none"
             id="path3081" />
          <path
             inkscape:connector-curvature="0"
             d="m 2802.1265,5196.5186 59.645,0"
             style="fill:none;stroke:#262626;stroke-width:5.00206995;stroke-linecap:square;stroke-linejoin:round;stroke-miterlimit:10;stroke-opacity:1;stroke-dasharray:none"
             id="path3083" />
          <path
             inkscape:connector-curvature="0"
             d="m 2802.1265,5856.4686 59.645,0"
             style="fill:none;stroke:#262626;stroke-width:5.00206995;stroke-linecap:square;stroke-linejoin:round;stroke-miterlimit:10;stroke-opacity:1;stroke-dasharray:none"
             id="path3085" />
          <path
             inkscape:connector-curvature="0"
             d="m 8766.7205,1896.7806 -59.64,0"
             style="fill:none;stroke:#262626;stroke-width:5.00206995;stroke-linecap:square;stroke-linejoin:round;stroke-miterlimit:10;stroke-opacity:1;stroke-dasharray:none"
             id="path3087" />
          <path
             inkscape:connector-curvature="0"
             d="m 8766.7205,2556.7286 -59.64,0"
             style="fill:none;stroke:#262626;stroke-width:5.00206995;stroke-linecap:square;stroke-linejoin:round;stroke-miterlimit:10;stroke-opacity:1;stroke-dasharray:none"
             id="path3089" />
          <path
             inkscape:connector-curvature="0"
             d="m 8766.7205,3216.6786 -59.64,0"
             style="fill:none;stroke:#262626;stroke-width:5.00206995;stroke-linecap:square;stroke-linejoin:round;stroke-miterlimit:10;stroke-opacity:1;stroke-dasharray:none"
             id="path3091" />
          <path
             inkscape:connector-curvature="0"
             d="m 8766.7205,3876.6286 -59.64,0"
             style="fill:none;stroke:#262626;stroke-width:5.00206995;stroke-linecap:square;stroke-linejoin:round;stroke-miterlimit:10;stroke-opacity:1;stroke-dasharray:none"
             id="path3093" />
          <path
             inkscape:connector-curvature="0"
             d="m 8766.7205,4536.5786 -59.64,0"
             style="fill:none;stroke:#262626;stroke-width:5.00206995;stroke-linecap:square;stroke-linejoin:round;stroke-miterlimit:10;stroke-opacity:1;stroke-dasharray:none"
             id="path3095" />
          <path
             inkscape:connector-curvature="0"
             d="m 8766.7205,5196.5186 -59.64,0"
             style="fill:none;stroke:#262626;stroke-width:5.00206995;stroke-linecap:square;stroke-linejoin:round;stroke-miterlimit:10;stroke-opacity:1;stroke-dasharray:none"
             id="path3097" />
          <path
             inkscape:connector-curvature="0"
             d="m 8766.7205,5856.4686 -59.64,0"
             style="fill:none;stroke:#262626;stroke-width:5.00206995;stroke-linecap:square;stroke-linejoin:round;stroke-miterlimit:10;stroke-opacity:1;stroke-dasharray:none"
             id="path3099" />
          <g
             id="g3101"
             transform="matrix(10,0,0,10,2354.9705,1525.3786)">
            <text
               transform="matrix(1,0,0,-1,23.6,31.0738)"
               id="text3103">
              <tspan
                 style="font-size:15.91569996px;font-variant:normal;font-weight:normal;writing-mode:lr-tb;fill:#262626;fill-opacity:1;fill-rule:nonzero;stroke:none;font-family:Helvetica;-inkscape-font-specification:Helvetica"
                 x="0 5.2999282"
                 y="0"
                 sodipodi:role="line"
                 id="tspan3105">-6</tspan>
              <tspan
                 style="font-size:15.91569996px;font-variant:normal;font-weight:normal;writing-mode:lr-tb;fill:#262626;fill-opacity:1;fill-rule:nonzero;stroke:none;font-family:Helvetica;-inkscape-font-specification:Helvetica"
                 x="0 5.2999282"
                 y="-65.994904"
                 sodipodi:role="line"
                 id="tspan3107">-4</tspan>
              <tspan
                 style="font-size:15.91569996px;font-variant:normal;font-weight:normal;writing-mode:lr-tb;fill:#262626;fill-opacity:1;fill-rule:nonzero;stroke:none;font-family:Helvetica;-inkscape-font-specification:Helvetica"
                 x="0 5.2999282"
                 y="-131.9902"
                 sodipodi:role="line"
                 id="tspan3109">-2</tspan>
              <tspan
                 style="font-size:15.91569996px;font-variant:normal;font-weight:normal;writing-mode:lr-tb;fill:#262626;fill-opacity:1;fill-rule:nonzero;stroke:none;font-family:Helvetica;-inkscape-font-specification:Helvetica"
                 x="5.30547"
                 y="-197.9855"
                 id="tspan3111">0</tspan>
              <tspan
                 style="font-size:15.91569996px;font-variant:normal;font-weight:normal;writing-mode:lr-tb;fill:#262626;fill-opacity:1;fill-rule:nonzero;stroke:none;font-family:Helvetica;-inkscape-font-specification:Helvetica"
                 x="5.30547"
                 y="-263.98041"
                 id="tspan3113">2</tspan>
              <tspan
                 style="font-size:15.91569996px;font-variant:normal;font-weight:normal;writing-mode:lr-tb;fill:#262626;fill-opacity:1;fill-rule:nonzero;stroke:none;font-family:Helvetica;-inkscape-font-specification:Helvetica"
                 x="5.30547"
                 y="-329.97571"
                 id="tspan3115">4</tspan>
              <tspan
                 style="font-size:15.91569996px;font-variant:normal;font-weight:normal;writing-mode:lr-tb;fill:#262626;fill-opacity:1;fill-rule:nonzero;stroke:none;font-family:Helvetica;-inkscape-font-specification:Helvetica"
                 x="5.30547"
                 y="-395.97061"
                 id="tspan3117">6</tspan>
            </text>
            <text
               transform="matrix(0,1,1,0,18.3262,238.358)"
               id="text3119">
              <tspan
                 style="font-size:17.43149948px;font-variant:normal;font-weight:normal;writing-mode:lr-tb;fill:#262626;fill-opacity:1;fill-rule:nonzero;stroke:none;font-family:Helvetica;-inkscape-font-specification:Helvetica"
                 x="0 8.7157497 14.520439 19.366396"
                 y="0"
                 sodipodi:role="line"
                 id="tspan3121">x(t)</tspan>
            </text>
          </g>
          <path
             inkscape:connector-curvature="0"
             d="m 2802.1265,2226.7536 29.821,1196.245 29.824,799.63 29.824,531.61 29.82,349.86 29.825,225.98 29.824,141 29.82,82.18 29.824,41.03 29.825,11.85 29.824,-9.12 29.82,-24.45 29.824,-35.8 29.824,-44.28 29.821,-50.65 29.824,-55.39 29.824,-58.82 29.821,-61.15 29.824,-62.55 29.821,-63.07 29.82,-62.82 29.83,-61.86 29.82,-60.19 29.82,-57.88 29.83,-54.96 29.82,-51.48 29.82,-47.45 29.83,-42.95 29.82,-38.02 29.82,-32.69 29.82,-27.06 29.83,-21.12 29.82,-15 29.82,-8.71 29.83,-2.34 29.82,4.06 29.82,10.41 29.83,16.67 29.82,22.75 29.82,28.6 29.82,34.19 29.83,39.41 29.82,44.25 29.82,48.64 29.83,52.55 29.82,55.94 29.82,58.76 29.83,61 29.82,62.62 29.82,63.63"
             style="fill:none;stroke:#0000ff;stroke-width:5.00206995;stroke-linecap:butt;stroke-linejoin:round;stroke-miterlimit:10;stroke-opacity:1;stroke-dasharray:none"
             id="path3123" />
          <path
             inkscape:connector-curvature="0"
             d="m 4233.6305,5096.1786 29.82,63.63 29.82,64 29.83,63.72 29.82,62.81 29.82,61.28 29.82,59.13 29.83,56.39 29.82,53.08 29.83,49.25 29.82,44.93 29.82,40.15 29.83,34.97 29.82,29.45 29.82,23.63 29.82,17.57 29.82,11.34 29.83,5 29.82,-1.4 29.82,-7.78 29.83,-14.07 29.82,-20.25 29.82,-26.2 29.83,-31.9 29.82,-37.28 29.82,-42.3 29.82,-46.86 29.83,-50.99 29.82,-54.6 29.82,-57.65 29.83,-60.14 29.82,-62.02 29.82,-63.29 29.83,-63.92 29.82,-63.92 29.82,-63.27 29.83,-61.99 29.82,-60.09 29.82,-57.6 29.82,-54.52 29.83,-50.91 29.82,-46.79 29.82,-42.18 29.83,-37.17 29.82,-31.79 29.82,-26.08 29.83,-20.12 29.82,-13.95 29.82,-7.65 29.82,-1.26 29.82,5.13 29.83,11.47"
             style="fill:none;stroke:#0000ff;stroke-width:5.00206995;stroke-linecap:butt;stroke-linejoin:round;stroke-miterlimit:10;stroke-opacity:1;stroke-dasharray:none"
             id="path3125" />
          <path
             inkscape:connector-curvature="0"
             d="m 5724.7705,4561.6986 29.83,11.47 29.82,17.7 29.82,23.75 29.83,29.58 29.82,35.08 29.82,40.25 29.83,45.02 29.82,49.34 29.82,53.15 29.83,56.45 29.82,59.19 29.82,61.31 29.82,62.84 29.83,63.73 29.82,64 29.82,63.61 29.83,62.6 29.82,60.96 29.82,58.7 29.83,55.88 29.82,52.48 29.82,48.55 29.82,44.15 29.83,39.31 29.82,34.07 29.82,28.49 29.83,22.62 29.82,16.54 29.82,10.27 29.83,3.93 29.82,-2.47 29.82,-8.84 29.82,-15.13 29.83,-21.27 29.82,-27.18 29.82,-32.83 29.83,-38.14 29.82,-43.1 29.82,-47.59 29.83,-51.63 29.82,-55.15 29.82,-58.12 29.83,-60.5 29.82,-62.27 29.82,-63.45 29.82,-63.96 29.82,-63.85 29.83,-63.1 29.82,-61.71 29.82,-59.72 29.83,-57.12"
             style="fill:none;stroke:#0000ff;stroke-width:5.00206995;stroke-linecap:butt;stroke-linejoin:round;stroke-miterlimit:10;stroke-opacity:1;stroke-dasharray:none"
             id="path3127" />
          <path
             inkscape:connector-curvature="0"
             d="m 7215.9205,4936.7086 29.83,-57.12 29.82,-53.96 29.83,-50.24 29.82,-46.05 29.82,-41.36 29.82,-36.3 29.82,-30.84 29.83,-25.1 29.82,-19.09 29.82,-12.89 29.83,-6.59 29.82,-0.18 29.82,6.19 29.83,12.54 29.82,18.73 29.82,24.75 29.83,30.51 29.82,35.99 29.82,41.08 29.82,45.78 29.83,50.01 29.82,53.75 29.82,56.95 29.83,59.58 29.82,61.62 29.82,63.03 29.83,63.82 29.82,63.98 29.82,63.49 29.82,62.37 29.83,60.61 29.82,58.28 29.82,55.34 29.83,51.85 29.82,47.85 29.82,43.36 29.83,38.45 29.82,33.15 29.82,27.53 29.83,21.61 29.82,15.49 29.82,9.22 29.82,2.85 29.82,-3.55 29.83,-9.9 29.82,-16.17 29.82,-22.28 29.83,-28.15 29.82,-33.75 29.83,-39 29.82,-43.89"
             style="fill:none;stroke:#0000ff;stroke-width:5.00206995;stroke-linecap:butt;stroke-linejoin:round;stroke-miterlimit:10;stroke-opacity:1;stroke-dasharray:none"
             id="path3129" />
          <path
             inkscape:connector-curvature="0"
             d="m 8707.0805,5683.9486 29.82,-43.89 29.82,-48.3"
             style="fill:none;stroke:#0000ff;stroke-width:5.00206995;stroke-linecap:butt;stroke-linejoin:round;stroke-miterlimit:10;stroke-opacity:1;stroke-dasharray:none"
             id="path3131" />
        </g>
      </g>
    </g>
  </g>
</svg>
