<?xml version="1.0" encoding="UTF-8" standalone="no"?>
<!-- Created with Inkscape (http://www.inkscape.org/) -->

<svg
   xmlns:dc="http://purl.org/dc/elements/1.1/"
   xmlns:cc="http://creativecommons.org/ns#"
   xmlns:rdf="http://www.w3.org/1999/02/22-rdf-syntax-ns#"
   xmlns:svg="http://www.w3.org/2000/svg"
   xmlns="http://www.w3.org/2000/svg"
   xmlns:sodipodi="http://sodipodi.sourceforge.net/DTD/sodipodi-0.dtd"
   xmlns:inkscape="http://www.inkscape.org/namespaces/inkscape"
   width="210mm"
   height="297mm"
   id="svg2"
   version="1.1"
   inkscape:version="0.48.4 r9939"
   sodipodi:docname="output_20.eps">
  <defs
     id="defs4">
    <clipPath
       id="clipPath3001"
       clipPathUnits="userSpaceOnUse">
      <path
         id="path3003"
         d="m 0,0.0390625 14195.3,0 0,6085.8600375 -14195.3,0 L 0,0.0390625 z" />
    </clipPath>
  </defs>
  <sodipodi:namedview
     id="base"
     pagecolor="#ffffff"
     bordercolor="#666666"
     borderopacity="1.0"
     inkscape:pageopacity="0.0"
     inkscape:pageshadow="2"
     inkscape:zoom="0.35"
     inkscape:cx="375"
     inkscape:cy="540"
     inkscape:document-units="px"
     inkscape:current-layer="g2995"
     showgrid="false"
     inkscape:window-width="936"
     inkscape:window-height="1028"
     inkscape:window-x="983"
     inkscape:window-y="157"
     inkscape:window-maximized="0" />
  <metadata
     id="metadata7">
    <rdf:RDF>
      <cc:Work
         rdf:about="">
        <dc:format>image/svg+xml</dc:format>
        <dc:type
           rdf:resource="http://purl.org/dc/dcmitype/StillImage" />
        <dc:title></dc:title>
      </cc:Work>
    </rdf:RDF>
  </metadata>
  <g
     inkscape:label="レイヤー 1"
     inkscape:groupmode="layer"
     id="layer1">
    <g
       transform="matrix(1.25,0,0,-1.25,-135.77768,676.52361)"
       inkscape:label="ink_ext_XXXXXX"
       id="g2993">
      <g
         transform="matrix(0.1,0,0,0.1,-70.857143,100.57143)"
         id="g2995">
        <g
           id="g3224"
           transform="matrix(0.8119264,0,0,0.8119264,2047.7041,199.93201)">
          <path
             inkscape:connector-curvature="0"
             d="m 462.313,394.141 5926.697,0"
             style="fill:none;stroke:#262626;stroke-width:5.00206995;stroke-linecap:square;stroke-linejoin:round;stroke-miterlimit:10;stroke-opacity:1;stroke-dasharray:none"
             id="path3011" />
          <path
             inkscape:connector-curvature="0"
             d="m 462.313,4706.54 5926.697,0"
             style="fill:none;stroke:#262626;stroke-width:5.00206995;stroke-linecap:square;stroke-linejoin:round;stroke-miterlimit:10;stroke-opacity:1;stroke-dasharray:none"
             id="path3013" />
          <path
             inkscape:connector-curvature="0"
             d="m 462.313,394.141 0,59.269"
             style="fill:none;stroke:#262626;stroke-width:5.00206995;stroke-linecap:square;stroke-linejoin:round;stroke-miterlimit:10;stroke-opacity:1;stroke-dasharray:none"
             id="path3015" />
          <path
             inkscape:connector-curvature="0"
             d="m 1054.98,394.141 0,59.269"
             style="fill:none;stroke:#262626;stroke-width:5.00206995;stroke-linecap:square;stroke-linejoin:round;stroke-miterlimit:10;stroke-opacity:1;stroke-dasharray:none"
             id="path3017" />
          <path
             inkscape:connector-curvature="0"
             d="m 1647.65,394.141 0,59.269"
             style="fill:none;stroke:#262626;stroke-width:5.00206995;stroke-linecap:square;stroke-linejoin:round;stroke-miterlimit:10;stroke-opacity:1;stroke-dasharray:none"
             id="path3019" />
          <path
             inkscape:connector-curvature="0"
             d="m 2240.32,394.141 0,59.269"
             style="fill:none;stroke:#262626;stroke-width:5.00206995;stroke-linecap:square;stroke-linejoin:round;stroke-miterlimit:10;stroke-opacity:1;stroke-dasharray:none"
             id="path3021" />
          <path
             inkscape:connector-curvature="0"
             d="m 2832.99,394.141 0,59.269"
             style="fill:none;stroke:#262626;stroke-width:5.00206995;stroke-linecap:square;stroke-linejoin:round;stroke-miterlimit:10;stroke-opacity:1;stroke-dasharray:none"
             id="path3023" />
          <path
             inkscape:connector-curvature="0"
             d="m 3425.66,394.141 0,59.269"
             style="fill:none;stroke:#262626;stroke-width:5.00206995;stroke-linecap:square;stroke-linejoin:round;stroke-miterlimit:10;stroke-opacity:1;stroke-dasharray:none"
             id="path3025" />
          <path
             inkscape:connector-curvature="0"
             d="m 4018.33,394.141 0,59.269"
             style="fill:none;stroke:#262626;stroke-width:5.00206995;stroke-linecap:square;stroke-linejoin:round;stroke-miterlimit:10;stroke-opacity:1;stroke-dasharray:none"
             id="path3027" />
          <path
             inkscape:connector-curvature="0"
             d="m 4611,394.141 0,59.269"
             style="fill:none;stroke:#262626;stroke-width:5.00206995;stroke-linecap:square;stroke-linejoin:round;stroke-miterlimit:10;stroke-opacity:1;stroke-dasharray:none"
             id="path3029" />
          <path
             inkscape:connector-curvature="0"
             d="m 5203.67,394.141 0,59.269"
             style="fill:none;stroke:#262626;stroke-width:5.00206995;stroke-linecap:square;stroke-linejoin:round;stroke-miterlimit:10;stroke-opacity:1;stroke-dasharray:none"
             id="path3031" />
          <path
             inkscape:connector-curvature="0"
             d="m 5796.34,394.141 0,59.269"
             style="fill:none;stroke:#262626;stroke-width:5.00206995;stroke-linecap:square;stroke-linejoin:round;stroke-miterlimit:10;stroke-opacity:1;stroke-dasharray:none"
             id="path3033" />
          <path
             inkscape:connector-curvature="0"
             d="m 6389.01,394.141 0,59.269"
             style="fill:none;stroke:#262626;stroke-width:5.00206995;stroke-linecap:square;stroke-linejoin:round;stroke-miterlimit:10;stroke-opacity:1;stroke-dasharray:none"
             id="path3035" />
          <path
             inkscape:connector-curvature="0"
             d="m 462.313,4706.54 0,-59.27"
             style="fill:none;stroke:#262626;stroke-width:5.00206995;stroke-linecap:square;stroke-linejoin:round;stroke-miterlimit:10;stroke-opacity:1;stroke-dasharray:none"
             id="path3037" />
          <path
             inkscape:connector-curvature="0"
             d="m 1054.98,4706.54 0,-59.27"
             style="fill:none;stroke:#262626;stroke-width:5.00206995;stroke-linecap:square;stroke-linejoin:round;stroke-miterlimit:10;stroke-opacity:1;stroke-dasharray:none"
             id="path3039" />
          <path
             inkscape:connector-curvature="0"
             d="m 1647.65,4706.54 0,-59.27"
             style="fill:none;stroke:#262626;stroke-width:5.00206995;stroke-linecap:square;stroke-linejoin:round;stroke-miterlimit:10;stroke-opacity:1;stroke-dasharray:none"
             id="path3041" />
          <path
             inkscape:connector-curvature="0"
             d="m 2240.32,4706.54 0,-59.27"
             style="fill:none;stroke:#262626;stroke-width:5.00206995;stroke-linecap:square;stroke-linejoin:round;stroke-miterlimit:10;stroke-opacity:1;stroke-dasharray:none"
             id="path3043" />
          <path
             inkscape:connector-curvature="0"
             d="m 2832.99,4706.54 0,-59.27"
             style="fill:none;stroke:#262626;stroke-width:5.00206995;stroke-linecap:square;stroke-linejoin:round;stroke-miterlimit:10;stroke-opacity:1;stroke-dasharray:none"
             id="path3045" />
          <path
             inkscape:connector-curvature="0"
             d="m 3425.66,4706.54 0,-59.27"
             style="fill:none;stroke:#262626;stroke-width:5.00206995;stroke-linecap:square;stroke-linejoin:round;stroke-miterlimit:10;stroke-opacity:1;stroke-dasharray:none"
             id="path3047" />
          <path
             inkscape:connector-curvature="0"
             d="m 4018.33,4706.54 0,-59.27"
             style="fill:none;stroke:#262626;stroke-width:5.00206995;stroke-linecap:square;stroke-linejoin:round;stroke-miterlimit:10;stroke-opacity:1;stroke-dasharray:none"
             id="path3049" />
          <path
             inkscape:connector-curvature="0"
             d="m 4611,4706.54 0,-59.27"
             style="fill:none;stroke:#262626;stroke-width:5.00206995;stroke-linecap:square;stroke-linejoin:round;stroke-miterlimit:10;stroke-opacity:1;stroke-dasharray:none"
             id="path3051" />
          <path
             inkscape:connector-curvature="0"
             d="m 5203.67,4706.54 0,-59.27"
             style="fill:none;stroke:#262626;stroke-width:5.00206995;stroke-linecap:square;stroke-linejoin:round;stroke-miterlimit:10;stroke-opacity:1;stroke-dasharray:none"
             id="path3053" />
          <path
             inkscape:connector-curvature="0"
             d="m 5796.34,4706.54 0,-59.27"
             style="fill:none;stroke:#262626;stroke-width:5.00206995;stroke-linecap:square;stroke-linejoin:round;stroke-miterlimit:10;stroke-opacity:1;stroke-dasharray:none"
             id="path3055" />
          <path
             inkscape:connector-curvature="0"
             d="m 6389.01,4706.54 0,-59.27"
             style="fill:none;stroke:#262626;stroke-width:5.00206995;stroke-linecap:square;stroke-linejoin:round;stroke-miterlimit:10;stroke-opacity:1;stroke-dasharray:none"
             id="path3057" />
          <g
             id="g3059"
             transform="scale(10,10)">
            <text
               transform="matrix(1,0,0,-1,40.9262,19.8105)"
               id="text3061">
              <tspan
                 style="font-size:15.91569996px;font-variant:normal;font-weight:normal;writing-mode:lr-tb;fill:#262626;fill-opacity:1;fill-rule:nonzero;stroke:none;font-family:Helvetica;-inkscape-font-specification:Helvetica"
                 x="0 59.267681 118.53488 177.80257 237.06976 291.41074 300.25986 350.67841 359.52756 409.94611 418.79523 469.21329 478.06244 528.48053 537.32965 587.74817 596.59729"
                 y="0"
                 sodipodi:role="line"
                 id="tspan3063">02468101214161820</tspan>
            </text>
            <text
               transform="matrix(1,0,0,-1,327.7902,0.621)"
               id="text3065">
              <tspan
                 style="font-size:17.43149948px;font-variant:normal;font-weight:normal;writing-mode:lr-tb;fill:#262626;fill-opacity:1;fill-rule:nonzero;stroke:none;font-family:Helvetica;-inkscape-font-specification:Helvetica"
                 x="0 4.8459568 9.6919136 14.537871 23.25362"
                 y="0"
                 sodipodi:role="line"
                 id="tspan3067">t [s]</tspan>
            </text>
          </g>
          <path
             inkscape:connector-curvature="0"
             d="m 462.313,394.141 0,4312.399"
             style="fill:none;stroke:#262626;stroke-width:5.00206995;stroke-linecap:square;stroke-linejoin:round;stroke-miterlimit:10;stroke-opacity:1;stroke-dasharray:none"
             id="path3069" />
          <path
             inkscape:connector-curvature="0"
             d="m 6389.01,394.141 0,4312.399"
             style="fill:none;stroke:#262626;stroke-width:5.00206995;stroke-linecap:square;stroke-linejoin:round;stroke-miterlimit:10;stroke-opacity:1;stroke-dasharray:none"
             id="path3071" />
          <path
             inkscape:connector-curvature="0"
             d="m 462.313,394.141 59.265,0"
             style="fill:none;stroke:#262626;stroke-width:5.00206995;stroke-linecap:square;stroke-linejoin:round;stroke-miterlimit:10;stroke-opacity:1;stroke-dasharray:none"
             id="path3073" />
          <path
             inkscape:connector-curvature="0"
             d="m 462.313,1057.58 59.265,0"
             style="fill:none;stroke:#262626;stroke-width:5.00206995;stroke-linecap:square;stroke-linejoin:round;stroke-miterlimit:10;stroke-opacity:1;stroke-dasharray:none"
             id="path3075" />
          <path
             inkscape:connector-curvature="0"
             d="m 462.313,1721.03 59.265,0"
             style="fill:none;stroke:#262626;stroke-width:5.00206995;stroke-linecap:square;stroke-linejoin:round;stroke-miterlimit:10;stroke-opacity:1;stroke-dasharray:none"
             id="path3077" />
          <path
             inkscape:connector-curvature="0"
             d="m 462.313,2384.47 59.265,0"
             style="fill:none;stroke:#262626;stroke-width:5.00206995;stroke-linecap:square;stroke-linejoin:round;stroke-miterlimit:10;stroke-opacity:1;stroke-dasharray:none"
             id="path3079" />
          <path
             inkscape:connector-curvature="0"
             d="m 462.313,3047.92 59.265,0"
             style="fill:none;stroke:#262626;stroke-width:5.00206995;stroke-linecap:square;stroke-linejoin:round;stroke-miterlimit:10;stroke-opacity:1;stroke-dasharray:none"
             id="path3081" />
          <path
             inkscape:connector-curvature="0"
             d="m 462.313,3711.36 59.265,0"
             style="fill:none;stroke:#262626;stroke-width:5.00206995;stroke-linecap:square;stroke-linejoin:round;stroke-miterlimit:10;stroke-opacity:1;stroke-dasharray:none"
             id="path3083" />
          <path
             inkscape:connector-curvature="0"
             d="m 462.313,4374.82 59.265,0"
             style="fill:none;stroke:#262626;stroke-width:5.00206995;stroke-linecap:square;stroke-linejoin:round;stroke-miterlimit:10;stroke-opacity:1;stroke-dasharray:none"
             id="path3085" />
          <path
             inkscape:connector-curvature="0"
             d="m 6389.01,394.141 -59.26,0"
             style="fill:none;stroke:#262626;stroke-width:5.00206995;stroke-linecap:square;stroke-linejoin:round;stroke-miterlimit:10;stroke-opacity:1;stroke-dasharray:none"
             id="path3087" />
          <path
             inkscape:connector-curvature="0"
             d="m 6389.01,1057.58 -59.26,0"
             style="fill:none;stroke:#262626;stroke-width:5.00206995;stroke-linecap:square;stroke-linejoin:round;stroke-miterlimit:10;stroke-opacity:1;stroke-dasharray:none"
             id="path3089" />
          <path
             inkscape:connector-curvature="0"
             d="m 6389.01,1721.03 -59.26,0"
             style="fill:none;stroke:#262626;stroke-width:5.00206995;stroke-linecap:square;stroke-linejoin:round;stroke-miterlimit:10;stroke-opacity:1;stroke-dasharray:none"
             id="path3091" />
          <path
             inkscape:connector-curvature="0"
             d="m 6389.01,2384.47 -59.26,0"
             style="fill:none;stroke:#262626;stroke-width:5.00206995;stroke-linecap:square;stroke-linejoin:round;stroke-miterlimit:10;stroke-opacity:1;stroke-dasharray:none"
             id="path3093" />
          <path
             inkscape:connector-curvature="0"
             d="m 6389.01,3047.92 -59.26,0"
             style="fill:none;stroke:#262626;stroke-width:5.00206995;stroke-linecap:square;stroke-linejoin:round;stroke-miterlimit:10;stroke-opacity:1;stroke-dasharray:none"
             id="path3095" />
          <path
             inkscape:connector-curvature="0"
             d="m 6389.01,3711.36 -59.26,0"
             style="fill:none;stroke:#262626;stroke-width:5.00206995;stroke-linecap:square;stroke-linejoin:round;stroke-miterlimit:10;stroke-opacity:1;stroke-dasharray:none"
             id="path3097" />
          <path
             inkscape:connector-curvature="0"
             d="m 6389.01,4374.82 -59.26,0"
             style="fill:none;stroke:#262626;stroke-width:5.00206995;stroke-linecap:square;stroke-linejoin:round;stroke-miterlimit:10;stroke-opacity:1;stroke-dasharray:none"
             id="path3099" />
          <g
             id="g3101"
             transform="scale(10,10)">
            <text
               transform="matrix(1,0,0,-1,25.116,33.3473)"
               id="text3103">
              <tspan
                 style="font-size:15.91569996px;font-variant:normal;font-weight:normal;writing-mode:lr-tb;fill:#262626;fill-opacity:1;fill-rule:nonzero;stroke:none;font-family:Helvetica;-inkscape-font-specification:Helvetica"
                 x="0 5.2999282"
                 y="0"
                 sodipodi:role="line"
                 id="tspan3105">-6</tspan>
              <tspan
                 style="font-size:15.91569996px;font-variant:normal;font-weight:normal;writing-mode:lr-tb;fill:#262626;fill-opacity:1;fill-rule:nonzero;stroke:none;font-family:Helvetica;-inkscape-font-specification:Helvetica"
                 x="0 5.2999282"
                 y="-66.344902"
                 sodipodi:role="line"
                 id="tspan3107">-4</tspan>
              <tspan
                 style="font-size:15.91569996px;font-variant:normal;font-weight:normal;writing-mode:lr-tb;fill:#262626;fill-opacity:1;fill-rule:nonzero;stroke:none;font-family:Helvetica;-inkscape-font-specification:Helvetica"
                 x="0 5.2999282"
                 y="-132.6898"
                 sodipodi:role="line"
                 id="tspan3109">-2</tspan>
              <tspan
                 style="font-size:15.91569996px;font-variant:normal;font-weight:normal;writing-mode:lr-tb;fill:#262626;fill-opacity:1;fill-rule:nonzero;stroke:none;font-family:Helvetica;-inkscape-font-specification:Helvetica"
                 x="5.3050799"
                 y="-199.0351"
                 id="tspan3111">0</tspan>
              <tspan
                 style="font-size:15.91569996px;font-variant:normal;font-weight:normal;writing-mode:lr-tb;fill:#262626;fill-opacity:1;fill-rule:nonzero;stroke:none;font-family:Helvetica;-inkscape-font-specification:Helvetica"
                 x="5.3050799"
                 y="-265.38"
                 id="tspan3113">2</tspan>
              <tspan
                 style="font-size:15.91569996px;font-variant:normal;font-weight:normal;writing-mode:lr-tb;fill:#262626;fill-opacity:1;fill-rule:nonzero;stroke:none;font-family:Helvetica;-inkscape-font-specification:Helvetica"
                 x="5.3050799"
                 y="-331.72491"
                 id="tspan3115">4</tspan>
              <tspan
                 style="font-size:15.91569996px;font-variant:normal;font-weight:normal;writing-mode:lr-tb;fill:#262626;fill-opacity:1;fill-rule:nonzero;stroke:none;font-family:Helvetica;-inkscape-font-specification:Helvetica"
                 x="5.3050799"
                 y="-398.06979"
                 id="tspan3117">6</tspan>
            </text>
            <text
               transform="matrix(0,1,1,0,19.8422,241.769)"
               id="text3119">
              <tspan
                 style="font-size:17.43149948px;font-variant:normal;font-weight:normal;writing-mode:lr-tb;fill:#262626;fill-opacity:1;fill-rule:nonzero;stroke:none;font-family:Helvetica;-inkscape-font-specification:Helvetica"
                 x="0 8.7157497 14.520439 19.366396"
                 y="0"
                 sodipodi:role="line"
                 id="tspan3121">x(t)</tspan>
            </text>
          </g>
          <path
             inkscape:connector-curvature="0"
             d="m 462.313,725.863 29.632,1202.587 29.633,803.86 29.637,534.43 29.633,351.72 29.632,227.18 29.633,141.74 29.633,82.62 29.637,41.23 29.633,11.93 29.632,-9.18 29.633,-24.58 29.633,-35.98 29.633,-44.52 29.637,-50.92 29.632,-55.68 29.633,-59.12 29.633,-61.48 29.633,-62.88 29.635,-63.4 29.63,-63.17 29.64,-62.18 29.63,-60.51 29.63,-58.18 29.64,-55.25 29.63,-51.75 29.64,-47.71 29.63,-43.18 29.63,-38.22 29.63,-32.88 29.64,-27.19 29.63,-21.24 29.64,-15.07 29.63,-8.75 29.63,-2.35 29.63,4.07 29.64,10.47 29.63,16.76 29.64,22.86 29.63,28.76 29.63,34.37 29.64,39.62 29.63,44.48 29.63,48.9 29.64,52.83 29.63,56.24 29.63,59.07 29.64,61.32 29.63,62.96 29.64,63.96"
             style="fill:none;stroke:#0000ff;stroke-width:5.00206995;stroke-linecap:butt;stroke-linejoin:round;stroke-miterlimit:10;stroke-opacity:1;stroke-dasharray:none"
             id="path3123" />
          <path
             inkscape:connector-curvature="0"
             d="m 1884.72,3610.5 29.64,63.96 29.63,64.34 29.63,64.06 29.63,63.14 29.64,61.61 29.63,59.44 29.64,56.69 29.63,53.36 29.63,49.51 29.63,45.17 29.64,40.36 29.63,35.16 29.64,29.6 29.63,23.76 29.63,17.66 29.64,11.41 29.63,5.02 29.64,-1.41 29.63,-7.82 29.63,-14.15 29.63,-20.35 29.64,-26.34 29.63,-32.07 29.64,-37.48 29.63,-42.51 29.63,-47.12 29.63,-51.26 29.64,-54.88 29.63,-57.97 29.64,-60.45 29.63,-62.35 29.63,-63.63 29.64,-64.26 29.63,-64.25 29.63,-63.61 29.64,-62.32 29.63,-60.41 29.63,-57.9 29.64,-54.82 29.63,-51.18 29.64,-47.02 29.63,-42.41 29.63,-37.37 29.63,-31.96 29.64,-26.22 29.63,-20.22 29.64,-14.03 29.63,-7.68 29.63,-1.28 29.63,5.16 29.64,11.54"
             style="fill:none;stroke:#0000ff;stroke-width:5.00206995;stroke-linecap:butt;stroke-linejoin:round;stroke-miterlimit:10;stroke-opacity:1;stroke-dasharray:none"
             id="path3125" />
          <path
             inkscape:connector-curvature="0"
             d="m 3366.39,3073.18 29.64,11.54 29.63,17.8 29.64,23.87 29.63,29.72 29.63,35.27 29.64,40.47 29.63,45.26 29.63,49.6 29.64,53.43 29.63,56.75 29.63,59.5 29.64,61.64 29.63,63.17 29.64,64.07 29.63,64.34 29.63,63.95 29.63,62.93 29.64,61.28 29.63,59.02 29.64,56.16 29.63,52.76 29.63,48.82 29.63,44.38 29.64,39.52 29.63,34.25 29.64,28.64 29.63,22.74 29.63,16.62 29.64,10.34 29.63,3.94 29.64,-2.48 29.63,-8.9 29.63,-15.2 29.63,-21.37 29.64,-27.33 29.63,-33.01 29.64,-38.35 29.63,-43.31 29.63,-47.85 29.63,-51.91 29.64,-55.44 29.63,-58.42 29.64,-60.82 29.63,-62.61 29.63,-63.78 29.64,-64.3 29.63,-64.19 29.63,-63.44 29.64,-62.04 29.63,-60.03 29.63,-57.42"
             style="fill:none;stroke:#0000ff;stroke-width:5.00206995;stroke-linecap:butt;stroke-linejoin:round;stroke-miterlimit:10;stroke-opacity:1;stroke-dasharray:none"
             id="path3127" />
          <path
             inkscape:connector-curvature="0"
             d="m 4848.07,3450.18 29.63,-57.42 29.64,-54.25 29.63,-50.51 29.64,-46.29 29.63,-41.58 29.63,-36.49 29.63,-31.01 29.64,-25.23 29.63,-19.19 29.64,-12.96 29.63,-6.61 29.63,-0.19 29.63,6.23 29.64,12.59 29.63,18.84 29.64,24.88 29.63,30.68 29.63,36.17 29.64,41.3 29.63,46.02 29.64,50.28 29.63,54.03 29.63,57.26 29.63,59.89 29.64,61.94 29.63,63.37 29.64,64.16 29.63,64.32 29.63,63.82 29.63,62.69 29.64,60.95 29.63,58.58 29.64,55.63 29.63,52.13 29.63,48.1 29.64,43.59 29.63,38.66 29.63,33.33 29.64,27.67 29.63,21.73 29.63,15.57 29.64,9.27 29.63,2.87 29.64,-3.57 29.63,-9.96 29.63,-16.26 29.63,-22.39 29.64,-28.3 29.63,-33.93 29.64,-39.22 29.63,-44.11"
             style="fill:none;stroke:#0000ff;stroke-width:5.00206995;stroke-linecap:butt;stroke-linejoin:round;stroke-miterlimit:10;stroke-opacity:1;stroke-dasharray:none"
             id="path3129" />
          <path
             inkscape:connector-curvature="0"
             d="m 6329.75,4201.37 29.63,-44.11 29.63,-48.56"
             style="fill:none;stroke:#0000ff;stroke-width:5.00206995;stroke-linecap:butt;stroke-linejoin:round;stroke-miterlimit:10;stroke-opacity:1;stroke-dasharray:none"
             id="path3131" />
          <path
             inkscape:connector-curvature="0"
             d="m 462.313,725.863 6.769,318.527 33.832,1220.04 52.035,1055.19 55.985,528.63 64.164,231.7 74.312,38.62 87.617,-93.19 104.477,-192.72 118.536,-251.28 118.53,-234.49 118.54,-177.72 118.53,-92.29 118.54,7.85 118.53,106.77 118.53,188.84 118.54,241.11 118.53,255.3 118.53,229.2 118.54,166.9 118.53,78.25 118.54,-22.75 118.53,-120.15 118.54,-198.6 118.53,-245.67 118.53,-253.98 118.54,-222.18 118.53,-155.3 118.53,-63.9 118.54,37.57 118.53,133.14 118.54,207.66 118.53,249.41 118.54,251.78 118.53,214.4 118.53,143.17 118.54,49.34 118.53,-52.28 118.53,-145.65 118.54,-216.02 118.53,-252.29 118.54,-248.73 118.53,-205.89 118.54,-130.57 118.53,-34.6 118.53,66.81 118.54,157.67 118.53,223.65 118.53,254.31 118.54,244.83 118.53,196.69 118.53,117.49 118.54,19.76 118.54,-81.11 113.47,-160.45"
             style="fill:none;stroke:#ff0000;stroke-width:5.00206995;stroke-linecap:butt;stroke-linejoin:bevel;stroke-miterlimit:10;stroke-opacity:1;stroke-dasharray:60.6312, 22.7367, 15.1578, 22.7367;stroke-dashoffset:0"
             id="path3133" />
          <path
             inkscape:connector-curvature="0"
             d="m 4001.66,1053.5 1902.3,0 0,477.473 -1902.3,0 0,-477.473 z"
             style="fill:#ffffff;fill-opacity:1;fill-rule:nonzero;stroke:none"
             id="path3135" />
          <path
             inkscape:connector-curvature="0"
             d="m 4530.36,1395.21 0,16.93 10.3,0 0,-16.93 22.38,0 0,-9.24 -22.38,0 0,-17.28 27.83,0 0,-9.48 -27.83,0 0,-30.43 -10.3,0 0,30.43 -30.67,0 0,9.48 30.67,0 0,17.28 -15.99,0 c -1.9,-5.36 -4.15,-10.22 -6.75,-14.56 l -7.93,6.86 c 4.89,8.77 8.21,18.64 9.94,29.61 l 9.95,-1.78 c -0.87,-4.1 -1.7,-7.73 -2.49,-10.89 l 13.27,0 z m -53.3,39.31 18.6,0 0,-93.07 c 0,-4.58 -1.14,-7.62 -3.44,-9.12 -1.73,-1.34 -4.89,-2.01 -9.47,-2.01 -6.16,0 -12,0.35 -17.52,1.06 l -1.66,11.14 c 7.02,-1.19 12.79,-1.79 17.28,-1.79 3.24,0 4.86,1.5 4.86,4.51 l 0,27.47 -37.3,0 c -0.87,-16.82 -5.18,-32.01 -12.91,-45.59 l -8.17,8.41 c 7.74,12.31 11.6,29.25 11.6,50.8 l 0,32.69 c -2.05,-3.08 -4.93,-6.72 -8.64,-10.9 l -5.8,8.65 c 13.65,15.94 22.62,34.41 26.88,55.41 l 10.78,-2 c -0.79,-3.24 -1.43,-5.57 -1.9,-6.99 l -0.47,-1.66 23.68,0 4.97,-5.1 c -3.31,-7.42 -7.1,-14.72 -11.37,-21.91 z m -14.56,-8.76 -13.73,0 0,-17.52 13.73,0 0,17.52 z m 9.12,0 0,-17.52 14.09,0 0,17.52 -14.09,0 z m -9.12,-26.05 -13.73,0 0,-18.24 13.73,0 0,18.24 z m 9.12,0 0,-18.24 14.09,0 0,18.24 -14.09,0 z m -5.21,34.81 c 3.39,5.61 6.35,11.65 8.88,18.12 l -18.71,0 c -2.69,-7.18 -5.37,-13.22 -8.05,-18.12 l 17.88,0 z m 66.08,19.66 c -1.5,-18.71 -10.03,-32.8 -25.58,-42.27 l -7.46,8.17 c 13.1,6.63 20.56,18 22.38,34.1 l -21.91,0 0,9.48 62.88,0 c -0.47,-19.66 -1.38,-32.53 -2.72,-38.61 -0.79,-3.79 -2.25,-6.43 -4.38,-7.92 -1.9,-1.19 -4.98,-1.79 -9.24,-1.79 -5.37,0 -10.58,0.36 -15.63,1.07 l -1.42,9.95 c 5.29,-0.88 9.79,-1.31 13.5,-1.31 3.71,0 5.96,1.46 6.75,4.39 0.95,3.86 1.7,12.11 2.25,24.74 l -19.42,0 z m 78.04,-47.95 -0.24,-1.07 c -4.74,-16.19 -11.37,-31.46 -19.89,-45.83 l -7.23,11.84 c 11.45,16.58 20.05,35.53 25.82,56.85 l -22.5,0 0,10.29 24.04,0 0,33.4 11.01,0 0,-33.4 22.26,0 0,-10.29 -22.26,0 0,-15.16 c 9.47,-7.9 17.64,-15.71 24.51,-23.45 l -6.63,-11.37 c -6.08,8.6 -12.04,16.07 -17.88,22.38 l 0,-71.64 -11.01,0 0,77.45 z m 41.09,48.9 3.55,0.36 c 21.47,1.89 39.39,5.44 53.76,10.65 l 9.71,-9.94 c -16.18,-5.21 -34.77,-8.68 -55.77,-10.42 l 0,-25.94 65.13,0 0,-10.42 -23.68,0 0,-80.52 -11.26,0 0,80.52 -30.19,0 c 0,-19.81 -0.99,-34.93 -2.97,-45.36 -2.68,-14.44 -8.36,-26.84 -17.05,-37.18 l -8.17,7.47 c 8.53,11.83 13.66,24.66 15.4,38.48 1.03,7.42 1.54,17.88 1.54,31.38 l 0,50.92 z m 197.05,-59.92 0,16.93 10.3,0 0,-16.93 22.38,0 0,-9.24 -22.38,0 0,-17.28 27.83,0 0,-9.48 -27.83,0 0,-30.43 -10.3,0 0,30.43 -30.67,0 0,9.48 30.67,0 0,17.28 -15.99,0 c -1.89,-5.36 -4.14,-10.22 -6.75,-14.56 l -7.93,6.86 c 4.89,8.77 8.21,18.64 9.95,29.61 l 9.94,-1.78 c -0.86,-4.1 -1.69,-7.73 -2.48,-10.89 l 13.26,0 z m -53.29,39.31 18.6,0 0,-93.07 c 0,-4.58 -1.15,-7.62 -3.44,-9.12 -1.74,-1.34 -4.9,-2.01 -9.48,-2.01 -6.15,0 -11.99,0.35 -17.52,1.06 l -1.66,11.14 c 7.03,-1.19 12.79,-1.79 17.29,-1.79 3.24,0 4.85,1.5 4.85,4.51 l 0,27.47 -37.3,0 c -0.87,-16.82 -5.17,-32.01 -12.91,-45.59 l -8.17,8.41 c 7.74,12.31 11.61,29.25 11.61,50.8 l 0,32.69 c -2.05,-3.08 -4.93,-6.72 -8.64,-10.9 l -5.81,8.65 c 13.66,15.94 22.62,34.41 26.88,55.41 l 10.78,-2 c -0.79,-3.24 -1.42,-5.57 -1.89,-6.99 l -0.48,-1.66 23.68,0 4.98,-5.1 c -3.32,-7.42 -7.11,-14.72 -11.37,-21.91 z m -14.56,-8.76 -13.74,0 0,-17.52 13.74,0 0,17.52 z m 9.11,0 0,-17.52 14.09,0 0,17.52 -14.09,0 z m -9.11,-26.05 -13.74,0 0,-18.24 13.74,0 0,18.24 z m 9.11,0 0,-18.24 14.09,0 0,18.24 -14.09,0 z m -5.21,34.81 c 3.4,5.61 6.36,11.65 8.89,18.12 l -18.72,0 c -2.68,-7.18 -5.36,-13.22 -8.05,-18.12 l 17.88,0 z m 66.08,19.66 c -1.5,-18.71 -10.03,-32.8 -25.58,-42.27 l -7.45,8.17 c 13.1,6.63 20.56,18 22.37,34.1 l -21.91,0 0,9.48 62.89,0 c -0.48,-19.66 -1.39,-32.53 -2.73,-38.61 -0.79,-3.79 -2.25,-6.43 -4.38,-7.92 -1.9,-1.19 -4.97,-1.79 -9.23,-1.79 -5.37,0 -10.58,0.36 -15.64,1.07 l -1.42,9.95 c 5.3,-0.88 9.8,-1.31 13.5,-1.31 3.71,0 5.96,1.46 6.76,4.39 0.94,3.86 1.69,12.11 2.24,24.74 l -19.42,0"
             style="fill:#000000;fill-opacity:1;fill-rule:nonzero;stroke:none"
             id="path3137" />
          <path
             inkscape:connector-curvature="0"
             d="m 4065.63,1400.57 319.85,0"
             style="fill:none;stroke:#0000ff;stroke-width:5.00206995;stroke-linecap:butt;stroke-linejoin:round;stroke-miterlimit:10;stroke-opacity:1;stroke-dasharray:none"
             id="path3139" />
          <path
             inkscape:connector-curvature="0"
             d="m 4490.09,1213.84 c -5.92,10.19 -14.76,15.28 -26.52,15.28 -6.63,0 -11.93,-2.09 -15.87,-6.28 -3.08,-3.39 -4.62,-7.3 -4.62,-11.72 0,-4.98 1.97,-9 5.92,-12.08 2.92,-2.21 8.88,-5.21 17.89,-9 l 5.32,-2.25 c 12,-4.82 20.21,-10.15 24.63,-15.99 3.87,-5.13 5.8,-10.89 5.8,-17.29 0,-10.18 -3.79,-18.24 -11.37,-24.16 -6.78,-5.28 -15.34,-7.93 -25.69,-7.93 -17.45,0 -30.87,6.63 -40.26,19.9 l 10.89,8.28 c 7.5,-10.65 17.33,-15.98 29.49,-15.98 5.76,0 10.69,1.38 14.8,4.14 5.13,3.71 7.7,8.61 7.7,14.69 0,4.81 -1.9,9.07 -5.69,12.79 -3.94,3.79 -11.28,7.73 -22.02,11.83 l -4.62,1.79 c -18.08,6.94 -27.12,16.93 -27.12,29.96 0,8.68 2.92,15.87 8.77,21.55 6.62,6.24 15.39,9.35 26.28,9.35 16.27,0 28.66,-6.35 37.19,-19.07 l -10.9,-7.81 z m 49.77,7.11 -15.52,0 0,15.86 15.52,0 0,-15.86 z m -0.95,-96.16 -13.74,0 0,79.34 13.74,0 0,-79.34 z m 139.6,0 -13.74,0 0,49.62 c 0,13.42 -5.17,20.13 -15.51,20.13 -4.89,0 -9.39,-2.29 -13.5,-6.87 -2.92,-3.24 -4.97,-7.26 -6.15,-12.08 l 0,-50.8 -13.63,0 0,49.85 c 0,13.27 -4.89,19.9 -14.68,19.9 -5.21,0 -9.79,-2.29 -13.74,-6.87 -4.18,-4.74 -6.27,-9.28 -6.27,-13.62 l 0,-49.26 -13.74,0 0,79.34 12.79,0 0,-13.74 c 5.21,10.19 13.11,15.28 23.68,15.28 11.53,0 19.23,-5.53 23.1,-16.58 5.76,11.05 14.01,16.58 24.74,16.58 8.69,0 15.48,-3.08 20.37,-9.24 4.19,-5.13 6.28,-12.35 6.28,-21.67 l 0,-49.97 z m 95.42,0 -12.79,0 0,14.44 c -7.82,-10.65 -17.33,-15.98 -28.54,-15.98 -9.16,0 -16.3,3.12 -21.43,9.35 -4.03,4.98 -6.04,12.16 -6.04,21.56 l 0,49.97 13.62,0 0,-49.62 c 0,-13.1 5.52,-19.66 16.57,-19.66 11.13,0 19.42,6.83 24.87,20.49 l 0,48.79 13.74,0 0,-79.34 z m 42.6,0 -13.73,0 0,117.71 13.73,0 0,-117.71 z m 44.04,96.16 -15.51,0 0,15.86 15.51,0 0,-15.86 z m -0.94,-96.16 -13.74,0 0,79.34 13.74,0 0,-79.34 z m 97.44,0 -13.73,0 0,49.26 c 0,13.42 -5.57,20.13 -16.7,20.13 -11.21,0 -19.42,-6.71 -24.63,-20.13 l 0,-49.26 -13.74,0 0,79.34 12.8,0 0,-14.33 c 7.41,10.58 16.92,15.87 28.53,15.87 18.31,0 27.47,-10.3 27.47,-30.91 l 0,-49.97 z m 94,0 -16.57,0 -27.12,38.6 -9.12,-8.88 0,-29.72 -13.38,0 0,117.71 13.38,0 0,-75.32 33.4,36.95 17.16,0 -32.91,-33.04 35.16,-46.3 z m 22.54,-2.49 c -2.77,19.26 -4.15,36.83 -4.15,52.7 0,18.95 3.4,41.45 10.18,67.5 l 11.97,-2.73 c -7.03,-26.05 -10.54,-48.27 -10.54,-66.67 0,-5.76 0.44,-12.51 1.31,-20.25 2.28,4.27 5.76,10.54 10.42,18.84 l 7.81,-5.45 c -9.87,-16.74 -14.8,-29.65 -14.8,-38.73 0,-1.58 0.08,-2.96 0.23,-4.14 l -12.43,-1.07 z m 43.22,102.55 c 18.79,3.48 39.28,5.22 61.46,5.22 l 1.07,-12.21 c -22.82,0.17 -43.23,-1.61 -61.23,-5.32 l -1.3,12.31 z m 70.22,-95.21 c -10.1,-1.42 -19.38,-2.13 -27.82,-2.13 -15.08,0 -26.06,2.17 -32.93,6.52 -7.73,4.81 -11.6,13.97 -11.6,27.47 0,1.89 0.04,3.63 0.12,5.21 l 12.08,1.42 c 0,-0.95 -0.08,-2.37 -0.24,-4.27 0,-1.02 0,-1.65 0,-1.89 0,-8.68 2.17,-14.52 6.52,-17.52 4.26,-2.92 12.15,-4.38 23.68,-4.38 7.5,0 17.05,0.71 28.66,2.13 l 1.53,-12.56 z m 72.39,118.43 12.08,0 0,-34 c 12.71,0.88 24.94,2.97 36.71,6.29 l 3.55,-11.73 c -11.45,-2.6 -24.87,-4.54 -40.26,-5.8 l 0,-40.74 c 13.27,-3.39 28.78,-10.26 46.53,-20.61 l -7.81,-10.89 c -9.79,6.79 -20.13,12.43 -31.03,16.93 -1.5,0.55 -3.08,1.19 -4.73,1.9 -1.74,0.63 -2.73,0.99 -2.96,1.07 l 0,-5.1 c 0,-10.81 -2.61,-18 -7.82,-21.55 -3.24,-2.21 -8.36,-3.59 -15.39,-4.14 l -1.31,-0.12 c -0.39,0 -0.71,0.04 -0.95,0.12 -0.78,0 -1.77,0.03 -2.95,0.12 -9.08,0.15 -17.25,2.64 -24.52,7.45 -6.87,4.66 -10.3,10.15 -10.3,16.46 0,6.64 3.4,11.89 10.19,15.75 7.42,4.5 16.61,6.76 27.58,6.76 3.56,0 8.02,-0.36 13.39,-1.07 l 0,82.9 z m 0,-94.15 c -5.37,1.03 -10.03,1.54 -13.98,1.54 -7.02,0 -12.91,-1.14 -17.64,-3.43 -4.58,-1.98 -6.86,-4.58 -6.86,-7.82 0,-3 1.49,-5.64 4.49,-7.93 4.34,-3.64 10.26,-5.45 17.76,-5.45 10.82,0 16.23,4.54 16.23,13.62 l 0,9.47 z m 165.27,78.63 -44.29,-45 c 10.19,3.71 19.69,5.57 28.54,5.57 8.37,0 15.83,-1.54 22.38,-4.62 12.16,-5.93 18.24,-15.36 18.24,-28.3 0,-12.08 -5.69,-22.11 -17.05,-30.08 -10.5,-7.35 -24.2,-11.01 -41.1,-11.01 -8.21,0 -14.91,1.53 -20.13,4.61 -6.31,3.87 -9.47,9.24 -9.47,16.1 0,4.43 1.7,8.38 5.09,11.85 4.34,4.34 9.91,6.51 16.7,6.51 12.79,0 23.41,-8.09 31.86,-24.27 14.13,5.84 21.19,14.64 21.19,26.41 0,8.13 -3.35,14.21 -10.07,18.23 -5.05,3 -11.56,4.5 -19.54,4.5 -20.84,0 -41.13,-9.91 -60.86,-29.72 l -8.53,9.23 c 25.58,22.42 47.85,44.81 66.79,67.15 -16.34,-2.61 -32.84,-4.42 -49.5,-5.45 l -2.72,12.2 c 18.47,0.4 40.3,2.13 65.49,5.21 l 6.98,-9.12 z m -19.9,-101.84 c -5.76,12 -12.9,18 -21.43,18 -5.45,0 -8.72,-1.86 -9.83,-5.57 -0.32,-1.26 -0.47,-2.09 -0.47,-2.48 0,-7.43 5.96,-11.14 17.88,-11.14 3.95,0 8.57,0.4 13.85,1.19 z m 148.82,102.08 55.89,0 0,-10.66 -113.44,0 0,-26.4 c 0,-20.93 -0.95,-37.03 -2.85,-48.33 -2.21,-12.31 -6.47,-23.72 -12.79,-34.22 l -9.12,9.71 c 6,10.19 9.79,21.99 11.37,35.41 1.03,8.06 1.54,19.23 1.54,33.52 l 0,40.97 57.32,0 0,20.84 12.08,0 0,-20.84 z m -56.49,-101.49 c 6.07,12.79 10.5,29.61 13.26,50.45 l 11.26,-2.96 c -2.93,-21.79 -7.59,-39.79 -13.98,-54 l -10.54,6.51 z m 34.22,59.45 11.14,0 0,-57.2 c 0,-3.16 0.91,-5.17 2.72,-6.04 1.57,-0.71 5.37,-1.06 11.37,-1.06 8.21,0 12.95,0.94 14.21,2.84 1.5,2.29 2.4,10.1 2.72,23.45 l 0,2.84 11.72,-3.2 c -0.79,-18 -2.2,-28.34 -4.26,-31.02 -3,-3.95 -11.13,-5.92 -24.39,-5.92 -9.8,0 -16.59,0.9 -20.38,2.72 -3.23,1.58 -4.85,4.54 -4.85,8.88 l 0,63.71 z m 29.61,-6.28 c -8.06,9.87 -16.86,18.44 -26.41,25.7 l 7.94,7.46 c 8.76,-6.32 17.76,-14.45 26.99,-24.4 l -8.52,-8.76 z m 42.04,-54.23 c -8.61,21.31 -17.25,38.4 -25.94,51.27 l 10.19,5.57 c 10.26,-15.48 19.1,-32.06 26.53,-49.74 l -10.78,-7.1 z m 73.89,97.34 c 2.69,-5.29 5.37,-11.84 8.05,-19.66 l -11.13,-3.79 c -2.6,9.16 -5.53,16.97 -8.77,23.45 l -8.52,0 c -5.13,-9.79 -11.33,-18.63 -18.59,-26.53 l -8.64,7.11 c 11.05,11.92 19.38,27.08 24.99,45.47 l 11.25,-2.61 c -2.14,-6.86 -3.68,-11.44 -4.62,-13.73 l 38.96,0 0,-9.71 -22.98,0 z m 60.99,0 c 3.86,-5.61 7.61,-11.92 11.25,-18.95 l -11.49,-4.26 c -3.47,8.21 -7.5,15.95 -12.08,23.21 l -11.01,0 -0.59,-1.07 c -2.13,-3.63 -5.06,-7.78 -8.77,-12.44 l -9.35,5.81 c 7.58,9.32 13.54,20.61 17.88,33.87 l 11.01,-2.37 c -1.73,-5.29 -3.47,-9.99 -5.21,-14.09 l 50.09,0 0,-9.71 -31.73,0 z m -83.96,-65.13 93.43,0 0,-50.33 -11.25,0 0,8.52 -70.93,0 0,-8.52 -11.25,0 0,50.33 z m 82.18,-9.6 -70.93,0 0,-22.61 70.93,0 0,22.61 z m -3.67,27.36 0,-6.87 -60.99,0 0,5.93 c -11.13,-7.03 -23.32,-13 -36.59,-17.89 l -6.75,9.71 c 28.42,9.16 50.01,23.25 64.78,42.28 l 11.49,0 c 17.68,-16.35 40.89,-29.17 69.62,-38.49 l -6.27,-10.18 c -12.63,4.58 -24.4,9.75 -35.29,15.51 z m -55.3,3.08 50.09,0 c -10.58,5.92 -19.89,12.87 -27.95,20.84 -6.08,-7.34 -13.46,-14.29 -22.14,-20.84"
             style="fill:#000000;fill-opacity:1;fill-rule:nonzero;stroke:none"
             id="path3141" />
          <path
             inkscape:connector-curvature="0"
             d="m 4065.63,1183.91 319.85,0"
             style="fill:none;stroke:#ff0000;stroke-width:5.00206995;stroke-linecap:butt;stroke-linejoin:bevel;stroke-miterlimit:10;stroke-opacity:1;stroke-dasharray:60.6312, 22.7367, 15.1578, 22.7367;stroke-dashoffset:0"
             id="path3143" />
          <path
             inkscape:connector-curvature="0"
             d="m 4001.66,1053.5 1902.3,0 0,477.473 -1902.3,0 0,-477.473 z"
             style="fill:none;stroke:#262626;stroke-width:5.00206995;stroke-linecap:butt;stroke-linejoin:miter;stroke-miterlimit:10;stroke-opacity:1;stroke-dasharray:none"
             id="path3145" />
        </g>
      </g>
    </g>
  </g>
</svg>
