<?xml version="1.0" encoding="UTF-8" standalone="no"?>
<!-- Created with Inkscape (http://www.inkscape.org/) -->

<svg
   xmlns:dc="http://purl.org/dc/elements/1.1/"
   xmlns:cc="http://creativecommons.org/ns#"
   xmlns:rdf="http://www.w3.org/1999/02/22-rdf-syntax-ns#"
   xmlns:svg="http://www.w3.org/2000/svg"
   xmlns="http://www.w3.org/2000/svg"
   xmlns:sodipodi="http://sodipodi.sourceforge.net/DTD/sodipodi-0.dtd"
   xmlns:inkscape="http://www.inkscape.org/namespaces/inkscape"
   id="svg2"
   version="1.1"
   inkscape:version="0.48.4 r9939"
   width="1775"
   height="748.75"
   xml:space="preserve"
   sodipodi:docname="output.eps"><metadata
     id="metadata8"><rdf:RDF><cc:Work
         rdf:about=""><dc:format>image/svg+xml</dc:format><dc:type
           rdf:resource="http://purl.org/dc/dcmitype/StillImage" /><dc:title></dc:title></cc:Work></rdf:RDF></metadata><defs
     id="defs6"><clipPath
       clipPathUnits="userSpaceOnUse"
       id="clipPath18"><path
         d="m 0,0 14196,0 0,5990 L 0,5990 0,0 z"
         id="path20" /></clipPath></defs><sodipodi:namedview
     pagecolor="#ffffff"
     bordercolor="#666666"
     borderopacity="1"
     objecttolerance="10"
     gridtolerance="10"
     guidetolerance="10"
     inkscape:pageopacity="0"
     inkscape:pageshadow="2"
     inkscape:window-width="936"
     inkscape:window-height="1028"
     id="namedview4"
     showgrid="false"
     inkscape:zoom="0.5593115"
     inkscape:cx="609.80662"
     inkscape:cy="277.29675"
     inkscape:window-x="983"
     inkscape:window-y="157"
     inkscape:window-maximized="0"
     inkscape:current-layer="g12" /><g
     id="g10"
     inkscape:groupmode="layer"
     inkscape:label="ink_ext_XXXXXX"
     transform="matrix(1.25,0,0,-1.25,0,748.75)"><g
       id="g12"
       transform="scale(0.1,0.1)"><g
         id="g3137"><path
           id="path26"
           style="fill:#ffffff;fill-opacity:1;fill-rule:nonzero;stroke:none"
           d="m 462.313,356.246 5934.28,0 0,4251.76 -5934.28,0 0,-4251.76 z" /><path
           id="path28"
           style="fill:none;stroke:#262626;stroke-opacity:1;stroke-width:5.00207;stroke-linecap:square;stroke-linejoin:round;stroke-miterlimit:10;stroke-dasharray:none"
           d="m 462.313,356.246 5934.277,0" /><path
           id="path30"
           style="fill:none;stroke:#262626;stroke-opacity:1;stroke-width:5.00207;stroke-linecap:square;stroke-linejoin:round;stroke-miterlimit:10;stroke-dasharray:none"
           d="m 462.313,4608.01 5934.277,0" /><path
           id="path32"
           style="fill:none;stroke:#262626;stroke-opacity:1;stroke-width:5.00207;stroke-linecap:square;stroke-linejoin:round;stroke-miterlimit:10;stroke-dasharray:none"
           d="m 462.313,356.246 0,59.344" /><path
           id="path34"
           style="fill:none;stroke:#262626;stroke-opacity:1;stroke-width:5.00207;stroke-linecap:square;stroke-linejoin:round;stroke-miterlimit:10;stroke-dasharray:none"
           d="m 1055.74,356.246 0,59.344" /><path
           id="path36"
           style="fill:none;stroke:#262626;stroke-opacity:1;stroke-width:5.00207;stroke-linecap:square;stroke-linejoin:round;stroke-miterlimit:10;stroke-dasharray:none"
           d="m 1649.17,356.246 0,59.344" /><path
           id="path38"
           style="fill:none;stroke:#262626;stroke-opacity:1;stroke-width:5.00207;stroke-linecap:square;stroke-linejoin:round;stroke-miterlimit:10;stroke-dasharray:none"
           d="m 2242.6,356.246 0,59.344" /><path
           id="path40"
           style="fill:none;stroke:#262626;stroke-opacity:1;stroke-width:5.00207;stroke-linecap:square;stroke-linejoin:round;stroke-miterlimit:10;stroke-dasharray:none"
           d="m 2836.02,356.246 0,59.344" /><path
           id="path42"
           style="fill:none;stroke:#262626;stroke-opacity:1;stroke-width:5.00207;stroke-linecap:square;stroke-linejoin:round;stroke-miterlimit:10;stroke-dasharray:none"
           d="m 3429.45,356.246 0,59.344" /><path
           id="path44"
           style="fill:none;stroke:#262626;stroke-opacity:1;stroke-width:5.00207;stroke-linecap:square;stroke-linejoin:round;stroke-miterlimit:10;stroke-dasharray:none"
           d="m 4022.88,356.246 0,59.344" /><path
           id="path46"
           style="fill:none;stroke:#262626;stroke-opacity:1;stroke-width:5.00207;stroke-linecap:square;stroke-linejoin:round;stroke-miterlimit:10;stroke-dasharray:none"
           d="m 4616.31,356.246 0,59.344" /><path
           id="path48"
           style="fill:none;stroke:#262626;stroke-opacity:1;stroke-width:5.00207;stroke-linecap:square;stroke-linejoin:round;stroke-miterlimit:10;stroke-dasharray:none"
           d="m 5209.73,356.246 0,59.344" /><path
           id="path50"
           style="fill:none;stroke:#262626;stroke-opacity:1;stroke-width:5.00207;stroke-linecap:square;stroke-linejoin:round;stroke-miterlimit:10;stroke-dasharray:none"
           d="m 5803.16,356.246 0,59.344" /><path
           id="path52"
           style="fill:none;stroke:#262626;stroke-opacity:1;stroke-width:5.00207;stroke-linecap:square;stroke-linejoin:round;stroke-miterlimit:10;stroke-dasharray:none"
           d="m 6396.59,356.246 0,59.344" /><path
           id="path54"
           style="fill:none;stroke:#262626;stroke-opacity:1;stroke-width:5.00207;stroke-linecap:square;stroke-linejoin:round;stroke-miterlimit:10;stroke-dasharray:none"
           d="m 462.313,4608.01 0,-59.34" /><path
           id="path56"
           style="fill:none;stroke:#262626;stroke-opacity:1;stroke-width:5.00207;stroke-linecap:square;stroke-linejoin:round;stroke-miterlimit:10;stroke-dasharray:none"
           d="m 1055.74,4608.01 0,-59.34" /><path
           id="path58"
           style="fill:none;stroke:#262626;stroke-opacity:1;stroke-width:5.00207;stroke-linecap:square;stroke-linejoin:round;stroke-miterlimit:10;stroke-dasharray:none"
           d="m 1649.17,4608.01 0,-59.34" /><path
           id="path60"
           style="fill:none;stroke:#262626;stroke-opacity:1;stroke-width:5.00207;stroke-linecap:square;stroke-linejoin:round;stroke-miterlimit:10;stroke-dasharray:none"
           d="m 2242.6,4608.01 0,-59.34" /><path
           id="path62"
           style="fill:none;stroke:#262626;stroke-opacity:1;stroke-width:5.00207;stroke-linecap:square;stroke-linejoin:round;stroke-miterlimit:10;stroke-dasharray:none"
           d="m 2836.02,4608.01 0,-59.34" /><path
           id="path64"
           style="fill:none;stroke:#262626;stroke-opacity:1;stroke-width:5.00207;stroke-linecap:square;stroke-linejoin:round;stroke-miterlimit:10;stroke-dasharray:none"
           d="m 3429.45,4608.01 0,-59.34" /><path
           id="path66"
           style="fill:none;stroke:#262626;stroke-opacity:1;stroke-width:5.00207;stroke-linecap:square;stroke-linejoin:round;stroke-miterlimit:10;stroke-dasharray:none"
           d="m 4022.88,4608.01 0,-59.34" /><path
           id="path68"
           style="fill:none;stroke:#262626;stroke-opacity:1;stroke-width:5.00207;stroke-linecap:square;stroke-linejoin:round;stroke-miterlimit:10;stroke-dasharray:none"
           d="m 4616.31,4608.01 0,-59.34" /><path
           id="path70"
           style="fill:none;stroke:#262626;stroke-opacity:1;stroke-width:5.00207;stroke-linecap:square;stroke-linejoin:round;stroke-miterlimit:10;stroke-dasharray:none"
           d="m 5209.73,4608.01 0,-59.34" /><path
           id="path72"
           style="fill:none;stroke:#262626;stroke-opacity:1;stroke-width:5.00207;stroke-linecap:square;stroke-linejoin:round;stroke-miterlimit:10;stroke-dasharray:none"
           d="m 5803.16,4608.01 0,-59.34" /><path
           id="path74"
           style="fill:none;stroke:#262626;stroke-opacity:1;stroke-width:5.00207;stroke-linecap:square;stroke-linejoin:round;stroke-miterlimit:10;stroke-dasharray:none"
           d="m 6396.59,4608.01 0,-59.34" /><g
           transform="scale(10,10)"
           id="g76"><text
             id="text78"
             transform="matrix(1,0,0,-1,40.9262,16.0211)"><tspan
               id="tspan80"
               sodipodi:role="line"
               y="0"
               x="0 59.34343818 118.68639888 178.02983706 237.37279777 296.71623594 356.05919665 415.40263483 474.74559553 534.08903371 588.50592611 597.35505531"
               style="fill:#262626;fill-opacity:1;fill-rule:nonzero;stroke:none;font-family:Helvetica;font-variant:normal;font-weight:normal;font-size:15.9157;writing-mode:lr;-inkscape-font-specification:Helvetica">012345678910</tspan></text>
<text
             id="text82"
             transform="matrix(1,0,0,-1,328.1692,-3.1684)"><tspan
               id="tspan84"
               sodipodi:role="line"
               y="0"
               x="0 4.845957 9.691914 14.537871 23.253621"
               style="fill:#262626;fill-opacity:1;fill-rule:nonzero;stroke:none;font-family:Helvetica;font-variant:normal;font-weight:normal;font-size:17.4315;writing-mode:lr;-inkscape-font-specification:Helvetica">t [s]</tspan></text>
</g><path
           id="path86"
           style="fill:none;stroke:#262626;stroke-opacity:1;stroke-width:5.00207;stroke-linecap:square;stroke-linejoin:round;stroke-miterlimit:10;stroke-dasharray:none"
           d="m 462.313,356.246 0,4251.764" /><path
           id="path88"
           style="fill:none;stroke:#262626;stroke-opacity:1;stroke-width:5.00207;stroke-linecap:square;stroke-linejoin:round;stroke-miterlimit:10;stroke-dasharray:none"
           d="m 6396.59,356.246 0,4251.764" /><path
           id="path90"
           style="fill:none;stroke:#262626;stroke-opacity:1;stroke-width:5.00207;stroke-linecap:square;stroke-linejoin:round;stroke-miterlimit:10;stroke-dasharray:none"
           d="m 462.313,356.246 59.343,0" /><path
           id="path92"
           style="fill:none;stroke:#262626;stroke-opacity:1;stroke-width:5.00207;stroke-linecap:square;stroke-linejoin:round;stroke-miterlimit:10;stroke-dasharray:none"
           d="m 462.313,1010.37 59.343,0" /><path
           id="path94"
           style="fill:none;stroke:#262626;stroke-opacity:1;stroke-width:5.00207;stroke-linecap:square;stroke-linejoin:round;stroke-miterlimit:10;stroke-dasharray:none"
           d="m 462.313,1664.48 59.343,0" /><path
           id="path96"
           style="fill:none;stroke:#262626;stroke-opacity:1;stroke-width:5.00207;stroke-linecap:square;stroke-linejoin:round;stroke-miterlimit:10;stroke-dasharray:none"
           d="m 462.313,2318.6 59.343,0" /><path
           id="path98"
           style="fill:none;stroke:#262626;stroke-opacity:1;stroke-width:5.00207;stroke-linecap:square;stroke-linejoin:round;stroke-miterlimit:10;stroke-dasharray:none"
           d="m 462.313,2972.72 59.343,0" /><path
           id="path100"
           style="fill:none;stroke:#262626;stroke-opacity:1;stroke-width:5.00207;stroke-linecap:square;stroke-linejoin:round;stroke-miterlimit:10;stroke-dasharray:none"
           d="m 462.313,3626.83 59.343,0" /><path
           id="path102"
           style="fill:none;stroke:#262626;stroke-opacity:1;stroke-width:5.00207;stroke-linecap:square;stroke-linejoin:round;stroke-miterlimit:10;stroke-dasharray:none"
           d="m 462.313,4280.95 59.343,0" /><path
           id="path104"
           style="fill:none;stroke:#262626;stroke-opacity:1;stroke-width:5.00207;stroke-linecap:square;stroke-linejoin:round;stroke-miterlimit:10;stroke-dasharray:none"
           d="m 6396.59,356.246 -59.34,0" /><path
           id="path106"
           style="fill:none;stroke:#262626;stroke-opacity:1;stroke-width:5.00207;stroke-linecap:square;stroke-linejoin:round;stroke-miterlimit:10;stroke-dasharray:none"
           d="m 6396.59,1010.37 -59.34,0" /><path
           id="path108"
           style="fill:none;stroke:#262626;stroke-opacity:1;stroke-width:5.00207;stroke-linecap:square;stroke-linejoin:round;stroke-miterlimit:10;stroke-dasharray:none"
           d="m 6396.59,1664.48 -59.34,0" /><path
           id="path110"
           style="fill:none;stroke:#262626;stroke-opacity:1;stroke-width:5.00207;stroke-linecap:square;stroke-linejoin:round;stroke-miterlimit:10;stroke-dasharray:none"
           d="m 6396.59,2318.6 -59.34,0" /><path
           id="path112"
           style="fill:none;stroke:#262626;stroke-opacity:1;stroke-width:5.00207;stroke-linecap:square;stroke-linejoin:round;stroke-miterlimit:10;stroke-dasharray:none"
           d="m 6396.59,2972.72 -59.34,0" /><path
           id="path114"
           style="fill:none;stroke:#262626;stroke-opacity:1;stroke-width:5.00207;stroke-linecap:square;stroke-linejoin:round;stroke-miterlimit:10;stroke-dasharray:none"
           d="m 6396.59,3626.83 -59.34,0" /><path
           id="path116"
           style="fill:none;stroke:#262626;stroke-opacity:1;stroke-width:5.00207;stroke-linecap:square;stroke-linejoin:round;stroke-miterlimit:10;stroke-dasharray:none"
           d="m 6396.59,4280.95 -59.34,0" /><g
           transform="scale(10,10)"
           id="g118"><text
             id="text120"
             transform="matrix(1,0,0,-1,25.116,29.5578)"><tspan
               id="tspan122"
               sodipodi:role="line"
               y="0"
               x="0 5.2999281"
               style="fill:#262626;fill-opacity:1;fill-rule:nonzero;stroke:none;font-family:Helvetica;font-variant:normal;font-weight:normal;font-size:15.9157;writing-mode:lr;-inkscape-font-specification:Helvetica">-6</tspan><tspan
               id="tspan124"
               sodipodi:role="line"
               y="-65.4121"
               x="0 5.2999281"
               style="fill:#262626;fill-opacity:1;fill-rule:nonzero;stroke:none;font-family:Helvetica;font-variant:normal;font-weight:normal;font-size:15.9157;writing-mode:lr;-inkscape-font-specification:Helvetica">-4</tspan><tspan
               id="tspan126"
               sodipodi:role="line"
               y="-130.8242"
               x="0 5.2999281"
               style="fill:#262626;fill-opacity:1;fill-rule:nonzero;stroke:none;font-family:Helvetica;font-variant:normal;font-weight:normal;font-size:15.9157;writing-mode:lr;-inkscape-font-specification:Helvetica">-2</tspan><tspan
               id="tspan128"
               y="-196.2367"
               x="5.30508"
               style="fill:#262626;fill-opacity:1;fill-rule:nonzero;stroke:none;font-family:Helvetica;font-variant:normal;font-weight:normal;font-size:15.9157;writing-mode:lr;-inkscape-font-specification:Helvetica">0</tspan><tspan
               id="tspan130"
               y="-261.6488"
               x="5.30508"
               style="fill:#262626;fill-opacity:1;fill-rule:nonzero;stroke:none;font-family:Helvetica;font-variant:normal;font-weight:normal;font-size:15.9157;writing-mode:lr;-inkscape-font-specification:Helvetica">2</tspan><tspan
               id="tspan132"
               y="-327.0609"
               x="5.30508"
               style="fill:#262626;fill-opacity:1;fill-rule:nonzero;stroke:none;font-family:Helvetica;font-variant:normal;font-weight:normal;font-size:15.9157;writing-mode:lr;-inkscape-font-specification:Helvetica">4</tspan><tspan
               id="tspan134"
               y="-392.473"
               x="5.30508"
               style="fill:#262626;fill-opacity:1;fill-rule:nonzero;stroke:none;font-family:Helvetica;font-variant:normal;font-weight:normal;font-size:15.9157;writing-mode:lr;-inkscape-font-specification:Helvetica">6</tspan></text>
<text
             id="text136"
             transform="matrix(0,1,1,0,19.8422,234.948)"><tspan
               id="tspan138"
               sodipodi:role="line"
               y="0"
               x="0 8.71575 14.5204395 19.3663965"
               style="fill:#262626;fill-opacity:1;fill-rule:nonzero;stroke:none;font-family:Helvetica;font-variant:normal;font-weight:normal;font-size:17.4315;writing-mode:lr;-inkscape-font-specification:Helvetica">x(t)</tspan></text>
</g><path
           id="path140"
           style="fill:none;stroke:#0000ff;stroke-opacity:1;stroke-width:5.00207;stroke-linecap:butt;stroke-linejoin:round;stroke-miterlimit:10;stroke-dasharray:none"
           d="m 462.313,683.305 59.343,1185.675 59.344,792.56 59.34,526.92 59.344,346.76 59.343,224 59.344,139.74 59.34,81.45 59.344,40.67 59.343,11.75 59.342,-9.04 59.34,-24.24 59.35,-35.48 59.34,-43.88 59.34,-50.21 59.34,-54.9 59.35,-58.29 59.34,-60.61 59.34,-61.99 59.34,-62.52 59.35,-62.28 59.34,-61.3 59.35,-59.66 59.34,-57.38 59.34,-54.46 59.34,-51.03 59.35,-47.03 59.34,-42.57 59.34,-37.69 59.34,-32.41 59.35,-26.81 59.34,-20.94 59.34,-14.86 59.35,-8.64 59.34,-2.31 59.34,4.02 59.34,10.32 59.35,16.52 59.34,22.55 59.34,28.35 59.34,33.89 59.35,39.06 59.34,43.85 59.34,48.22 59.34,52.09 59.35,55.44 59.34,58.24 59.35,60.46 59.34,62.07 59.34,63.07" /><path
           id="path142"
           style="fill:none;stroke:#0000ff;stroke-opacity:1;stroke-width:5.00207;stroke-linecap:butt;stroke-linejoin:round;stroke-miterlimit:10;stroke-dasharray:none"
           d="m 3310.77,3527.38 59.34,63.07 59.34,63.43 59.35,63.16 59.34,62.26 59.34,60.73 59.34,58.61 59.35,55.89 59.34,52.61 59.34,48.82 59.35,44.53 59.34,39.8 59.34,34.66 59.34,29.19 59.35,23.41 59.34,17.42 59.34,11.24 59.34,4.96 59.35,-1.39 59.34,-7.71 59.34,-13.95 59.34,-20.07 59.35,-25.97 59.34,-31.62 59.34,-36.95 59.35,-41.91 59.34,-46.46 59.34,-50.53 59.34,-54.12 59.35,-57.14 59.34,-59.62 59.34,-61.47 59.34,-62.73 59.35,-63.36 59.34,-63.35 59.35,-62.71 59.34,-61.44 59.34,-59.56 59.34,-57.1 59.35,-54.03 59.34,-50.46 59.34,-46.37 59.34,-41.81 59.35,-36.85 59.34,-31.5 59.34,-25.85 59.35,-19.94 59.34,-13.84 59.34,-7.57 59.34,-1.25 59.35,5.08 59.34,11.37" /><path
           id="path144"
           style="fill:none;stroke:#0000ff;stroke-opacity:1;stroke-width:5.00207;stroke-linecap:butt;stroke-linejoin:round;stroke-miterlimit:10;stroke-dasharray:none"
           d="m 6277.91,2997.62 59.34,11.37 59.34,17.55" /><path
           id="path146"
           style="fill:none;stroke:#ff0000;stroke-opacity:1;stroke-width:5.00207;stroke-linecap:butt;stroke-linejoin:bevel;stroke-miterlimit:10;stroke-dasharray:60.6312,22.7367,15.1578,22.7367;stroke-dashoffset:0"
           d="m 462.313,683.305 13.55,314.047 67.758,1202.888 104.199,1040.35 112.118,521.2 118.683,219.41 118.688,51.56 118.681,-33.72 118.69,-79.61 118.68,-105.23 118.69,-118.98 118.68,-124.52 118.69,-123.55 118.69,-116.95 118.68,-105.39 118.69,-89.47 118.68,-69.93 118.69,-47.57 118.69,-23.31 118.68,1.9 118.69,27.03 118.68,51.09 118.69,73.09 118.68,92.21 118.69,107.63 118.68,118.77 118.69,125.17 118.68,126.58 118.69,122.95 118.68,114.42 118.69,101.31 118.69,84.17 118.68,63.69 118.69,40.65 118.68,16.01 118.69,-9.29 118.69,-34.21 118.68,-57.76 118.69,-79.02 118.68,-97.12 118.69,-111.35 118.68,-121.15 118.69,-126.1 118.69,-126.04 118.68,-120.95 118.69,-111.04 118.68,-96.7 118.69,-78.51 118.68,-57.18 118.69,-33.57 118.68,-8.64 118.69,16.65 58.43,17.32" /><path
           id="path148"
           style="fill:#ffffff;fill-opacity:1;fill-rule:nonzero;stroke:none"
           d="m 4282.08,917.086 1743.15,0 0,485.047 -1743.15,0 0,-485.047 z" /><path
           id="path150"
           style="fill:#000000;fill-opacity:1;fill-rule:nonzero;stroke:none"
           d="m 4794.87,1265.57 0,15.4 9.35,0 0,-15.4 20.25,0 0,-8.28 -20.25,0 0,-15.64 25.23,0 0,-8.64 -25.23,0 0,-27.47 -9.35,0 0,27.47 -27.71,0 0,8.64 27.71,0 0,15.64 -14.45,0 c -1.74,-4.9 -3.79,-9.28 -6.16,-13.15 l -7.1,6.16 c 4.42,7.97 7.42,16.93 9,26.88 l 9,-1.66 c -0.79,-3.79 -1.54,-7.11 -2.25,-9.95 l 11.96,0 z m -48.2,35.65 16.81,0 0,-84.2 c 0,-4.11 -1.02,-6.87 -3.07,-8.29 -1.59,-1.18 -4.47,-1.78 -8.65,-1.78 -5.52,0 -10.77,0.32 -15.75,0.95 l -1.54,10.06 c 6.4,-1.1 11.61,-1.65 15.64,-1.65 2.92,0 4.38,1.34 4.38,4.03 l 0,24.98 -33.75,0 c -0.79,-15.23 -4.7,-28.97 -11.72,-41.21 l -7.35,7.46 c 7.03,11.14 10.54,26.49 10.54,46.07 l 0,29.49 c -1.89,-2.76 -4.5,-6.04 -7.82,-9.83 l -5.33,7.81 c 12.4,14.45 20.53,31.19 24.4,50.21 l 9.71,-1.89 c -0.71,-2.92 -1.26,-5.01 -1.66,-6.28 l -0.47,-1.54 21.43,0 4.5,-4.62 c -3,-6.71 -6.43,-13.3 -10.3,-19.77 z m -13.15,-7.93 -12.43,0 0,-15.88 12.43,0 0,15.88 z m 8.18,0 0,-15.88 12.79,0 0,15.88 -12.79,0 z m -8.18,-23.57 -12.43,0 0,-16.46 12.43,0 0,16.46 z m 8.18,0 0,-16.46 12.79,0 0,16.46 -12.79,0 z m -4.62,31.5 c 3.08,5.05 5.72,10.5 7.94,16.34 l -16.82,0 c -2.45,-6.47 -4.9,-11.92 -7.35,-16.34 l 16.23,0 z m 59.68,17.76 c -1.26,-16.89 -8.96,-29.64 -23.09,-38.25 l -6.75,7.46 c 11.92,6 18.67,16.27 20.25,30.79 l -19.78,0 0,8.65 56.85,0 c -0.48,-17.85 -1.27,-29.53 -2.38,-35.06 -0.7,-3.39 -2.04,-5.76 -4.02,-7.1 -1.74,-1.11 -4.54,-1.66 -8.41,-1.66 -4.81,0 -9.51,0.35 -14.09,1.07 l -1.3,8.88 c 4.82,-0.79 8.88,-1.19 12.2,-1.19 3.31,0 5.33,1.34 6.04,4.03 0.94,3.47 1.65,10.94 2.13,22.38 l -17.65,0 z m 70.7,-43.34 -0.24,-0.95 c -4.34,-14.68 -10.34,-28.54 -18,-41.57 l -6.51,10.78 c 10.34,15 18.11,32.14 23.33,51.4 l -20.37,0 0,9.35 21.79,0 0,30.2 9.94,0 0,-30.2 20.14,0 0,-9.35 -20.14,0 0,-13.74 c 8.53,-7.11 15.91,-14.17 22.15,-21.2 l -6.04,-10.3 c -5.45,7.82 -10.82,14.6 -16.11,20.37 l 0,-64.89 -9.94,0 0,70.1 z m 37.18,44.29 3.2,0.23 c 19.42,1.74 35.64,4.94 48.67,9.6 l 8.76,-8.88 c -14.68,-4.74 -31.5,-7.9 -50.44,-9.47 l 0,-23.57 58.97,0 0,-9.36 -21.43,0 0,-72.83 -10.3,0 0,72.83 -27.24,0 c 0,-17.92 -0.91,-31.58 -2.72,-40.97 -2.45,-13.11 -7.59,-24.36 -15.4,-33.76 l -7.46,6.88 c 7.73,10.66 12.39,22.26 13.97,34.81 0.95,6.71 1.42,16.15 1.42,28.31 l 0,46.18 z m 178.23,-54.36 0,15.4 9.35,0 0,-15.4 20.25,0 0,-8.28 -20.25,0 0,-15.64 25.22,0 0,-8.64 -25.22,0 0,-27.47 -9.35,0 0,27.47 -27.71,0 0,8.64 27.71,0 0,15.64 -14.45,0 c -1.74,-4.9 -3.79,-9.28 -6.16,-13.15 l -7.1,6.16 c 4.42,7.97 7.42,16.93 9,26.88 l 9,-1.66 c -0.8,-3.79 -1.55,-7.11 -2.25,-9.95 l 11.96,0 z m -48.21,35.65 16.82,0 0,-84.2 c 0,-4.11 -1.02,-6.87 -3.07,-8.29 -1.59,-1.18 -4.47,-1.78 -8.65,-1.78 -5.53,0 -10.78,0.32 -15.75,0.95 l -1.54,10.06 c 6.4,-1.1 11.61,-1.65 15.64,-1.65 2.92,0 4.38,1.34 4.38,4.03 l 0,24.98 -33.75,0 c -0.79,-15.23 -4.7,-28.97 -11.73,-41.21 l -7.34,7.46 c 7.03,11.14 10.54,26.49 10.54,46.07 l 0,29.49 c -1.89,-2.76 -4.5,-6.04 -7.82,-9.83 l -5.33,7.81 c 12.4,14.45 20.53,31.19 24.4,50.21 l 9.71,-1.89 c -0.71,-2.92 -1.26,-5.01 -1.66,-6.28 l -0.47,-1.54 21.43,0 4.5,-4.62 c -3,-6.71 -6.43,-13.3 -10.31,-19.77 z m -13.14,-7.93 -12.43,0 0,-15.88 12.43,0 0,15.88 z m 8.17,0 0,-15.88 12.8,0 0,15.88 -12.8,0 z m -8.17,-23.57 -12.43,0 0,-16.46 12.43,0 0,16.46 z m 8.17,0 0,-16.46 12.8,0 0,16.46 -12.8,0 z m -4.61,31.5 c 3.08,5.05 5.72,10.5 7.93,16.34 l -16.81,0 c -2.45,-6.47 -4.9,-11.92 -7.35,-16.34 l 16.23,0 z m 59.68,17.76 c -1.26,-16.89 -8.96,-29.64 -23.09,-38.25 l -6.76,7.46 c 11.93,6 18.68,16.27 20.26,30.79 l -19.78,0 0,8.65 56.84,0 c -0.47,-17.85 -1.26,-29.53 -2.37,-35.06 -0.7,-3.39 -2.05,-5.76 -4.02,-7.1 -1.74,-1.11 -4.54,-1.66 -8.41,-1.66 -4.81,0 -9.51,0.35 -14.09,1.07 l -1.31,8.88 c 4.82,-0.79 8.89,-1.19 12.2,-1.19 3.32,0 5.33,1.34 6.05,4.03 0.94,3.47 1.65,10.94 2.13,22.38 l -17.65,0" /><path
           id="path152"
           style="fill:none;stroke:#0000ff;stroke-opacity:1;stroke-width:5.00207;stroke-linecap:butt;stroke-linejoin:round;stroke-miterlimit:10;stroke-dasharray:none"
           d="m 4345.26,1268.68 315.91,0" /><path
           id="path154"
           style="fill:#000000;fill-opacity:1;fill-rule:nonzero;stroke:none"
           d="m 4758.51,1079.41 c -5.37,9.23 -13.38,13.85 -24.04,13.85 -5.99,0 -10.81,-1.9 -14.44,-5.69 -2.77,-3.08 -4.15,-6.63 -4.15,-10.66 0,-4.42 1.78,-8.05 5.33,-10.89 2.68,-2.05 8.09,-4.73 16.23,-8.06 l 4.85,-2.12 c 10.89,-4.34 18.32,-9.16 22.26,-14.45 3.47,-4.66 5.21,-9.87 5.21,-15.64 0,-9.23 -3.39,-16.5 -10.18,-21.79 -6.16,-4.812 -13.94,-7.218 -23.33,-7.218 -15.79,0 -27.95,5.958 -36.47,17.888 l 9.94,7.58 c 6.79,-9.64 15.67,-14.46 26.65,-14.46 5.29,0 9.79,1.27 13.49,3.79 4.59,3.32 6.88,7.75 6.88,13.26 0,4.35 -1.7,8.18 -5.1,11.5 -3.63,3.47 -10.3,7.06 -20.01,10.77 l -4.15,1.66 c -16.34,6.24 -24.51,15.23 -24.51,27 0,7.9 2.65,14.41 7.94,19.54 6,5.68 13.93,8.52 23.8,8.52 14.68,0 25.9,-5.76 33.63,-17.28 l -9.83,-7.1 z m 45.04,6.38 -14.09,0 0,14.46 14.09,0 0,-14.46 z m -0.95,-86.919 -12.31,0 0,71.769 12.31,0 0,-71.769 z m 126.28,0 -12.32,0 0,44.879 c 0,12.09 -4.69,18.13 -14.09,18.13 -4.42,0 -8.49,-2.06 -12.2,-6.16 -2.68,-2.92 -4.54,-6.56 -5.56,-10.9 l 0,-45.949 -12.32,0 0,45.009 c 0,12 -4.42,18 -13.26,18 -4.74,0 -8.88,-2.06 -12.44,-6.16 -3.86,-4.26 -5.8,-8.37 -5.8,-12.32 l 0,-44.529 -12.31,0 0,71.769 11.48,0 0,-12.43 c 4.74,9.15 11.89,13.73 21.44,13.73 10.49,0 17.48,-4.98 20.96,-14.92 5.21,9.94 12.67,14.92 22.38,14.92 7.89,0 14.05,-2.76 18.48,-8.29 3.7,-4.58 5.56,-11.09 5.56,-19.54 l 0,-45.239 z m 86.35,0 -11.48,0 0,13.029 c -7.1,-9.63 -15.71,-14.447 -25.81,-14.447 -8.3,0 -14.77,2.797 -19.43,8.407 -3.63,4.58 -5.45,11.09 -5.45,19.54 l 0,45.24 12.32,0 0,-44.89 c 0,-11.91 5.01,-17.87 15.04,-17.87 10.03,0 17.53,6.19 22.5,18.58 l 0,44.18 12.31,0 0,-71.769 z m 38.55,0 -12.44,0 0,106.459 12.44,0 0,-106.459 z m 39.95,86.919 -14.1,0 0,14.46 14.1,0 0,-14.46 z m -0.95,-86.919 -12.32,0 0,71.769 12.32,0 0,-71.769 z m 88.14,0 -12.31,0 0,44.529 c 0,12.16 -5.06,18.24 -15.16,18.24 -10.18,0 -17.64,-6.08 -22.38,-18.24 l 0,-44.529 -12.32,0 0,71.769 11.49,0 0,-13.02 c 6.79,9.54 15.39,14.32 25.81,14.32 16.58,0 24.87,-9.28 24.87,-27.83 l 0,-45.239 z m 85.08,0 -14.91,0 -24.63,34.819 -8.18,-7.94 0,-26.879 -12.19,0 0,106.459 12.19,0 0,-68.21 30.2,33.52 15.52,0 -29.85,-29.84 31.85,-41.929 z m 20.37,-2.242 c -2.53,17.441 -3.79,33.311 -3.79,47.601 0,17.13 3.08,37.5 9.24,61.1 l 10.89,-2.48 c -6.31,-23.61 -9.47,-43.7 -9.47,-60.28 0,-5.21 0.35,-11.33 1.06,-18.36 2.13,3.88 5.29,9.56 9.48,17.06 l 7.11,-4.97 c -8.93,-15.08 -13.39,-26.73 -13.39,-34.94 0,-1.419 0.04,-2.684 0.12,-3.786 l -11.25,-0.945 z m 39.2,92.721 c 16.97,3.16 35.48,4.74 55.54,4.74 l 1.06,-11.02 c -20.68,0.08 -39.16,-1.53 -55.42,-4.86 l -1.18,11.14 z m 63.47,-86.09 c -9.08,-1.26 -17.49,-1.9 -25.22,-1.9 -13.58,0 -23.49,1.98 -29.73,5.93 -7.02,4.26 -10.53,12.51 -10.53,24.74 0,1.74 0.03,3.32 0.11,4.74 l 10.9,1.3 c 0,-0.87 -0.04,-2.13 -0.12,-3.79 -0.08,-0.94 -0.12,-1.54 -0.12,-1.77 0,-7.82 1.97,-13.11 5.92,-15.87 3.95,-2.6 11.09,-3.91 21.44,-3.91 6.86,0 15.51,0.63 25.93,1.9 l 1.42,-11.37 z m 65.46,107.17 11.01,0 0,-30.79 c 11.53,0.79 22.58,2.68 33.16,5.68 l 3.32,-10.65 c -10.43,-2.29 -22.58,-4.03 -36.48,-5.22 l 0,-36.82 c 12,-3.08 26.01,-9.32 42.04,-18.72 l -6.99,-9.82 c -8.84,6.16 -18.24,11.25 -28.18,15.27 -1.27,0.55 -2.68,1.15 -4.26,1.78 -1.58,0.55 -2.45,0.86 -2.61,0.95 l 0,-4.62 c 0,-9.79 -2.37,-16.31 -7.1,-19.544 -2.93,-1.973 -7.55,-3.196 -13.86,-3.672 l -1.3,-0.121 c -0.32,0 -0.59,0.043 -0.83,0.121 -0.71,0 -1.62,0.043 -2.72,0.125 -8.14,0.156 -15.52,2.402 -22.15,6.741 -6.23,4.18 -9.35,9.12 -9.35,14.81 0,6 3.08,10.77 9.23,14.32 6.71,4.03 15.04,6.05 24.99,6.05 3.24,0 7.26,-0.32 12.08,-0.95 l 0,75.08 z m 0,-85.27 c -4.82,0.95 -9,1.43 -12.55,1.43 -6.4,0 -11.73,-1.03 -15.99,-3.09 -4.11,-1.81 -6.16,-4.18 -6.16,-7.1 0,-2.68 1.3,-5.09 3.9,-7.22 4.03,-3.24 9.4,-4.86 16.11,-4.86 9.79,0 14.69,4.11 14.69,12.32 l 0,8.52 z m 149.49,71.18 -39.91,-40.74 c 9.16,3.4 17.72,5.09 25.7,5.09 7.58,0 14.33,-1.38 20.24,-4.14 10.98,-5.37 16.46,-13.94 16.46,-25.7 0,-10.9 -5.12,-19.97 -15.39,-27.24 -9.47,-6.551 -21.86,-9.825 -37.18,-9.825 -7.42,0 -13.46,1.379 -18.12,4.141 -5.76,3.474 -8.64,8.294 -8.64,14.454 0,4.1 1.54,7.69 4.62,10.77 3.94,3.95 9,5.92 15.15,5.92 11.53,0 21.12,-7.34 28.78,-22.02 12.79,5.29 19.18,13.26 19.18,23.92 0,7.34 -3.04,12.83 -9.11,16.46 -4.51,2.76 -10.39,4.14 -17.65,4.14 -18.87,0 -37.23,-8.96 -55.07,-26.88 l -7.81,8.29 c 23.21,20.37 43.38,40.62 60.51,60.75 -14.77,-2.29 -29.68,-3.91 -44.76,-4.85 l -2.49,11.01 c 16.74,0.4 36.47,1.97 59.21,4.74 l 6.28,-8.29 z m -18,-92.13 c -5.21,10.89 -11.65,16.34 -19.3,16.34 -4.9,0 -7.86,-1.7 -8.89,-5.1 -0.31,-1.1 -0.47,-1.85 -0.47,-2.25 0,-6.71 5.41,-10.06 16.22,-10.06 3.56,0 7.7,0.36 12.44,1.07 z m 134.81,92.36 50.56,0 0,-9.71 -102.67,0 0,-23.91 c 0,-18.88 -0.87,-33.4 -2.6,-43.59 -2.05,-11.21 -5.92,-21.551 -11.61,-31.024 l -8.17,8.883 c 5.37,9.161 8.76,19.811 10.18,31.971 0.95,7.26 1.42,17.37 1.42,30.32 l 0,37.06 51.88,0 0,18.84 11.01,0 0,-18.84 z m -51.16,-91.77 c 5.45,11.52 9.43,26.72 11.96,45.59 l 10.19,-2.6 c -2.69,-19.74 -6.91,-36.05 -12.68,-48.919 l -9.47,5.929 z m 30.91,53.64 10.06,0 0,-51.64 c 0,-2.91 0.83,-4.73 2.49,-5.44 1.42,-0.71 4.85,-1.06 10.3,-1.06 7.42,0 11.69,0.86 12.79,2.6 1.35,2.05 2.17,9.12 2.49,21.2 l 0,2.6 10.65,-2.84 c -0.7,-16.26 -1.97,-25.614 -3.79,-28.067 -2.76,-3.551 -10.14,-5.328 -22.14,-5.328 -8.85,0 -14.96,0.793 -18.35,2.375 -3,1.418 -4.5,4.101 -4.5,8.05 l 0,57.55 z m 26.76,-5.56 c -7.26,8.92 -15.2,16.65 -23.81,23.21 l 7.11,6.75 c 7.89,-5.77 16.07,-13.11 24.51,-22.04 l -7.81,-7.92 z m 38.13,-49.15 c -7.82,19.27 -15.67,34.74 -23.56,46.42 l 9.23,4.97 c 9.32,-13.97 17.33,-28.93 24.04,-44.88 l -9.71,-6.51 z m 66.79,88.11 c 2.45,-4.82 4.9,-10.74 7.34,-17.77 l -10.07,-3.43 c -2.36,8.29 -5,15.35 -7.93,21.2 l -7.82,0 c -4.57,-8.85 -10.14,-16.86 -16.69,-24.05 l -7.94,6.52 c 10.03,10.74 17.57,24.44 22.63,41.1 l 10.29,-2.38 c -1.97,-6.23 -3.39,-10.34 -4.25,-12.32 l 35.28,0 0,-8.87 -20.84,0 z m 55.18,0 c 3.48,-5.06 6.88,-10.74 10.19,-17.06 l -10.42,-3.9 c -3.16,7.42 -6.79,14.4 -10.9,20.96 l -9.94,0 -0.59,-0.95 c -1.9,-3.32 -4.55,-7.07 -7.94,-11.25 l -8.41,5.21 c 6.87,8.44 12.28,18.67 16.23,30.67 l 9.82,-2.13 c -1.5,-4.82 -3.04,-9.04 -4.61,-12.68 l 45.35,0 0,-8.87 -28.78,0 z m -75.91,-58.98 84.44,0 0,-45.469 -10.19,0 0,7.691 -64.06,0 0,-7.691 -10.19,0 0,45.469 z m 74.25,-8.65 -64.06,0 0,-20.48 64.06,0 0,20.48 z m -3.2,24.76 0,-6.17 -55.29,0 0,5.33 c -10.03,-6.39 -21.05,-11.75 -33.05,-16.1 l -6.15,8.77 c 25.73,8.21 45.27,20.92 58.62,38.13 l 10.42,0 c 16.03,-14.77 37.03,-26.33 63,-34.7 l -5.68,-9.24 c -11.45,4.11 -22.07,8.77 -31.87,13.98 z m -50.09,2.72 45.24,0 c -9.55,5.45 -17.96,11.76 -25.22,18.95 -5.53,-6.63 -12.2,-12.95 -20.02,-18.95" /><path
           id="path156"
           style="fill:none;stroke:#ff0000;stroke-opacity:1;stroke-width:5.00207;stroke-linecap:butt;stroke-linejoin:bevel;stroke-miterlimit:10;stroke-dasharray:60.6312,22.7367,15.1578,22.7367;stroke-dashoffset:0"
           d="m 4345.26,1050.54 315.91,0" /><path
           id="path158"
           style="fill:none;stroke:#262626;stroke-opacity:1;stroke-width:5.00207;stroke-linecap:butt;stroke-linejoin:miter;stroke-miterlimit:10;stroke-dasharray:none"
           d="m 4282.08,917.086 1743.15,0 0,485.047 -1743.15,0 0,-485.047 z" /><rect
           transform="matrix(8,0,0,-8,0,5990)"
           y="137.28395"
           x="5.3637371"
           height="627.55725"
           width="831.37921"
           id="rect3135"
           style="fill:none;stroke:none" /></g></g></g></svg>