<?xml version="1.0" encoding="UTF-8" standalone="no"?>
<!-- Created with Inkscape (http://www.inkscape.org/) -->

<svg
   xmlns:dc="http://purl.org/dc/elements/1.1/"
   xmlns:cc="http://creativecommons.org/ns#"
   xmlns:rdf="http://www.w3.org/1999/02/22-rdf-syntax-ns#"
   xmlns:svg="http://www.w3.org/2000/svg"
   xmlns="http://www.w3.org/2000/svg"
   xmlns:sodipodi="http://sodipodi.sourceforge.net/DTD/sodipodi-0.dtd"
   xmlns:inkscape="http://www.inkscape.org/namespaces/inkscape"
   width="210mm"
   height="297mm"
   id="svg2"
   version="1.1"
   inkscape:version="0.48.4 r9939"
   sodipodi:docname="output2.eps">
  <defs
     id="defs4">
    <clipPath
       id="clipPath3001"
       clipPathUnits="userSpaceOnUse">
      <path
         id="path3003"
         d="m 0,0.0390625 14195.3,0 0,6116.1700375 -14195.3,0 L 0,0.0390625 z" />
    </clipPath>
  </defs>
  <sodipodi:namedview
     id="base"
     pagecolor="#ffffff"
     bordercolor="#666666"
     borderopacity="1.0"
     inkscape:pageopacity="0.0"
     inkscape:pageshadow="2"
     inkscape:zoom="0.35"
     inkscape:cx="375"
     inkscape:cy="540"
     inkscape:document-units="px"
     inkscape:current-layer="g2995"
     showgrid="false"
     inkscape:window-width="936"
     inkscape:window-height="1028"
     inkscape:window-x="983"
     inkscape:window-y="157"
     inkscape:window-maximized="0" />
  <metadata
     id="metadata7">
    <rdf:RDF>
      <cc:Work
         rdf:about="">
        <dc:format>image/svg+xml</dc:format>
        <dc:type
           rdf:resource="http://purl.org/dc/dcmitype/StillImage" />
        <dc:title></dc:title>
      </cc:Work>
    </rdf:RDF>
  </metadata>
  <g
     inkscape:label="レイヤー 1"
     inkscape:groupmode="layer"
     id="layer1">
    <g
       transform="matrix(1.25,0,0,-1.25,347.07946,1062.2227)"
       inkscape:label="ink_ext_XXXXXX"
       id="g2993">
      <g
         transform="matrix(0.1,0,0,0.1,-198.85714,146.28571)"
         id="g2995">
        <g
           id="g3332"
           transform="matrix(0.86561722,0,0,0.86561722,-721.84084,2763.6201)">
          <path
             inkscape:connector-curvature="0"
             d="m 462.313,409.301 5957.02,0 0,4335.13 -5957.02,0 0,-4335.13 z"
             style="fill:#ffffff;fill-opacity:1;fill-rule:nonzero;stroke:none"
             id="path3009" />
          <path
             inkscape:connector-curvature="0"
             d="m 462.313,409.301 5957.017,0"
             style="fill:none;stroke:#262626;stroke-width:5.00206995;stroke-linecap:square;stroke-linejoin:round;stroke-miterlimit:10;stroke-opacity:1;stroke-dasharray:none"
             id="path3011" />
          <path
             inkscape:connector-curvature="0"
             d="m 462.313,4744.43 5957.017,0"
             style="fill:none;stroke:#262626;stroke-width:5.00206995;stroke-linecap:square;stroke-linejoin:round;stroke-miterlimit:10;stroke-opacity:1;stroke-dasharray:none"
             id="path3013" />
          <path
             inkscape:connector-curvature="0"
             d="m 462.313,409.301 0,59.566"
             style="fill:none;stroke:#262626;stroke-width:5.00206995;stroke-linecap:square;stroke-linejoin:round;stroke-miterlimit:10;stroke-opacity:1;stroke-dasharray:none"
             id="path3015" />
          <path
             inkscape:connector-curvature="0"
             d="m 1058.02,409.301 0,59.566"
             style="fill:none;stroke:#262626;stroke-width:5.00206995;stroke-linecap:square;stroke-linejoin:round;stroke-miterlimit:10;stroke-opacity:1;stroke-dasharray:none"
             id="path3017" />
          <path
             inkscape:connector-curvature="0"
             d="m 1653.71,409.301 0,59.566"
             style="fill:none;stroke:#262626;stroke-width:5.00206995;stroke-linecap:square;stroke-linejoin:round;stroke-miterlimit:10;stroke-opacity:1;stroke-dasharray:none"
             id="path3019" />
          <path
             inkscape:connector-curvature="0"
             d="m 2249.42,409.301 0,59.566"
             style="fill:none;stroke:#262626;stroke-width:5.00206995;stroke-linecap:square;stroke-linejoin:round;stroke-miterlimit:10;stroke-opacity:1;stroke-dasharray:none"
             id="path3021" />
          <path
             inkscape:connector-curvature="0"
             d="m 2845.12,409.301 0,59.566"
             style="fill:none;stroke:#262626;stroke-width:5.00206995;stroke-linecap:square;stroke-linejoin:round;stroke-miterlimit:10;stroke-opacity:1;stroke-dasharray:none"
             id="path3023" />
          <path
             inkscape:connector-curvature="0"
             d="m 3440.82,409.301 0,59.566"
             style="fill:none;stroke:#262626;stroke-width:5.00206995;stroke-linecap:square;stroke-linejoin:round;stroke-miterlimit:10;stroke-opacity:1;stroke-dasharray:none"
             id="path3025" />
          <path
             inkscape:connector-curvature="0"
             d="m 4036.52,409.301 0,59.566"
             style="fill:none;stroke:#262626;stroke-width:5.00206995;stroke-linecap:square;stroke-linejoin:round;stroke-miterlimit:10;stroke-opacity:1;stroke-dasharray:none"
             id="path3027" />
          <path
             inkscape:connector-curvature="0"
             d="m 4632.22,409.301 0,59.566"
             style="fill:none;stroke:#262626;stroke-width:5.00206995;stroke-linecap:square;stroke-linejoin:round;stroke-miterlimit:10;stroke-opacity:1;stroke-dasharray:none"
             id="path3029" />
          <path
             inkscape:connector-curvature="0"
             d="m 5227.93,409.301 0,59.566"
             style="fill:none;stroke:#262626;stroke-width:5.00206995;stroke-linecap:square;stroke-linejoin:round;stroke-miterlimit:10;stroke-opacity:1;stroke-dasharray:none"
             id="path3031" />
          <path
             inkscape:connector-curvature="0"
             d="m 5823.63,409.301 0,59.566"
             style="fill:none;stroke:#262626;stroke-width:5.00206995;stroke-linecap:square;stroke-linejoin:round;stroke-miterlimit:10;stroke-opacity:1;stroke-dasharray:none"
             id="path3033" />
          <path
             inkscape:connector-curvature="0"
             d="m 6419.33,409.301 0,59.566"
             style="fill:none;stroke:#262626;stroke-width:5.00206995;stroke-linecap:square;stroke-linejoin:round;stroke-miterlimit:10;stroke-opacity:1;stroke-dasharray:none"
             id="path3035" />
          <path
             inkscape:connector-curvature="0"
             d="m 462.313,4744.43 0,-59.57"
             style="fill:none;stroke:#262626;stroke-width:5.00206995;stroke-linecap:square;stroke-linejoin:round;stroke-miterlimit:10;stroke-opacity:1;stroke-dasharray:none"
             id="path3037" />
          <path
             inkscape:connector-curvature="0"
             d="m 1058.02,4744.43 0,-59.57"
             style="fill:none;stroke:#262626;stroke-width:5.00206995;stroke-linecap:square;stroke-linejoin:round;stroke-miterlimit:10;stroke-opacity:1;stroke-dasharray:none"
             id="path3039" />
          <path
             inkscape:connector-curvature="0"
             d="m 1653.71,4744.43 0,-59.57"
             style="fill:none;stroke:#262626;stroke-width:5.00206995;stroke-linecap:square;stroke-linejoin:round;stroke-miterlimit:10;stroke-opacity:1;stroke-dasharray:none"
             id="path3041" />
          <path
             inkscape:connector-curvature="0"
             d="m 2249.42,4744.43 0,-59.57"
             style="fill:none;stroke:#262626;stroke-width:5.00206995;stroke-linecap:square;stroke-linejoin:round;stroke-miterlimit:10;stroke-opacity:1;stroke-dasharray:none"
             id="path3043" />
          <path
             inkscape:connector-curvature="0"
             d="m 2845.12,4744.43 0,-59.57"
             style="fill:none;stroke:#262626;stroke-width:5.00206995;stroke-linecap:square;stroke-linejoin:round;stroke-miterlimit:10;stroke-opacity:1;stroke-dasharray:none"
             id="path3045" />
          <path
             inkscape:connector-curvature="0"
             d="m 3440.82,4744.43 0,-59.57"
             style="fill:none;stroke:#262626;stroke-width:5.00206995;stroke-linecap:square;stroke-linejoin:round;stroke-miterlimit:10;stroke-opacity:1;stroke-dasharray:none"
             id="path3047" />
          <path
             inkscape:connector-curvature="0"
             d="m 4036.52,4744.43 0,-59.57"
             style="fill:none;stroke:#262626;stroke-width:5.00206995;stroke-linecap:square;stroke-linejoin:round;stroke-miterlimit:10;stroke-opacity:1;stroke-dasharray:none"
             id="path3049" />
          <path
             inkscape:connector-curvature="0"
             d="m 4632.22,4744.43 0,-59.57"
             style="fill:none;stroke:#262626;stroke-width:5.00206995;stroke-linecap:square;stroke-linejoin:round;stroke-miterlimit:10;stroke-opacity:1;stroke-dasharray:none"
             id="path3051" />
          <path
             inkscape:connector-curvature="0"
             d="m 5227.93,4744.43 0,-59.57"
             style="fill:none;stroke:#262626;stroke-width:5.00206995;stroke-linecap:square;stroke-linejoin:round;stroke-miterlimit:10;stroke-opacity:1;stroke-dasharray:none"
             id="path3053" />
          <path
             inkscape:connector-curvature="0"
             d="m 5823.63,4744.43 0,-59.57"
             style="fill:none;stroke:#262626;stroke-width:5.00206995;stroke-linecap:square;stroke-linejoin:round;stroke-miterlimit:10;stroke-opacity:1;stroke-dasharray:none"
             id="path3055" />
          <path
             inkscape:connector-curvature="0"
             d="m 6419.33,4744.43 0,-59.57"
             style="fill:none;stroke:#262626;stroke-width:5.00206995;stroke-linecap:square;stroke-linejoin:round;stroke-miterlimit:10;stroke-opacity:1;stroke-dasharray:none"
             id="path3057" />
          <g
             id="g3059"
             transform="scale(10,10)">
            <text
               transform="matrix(1,0,0,-1,40.9262,21.3266)"
               id="text3061">
              <tspan
                 style="font-size:15.91569996px;font-variant:normal;font-weight:normal;writing-mode:lr-tb;fill:#262626;fill-opacity:1;fill-rule:nonzero;stroke:none;font-family:Helvetica;-inkscape-font-specification:Helvetica"
                 x="0 59.570713 119.14143 178.71182 238.28253 292.9267 301.77585 352.4971 361.34622 412.06781 420.91696 471.63852 480.48767 531.20892 540.05804 590.77966 599.62878"
                 y="0"
                 sodipodi:role="line"
                 id="tspan3063">02468101214161820</tspan>
            </text>
            <text
               transform="matrix(1,0,0,-1,329.3052,2.1371)"
               id="text3065">
              <tspan
                 style="font-size:17.43149948px;font-variant:normal;font-weight:normal;writing-mode:lr-tb;fill:#262626;fill-opacity:1;fill-rule:nonzero;stroke:none;font-family:Helvetica;-inkscape-font-specification:Helvetica"
                 x="0 4.8459568 9.6919136 14.537871 23.25362"
                 y="0"
                 sodipodi:role="line"
                 id="tspan3067">t [s]</tspan>
            </text>
          </g>
          <path
             inkscape:connector-curvature="0"
             d="m 462.313,409.301 0,4335.129"
             style="fill:none;stroke:#262626;stroke-width:5.00206995;stroke-linecap:square;stroke-linejoin:round;stroke-miterlimit:10;stroke-opacity:1;stroke-dasharray:none"
             id="path3069" />
          <path
             inkscape:connector-curvature="0"
             d="m 6419.33,409.301 0,4335.129"
             style="fill:none;stroke:#262626;stroke-width:5.00206995;stroke-linecap:square;stroke-linejoin:round;stroke-miterlimit:10;stroke-opacity:1;stroke-dasharray:none"
             id="path3071" />
          <path
             inkscape:connector-curvature="0"
             d="m 462.313,409.301 59.57,0"
             style="fill:none;stroke:#262626;stroke-width:5.00206995;stroke-linecap:square;stroke-linejoin:round;stroke-miterlimit:10;stroke-opacity:1;stroke-dasharray:none"
             id="path3073" />
          <path
             inkscape:connector-curvature="0"
             d="m 462.313,1076.24 59.57,0"
             style="fill:none;stroke:#262626;stroke-width:5.00206995;stroke-linecap:square;stroke-linejoin:round;stroke-miterlimit:10;stroke-opacity:1;stroke-dasharray:none"
             id="path3075" />
          <path
             inkscape:connector-curvature="0"
             d="m 462.313,1743.18 59.57,0"
             style="fill:none;stroke:#262626;stroke-width:5.00206995;stroke-linecap:square;stroke-linejoin:round;stroke-miterlimit:10;stroke-opacity:1;stroke-dasharray:none"
             id="path3077" />
          <path
             inkscape:connector-curvature="0"
             d="m 462.313,2410.13 59.57,0"
             style="fill:none;stroke:#262626;stroke-width:5.00206995;stroke-linecap:square;stroke-linejoin:round;stroke-miterlimit:10;stroke-opacity:1;stroke-dasharray:none"
             id="path3079" />
          <path
             inkscape:connector-curvature="0"
             d="m 462.313,3077.07 59.57,0"
             style="fill:none;stroke:#262626;stroke-width:5.00206995;stroke-linecap:square;stroke-linejoin:round;stroke-miterlimit:10;stroke-opacity:1;stroke-dasharray:none"
             id="path3081" />
          <path
             inkscape:connector-curvature="0"
             d="m 462.313,3744.02 59.57,0"
             style="fill:none;stroke:#262626;stroke-width:5.00206995;stroke-linecap:square;stroke-linejoin:round;stroke-miterlimit:10;stroke-opacity:1;stroke-dasharray:none"
             id="path3083" />
          <path
             inkscape:connector-curvature="0"
             d="m 462.313,4410.96 59.57,0"
             style="fill:none;stroke:#262626;stroke-width:5.00206995;stroke-linecap:square;stroke-linejoin:round;stroke-miterlimit:10;stroke-opacity:1;stroke-dasharray:none"
             id="path3085" />
          <path
             inkscape:connector-curvature="0"
             d="m 6419.33,409.301 -59.57,0"
             style="fill:none;stroke:#262626;stroke-width:5.00206995;stroke-linecap:square;stroke-linejoin:round;stroke-miterlimit:10;stroke-opacity:1;stroke-dasharray:none"
             id="path3087" />
          <path
             inkscape:connector-curvature="0"
             d="m 6419.33,1076.24 -59.57,0"
             style="fill:none;stroke:#262626;stroke-width:5.00206995;stroke-linecap:square;stroke-linejoin:round;stroke-miterlimit:10;stroke-opacity:1;stroke-dasharray:none"
             id="path3089" />
          <path
             inkscape:connector-curvature="0"
             d="m 6419.33,1743.18 -59.57,0"
             style="fill:none;stroke:#262626;stroke-width:5.00206995;stroke-linecap:square;stroke-linejoin:round;stroke-miterlimit:10;stroke-opacity:1;stroke-dasharray:none"
             id="path3091" />
          <path
             inkscape:connector-curvature="0"
             d="m 6419.33,2410.13 -59.57,0"
             style="fill:none;stroke:#262626;stroke-width:5.00206995;stroke-linecap:square;stroke-linejoin:round;stroke-miterlimit:10;stroke-opacity:1;stroke-dasharray:none"
             id="path3093" />
          <path
             inkscape:connector-curvature="0"
             d="m 6419.33,3077.07 -59.57,0"
             style="fill:none;stroke:#262626;stroke-width:5.00206995;stroke-linecap:square;stroke-linejoin:round;stroke-miterlimit:10;stroke-opacity:1;stroke-dasharray:none"
             id="path3095" />
          <path
             inkscape:connector-curvature="0"
             d="m 6419.33,3744.02 -59.57,0"
             style="fill:none;stroke:#262626;stroke-width:5.00206995;stroke-linecap:square;stroke-linejoin:round;stroke-miterlimit:10;stroke-opacity:1;stroke-dasharray:none"
             id="path3097" />
          <path
             inkscape:connector-curvature="0"
             d="m 6419.33,4410.96 -59.57,0"
             style="fill:none;stroke:#262626;stroke-width:5.00206995;stroke-linecap:square;stroke-linejoin:round;stroke-miterlimit:10;stroke-opacity:1;stroke-dasharray:none"
             id="path3099" />
          <g
             id="g3101"
             transform="scale(10,10)">
            <text
               transform="matrix(1,0,0,-1,25.116,34.8633)"
               id="text3103">
              <tspan
                 style="font-size:15.91569996px;font-variant:normal;font-weight:normal;writing-mode:lr-tb;fill:#262626;fill-opacity:1;fill-rule:nonzero;stroke:none;font-family:Helvetica;-inkscape-font-specification:Helvetica"
                 x="0 5.2999282"
                 y="0"
                 sodipodi:role="line"
                 id="tspan3105">-6</tspan>
              <tspan
                 style="font-size:15.91569996px;font-variant:normal;font-weight:normal;writing-mode:lr-tb;fill:#262626;fill-opacity:1;fill-rule:nonzero;stroke:none;font-family:Helvetica;-inkscape-font-specification:Helvetica"
                 x="0 5.2999282"
                 y="-66.694504"
                 sodipodi:role="line"
                 id="tspan3107">-4</tspan>
              <tspan
                 style="font-size:15.91569996px;font-variant:normal;font-weight:normal;writing-mode:lr-tb;fill:#262626;fill-opacity:1;fill-rule:nonzero;stroke:none;font-family:Helvetica;-inkscape-font-specification:Helvetica"
                 x="0 5.2999282"
                 y="-133.3894"
                 sodipodi:role="line"
                 id="tspan3109">-2</tspan>
              <tspan
                 style="font-size:15.91569996px;font-variant:normal;font-weight:normal;writing-mode:lr-tb;fill:#262626;fill-opacity:1;fill-rule:nonzero;stroke:none;font-family:Helvetica;-inkscape-font-specification:Helvetica"
                 x="5.3050799"
                 y="-200.08389"
                 id="tspan3111">0</tspan>
              <tspan
                 style="font-size:15.91569996px;font-variant:normal;font-weight:normal;writing-mode:lr-tb;fill:#262626;fill-opacity:1;fill-rule:nonzero;stroke:none;font-family:Helvetica;-inkscape-font-specification:Helvetica"
                 x="5.3050799"
                 y="-266.77881"
                 id="tspan3113">2</tspan>
              <tspan
                 style="font-size:15.91569996px;font-variant:normal;font-weight:normal;writing-mode:lr-tb;fill:#262626;fill-opacity:1;fill-rule:nonzero;stroke:none;font-family:Helvetica;-inkscape-font-specification:Helvetica"
                 x="5.3050799"
                 y="-333.4733"
                 id="tspan3115">4</tspan>
              <tspan
                 style="font-size:15.91569996px;font-variant:normal;font-weight:normal;writing-mode:lr-tb;fill:#262626;fill-opacity:1;fill-rule:nonzero;stroke:none;font-family:Helvetica;-inkscape-font-specification:Helvetica"
                 x="5.3050799"
                 y="-400.16821"
                 id="tspan3117">6</tspan>
            </text>
            <text
               transform="matrix(0,1,1,0,19.8422,244.421)"
               id="text3119">
              <tspan
                 style="font-size:17.43149948px;font-variant:normal;font-weight:normal;writing-mode:lr-tb;fill:#262626;fill-opacity:1;fill-rule:nonzero;stroke:none;font-family:Helvetica;-inkscape-font-specification:Helvetica"
                 x="0 8.7157497 14.520439 19.366396"
                 y="0"
                 sodipodi:role="line"
                 id="tspan3121">x(t)</tspan>
            </text>
          </g>
          <path
             inkscape:connector-curvature="0"
             d="m 462.313,742.77 2.98,143.832 2.977,138.188 2.98,132.76 2.977,127.56 2.98,122.53 2.977,117.73 2.98,113.09 2.977,108.64 2.98,104.36 2.977,100.24 2.98,96.28 2.977,92.48 2.98,88.82 2.977,85.31 2.98,81.93 2.977,78.67 2.98,75.55 2.977,72.54 2.98,69.65 2.977,66.87 2.98,64.19 2.977,61.62 2.98,59.16 2.977,56.76 2.98,54.49 2.977,52.28 2.98,50.17 2.977,48.12 2.98,46.17 2.977,44.28 2.98,42.48 2.977,40.72 2.98,39.05 2.977,37.42 2.981,35.88 2.976,34.38 2.981,32.94 2.976,31.55 2.981,30.22 2.976,28.93 2.981,27.7 2.976,26.51 2.981,25.36 2.976,24.26 2.981,23.2 2.976,22.16 2.981,21.18 2.976,20.25 2.981,19.32"
             style="fill:none;stroke:#0000ff;stroke-width:5.00206995;stroke-linecap:butt;stroke-linejoin:round;stroke-miterlimit:10;stroke-opacity:1;stroke-dasharray:none"
             id="path3123" />
          <path
             inkscape:connector-curvature="0"
             d="m 605.281,3841.23 2.981,19.32 2.976,18.45 2.981,17.59 2.976,16.78 2.981,15.98 2.976,15.23 2.977,14.5 2.98,13.8 2.977,13.11 2.98,12.45 2.977,11.83 2.98,11.21 2.977,10.63 2.98,10.07 2.977,9.51 2.981,8.99 2.976,8.48 2.981,7.99 2.976,7.51 2.981,7.07 2.976,6.61 2.981,6.2 2.976,5.77 2.981,5.39 2.976,5 2.981,4.62 2.976,4.28 2.981,3.92 2.976,3.6 2.981,3.26 2.976,2.96 2.981,2.65 2.976,2.37 2.981,2.08 2.976,1.81 2.981,1.54 2.976,1.29 2.981,1.05 2.976,0.8 2.981,0.57 2.976,0.35 2.981,0.12 2.976,-0.07 2.981,-0.29 2.977,-0.48 2.98,-0.67 2.977,-0.85 2.98,-1.04 2.977,-1.2 2.98,-1.38 2.977,-1.54"
             style="fill:none;stroke:#0000ff;stroke-width:5.00206995;stroke-linecap:butt;stroke-linejoin:round;stroke-miterlimit:10;stroke-opacity:1;stroke-dasharray:none"
             id="path3125" />
          <path
             inkscape:connector-curvature="0"
             d="m 754.207,4151.99 2.977,-1.54 2.98,-1.7 2.977,-1.85 2.98,-2 2.977,-2.14 2.98,-2.28 2.977,-2.43 2.98,-2.55 2.977,-2.68 2.98,-2.81 2.977,-2.93 2.98,-3.04 2.977,-3.15 2.98,-3.27 2.977,-3.37 2.98,-3.48 2.977,-3.58 2.98,-3.68 2.977,-3.77 2.98,-3.87 2.977,-3.96 2.98,-4.04 2.977,-4.13 2.98,-4.22 2.977,-4.29 2.98,-4.37 2.977,-4.45 2.98,-4.51 2.977,-4.6 2.981,-4.66 2.976,-4.73 2.981,-4.79 2.976,-4.86 2.981,-4.93 2.976,-4.98 2.981,-5.04 2.976,-5.1 2.981,-5.14 2.976,-5.21 2.981,-5.26 2.976,-5.31 2.981,-5.36 2.976,-5.41 2.981,-5.45 2.976,-5.5 2.981,-5.54 2.976,-5.58 2.981,-5.62 2.976,-5.66 2.981,-5.7 2.976,-5.74"
             style="fill:none;stroke:#0000ff;stroke-width:5.00206995;stroke-linecap:butt;stroke-linejoin:round;stroke-miterlimit:10;stroke-opacity:1;stroke-dasharray:none"
             id="path3127" />
          <path
             inkscape:connector-curvature="0"
             d="m 903.133,3947.47 2.976,-5.74 2.981,-5.77 2.976,-5.81 2.981,-5.84 2.976,-5.87 2.981,-5.91 2.976,-5.93 2.981,-5.97 2.977,-5.99 2.98,-6.01 2.977,-6.04 2.98,-6.07 2.977,-6.1 2.98,-6.1 2.977,-6.14 2.98,-6.16 2.977,-6.17 2.98,-6.2 2.977,-6.2 2.98,-6.24 2.977,-6.24 2.98,-6.25 2.977,-6.28 2.98,-6.28 2.977,-6.3 2.98,-6.31 2.977,-6.32 2.98,-6.32 2.977,-6.34 2.98,-6.35 2.977,-6.35 2.98,-6.36 2.975,-6.36 2.98,-6.37 2.98,-6.37 2.98,-6.38 2.98,-6.37 2.98,-6.39 2.97,-6.37 2.98,-6.38 2.98,-6.38 2.98,-6.37 2.98,-6.38 2.98,-6.37 2.97,-6.36 2.98,-6.36 2.98,-6.36 2.98,-6.35 2.98,-6.34 2.98,-6.33 2.98,-6.33"
             style="fill:none;stroke:#0000ff;stroke-width:5.00206995;stroke-linecap:butt;stroke-linejoin:round;stroke-miterlimit:10;stroke-opacity:1;stroke-dasharray:none"
             id="path3129" />
          <path
             inkscape:connector-curvature="0"
             d="m 1052.06,3636.92 2.98,-6.33 2.98,-6.32 2.97,-6.31 2.98,-6.3 2.98,-6.28 2.98,-6.27 2.98,-6.26 2.98,-6.25 2.97,-6.23 2.98,-6.22 2.98,-6.2 2.98,-6.18 2.98,-6.17 2.98,-6.16 2.97,-6.13 2.98,-6.11 2.98,-6.11 2.98,-6.07 2.98,-6.05 2.98,-6.04 2.98,-6 2.98,-5.99 2.97,-5.97 2.98,-5.94 2.98,-5.92 2.98,-5.89 2.98,-5.86 2.98,-5.84 2.97,-5.81 2.98,-5.78 2.98,-5.77 2.98,-5.72 2.98,-5.7 2.98,-5.67 2.97,-5.62 2.99,-5.61 2.97,-5.57 2.98,-5.55 2.98,-5.51 2.98,-5.47 2.98,-5.44 2.98,-5.4 2.97,-5.37 2.98,-5.33 2.98,-5.3 2.98,-5.26 2.98,-5.22 2.98,-5.19 2.97,-5.15 2.98,-5.1 2.98,-5.07"
             style="fill:none;stroke:#0000ff;stroke-width:5.00206995;stroke-linecap:butt;stroke-linejoin:round;stroke-miterlimit:10;stroke-opacity:1;stroke-dasharray:none"
             id="path3131" />
          <path
             inkscape:connector-curvature="0"
             d="m 1200.98,3344.98 2.98,-5.07 2.98,-5.03 2.98,-4.99 2.98,-4.94 2.98,-4.91 2.98,-4.86 2.97,-4.81 2.98,-4.79 2.98,-4.72 2.98,-4.7 2.98,-4.64 2.98,-4.59 2.97,-4.56 2.98,-4.51 2.98,-4.46 2.98,-4.42 2.98,-4.36 2.98,-4.32 2.97,-4.27 2.98,-4.22 2.98,-4.17 2.98,-4.13 2.98,-4.07 2.98,-4.02 2.98,-3.97 2.98,-3.93 2.97,-3.86 2.98,-3.82 2.98,-3.77 2.98,-3.71 2.98,-3.66 2.98,-3.61 2.97,-3.55 2.98,-3.5 2.98,-3.44 2.98,-3.39 2.98,-3.33 2.98,-3.29 2.97,-3.22 2.99,-3.17 2.97,-3.1 2.98,-3.06 2.98,-2.99 2.98,-2.94 2.98,-2.88 2.98,-2.82 2.97,-2.77 2.98,-2.7 2.98,-2.65 2.98,-2.58 2.98,-2.53"
             style="fill:none;stroke:#0000ff;stroke-width:5.00206995;stroke-linecap:butt;stroke-linejoin:round;stroke-miterlimit:10;stroke-opacity:1;stroke-dasharray:none"
             id="path3133" />
          <path
             inkscape:connector-curvature="0"
             d="m 1349.91,3149.71 2.98,-2.53 2.97,-2.47 2.98,-2.41 2.98,-2.35 2.98,-2.29 2.98,-2.22 2.98,-2.17 2.97,-2.11 2.98,-2.03 2.98,-1.99 2.98,-1.93 2.98,-1.85 2.98,-1.8 2.98,-1.74 2.98,-1.67 2.97,-1.61 2.98,-1.54 2.98,-1.49 2.98,-1.42 2.98,-1.36 2.98,-1.3 2.97,-1.22 2.98,-1.17 2.98,-1.11 2.98,-1.04 2.98,-0.97 2.98,-0.92 2.97,-0.85 2.99,-0.78 2.97,-0.72 2.98,-0.66 2.98,-0.59 2.98,-0.52 2.98,-0.47 2.98,-0.4 2.97,-0.33 2.98,-0.27 2.98,-0.2 2.98,-0.14 2.98,-0.07 2.98,-0.02 2.97,0.06 2.98,0.12 2.98,0.18 2.98,0.25 2.98,0.32 2.98,0.38 2.98,0.43 2.98,0.51 2.97,0.57 2.98,0.64"
             style="fill:none;stroke:#0000ff;stroke-width:5.00206995;stroke-linecap:butt;stroke-linejoin:round;stroke-miterlimit:10;stroke-opacity:1;stroke-dasharray:none"
             id="path3135" />
          <path
             inkscape:connector-curvature="0"
             d="m 1498.83,3099.8 2.98,0.64 2.98,0.7 2.98,0.77 2.98,0.82 2.98,0.9 2.97,0.95 2.98,1.03 2.98,1.08 2.98,1.15 2.98,1.21 2.98,1.28 2.97,1.33 2.98,1.4 2.98,1.48 2.98,1.52 2.98,1.59 2.98,1.65 2.98,1.72 2.98,1.78 2.97,1.84 2.98,1.9 2.98,1.96 2.98,2.03 2.98,2.09 2.98,2.15 2.97,2.21 2.98,2.27 2.98,2.32 2.98,2.39 2.98,2.46 2.98,2.51 2.97,2.57 2.99,2.63 2.97,2.69 2.98,2.74 2.98,2.8 2.98,2.87 2.98,2.92 2.98,2.98 2.97,3.03 2.98,3.1 2.98,3.15 2.98,3.21 2.98,3.26 2.98,3.32 2.97,3.37 2.98,3.43 2.98,3.48 2.98,3.54 2.98,3.59 2.98,3.65"
             style="fill:none;stroke:#0000ff;stroke-width:5.00206995;stroke-linecap:butt;stroke-linejoin:round;stroke-miterlimit:10;stroke-opacity:1;stroke-dasharray:none"
             id="path3137" />
          <path
             inkscape:connector-curvature="0"
             d="m 1647.76,3207.61 2.98,3.65 2.97,3.69 2.99,3.76 2.97,3.79 2.98,3.86 2.98,3.91 2.98,3.96 2.98,4.01 2.98,4.06 2.97,4.11 2.98,4.16 2.98,4.21 2.98,4.26 2.98,4.31 2.98,4.35 2.97,4.41 2.98,4.44 2.98,4.5 2.98,4.55 2.98,4.58 2.98,4.64 2.98,4.68 2.98,4.72 2.97,4.76 2.98,4.82 2.98,4.86 2.98,4.89 2.98,4.95 2.98,4.97 2.97,5.02 2.98,5.06 2.98,5.1 2.98,5.15 2.98,5.18 2.98,5.22 2.97,5.26 2.98,5.29 2.98,5.33 2.98,5.37 2.98,5.4 2.98,5.45 2.98,5.47 2.98,5.51 2.97,5.54 2.98,5.57 2.98,5.61 2.98,5.63 2.98,5.68 2.98,5.7 2.97,5.73 2.98,5.76"
             style="fill:none;stroke:#0000ff;stroke-width:5.00206995;stroke-linecap:butt;stroke-linejoin:round;stroke-miterlimit:10;stroke-opacity:1;stroke-dasharray:none"
             id="path3139" />
          <path
             inkscape:connector-curvature="0"
             d="m 1796.68,3446.74 2.98,5.76 2.98,5.8 2.98,5.81 2.98,5.85 2.98,5.88 2.97,5.9 2.99,5.93 2.97,5.95 2.98,5.97 2.98,6.01 2.98,6.03 2.98,6.05 2.98,6.07 2.97,6.09 2.98,6.12 2.98,6.14 2.98,6.15 2.98,6.18 2.98,6.2 2.97,6.21 2.98,6.23 2.98,6.25 2.98,6.27 2.98,6.28 2.98,6.3 2.98,6.31 2.98,6.32 2.97,6.34 2.98,6.35 2.98,6.37 2.98,6.37 2.98,6.39 2.98,6.38 2.97,6.41 2.98,6.42 2.98,6.42 2.98,6.43 2.98,6.44 2.98,6.44 2.97,6.45 2.98,6.45 2.98,6.46 2.98,6.46 2.98,6.47 2.98,6.46 2.98,6.47 2.98,6.47 2.97,6.47 2.98,6.46 2.98,6.48 2.98,6.46"
             style="fill:none;stroke:#0000ff;stroke-width:5.00206995;stroke-linecap:butt;stroke-linejoin:round;stroke-miterlimit:10;stroke-opacity:1;stroke-dasharray:none"
             id="path3141" />
          <path
             inkscape:connector-curvature="0"
             d="m 1945.61,3758.66 2.98,6.46 2.98,6.47 2.98,6.46 2.97,6.47 2.98,6.44 2.98,6.46 2.98,6.45 2.98,6.44 2.98,6.42 2.97,6.43 2.99,6.42 2.97,6.41 2.98,6.4 2.98,6.39 2.98,6.38 2.98,6.37 2.98,6.35 2.97,6.35 2.98,6.32 2.98,6.33 2.98,6.3 2.98,6.29 2.98,6.27 2.97,6.26 2.98,6.24 2.98,6.22 2.98,6.21 2.98,6.18 2.98,6.17 2.97,6.15 2.99,6.12 2.97,6.1 2.98,6.09 2.98,6.06 2.98,6.03 2.98,6.02 2.98,5.99 2.97,5.97 2.98,5.93 2.98,5.93 2.98,5.88 2.98,5.86 2.98,5.83 2.97,5.81 2.98,5.77 2.98,5.74 2.98,5.73 2.98,5.68 2.98,5.66 2.98,5.62 2.97,5.58"
             style="fill:none;stroke:#0000ff;stroke-width:5.00206995;stroke-linecap:butt;stroke-linejoin:round;stroke-miterlimit:10;stroke-opacity:1;stroke-dasharray:none"
             id="path3143" />
          <path
             inkscape:connector-curvature="0"
             d="m 2094.54,4066.99 2.97,5.58 2.98,5.57 2.98,5.52 2.98,5.49 2.98,5.46 2.98,5.42 2.97,5.38 2.98,5.35 2.98,5.31 2.98,5.27 2.98,5.24 2.98,5.2 2.97,5.16 2.98,5.13 2.98,5.07 2.98,5.04 2.98,5.01 2.98,4.95 2.98,4.92 2.98,4.87 2.97,4.84 2.98,4.78 2.98,4.75 2.98,4.7 2.98,4.66 2.98,4.61 2.97,4.57 2.98,4.51 2.98,4.47 2.98,4.43 2.98,4.38 2.98,4.33 2.97,4.28 2.98,4.23 2.98,4.18 2.98,4.14 2.98,4.09 2.98,4.03 2.98,3.98 2.98,3.93 2.97,3.88 2.98,3.84 2.98,3.77 2.98,3.72 2.98,3.67 2.98,3.62 2.97,3.56 2.98,3.51 2.98,3.45 2.98,3.4 2.98,3.35"
             style="fill:none;stroke:#0000ff;stroke-width:5.00206995;stroke-linecap:butt;stroke-linejoin:round;stroke-miterlimit:10;stroke-opacity:1;stroke-dasharray:none"
             id="path3145" />
          <path
             inkscape:connector-curvature="0"
             d="m 2243.46,4296.24 2.98,3.35 2.98,3.29 2.97,3.23 2.99,3.18 2.97,3.11 2.98,3.07 2.98,3 2.98,2.95 2.98,2.9 2.98,2.83 2.97,2.78 2.98,2.71 2.98,2.65 2.98,2.6 2.98,2.54 2.98,2.48 2.97,2.41 2.98,2.37 2.98,2.29 2.98,2.24 2.98,2.18 2.98,2.12 2.97,2.05 2.99,2 2.97,1.93 2.98,1.86 2.98,1.82 2.98,1.74 2.98,1.68 2.98,1.62 2.97,1.57 2.98,1.49 2.98,1.43 2.98,1.37 2.98,1.3 2.98,1.25 2.97,1.17 2.98,1.11 2.98,1.06 2.98,0.98 2.98,0.93 2.98,0.85 2.98,0.8 2.98,0.74 2.97,0.66 2.98,0.6 2.98,0.54 2.98,0.47 2.98,0.41 2.98,0.35 2.97,0.27"
             style="fill:none;stroke:#0000ff;stroke-width:5.00206995;stroke-linecap:butt;stroke-linejoin:round;stroke-miterlimit:10;stroke-opacity:1;stroke-dasharray:none"
             id="path3147" />
          <path
             inkscape:connector-curvature="0"
             d="m 2392.39,4390.3 2.97,0.27 2.98,0.22 2.98,0.14 2.98,0.1 2.98,0.01 2.98,-0.04 2.97,-0.11 2.98,-0.18 2.98,-0.23 2.98,-0.3 2.98,-0.38 2.98,-0.42 2.98,-0.5 2.98,-0.56 2.97,-0.63 2.98,-0.69 2.98,-0.75 2.98,-0.82 2.98,-0.88 2.98,-0.95 2.97,-1.01 2.98,-1.07 2.98,-1.14 2.98,-1.21 2.98,-1.26 2.98,-1.33 2.97,-1.39 2.99,-1.46 2.97,-1.52 2.98,-1.57 2.98,-1.65 2.98,-1.7 2.98,-1.77 2.98,-1.83 2.97,-1.9 2.98,-1.95 2.98,-2.02 2.98,-2.07 2.98,-2.14 2.98,-2.2 2.97,-2.26 2.98,-2.33 2.98,-2.37 2.98,-2.45 2.98,-2.5 2.98,-2.56 2.98,-2.61 2.98,-2.69 2.97,-2.73 2.98,-2.8 2.98,-2.85"
             style="fill:none;stroke:#0000ff;stroke-width:5.00206995;stroke-linecap:butt;stroke-linejoin:round;stroke-miterlimit:10;stroke-opacity:1;stroke-dasharray:none"
             id="path3149" />
          <path
             inkscape:connector-curvature="0"
             d="m 2541.31,4326.11 2.98,-2.85 2.98,-2.92 2.98,-2.96 2.98,-3.03 2.97,-3.08 2.98,-3.14 2.98,-3.2 2.98,-3.25 2.98,-3.31 2.98,-3.37 2.97,-3.42 2.98,-3.47 2.98,-3.53 2.98,-3.58 2.98,-3.64 2.98,-3.68 2.98,-3.75 2.98,-3.8 2.97,-3.85 2.98,-3.89 2.98,-3.96 2.98,-4 2.98,-4.05 2.98,-4.11 2.97,-4.15 2.98,-4.2 2.98,-4.25 2.98,-4.29 2.98,-4.36 2.98,-4.39 2.97,-4.44 2.99,-4.49 2.97,-4.54 2.98,-4.58 2.98,-4.63 2.98,-4.67 2.98,-4.72 2.98,-4.76 2.97,-4.8 2.98,-4.85 2.98,-4.89 2.98,-4.93 2.98,-4.98 2.98,-5.01 2.97,-5.05 2.98,-5.1 2.98,-5.14 2.98,-5.17 2.98,-5.22 2.98,-5.25 2.97,-5.28"
             style="fill:none;stroke:#0000ff;stroke-width:5.00206995;stroke-linecap:butt;stroke-linejoin:round;stroke-miterlimit:10;stroke-opacity:1;stroke-dasharray:none"
             id="path3151" />
          <path
             inkscape:connector-curvature="0"
             d="m 2690.24,4119.41 2.97,-5.28 2.99,-5.33 2.97,-5.36 2.98,-5.4 2.98,-5.43 2.98,-5.48 2.98,-5.5 2.98,-5.53 2.97,-5.57 2.98,-5.6 2.98,-5.64 2.98,-5.66 2.98,-5.7 2.98,-5.72 2.97,-5.76 2.98,-5.79 2.98,-5.82 2.98,-5.84 2.98,-5.87 2.98,-5.9 2.98,-5.92 2.98,-5.95 2.97,-5.97 2.98,-6 2.98,-6.03 2.98,-6.05 2.98,-6.06 2.98,-6.09 2.97,-6.12 2.98,-6.13 2.98,-6.16 2.98,-6.16 2.98,-6.2 2.98,-6.21 2.97,-6.23 2.98,-6.25 2.98,-6.26 2.98,-6.28 2.98,-6.29 2.98,-6.31 2.98,-6.32 2.98,-6.34 2.97,-6.35 2.98,-6.36 2.98,-6.37 2.98,-6.38 2.98,-6.4 2.98,-6.4 2.97,-6.42 2.98,-6.42 2.98,-6.42"
             style="fill:none;stroke:#0000ff;stroke-width:5.00206995;stroke-linecap:butt;stroke-linejoin:round;stroke-miterlimit:10;stroke-opacity:1;stroke-dasharray:none"
             id="path3153" />
          <path
             inkscape:connector-curvature="0"
             d="m 2839.16,3820.8 2.98,-6.42 2.98,-6.44 2.98,-6.44 2.98,-6.45 2.97,-6.45 2.98,-6.46 2.98,-6.46 2.98,-6.47 2.98,-6.46 2.98,-6.46 2.98,-6.48 2.97,-6.47 2.98,-6.46 2.98,-6.48 2.98,-6.47 2.98,-6.47 2.98,-6.45 2.97,-6.47 2.98,-6.45 2.98,-6.45 2.98,-6.45 2.98,-6.44 2.98,-6.43 2.97,-6.43 2.99,-6.42 2.97,-6.41 2.98,-6.4 2.98,-6.39 2.98,-6.38 2.98,-6.38 2.98,-6.36 2.97,-6.34 2.98,-6.34 2.98,-6.31 2.98,-6.3 2.98,-6.29 2.98,-6.28 2.97,-6.26 2.98,-6.24 2.98,-6.23 2.98,-6.2 2.98,-6.2 2.98,-6.17 2.97,-6.15 2.99,-6.13 2.97,-6.1 2.98,-6.09 2.98,-6.07 2.98,-6.04 2.98,-6.02 2.98,-5.99"
             style="fill:none;stroke:#0000ff;stroke-width:5.00206995;stroke-linecap:butt;stroke-linejoin:round;stroke-miterlimit:10;stroke-opacity:1;stroke-dasharray:none"
             id="path3155" />
          <path
             inkscape:connector-curvature="0"
             d="m 2988.09,3503.39 2.98,-5.99 2.97,-5.97 2.98,-5.95 2.98,-5.92 2.98,-5.88 2.98,-5.87 2.98,-5.84 2.97,-5.8 2.98,-5.78 2.98,-5.76 2.98,-5.72 2.98,-5.69 2.98,-5.65 2.98,-5.64 2.98,-5.59 2.97,-5.56 2.98,-5.53 2.98,-5.5 2.98,-5.46 2.98,-5.42 2.98,-5.4 2.97,-5.35 2.98,-5.32 2.98,-5.28 2.98,-5.24 2.98,-5.21 2.98,-5.16 2.97,-5.13 2.98,-5.09 2.98,-5.05 2.98,-5 2.98,-4.96 2.98,-4.93 2.98,-4.88 2.98,-4.84 2.97,-4.8 2.98,-4.75 2.98,-4.7 2.98,-4.67 2.98,-4.62 2.98,-4.57 2.97,-4.52 2.98,-4.48 2.98,-4.44 2.98,-4.38 2.98,-4.34 2.98,-4.29 2.97,-4.24 2.99,-4.19 2.97,-4.14 2.98,-4.1"
             style="fill:none;stroke:#0000ff;stroke-width:5.00206995;stroke-linecap:butt;stroke-linejoin:round;stroke-miterlimit:10;stroke-opacity:1;stroke-dasharray:none"
             id="path3157" />
          <path
             inkscape:connector-curvature="0"
             d="m 3137.01,3244.9 2.98,-4.1 2.98,-4.04 2.98,-3.99 2.98,-3.94 2.98,-3.88 2.97,-3.85 2.98,-3.78 2.98,-3.73 2.98,-3.68 2.98,-3.62 2.98,-3.58 2.97,-3.51 2.98,-3.47 2.98,-3.41 2.98,-3.35 2.98,-3.3 2.98,-3.24 2.98,-3.19 2.98,-3.12 2.97,-3.08 2.98,-3.01 2.98,-2.96 2.98,-2.9 2.98,-2.83 2.98,-2.8 2.97,-2.72 2.98,-2.66 2.98,-2.61 2.98,-2.55 2.98,-2.49 2.98,-2.43 2.97,-2.37 2.98,-2.3 2.98,-2.25 2.98,-2.19 2.98,-2.13 2.98,-2.06 2.98,-2 2.98,-1.94 2.97,-1.89 2.98,-1.81 2.98,-1.75 2.98,-1.7 2.98,-1.63 2.98,-1.57 2.97,-1.5 2.98,-1.44 2.98,-1.38 2.98,-1.32 2.98,-1.25 2.98,-1.19"
             style="fill:none;stroke:#0000ff;stroke-width:5.00206995;stroke-linecap:butt;stroke-linejoin:round;stroke-miterlimit:10;stroke-opacity:1;stroke-dasharray:none"
             id="path3159" />
          <path
             inkscape:connector-curvature="0"
             d="m 3285.94,3108.6 2.98,-1.19 2.97,-1.12 2.99,-1.06 2.97,-1 2.98,-0.94 2.98,-0.87 2.98,-0.8 2.98,-0.74 2.98,-0.68 2.97,-0.61 2.98,-0.55 2.98,-0.48 2.98,-0.42 2.98,-0.35 2.98,-0.29 2.97,-0.23 2.98,-0.16 2.98,-0.09 2.98,-0.04 2.98,0.04 2.98,0.1 2.97,0.17 2.99,0.22 2.97,0.29 2.98,0.36 2.98,0.42 2.98,0.49 2.98,0.55 2.98,0.61 2.97,0.68 2.98,0.75 2.98,0.81 2.98,0.87 2.98,0.93 2.98,1 2.97,1.07 2.98,1.12 2.98,1.2 2.98,1.25 2.98,1.32 2.98,1.39 2.98,1.44 2.98,1.51 2.97,1.57 2.98,1.63 2.98,1.7 2.98,1.76 2.98,1.82 2.98,1.88 2.97,1.95 2.98,2"
             style="fill:none;stroke:#0000ff;stroke-width:5.00206995;stroke-linecap:butt;stroke-linejoin:round;stroke-miterlimit:10;stroke-opacity:1;stroke-dasharray:none"
             id="path3161" />
          <path
             inkscape:connector-curvature="0"
             d="m 3434.86,3127.88 2.98,2 2.98,2.07 2.98,2.13 2.98,2.18 2.98,2.26 2.97,2.3 2.98,2.38 2.98,2.43 2.98,2.5 2.98,2.54 2.98,2.62 2.98,2.66 2.98,2.73 2.97,2.79 2.98,2.84 2.98,2.9 2.98,2.97 2.98,3.02 2.98,3.07 2.97,3.13 2.98,3.19 2.98,3.24 2.98,3.3 2.98,3.36 2.98,3.41 2.97,3.46 2.99,3.52 2.97,3.58 2.98,3.63 2.98,3.68 2.98,3.73 2.98,3.79 2.98,3.84 2.97,3.89 2.98,3.94 2.98,4 2.98,4.04 2.98,4.1 2.97,4.14 2.98,4.19 2.98,4.25 2.98,4.28 2.98,4.35 2.98,4.39 2.97,4.43 2.99,4.49 2.97,4.52 2.98,4.58 2.98,4.62 2.98,4.66 2.98,4.71"
             style="fill:none;stroke:#0000ff;stroke-width:5.00206995;stroke-linecap:butt;stroke-linejoin:round;stroke-miterlimit:10;stroke-opacity:1;stroke-dasharray:none"
             id="path3163" />
          <path
             inkscape:connector-curvature="0"
             d="m 3583.79,3298 2.98,4.71 2.98,4.75 2.97,4.8 2.98,4.84 2.98,4.88 2.98,4.93 2.98,4.97 2.98,5.01 2.97,5.05 2.98,5.08 2.98,5.14 2.98,5.16 2.98,5.21 2.98,5.25 2.97,5.28 2.99,5.32 2.97,5.36 2.98,5.39 2.98,5.43 2.98,5.46 2.98,5.5 2.98,5.52 2.97,5.57 2.98,5.6 2.98,5.63 2.98,5.66 2.98,5.69 2.98,5.72 2.97,5.76 2.98,5.78 2.98,5.8 2.98,5.85 2.98,5.86 2.98,5.89 2.98,5.92 2.98,5.95 2.97,5.97 2.98,6 2.98,6.02 2.98,6.04 2.98,6.07 2.98,6.08 2.97,6.11 2.98,6.13 2.98,6.15 2.98,6.17 2.98,6.19 2.98,6.21 2.97,6.23 2.98,6.24 2.98,6.26"
             style="fill:none;stroke:#0000ff;stroke-width:5.00206995;stroke-linecap:butt;stroke-linejoin:round;stroke-miterlimit:10;stroke-opacity:1;stroke-dasharray:none"
             id="path3165" />
          <path
             inkscape:connector-curvature="0"
             d="m 3732.71,3577.33 2.98,6.26 2.98,6.28 2.98,6.29 2.98,6.3 2.98,6.33 2.98,6.33 2.97,6.34 2.98,6.36 2.98,6.38 2.98,6.38 2.98,6.39 2.98,6.4 2.97,6.41 2.98,6.42 2.98,6.43 2.98,6.43 2.98,6.44 2.98,6.45 2.97,6.46 2.99,6.45 2.97,6.46 2.98,6.47 2.98,6.46 2.98,6.46 2.98,6.48 2.98,6.47 2.97,6.47 2.98,6.47 2.98,6.47 2.98,6.46 2.98,6.47 2.98,6.45 2.97,6.46 2.98,6.45 2.98,6.45 2.98,6.44 2.98,6.44 2.98,6.42 2.98,6.43 2.98,6.41 2.97,6.4 2.98,6.4 2.98,6.38 2.98,6.37 2.98,6.36 2.98,6.35 2.97,6.34 2.98,6.32 2.98,6.31 2.98,6.28 2.98,6.29"
             style="fill:none;stroke:#0000ff;stroke-width:5.00206995;stroke-linecap:butt;stroke-linejoin:round;stroke-miterlimit:10;stroke-opacity:1;stroke-dasharray:none"
             id="path3167" />
          <path
             inkscape:connector-curvature="0"
             d="m 3881.64,3897.46 2.98,6.29 2.98,6.26 2.97,6.24 2.98,6.23 2.98,6.21 2.98,6.19 2.98,6.18 2.98,6.15 2.98,6.13 2.98,6.11 2.97,6.1 2.98,6.06 2.98,6.05 2.98,6.02 2.98,6 2.98,5.97 2.97,5.95 2.98,5.92 2.98,5.89 2.98,5.88 2.98,5.84 2.98,5.82 2.97,5.78 2.99,5.75 2.97,5.73 2.98,5.69 2.98,5.67 2.98,5.63 2.98,5.6 2.98,5.57 2.97,5.54 2.98,5.5 2.98,5.46 2.98,5.43 2.98,5.4 2.98,5.36 2.97,5.32 2.98,5.29 2.98,5.25 2.98,5.21 2.98,5.17 2.98,5.14 2.97,5.09 2.99,5.06 2.97,5 2.98,4.98 2.98,4.93 2.98,4.89 2.98,4.84 2.98,4.81 2.97,4.76"
             style="fill:none;stroke:#0000ff;stroke-width:5.00206995;stroke-linecap:butt;stroke-linejoin:round;stroke-miterlimit:10;stroke-opacity:1;stroke-dasharray:none"
             id="path3169" />
          <path
             inkscape:connector-curvature="0"
             d="m 4030.57,4180.04 2.97,4.76 2.98,4.71 2.98,4.67 2.98,4.62 2.98,4.58 2.98,4.54 2.97,4.49 2.98,4.44 2.98,4.38 2.98,4.36 2.98,4.29 2.98,4.25 2.98,4.19 2.98,4.16 2.97,4.1 2.98,4.05 2.98,4 2.98,3.95 2.98,3.89 2.98,3.85 2.97,3.79 2.98,3.74 2.98,3.69 2.98,3.63 2.98,3.58 2.98,3.53 2.97,3.47 2.98,3.42 2.98,3.35 2.98,3.32 2.98,3.25 2.98,3.19 2.98,3.14 2.98,3.08 2.97,3.03 2.98,2.96 2.98,2.91 2.98,2.85 2.98,2.8 2.98,2.73 2.97,2.68 2.98,2.61 2.98,2.56 2.98,2.5 2.98,2.44 2.98,2.37 2.97,2.32 2.99,2.26 2.97,2.19 2.98,2.14 2.98,2.07"
             style="fill:none;stroke:#0000ff;stroke-width:5.00206995;stroke-linecap:butt;stroke-linejoin:round;stroke-miterlimit:10;stroke-opacity:1;stroke-dasharray:none"
             id="path3171" />
          <path
             inkscape:connector-curvature="0"
             d="m 4179.49,4355.85 2.98,2.07 2.98,2.02 2.98,1.95 2.98,1.89 2.97,1.83 2.98,1.76 2.98,1.7 2.98,1.64 2.98,1.58 2.98,1.51 2.97,1.46 2.98,1.39 2.98,1.33 2.98,1.25 2.98,1.21 2.98,1.13 2.98,1.07 2.98,1.01 2.97,0.94 2.98,0.88 2.98,0.82 2.98,0.75 2.98,0.68 2.98,0.63 2.97,0.55 2.98,0.49 2.98,0.44 2.98,0.36 2.98,0.31 2.98,0.23 2.97,0.17 2.98,0.1 2.98,0.04 2.98,-0.02 2.98,-0.09 2.98,-0.14 2.98,-0.23 2.98,-0.28 2.97,-0.35 2.98,-0.41 2.98,-0.47 2.98,-0.55 2.98,-0.61 2.97,-0.66 2.98,-0.74 2.98,-0.79 2.98,-0.87 2.98,-0.92 2.98,-0.99 2.98,-1.06 2.97,-1.11"
             style="fill:none;stroke:#0000ff;stroke-width:5.00206995;stroke-linecap:butt;stroke-linejoin:round;stroke-miterlimit:10;stroke-opacity:1;stroke-dasharray:none"
             id="path3173" />
          <path
             inkscape:connector-curvature="0"
             d="m 4328.42,4381.86 2.97,-1.11 2.99,-1.18 2.97,-1.25 2.98,-1.31 2.98,-1.37 2.98,-1.43 2.98,-1.5 2.97,-1.57 2.98,-1.62 2.98,-1.68 2.98,-1.76 2.98,-1.8 2.98,-1.88 2.98,-1.93 2.97,-2 2.98,-2.06 2.98,-2.11 2.98,-2.18 2.98,-2.25 2.97,-2.3 2.98,-2.36 2.98,-2.42 2.98,-2.48 2.98,-2.54 2.98,-2.6 2.98,-2.66 2.98,-2.72 2.97,-2.78 2.98,-2.84 2.98,-2.88 2.98,-2.96 2.98,-3.01 2.98,-3.06 2.97,-3.12 2.98,-3.19 2.98,-3.24 2.98,-3.28 2.98,-3.35 2.98,-3.4 2.97,-3.46 2.99,-3.51 2.97,-3.56 2.98,-3.63 2.98,-3.67 2.98,-3.72 2.98,-3.79 2.98,-3.82 2.97,-3.89 2.98,-3.93 2.98,-3.99 2.98,-4.03"
             style="fill:none;stroke:#0000ff;stroke-width:5.00206995;stroke-linecap:butt;stroke-linejoin:round;stroke-miterlimit:10;stroke-opacity:1;stroke-dasharray:none"
             id="path3175" />
          <path
             inkscape:connector-curvature="0"
             d="m 4477.34,4251.71 2.98,-4.03 2.98,-4.09 2.98,-4.13 2.97,-4.19 2.98,-4.24 2.98,-4.28 2.98,-4.33 2.98,-4.38 2.98,-4.43 2.98,-4.48 2.98,-4.52 2.97,-4.56 2.98,-4.62 2.98,-4.65 2.98,-4.71 2.98,-4.75 2.98,-4.78 2.97,-4.84 2.98,-4.87 2.98,-4.93 2.98,-4.95 2.98,-5.01 2.98,-5.04 2.97,-5.08 2.98,-5.13 2.98,-5.16 2.98,-5.2 2.98,-5.24 2.98,-5.28 2.98,-5.31 2.98,-5.35 2.97,-5.39 2.98,-5.42 2.98,-5.45 2.98,-5.5 2.98,-5.52 2.98,-5.56 2.97,-5.59 2.98,-5.63 2.98,-5.66 2.98,-5.68 2.98,-5.71 2.98,-5.76 2.97,-5.78 2.99,-5.8 2.97,-5.84 2.98,-5.85 2.98,-5.89 2.98,-5.92 2.98,-5.94 2.98,-5.97"
             style="fill:none;stroke:#0000ff;stroke-width:5.00206995;stroke-linecap:butt;stroke-linejoin:round;stroke-miterlimit:10;stroke-opacity:1;stroke-dasharray:none"
             id="path3177" />
          <path
             inkscape:connector-curvature="0"
             d="m 4626.27,3997.26 2.98,-5.97 2.97,-5.99 2.98,-6.01 2.98,-6.04 2.98,-6.07 2.98,-6.08 2.98,-6.1 2.97,-6.14 2.98,-6.14 2.98,-6.17 2.98,-6.19 2.98,-6.2 2.98,-6.23 2.97,-6.23 2.99,-6.26 2.97,-6.28 2.98,-6.29 2.98,-6.3 2.98,-6.32 2.98,-6.33 2.98,-6.35 2.97,-6.36 2.98,-6.36 2.98,-6.38 2.98,-6.39 2.98,-6.4 2.98,-6.41 2.97,-6.42 2.98,-6.43 2.98,-6.43 2.98,-6.44 2.98,-6.44 2.98,-6.45 2.98,-6.46 2.98,-6.46 2.97,-6.46 2.98,-6.47 2.98,-6.47 2.98,-6.46 2.98,-6.48 2.98,-6.47 2.97,-6.47 2.98,-6.47 2.98,-6.46 2.98,-6.47 2.98,-6.45 2.98,-6.46 2.97,-6.46 2.98,-6.45 2.98,-6.44 2.98,-6.44"
             style="fill:none;stroke:#0000ff;stroke-width:5.00206995;stroke-linecap:butt;stroke-linejoin:round;stroke-miterlimit:10;stroke-opacity:1;stroke-dasharray:none"
             id="path3179" />
          <path
             inkscape:connector-curvature="0"
             d="m 4775.19,3680.8 2.98,-6.44 2.98,-6.42 2.98,-6.43 2.98,-6.41 2.98,-6.4 2.97,-6.4 2.98,-6.38 2.98,-6.38 2.98,-6.36 2.98,-6.35 2.98,-6.34 2.97,-6.32 2.98,-6.31 2.98,-6.29 2.98,-6.29 2.98,-6.26 2.98,-6.25 2.97,-6.23 2.99,-6.22 2.97,-6.19 2.98,-6.17 2.98,-6.16 2.98,-6.14 2.98,-6.11 2.98,-6.1 2.97,-6.07 2.98,-6.04 2.98,-6.03 2.98,-6 2.98,-5.98 2.98,-5.95 2.97,-5.93 2.98,-5.9 2.98,-5.87 2.98,-5.85 2.98,-5.82 2.98,-5.79 2.98,-5.76 2.98,-5.73 2.97,-5.7 2.98,-5.67 2.98,-5.64 2.98,-5.61 2.98,-5.57 2.98,-5.54 2.97,-5.5 2.98,-5.47 2.98,-5.44 2.98,-5.41 2.98,-5.36 2.98,-5.33"
             style="fill:none;stroke:#0000ff;stroke-width:5.00206995;stroke-linecap:butt;stroke-linejoin:round;stroke-miterlimit:10;stroke-opacity:1;stroke-dasharray:none"
             id="path3181" />
          <path
             inkscape:connector-curvature="0"
             d="m 4924.12,3379.82 2.98,-5.33 2.97,-5.29 2.98,-5.26 2.98,-5.21 2.98,-5.18 2.98,-5.15 2.98,-5.09 2.98,-5.06 2.98,-5.02 2.97,-4.98 2.98,-4.94 2.98,-4.89 2.98,-4.86 2.98,-4.8 2.98,-4.77 2.97,-4.72 2.98,-4.68 2.98,-4.63 2.98,-4.59 2.98,-4.54 2.98,-4.49 2.97,-4.45 2.99,-4.4 2.97,-4.36 2.98,-4.3 2.98,-4.25 2.98,-4.21 2.98,-4.16 2.98,-4.11 2.97,-4.06 2.98,-4 2.98,-3.96 2.98,-3.91 2.98,-3.85 2.98,-3.8 2.97,-3.75 2.98,-3.7 2.98,-3.63 2.98,-3.6 2.98,-3.53 2.98,-3.49 2.97,-3.42 2.98,-3.36 2.98,-3.33 2.98,-3.25 2.98,-3.2 2.98,-3.15 2.98,-3.09 2.98,-3.04 2.97,-2.97 2.98,-2.92"
             style="fill:none;stroke:#0000ff;stroke-width:5.00206995;stroke-linecap:butt;stroke-linejoin:round;stroke-miterlimit:10;stroke-opacity:1;stroke-dasharray:none"
             id="path3183" />
          <path
             inkscape:connector-curvature="0"
             d="m 5073.04,3168.01 2.98,-2.92 2.98,-2.86 2.98,-2.8 2.98,-2.75 2.97,-2.68 2.98,-2.62 2.98,-2.58 2.98,-2.5 2.98,-2.45 2.98,-2.39 2.98,-2.32 2.98,-2.27 2.98,-2.21 2.97,-2.14 2.98,-2.09 2.98,-2.02 2.98,-1.96 2.98,-1.9 2.97,-1.84 2.98,-1.77 2.98,-1.71 2.98,-1.66 2.98,-1.59 2.98,-1.52 2.97,-1.46 2.98,-1.4 2.98,-1.34 2.98,-1.27 2.98,-1.21 2.98,-1.14 2.98,-1.09 2.98,-1.01 2.97,-0.96 2.98,-0.88 2.98,-0.83 2.98,-0.76 2.98,-0.7 2.98,-0.63 2.97,-0.57 2.98,-0.51 2.98,-0.43 2.98,-0.38 2.98,-0.31 2.98,-0.24 2.97,-0.18 2.98,-0.12 2.98,-0.05 2.98,0.01 2.98,0.08 2.98,0.14 2.98,0.21"
             style="fill:none;stroke:#0000ff;stroke-width:5.00206995;stroke-linecap:butt;stroke-linejoin:round;stroke-miterlimit:10;stroke-opacity:1;stroke-dasharray:none"
             id="path3185" />
          <path
             inkscape:connector-curvature="0"
             d="m 5221.97,3097.22 2.98,0.21 2.98,0.27 2.97,0.34 2.98,0.4 2.98,0.47 2.98,0.53 2.98,0.59 2.98,0.66 2.97,0.72 2.98,0.79 2.98,0.85 2.98,0.92 2.98,0.98 2.98,1.04 2.97,1.11 2.99,1.17 2.97,1.24 2.98,1.29 2.98,1.37 2.98,1.42 2.98,1.49 2.98,1.55 2.97,1.62 2.98,1.67 2.98,1.74 2.98,1.8 2.98,1.87 2.98,1.92 2.97,1.99 2.98,2.05 2.98,2.1 2.98,2.18 2.98,2.22 2.98,2.29 2.97,2.36 2.99,2.41 2.97,2.47 2.98,2.53 2.98,2.6 2.98,2.65 2.98,2.7 2.98,2.77 2.97,2.83 2.98,2.88 2.98,2.94 2.98,3.01 2.98,3.05 2.98,3.11 2.97,3.18 2.98,3.22 2.98,3.28"
             style="fill:none;stroke:#0000ff;stroke-width:5.00206995;stroke-linecap:butt;stroke-linejoin:round;stroke-miterlimit:10;stroke-opacity:1;stroke-dasharray:none"
             id="path3187" />
          <path
             inkscape:connector-curvature="0"
             d="m 5370.89,3184.79 2.98,3.28 2.98,3.34 2.98,3.4 2.98,3.45 2.98,3.5 2.98,3.55 2.97,3.61 2.98,3.67 2.98,3.71 2.98,3.78 2.98,3.82 2.98,3.88 2.97,3.92 2.98,3.98 2.98,4.03 2.98,4.08 2.98,4.12 2.98,4.18 2.97,4.23 2.98,4.27 2.98,4.33 2.98,4.38 2.98,4.41 2.98,4.47 2.98,4.52 2.98,4.56 2.97,4.6 2.98,4.65 2.98,4.7 2.98,4.74 2.98,4.78 2.98,4.83 2.97,4.87 2.98,4.91 2.98,4.95 2.98,5 2.98,5.03 2.98,5.08 2.97,5.12 2.99,5.15 2.97,5.2 2.98,5.23 2.98,5.28 2.98,5.3 2.98,5.34 2.98,5.39 2.97,5.41 2.98,5.45 2.98,5.49 2.98,5.52 2.98,5.55"
             style="fill:none;stroke:#0000ff;stroke-width:5.00206995;stroke-linecap:butt;stroke-linejoin:round;stroke-miterlimit:10;stroke-opacity:1;stroke-dasharray:none"
             id="path3189" />
          <path
             inkscape:connector-curvature="0"
             d="m 5519.82,3409.28 2.98,5.55 2.98,5.59 2.97,5.62 2.98,5.65 2.98,5.68 2.98,5.72 2.98,5.74 2.98,5.77 2.98,5.81 2.98,5.82 2.97,5.86 2.98,5.88 2.98,5.91 2.98,5.95 2.98,5.96 2.98,5.98 2.97,6.02 2.98,6.03 2.98,6.06 2.98,6.08 2.98,6.1 2.98,6.13 2.97,6.14 2.98,6.17 2.98,6.18 2.98,6.2 2.98,6.22 2.98,6.24 2.98,6.25 2.98,6.28 2.97,6.28 2.98,6.31 2.98,6.31 2.98,6.33 2.98,6.34 2.98,6.36 2.97,6.36 2.98,6.39 2.98,6.39 2.98,6.39 2.98,6.41 2.98,6.42 2.97,6.42 2.99,6.43 2.97,6.44 2.98,6.44 2.98,6.45 2.98,6.46 2.98,6.46 2.98,6.46 2.97,6.47"
             style="fill:none;stroke:#0000ff;stroke-width:5.00206995;stroke-linecap:butt;stroke-linejoin:round;stroke-miterlimit:10;stroke-opacity:1;stroke-dasharray:none"
             id="path3191" />
          <path
             inkscape:connector-curvature="0"
             d="m 5668.75,3715.72 2.97,6.47 2.98,6.47 2.98,6.47 2.98,6.47 2.98,6.47 2.98,6.47 2.97,6.47 2.98,6.46 2.98,6.47 2.98,6.46 2.98,6.46 2.98,6.45 2.97,6.45 2.99,6.44 2.97,6.44 2.98,6.43 2.98,6.43 2.98,6.41 2.98,6.4 2.98,6.4 2.97,6.39 2.98,6.37 2.98,6.37 2.98,6.35 2.98,6.33 2.98,6.33 2.97,6.32 2.98,6.29 2.98,6.29 2.98,6.27 2.98,6.25 2.97,6.23 2.99,6.21 2.98,6.2 2.97,6.19 2.98,6.15 2.98,6.14 2.98,6.12 2.98,6.1 2.98,6.07 2.97,6.05 2.98,6.04 2.98,6 2.98,5.98 2.98,5.95 2.97,5.94 2.98,5.9 2.98,5.88 2.98,5.85 2.98,5.82 2.98,5.8"
             style="fill:none;stroke:#0000ff;stroke-width:5.00206995;stroke-linecap:butt;stroke-linejoin:round;stroke-miterlimit:10;stroke-opacity:1;stroke-dasharray:none"
             id="path3193" />
          <path
             inkscape:connector-curvature="0"
             d="m 5817.67,4029.09 2.98,5.8 2.98,5.76 2.98,5.74 2.97,5.7 2.98,5.68 2.98,5.64 2.98,5.61 2.98,5.58 2.98,5.55 2.97,5.51 2.98,5.48 2.98,5.44 2.98,5.4 2.98,5.38 2.98,5.33 2.97,5.3 2.98,5.26 2.98,5.23 2.98,5.18 2.98,5.15 2.98,5.1 2.98,5.07 2.98,5.02 2.97,4.99 2.98,4.94 2.98,4.91 2.98,4.85 2.98,4.82 2.98,4.77 2.97,4.73 2.98,4.69 2.98,4.63 2.98,4.6 2.98,4.55 2.98,4.5 2.97,4.46 2.99,4.4 2.97,4.37 2.98,4.31 2.98,4.26 2.98,4.21 2.98,4.17 2.98,4.12 2.97,4.07 2.98,4.01 2.98,3.97 2.98,3.91 2.98,3.86 2.98,3.81 2.97,3.76 2.98,3.7"
             style="fill:none;stroke:#0000ff;stroke-width:5.00206995;stroke-linecap:butt;stroke-linejoin:round;stroke-miterlimit:10;stroke-opacity:1;stroke-dasharray:none"
             id="path3195" />
          <path
             inkscape:connector-curvature="0"
             d="m 5966.59,4272.67 2.98,3.7 2.98,3.65 2.98,3.6 2.98,3.54 2.98,3.49 2.97,3.44 2.99,3.37 2.97,3.33 2.98,3.27 2.98,3.21 2.98,3.16 2.98,3.09 2.98,3.04 2.97,2.99 2.98,2.93 2.98,2.87 2.98,2.81 2.98,2.76 2.98,2.69 2.97,2.64 2.98,2.57 2.98,2.52 2.98,2.45 2.98,2.4 2.98,2.34 2.98,2.27 2.98,2.22 2.97,2.16 2.98,2.09 2.98,2.03 2.98,1.97 2.98,1.91 2.98,1.85 2.97,1.78 2.98,1.73 2.98,1.66 2.98,1.6 2.98,1.53 2.98,1.48 2.97,1.4 2.98,1.35 2.98,1.28 2.98,1.22 2.98,1.16 2.98,1.09 2.98,1.02 2.98,0.97 2.97,0.9 2.98,0.83 2.98,0.77 2.98,0.72"
             style="fill:none;stroke:#0000ff;stroke-width:5.00206995;stroke-linecap:butt;stroke-linejoin:round;stroke-miterlimit:10;stroke-opacity:1;stroke-dasharray:none"
             id="path3197" />
          <path
             inkscape:connector-curvature="0"
             d="m 6115.52,4386.8 2.98,0.72 2.98,0.63 2.98,0.59 2.97,0.51 2.98,0.45 2.98,0.39 2.98,0.31 2.98,0.26 2.98,0.19 2.97,0.13 2.99,0.06 2.97,0 2.98,-0.08 2.98,-0.12 2.98,-0.2 2.98,-0.26 2.98,-0.33 2.97,-0.39 2.98,-0.45 2.98,-0.53 2.98,-0.58 2.98,-0.65 2.98,-0.72 2.97,-0.77 2.98,-0.85 2.98,-0.9 2.98,-0.97 2.98,-1.04 2.98,-1.09 2.98,-1.16 2.98,-1.22 2.97,-1.29 2.98,-1.36 2.98,-1.41 2.98,-1.48 2.98,-1.54 2.98,-1.6 2.97,-1.67 2.98,-1.73 2.98,-1.79 2.98,-1.85 2.98,-1.92 2.98,-1.97 2.97,-2.04 2.98,-2.1 2.98,-2.16 2.98,-2.23 2.98,-2.28 2.98,-2.34 2.98,-2.4 2.98,-2.46"
             style="fill:none;stroke:#0000ff;stroke-width:5.00206995;stroke-linecap:butt;stroke-linejoin:round;stroke-miterlimit:10;stroke-opacity:1;stroke-dasharray:none"
             id="path3199" />
          <path
             inkscape:connector-curvature="0"
             d="m 6264.45,4343.57 2.98,-2.46 2.97,-2.53 2.98,-2.58 2.98,-2.64 2.98,-2.7 2.98,-2.76 2.98,-2.82 2.97,-2.87 2.98,-2.93 2.98,-3 2.98,-3.05 2.98,-3.09 2.98,-3.16 2.97,-3.23 2.99,-3.27 2.97,-3.33 2.98,-3.38 2.98,-3.45 2.98,-3.49 2.98,-3.54 2.98,-3.61 2.97,-3.66 2.98,-3.7 2.98,-3.76 2.98,-3.82 2.98,-3.86 2.98,-3.93 2.97,-3.96 2.98,-4.02 2.98,-4.07 2.98,-4.13 2.98,-4.16 2.98,-4.23 2.97,-4.26 2.99,-4.32 2.97,-4.37 2.98,-4.41 2.98,-4.45 2.98,-4.52 2.98,-4.55 2.98,-4.59 2.97,-4.65 2.98,-4.69 2.98,-4.73 2.98,-4.77 2.98,-4.82 2.98,-4.87 2.97,-4.9 2.98,-4.95 2.98,-4.99 2.98,-5.03"
             style="fill:none;stroke:#0000ff;stroke-width:5.00206995;stroke-linecap:butt;stroke-linejoin:round;stroke-miterlimit:10;stroke-opacity:1;stroke-dasharray:none"
             id="path3201" />
          <path
             inkscape:connector-curvature="0"
             d="m 6413.37,4153.54 2.98,-5.03 2.98,-5.07"
             style="fill:none;stroke:#0000ff;stroke-width:5.00206995;stroke-linecap:butt;stroke-linejoin:round;stroke-miterlimit:10;stroke-opacity:1;stroke-dasharray:none"
             id="path3203" />
          <path
             inkscape:connector-curvature="0"
             d="m 462.313,742.77 2.98,143.832 2.977,138.198 2.98,132.76 2.977,127.56 2.98,122.54 2.977,117.73 2.98,113.1 2.977,108.64 2.98,104.37 2.977,100.25 2.98,96.3 2.977,92.49 2.98,88.84 2.977,85.32 2.98,81.94 2.977,78.68 2.98,75.57 2.977,72.56 2.98,69.66 2.977,66.89 2.98,64.22 2.977,61.64 2.98,59.16 2.977,56.79 2.98,54.51 2.977,52.3 2.98,50.19 2.977,48.15 2.98,46.19 2.977,44.31 2.98,42.49 2.977,40.75 2.98,39.07 2.977,37.45 2.981,35.9 2.976,34.4 2.981,32.96 2.976,31.59 2.981,30.23 2.976,28.97 2.981,27.72 2.976,26.53 2.981,25.39 2.976,24.29 2.981,23.21 2.976,22.2 2.981,21.22 2.976,20.26 2.981,19.35 2.976,18.47 2.981,17.62 2.976,16.81 2.981,16.01 2.976,15.26 2.977,14.52 2.98,13.82 2.977,13.14 2.98,12.48 2.977,11.86 2.98,11.25 2.977,10.65 2.98,10.09 2.977,9.55 2.981,9.01 2.976,8.51 2.981,8.02 2.976,7.54 2.981,7.09 2.976,6.65 2.981,6.21 2.976,5.8 2.981,5.41 2.976,5.03 2.981,4.66 2.976,4.3 2.981,3.95 2.976,3.62 2.981,3.3 2.976,2.98 2.981,2.68 2.976,2.39 2.981,2.1 2.976,1.83 2.981,1.58 2.976,1.32 2.981,1.06 2.976,0.83 2.981,0.6 2.976,0.37 2.981,0.16 2.976,-0.06 2.981,-0.26 2.977,-0.45 2.98,-0.65 2.977,-0.83 2.98,-1.01 2.977,-1.18 2.98,-1.36 2.977,-1.52 2.98,-1.67 2.977,-1.83 2.98,-1.97 2.977,-2.13 2.98,-2.26 2.977,-2.4 2.98,-2.53 2.977,-2.66 2.98,-2.78 2.977,-2.9 2.98,-3.03 2.977,-3.13 2.98,-3.25 2.977,-3.35 2.98,-3.46 2.977,-3.57 2.98,-3.65 2.977,-3.76 2.98,-3.84 2.977,-3.94 2.98,-4.02 2.977,-4.11 2.98,-4.2 2.977,-4.28 2.98,-4.35 2.977,-4.43 2.98,-4.5 2.977,-4.58 2.981,-4.64 2.976,-4.71 2.981,-4.78 2.976,-4.85 2.981,-4.9 2.976,-4.97 2.981,-5.03 2.976,-5.08 2.981,-5.14 2.976,-5.19 2.981,-5.25 2.976,-5.29 2.981,-5.35 2.976,-5.39 2.981,-5.44 2.976,-5.49 2.981,-5.52 2.976,-5.57 2.981,-5.61 2.976,-5.66 2.981,-5.69 2.976,-5.72 2.981,-5.76 2.976,-5.8 2.981,-5.83 2.976,-5.87 2.981,-5.89 2.976,-5.93 2.981,-5.95 2.977,-5.98 2.98,-6.01 2.977,-6.04 2.98,-6.06 2.977,-6.08 2.98,-6.11 2.977,-6.12 2.98,-6.16 2.977,-6.17 2.98,-6.18 2.977,-6.21 2.98,-6.22 2.977,-6.24 2.98,-6.26 2.977,-6.27 2.98,-6.28 2.977,-6.29 2.98,-6.3 2.977,-6.33 2.98,-6.32 2.977,-6.33 2.98,-6.35 2.977,-6.35 2.98,-6.36 2.975,-6.36 2.98,-6.37 2.98,-6.37 2.98,-6.38 2.98,-6.38 2.98,-6.37 2.97,-6.38 2.98,-6.39 2.98,-6.37 2.98,-6.38 2.98,-6.38 2.98,-6.37 2.97,-6.37 2.98,-6.37 2.98,-6.36 2.98,-6.35 2.98,-6.35 2.98,-6.33 2.98,-6.34 2.98,-6.32 2.97,-6.32 2.98,-6.29 2.98,-6.3 2.98,-6.28 2.98,-6.26 2.98,-6.26 2.97,-6.24 2.98,-6.22 2.98,-6.22 2.98,-6.19 2.98,-6.18 2.98,-6.16 2.97,-6.15 2.98,-6.12 2.98,-6.11 2.98,-6.08 2.98,-6.06 2.98,-6.06 2.98,-6.02 2.98,-5.99 2.97,-5.99 2.98,-5.94 2.98,-5.94 2.98,-5.9 2.98,-5.88 2.98,-5.85 2.97,-5.82 2.98,-5.8 2.98,-5.78 2.98,-5.73 2.98,-5.72 2.98,-5.67 2.97,-5.66 2.99,-5.62 2.97,-5.59 2.98,-5.55 2.98,-5.53 2.98,-5.5 2.98,-5.45 2.98,-5.42 2.97,-5.39 2.98,-5.35 2.98,-5.32 2.98,-5.27 2.98,-5.25 2.98,-5.21 2.97,-5.16 2.98,-5.13 2.98,-5.08 2.98,-5.05 2.98,-5.01 2.98,-4.96 2.98,-4.93 2.98,-4.88 2.97,-4.84 2.98,-4.8 2.98,-4.75 2.98,-4.72 2.98,-4.66 2.98,-4.62 2.97,-4.58 2.98,-4.53 2.98,-4.49 2.98,-4.43 2.98,-4.39 2.98,-4.34 2.97,-4.3 2.98,-4.24 2.98,-4.2 2.98,-4.16 2.98,-4.09 2.98,-4.05 2.98,-4 2.98,-3.95 2.97,-3.89 2.98,-3.84 2.98,-3.79 2.98,-3.75 2.98,-3.68 2.98,-3.63 2.97,-3.59 2.98,-3.52 2.98,-3.47 2.98,-3.42 2.98,-3.36 2.98,-3.3 2.97,-3.25 2.99,-3.2 2.97,-3.14 2.98,-3.08 2.98,-3.02 2.98,-2.97 2.98,-2.9 2.98,-2.86 2.97,-2.79 2.98,-2.74 2.98,-2.67 2.98,-2.62 2.98,-2.56 2.97,-2.5 2.98,-2.43 2.98,-2.38 2.98,-2.32 2.98,-2.26 2.98,-2.2 2.97,-2.14 2.98,-2.06 2.98,-2.02 2.98,-1.95 2.98,-1.89 2.98,-1.83 2.98,-1.76 2.98,-1.71 2.97,-1.64 2.98,-1.58 2.98,-1.52 2.98,-1.45 2.98,-1.39 2.98,-1.32 2.97,-1.27 2.98,-1.2 2.98,-1.14 2.98,-1.07 2.98,-1.01 2.98,-0.94 2.97,-0.89 2.99,-0.8 2.97,-0.77 2.98,-0.68 2.98,-0.62 2.98,-0.56 2.98,-0.5 2.98,-0.42 2.97,-0.38 2.98,-0.29 2.98,-0.24 2.98,-0.17 2.98,-0.1 2.98,-0.05 2.97,0.02 2.98,0.08 2.98,0.16 2.98,0.21 2.98,0.29 2.98,0.34 2.98,0.41 2.98,0.48 2.97,0.54 2.98,0.6 2.98,0.67 2.98,0.73 2.98,0.8 2.98,0.86 2.97,0.93 2.98,0.98 2.98,1.05 2.98,1.13 2.98,1.17 2.98,1.24 2.97,1.32 2.98,1.37 2.98,1.43 2.98,1.49 2.98,1.56 2.98,1.63 2.98,1.68 2.98,1.75 2.97,1.81 2.98,1.87 2.98,1.93 2.98,2 2.98,2.05 2.98,2.13 2.97,2.17 2.98,2.24 2.98,2.3 2.98,2.36 2.98,2.42 2.98,2.48 2.97,2.54 2.99,2.61 2.97,2.65 2.98,2.72 2.98,2.77 2.98,2.84 2.98,2.89 2.98,2.95 2.97,3.01 2.98,3.06 2.98,3.12 2.98,3.18 2.98,3.24 2.98,3.29 2.97,3.34 2.98,3.4 2.98,3.45 2.98,3.52 2.98,3.57 2.98,3.61 2.97,3.68 2.99,3.72 2.97,3.78 2.98,3.83 2.98,3.88 2.98,3.93 2.98,3.98 2.98,4.04 2.97,4.08 2.98,4.14 2.98,4.19 2.98,4.23 2.98,4.29 2.98,4.33 2.97,4.37 2.98,4.44 2.98,4.47 2.98,4.51 2.98,4.57 2.98,4.61 2.98,4.66 2.98,4.7 2.97,4.75 2.98,4.78 2.98,4.84 2.98,4.88 2.98,4.91 2.98,4.96 2.97,5 2.98,5.05 2.98,5.08 2.98,5.12 2.98,5.16 2.98,5.2 2.97,5.24 2.98,5.27 2.98,5.31 2.98,5.36 2.98,5.39 2.98,5.41 2.98,5.46 2.98,5.5 2.97,5.52 2.98,5.56 2.98,5.59 2.98,5.62 2.98,5.66 2.98,5.68 2.97,5.72 2.98,5.75 2.98,5.77 2.98,5.81 2.98,5.83 2.98,5.86 2.97,5.89 2.99,5.91 2.97,5.94 2.98,5.97 2.98,6 2.98,6 2.98,6.05 2.98,6.06 2.97,6.08 2.98,6.11 2.98,6.13 2.98,6.14 2.98,6.16 2.98,6.2 2.97,6.19 2.98,6.23 2.98,6.24 2.98,6.26 2.98,6.27 2.98,6.29 2.98,6.31 2.98,6.31 2.97,6.34 2.98,6.34 2.98,6.36 2.98,6.36 2.98,6.39 2.98,6.39 2.97,6.4 2.98,6.41 2.98,6.41 2.98,6.43 2.98,6.43 2.98,6.44 2.97,6.45 2.98,6.45 2.98,6.46 2.98,6.45 2.98,6.47 2.98,6.46 2.98,6.47 2.98,6.47 2.97,6.47 2.98,6.47 2.98,6.47 2.98,6.46 2.98,6.48 2.98,6.46 2.97,6.46 2.98,6.46 2.98,6.45 2.98,6.45 2.98,6.44 2.98,6.44 2.97,6.43 2.99,6.42 2.97,6.41 2.98,6.41 2.98,6.39 2.98,6.39 2.98,6.37 2.98,6.36 2.97,6.35 2.98,6.34 2.98,6.32 2.98,6.32 2.98,6.3 2.98,6.27 2.97,6.27 2.98,6.25 2.98,6.22 2.98,6.22 2.98,6.2 2.98,6.18 2.97,6.15 2.99,6.14 2.97,6.12 2.98,6.09 2.98,6.07 2.98,6.05 2.98,6.02 2.98,6 2.97,5.98 2.98,5.95 2.98,5.93 2.98,5.9 2.98,5.88 2.98,5.85 2.97,5.81 2.98,5.79 2.98,5.76 2.98,5.74 2.98,5.7 2.98,5.67 2.98,5.63 2.97,5.61 2.98,5.57 2.98,5.55 2.98,5.5 2.98,5.48 2.98,5.44 2.97,5.39 2.98,5.38 2.98,5.33 2.98,5.28 2.98,5.27 2.98,5.21 2.97,5.19 2.98,5.13 2.98,5.1 2.98,5.07 2.98,5.01 2.98,4.98 2.98,4.94 2.98,4.9 2.97,4.85 2.98,4.81 2.98,4.77 2.98,4.72 2.98,4.68 2.98,4.63 2.97,4.59 2.98,4.54 2.98,4.49 2.98,4.45 2.98,4.41 2.98,4.35 2.97,4.31 2.98,4.25 2.98,4.21 2.98,4.16 2.98,4.11 2.98,4.06 2.98,4.01 2.98,3.95 2.97,3.91 2.98,3.86 2.98,3.8 2.98,3.75 2.98,3.7 2.98,3.64 2.97,3.59 2.98,3.54 2.98,3.48 2.98,3.42 2.98,3.38 2.98,3.32 2.97,3.25 2.99,3.21 2.97,3.15 2.98,3.09 2.98,3.03 2.98,2.98 2.98,2.92 2.98,2.86 2.97,2.81 2.98,2.74 2.98,2.69 2.98,2.62 2.98,2.57 2.98,2.51 2.97,2.45 2.98,2.39 2.98,2.33 2.98,2.27 2.98,2.2 2.98,2.15 2.97,2.09 2.99,2.02 2.97,1.96 2.98,1.9 2.98,1.84 2.98,1.78 2.98,1.71 2.98,1.66 2.97,1.58 2.98,1.53 2.98,1.46 2.98,1.41 2.98,1.33 2.98,1.27 2.97,1.22 2.98,1.14 2.98,1.08 2.98,1.02 2.98,0.96 2.98,0.89 2.98,0.82 2.98,0.77 2.97,0.7 2.98,0.64 2.98,0.56 2.98,0.51 2.98,0.44 2.98,0.37 2.97,0.31 2.98,0.25 2.98,0.19 2.98,0.12 2.98,0.04 2.98,0 2.97,-0.08 2.98,-0.15 2.98,-0.2 2.98,-0.27 2.98,-0.34 2.98,-0.4 2.98,-0.46 2.98,-0.53 2.97,-0.59 2.98,-0.66 2.98,-0.72 2.98,-0.79 2.98,-0.85 2.98,-0.92 2.97,-0.97 2.98,-1.04 2.98,-1.11 2.98,-1.17 2.98,-1.24 2.98,-1.3 2.97,-1.35 2.99,-1.43 2.97,-1.48 2.98,-1.56 2.98,-1.6 2.98,-1.68 2.98,-1.74 2.98,-1.8 2.97,-1.86 2.98,-1.92 2.98,-1.98 2.98,-2.05 2.98,-2.12 2.98,-2.16 2.97,-2.23 2.98,-2.29 2.98,-2.35 2.98,-2.41 2.98,-2.47 2.98,-2.53 2.98,-2.59 2.98,-2.66 2.97,-2.7 2.98,-2.77 2.98,-2.82 2.98,-2.88 2.98,-2.94 2.98,-3 2.97,-3.06 2.98,-3.12 2.98,-3.16 2.98,-3.22 2.98,-3.28 2.98,-3.35 2.97,-3.39 2.98,-3.44 2.98,-3.5 2.98,-3.56 2.98,-3.61 2.98,-3.67 2.98,-3.71 2.98,-3.77 2.97,-3.83 2.98,-3.87 2.98,-3.92 2.98,-3.97 2.98,-4.04 2.98,-4.07 2.97,-4.13 2.98,-4.18 2.98,-4.22 2.98,-4.27 2.98,-4.33 2.98,-4.38 2.97,-4.42 2.99,-4.46 2.97,-4.51 2.98,-4.56 2.98,-4.6 2.98,-4.65 2.98,-4.7 2.98,-4.74 2.97,-4.78 2.98,-4.82 2.98,-4.88 2.98,-4.91 2.98,-4.95 2.98,-4.99 2.97,-5.04 2.98,-5.07 2.98,-5.12 2.98,-5.16 2.98,-5.19 2.98,-5.23 2.97,-5.27 2.99,-5.31 2.97,-5.34 2.98,-5.38 2.98,-5.41 2.98,-5.46 2.98,-5.48 2.98,-5.52 2.97,-5.56 2.98,-5.58 2.98,-5.62 2.98,-5.65 2.98,-5.68 2.98,-5.72 2.97,-5.73 2.98,-5.78 2.98,-5.8 2.98,-5.83 2.98,-5.86 2.98,-5.87 2.98,-5.92 2.98,-5.94 2.97,-5.96 2.98,-5.99 2.98,-6 2.98,-6.05 2.98,-6.05 2.98,-6.08 2.97,-6.1 2.98,-6.12 2.98,-6.15 2.98,-6.16 2.98,-6.18 2.98,-6.21 2.97,-6.22 2.98,-6.23 2.98,-6.26 2.98,-6.27 2.98,-6.29 2.98,-6.3 2.98,-6.31 2.98,-6.33 2.97,-6.35 2.98,-6.35 2.98,-6.37 2.98,-6.38 2.98,-6.38 2.98,-6.4 2.97,-6.41 2.98,-6.42 2.98,-6.42 2.98,-6.44 2.98,-6.43 2.98,-6.45 2.97,-6.45 2.98,-6.46 2.98,-6.46 2.98,-6.45 2.98,-6.48 2.98,-6.46 2.98,-6.47 2.97,-6.46 2.98,-6.48 2.98,-6.47 2.98,-6.46 2.98,-6.47 2.98,-6.46 2.97,-6.47 2.98,-6.46 2.98,-6.45 2.98,-6.45 2.98,-6.45 2.98,-6.43 2.97,-6.43 2.99,-6.42 2.97,-6.42 2.98,-6.41 2.98,-6.4 2.98,-6.37 2.98,-6.39 2.98,-6.36 2.97,-6.36 2.98,-6.33 2.98,-6.33 2.98,-6.31 2.98,-6.3 2.98,-6.28 2.97,-6.27 2.98,-6.25 2.98,-6.23 2.98,-6.22 2.98,-6.2 2.98,-6.18 2.97,-6.15 2.99,-6.14 2.97,-6.13 2.98,-6.09 2.98,-6.08 2.98,-6.06 2.98,-6.02 2.98,-6.01 2.97,-5.98 2.98,-5.96 2.98,-5.93 2.98,-5.9 2.98,-5.88 2.98,-5.85 2.97,-5.83 2.98,-5.79 2.98,-5.77 2.98,-5.73 2.98,-5.71 2.98,-5.68 2.98,-5.64 2.98,-5.61 2.97,-5.58 2.98,-5.55 2.98,-5.51 2.98,-5.48 2.98,-5.44 2.98,-5.41 2.97,-5.37 2.98,-5.34 2.98,-5.3 2.98,-5.26 2.98,-5.23 2.98,-5.18 2.97,-5.15 2.98,-5.11 2.98,-5.06 2.98,-5.03 2.98,-4.99 2.98,-4.94 2.98,-4.9 2.98,-4.86 2.97,-4.82 2.98,-4.77 2.98,-4.73 2.98,-4.69 2.98,-4.64 2.98,-4.59 2.97,-4.55 2.98,-4.5 2.98,-4.46 2.98,-4.41 2.98,-4.36 2.98,-4.31 2.97,-4.27 2.99,-4.21 2.97,-4.17 2.98,-4.12 2.98,-4.07 2.98,-4.01 2.98,-3.97 2.98,-3.92 2.97,-3.85 2.98,-3.82 2.98,-3.76 2.98,-3.7 2.98,-3.65 2.98,-3.6 2.97,-3.54 2.98,-3.5 2.98,-3.43 2.98,-3.38 2.98,-3.33 2.98,-3.27 2.98,-3.21 2.98,-3.16 2.97,-3.1 2.98,-3.04 2.98,-2.99 2.98,-2.92 2.98,-2.88 2.98,-2.81 2.97,-2.76 2.98,-2.69 2.98,-2.64 2.98,-2.57 2.98,-2.52 2.98,-2.46 2.97,-2.4 2.98,-2.34 2.98,-2.27 2.98,-2.22 2.98,-2.16 2.98,-2.1 2.98,-2.03 2.98,-1.98 2.97,-1.91 2.98,-1.84 2.98,-1.78 2.98,-1.73 2.98,-1.66 2.98,-1.6 2.97,-1.54 2.98,-1.47 2.98,-1.41 2.98,-1.35 2.98,-1.28 2.98,-1.23 2.97,-1.15 2.99,-1.09 2.97,-1.03 2.98,-0.97 2.98,-0.9 2.98,-0.84 2.98,-0.77 2.98,-0.71 2.97,-0.64 2.98,-0.58 2.98,-0.52 2.98,-0.45 2.98,-0.39 2.98,-0.32 2.97,-0.26 2.98,-0.18 2.98,-0.13 2.98,-0.07 2.98,0 2.98,0.07 2.97,0.13 2.99,0.2 2.97,0.26 2.98,0.32 2.98,0.39 2.98,0.45 2.98,0.53 2.98,0.57 2.97,0.65 2.98,0.72 2.98,0.77 2.98,0.84 2.98,0.9 2.98,0.97 2.97,1.03 2.98,1.1 2.98,1.16 2.98,1.23 2.98,1.28 2.98,1.36 2.98,1.41 2.98,1.48 2.97,1.53 2.98,1.6 2.98,1.67 2.98,1.73 2.98,1.79 2.98,1.84 2.97,1.92 2.98,1.98 2.98,2.03 2.98,2.1 2.98,2.16 2.98,2.22 2.97,2.28 2.98,2.35 2.98,2.4 2.98,2.46 2.98,2.52 2.98,2.58 2.98,2.64 2.98,2.7 2.97,2.75 2.98,2.82 2.98,2.88 2.98,2.92 2.98,3 2.98,3.04 2.97,3.1 2.98,3.16 2.98,3.22 2.98,3.27 2.98,3.33 2.98,3.39 2.97,3.44 2.99,3.49 2.97,3.54 2.98,3.61 2.98,3.65 2.98,3.71 2.98,3.75 2.98,3.82 2.97,3.86 2.98,3.92 2.98,3.97 2.98,4.02 2.98,4.07 2.97,4.12 2.98,4.17 2.98,4.21 2.98,4.27 2.98,4.32 2.98,4.37 2.97,4.41 2.99,4.46 2.97,4.5 2.98,4.55 2.98,4.6 2.98,4.64 2.98,4.69 2.98,4.73 2.97,4.78 2.98,4.81 2.98,4.87 2.98,4.9 2.98,4.94 2.98,5 2.97,5.02 2.98,5.07 2.98,5.11 2.98,5.15 2.98,5.19 2.98,5.22 2.97,5.27 2.99,5.3 2.97,5.34 2.98,5.37 2.98,5.42 2.98,5.44 2.98,5.48 2.98,5.52 2.97,5.54 2.98,5.58 2.98,5.62 2.98,5.64 2.98,5.68 2.98,5.7 2.97,5.74 2.98,5.77 2.98,5.79 2.98,5.83 2.98,5.85 2.98,5.88 2.98,5.91 2.98,5.93 2.97,5.96 2.98,5.99 2.98,6 2.98,6.03 2.98,6.06 2.98,6.07 2.97,6.1 2.98,6.12 2.98,6.14 2.98,6.16 2.98,6.18 2.98,6.2 2.97,6.22 2.98,6.23 2.98,6.25 2.98,6.27 2.98,6.29 2.98,6.3 2.98,6.31 2.98,6.33 2.97,6.34 2.98,6.35 2.98,6.36 2.98,6.38 2.98,6.39 2.98,6.39 2.97,6.42 2.98,6.41 2.98,6.42 2.98,6.43 2.98,6.44 2.98,6.44 2.97,6.45 2.99,6.45 2.97,6.46 2.98,6.46 2.98,6.47 2.98,6.46 2.98,6.48 2.98,6.47 2.97,6.46 2.98,6.48 2.98,6.47 2.98,6.46 2.98,6.47 2.98,6.46 2.97,6.46 2.98,6.46 2.98,6.45 2.98,6.44 2.98,6.44 2.98,6.43 2.98,6.43 2.98,6.41 2.97,6.41 2.98,6.39 2.98,6.4 2.98,6.37 2.98,6.36 2.98,6.36 2.97,6.34 2.98,6.33 2.98,6.32 2.98,6.3 2.98,6.29 2.98,6.27 2.97,6.25 2.98,6.24 2.98,6.21 2.98,6.21 2.98,6.17 2.98,6.17 2.98,6.14 2.98,6.13 2.97,6.1 2.98,6.08 2.98,6.05 2.98,6.03 2.98,6.01 2.98,5.99 2.97,5.97 2.98,5.93 2.98,5.9 2.98,5.89 2.98,5.85 2.98,5.83 2.97,5.8 2.99,5.77 2.97,5.74 2.98,5.72 2.98,5.67 2.98,5.65 2.98,5.62 2.98,5.58 2.97,5.55 2.98,5.52 2.98,5.48 2.98,5.45 2.98,5.42 2.98,5.38 2.97,5.34 2.98,5.31 2.98,5.26 2.98,5.24 2.98,5.19 2.98,5.15 2.97,5.11 2.99,5.08 2.97,5.03 2.98,5 2.98,4.94 2.98,4.92 2.98,4.86 2.98,4.82 2.97,4.79 2.98,4.73 2.98,4.69 2.98,4.65 2.98,4.61 2.98,4.55 2.97,4.51 2.98,4.46 2.98,4.42 2.98,4.37 2.98,4.32 2.98,4.27 2.98,4.22 2.98,4.18 2.97,4.13 2.98,4.07 2.98,4.03 2.98,3.97 2.98,3.92 2.98,3.88 2.97,3.82 2.98,3.76 2.98,3.72 2.98,3.66 2.98,3.6 2.98,3.56 2.97,3.49 2.98,3.45 2.98,3.39 2.98,3.33 2.98,3.28 2.98,3.23 2.98,3.16 2.98,3.11 2.97,3.05 2.98,3 2.98,2.94 2.98,2.88 2.98,2.82 2.98,2.77 2.97,2.7 2.98,2.65 2.98,2.58 2.98,2.53 2.98,2.47 2.98,2.41 2.97,2.34 2.99,2.29 2.97,2.23 2.98,2.16 2.98,2.11 2.98,2.05 2.98,1.97 2.98,1.92 2.97,1.86 2.98,1.8 2.98,1.73 2.98,1.67 2.98,1.61 2.98,1.55 2.97,1.48 2.98,1.42 2.98,1.36 2.98,1.3 2.98,1.23 2.98,1.17 2.98,1.09 2.98,1.05 2.97,0.97 2.98,0.92 2.98,0.84 2.98,0.79 2.98,0.71 2.98,0.66 2.97,0.59 2.98,0.52 2.98,0.47 2.98,0.39 2.98,0.33 2.98,0.28 2.97,0.19 2.98,0.14 2.98,0.08 2.98,0 2.98,-0.05 2.98,-0.12 2.98,-0.19 2.98,-0.25 2.97,-0.31 2.98,-0.38 2.98,-0.45 2.98,-0.51 2.98,-0.57 2.97,-0.63 2.98,-0.71 2.98,-0.76 2.98,-0.83 2.98,-0.89 2.98,-0.96 2.98,-1.03 2.97,-1.08 2.99,-1.16 2.97,-1.21 2.98,-1.27 2.98,-1.34 2.98,-1.4 2.98,-1.48 2.97,-1.53 2.98,-1.59 2.98,-1.65 2.98,-1.72 2.98,-1.78 2.98,-1.84 2.98,-1.9 2.97,-1.97 2.98,-2.03 2.98,-2.08 2.98,-2.16 2.98,-2.2 2.97,-2.28 2.98,-2.33 2.98,-2.38 2.98,-2.46 2.98,-2.51 2.98,-2.57 2.98,-2.63 2.98,-2.69 2.97,-2.75 2.98,-2.8 2.98,-2.87 2.98,-2.93 2.98,-2.97 2.98,-3.04 2.97,-3.1 2.98,-3.15 2.98,-3.2 2.98,-3.27 2.98,-3.32 2.98,-3.37 2.97,-3.43 2.99,-3.48 2.97,-3.54 2.98,-3.6 2.98,-3.64 2.98,-3.7 2.98,-3.75 2.98,-3.8 2.97,-3.86 2.98,-3.91 2.98,-3.96 2.98,-4.02 2.98,-4.06 2.98,-4.11 2.97,-4.16 2.98,-4.21 2.98,-4.26 2.98,-4.31 2.98,-4.36 2.98,-4.4 2.98,-4.45 2.98,-4.5 2.97,-4.55 2.98,-4.58 2.98,-4.64 2.98,-4.68 2.98,-4.73 2.98,-4.76 2.97,-4.81 2.98,-4.86 2.98,-4.9 2.98,-4.94 2.98,-4.98 2.98,-5.02 2.97,-5.07 2.98,-5.1 2.98,-5.13 2.98,-5.19 2.98,-5.22 2.98,-5.26 2.98,-5.29 2.98,-5.34 2.97,-5.37 2.98,-5.4 2.98,-5.44 2.98,-5.47 2.98,-5.51 2.98,-5.55 2.97,-5.57 2.98,-5.61 2.98,-5.64 2.98,-5.67 2.98,-5.7 2.98,-5.73 2.97,-5.77 2.99,-5.79 2.97,-5.82 2.98,-5.85 2.98,-5.87 2.98,-5.91 2.98,-5.93 2.98,-5.94 2.97,-5.99 2.98,-6 2.98,-6.03 2.98,-6.05 2.98,-6.07 2.98,-6.1 2.97,-6.12 2.98,-6.13 2.98,-6.16 2.98,-6.18 2.98,-6.19 2.98,-6.21 2.97,-6.24 2.99,-6.25 2.97,-6.26 2.98,-6.29 2.98,-6.29 2.98,-6.31 2.98,-6.33 2.98,-6.33 2.97,-6.35 2.98,-6.37 2.98,-6.38 2.98,-6.38 2.98,-6.39 2.98,-6.41 2.97,-6.42 2.98,-6.42 2.98,-6.43 2.98,-6.43 2.98,-6.45 2.98,-6.45 2.98,-6.45 2.98,-6.45 2.97,-6.47 2.98,-6.46 2.98,-6.47 2.98,-6.47 2.98,-6.47 2.98,-6.47 2.97,-6.47 2.98,-6.47 2.98,-6.46 2.98,-6.47 2.98,-6.46 2.98,-6.46 2.97,-6.46 2.98,-6.45 2.98,-6.44 2.98,-6.44 2.98,-6.43 2.98,-6.43 2.98,-6.42 2.98,-6.41 2.97,-6.4 2.98,-6.38 2.98,-6.39 2.98,-6.36 2.98,-6.36 2.98,-6.35 2.97,-6.32 2.98,-6.32 2.98,-6.3 2.98,-6.29 2.98,-6.28 2.98,-6.25 2.97,-6.24 2.99,-6.22 2.97,-6.21 2.98,-6.18 2.98,-6.17 2.98,-6.15 2.98,-6.12 2.98,-6.1 2.97,-6.09 2.98,-6.06 2.98,-6.03 2.98,-6.02 2.98,-5.99 2.98,-5.96 2.97,-5.95 2.98,-5.91 2.98,-5.89 2.98,-5.85 2.98,-5.84 2.98,-5.8 2.98,-5.77 2.98,-5.75 2.97,-5.71 2.98,-5.69 2.98,-5.66 2.98,-5.61 2.98,-5.6 2.98,-5.55 2.97,-5.53 2.98,-5.48 2.98,-5.46 2.98,-5.42 2.98,-5.38 2.98,-5.35 2.97,-5.32 2.98,-5.27 2.98,-5.24 2.98,-5.19 2.98,-5.16 2.98,-5.12 2.98,-5.08 2.98,-5.04 2.97,-5 2.98,-4.96 2.98,-4.91 2.98,-4.87 2.98,-4.84 2.98,-4.78 2.97,-4.75 2.98,-4.69 2.98,-4.67 2.98,-4.6 2.98,-4.56 2.98,-4.52 2.97,-4.47 2.99,-4.43 2.97,-4.37 2.98,-4.33 2.98,-4.28 2.98,-4.24 2.98,-4.18 2.98,-4.13 2.97,-4.09 2.98,-4.03 2.98,-3.98 2.98,-3.93 2.98,-3.88 2.98,-3.83 2.97,-3.78 2.98,-3.72 2.98,-3.67 2.98,-3.61 2.98,-3.56 2.98,-3.51 2.97,-3.45 2.98,-3.4 2.98,-3.34 2.98,-3.29 2.98,-3.23 2.98,-3.18 2.98,-3.11 2.98,-3.07 2.97,-3 2.98,-2.95 2.98,-2.89 2.98,-2.84 2.98,-2.77 2.97,-2.71 2.98,-2.65 2.98,-2.6 2.98,-2.54 2.98,-2.47 2.98,-2.42 2.98,-2.36 2.98,-2.3 2.98,-2.24 2.97,-2.17 2.98,-2.12 2.98,-2.05 2.98,-1.99 2.98,-1.93 2.97,-1.87 2.98,-1.81 2.98,-1.74 2.98,-1.68 2.98,-1.62 2.98,-1.56 2.97,-1.49 2.98,-1.43 2.98,-1.37 2.98,-1.3 2.98,-1.24 2.98,-1.18 2.98,-1.11 2.98,-1.05 2.97,-0.99 2.98,-0.92 2.98,-0.86 2.98,-0.79 2.98,-0.74 2.98,-0.65 2.97,-0.61 2.98,-0.53 2.98,-0.47 2.98,-0.41 2.98,-0.34 2.98,-0.28 2.97,-0.21 2.98,-0.16 2.98,-0.08 2.98,-0.01 2.98,0.04 2.98,0.11 2.98,0.17 2.98,0.25 2.97,0.3 2.98,0.37 2.98,0.43 2.98,0.5 2.98,0.56 2.98,0.63 2.97,0.69 2.98,0.76 2.98,0.82 2.98,0.89 2.98,0.94 2.98,1.01 2.97,1.08 2.99,1.13 2.97,1.21 2.98,1.26 2.98,1.34 2.98,1.39 2.98,1.46 2.98,1.51 2.97,1.59 2.98,1.64 2.98,1.71 2.98,1.77 2.98,1.83 2.98,1.9 2.97,1.96 2.98,2.01 2.98,2.08 2.98,2.13 2.98,2.21 2.98,2.26 2.97,2.33 2.99,2.37 2.97,2.45 2.98,2.5 2.98,2.56 2.98,2.62 2.98,2.68 2.98,2.74 2.97,2.79 2.98,2.86 2.98,2.91 2.98,2.97 2.98,3.03 2.98,3.09 2.97,3.14 2.98,3.2 2.98,3.25 2.98,3.32 2.98,3.36 2.98,3.42 2.98,3.48 2.98,3.53 2.97,3.58 2.98,3.64 2.98,3.69 2.98,3.74 2.98,3.8 2.98,3.85 2.97,3.9 2.98,3.95 2.98,4 2.98,4.06 2.98,4.11 2.98,4.15 2.97,4.2 2.98,4.25 2.98,4.3 2.98,4.35 2.98,4.4 2.98,4.44 2.98,4.5 2.98,4.53 2.97,4.58 2.98,4.63 2.98,4.67 2.98,4.72 2.98,4.76 2.98,4.81 2.97,4.85 2.98,4.89 2.98,4.93 2.98,4.97 2.98,5.02 2.98,5.05 2.97,5.1 2.99,5.13 2.97,5.18 2.98,5.21 2.98,5.26 2.98,5.29 2.98,5.33 2.98,5.36 2.97,5.4 2.98,5.43 2.98,5.47 2.98,5.51 2.98,5.53 2.98,5.57 2.97,5.6 2.98,5.64 2.98,5.67 2.98,5.69 2.98,5.73 2.98,5.76 2.98,5.78 2.98,5.82 2.97,5.84 2.98,5.87 2.98,5.91 2.98,5.92 2.98,5.94 2.98,5.99 2.97,6 2.98,6.01 2.98,6.05 2.98,6.07 2.98,6.1 2.98,6.11 2.97,6.14 2.98,6.15 2.98,6.17 2.98,6.2 2.98,6.2 2.98,6.23 2.98,6.25 2.98,6.27 2.97,6.27 2.98,6.3 2.98,6.31 2.98,6.32 2.98,6.33 2.98,6.36 2.97,6.36 2.98,6.37 2.98,6.39 2.98,6.38 2.98,6.41 2.98,6.41 2.97,6.43 2.99,6.42 2.97,6.44 2.98,6.44 2.98,6.45 2.98,6.45 2.98,6.46 2.98,6.46 2.97,6.46 2.98,6.47 2.98,6.46 2.98,6.48 2.98,6.46 2.98,6.47 2.97,6.48 2.98,6.46 2.98,6.47 2.98,6.46 2.98,6.47 2.98,6.45 2.97,6.45 2.99,6.45 2.97,6.44 2.98,6.43 2.98,6.43 2.98,6.42 2.98,6.4 2.98,6.41 2.97,6.39 2.98,6.38 2.98,6.37 2.98,6.36 2.98,6.34 2.98,6.34 2.97,6.32 2.98,6.31 2.98,6.29 2.98,6.27 2.98,6.25 2.97,6.25 2.99,6.22 2.98,6.21 2.97,6.19 2.98,6.17 2.98,6.15 2.98,6.13 2.98,6.11 2.98,6.08 2.97,6.06 2.98,6.05 2.98,6.01 2.98,6 2.98,5.96 2.97,5.95 2.98,5.91 2.98,5.9 2.98,5.87 2.98,5.83 2.98,5.81 2.98,5.78 2.98,5.75 2.97,5.72 2.98,5.69 2.98,5.65 2.98,5.63 2.98,5.6 2.98,5.56 2.97,5.53 2.98,5.49 2.98,5.46 2.98,5.43 2.98,5.39 2.98,5.35 2.97,5.32 2.98,5.28 2.98,5.24 2.98,5.21 2.98,5.17 2.98,5.12 2.98,5.08 2.98,5.05 2.97,5 2.98,4.97 2.98,4.92 2.98,4.89 2.98,4.83 2.98,4.8 2.97,4.74 2.98,4.71 2.98,4.67 2.98,4.61 2.98,4.57 2.98,4.53 2.97,4.48 2.99,4.43 2.97,4.38 2.98,4.34 2.98,4.29 2.98,4.24 2.98,4.19 2.98,4.14 2.97,4.09 2.98,4.04 2.98,3.99 2.98,3.94 2.98,3.89 2.98,3.83 2.97,3.78 2.98,3.74 2.98,3.68 2.98,3.62 2.98,3.57 2.98,3.51 2.97,3.47 2.99,3.4 2.97,3.36 2.98,3.3 2.98,3.23 2.98,3.19 2.98,3.12 2.98,3.07 2.97,3.02 2.98,2.96 2.98,2.89 2.98,2.85 2.98,2.78 2.98,2.72 2.97,2.66 2.98,2.61 2.98,2.55 2.98,2.48 2.98,2.44 2.98,2.36 2.98,2.31 2.98,2.25 2.97,2.18 2.98,2.12 2.98,2.07 2.98,2 2.98,1.94 2.98,1.87 2.97,1.82 2.98,1.76 2.98,1.69 2.98,1.63 2.98,1.56 2.98,1.51 2.97,1.44 2.98,1.38 2.98,1.31 2.98,1.25 2.98,1.19 2.98,1.12 2.98,1.06 2.98,0.99 2.97,0.94 2.98,0.87 2.98,0.8 2.98,0.74 2.98,0.67 2.98,0.62 2.97,0.54 2.98,0.49 2.98,0.41 2.98,0.35 2.98,0.29 2.98,0.23 2.97,0.16 2.99,0.09 2.97,0.03 2.98,-0.04 2.98,-0.1 2.98,-0.16 2.98,-0.23 2.98,-0.3 2.97,-0.35 2.98,-0.43 2.98,-0.48 2.98,-0.56 2.98,-0.62 2.98,-0.67 2.97,-0.75 2.98,-0.81 2.98,-0.87 2.98,-0.95 2.98,-1 2.98,-1.06 2.98,-1.13 2.98,-1.19 2.97,-1.26 2.98,-1.32 2.98,-1.38 2.98,-1.45 2.98,-1.51 2.98,-1.57 2.97,-1.64 2.98,-1.7 2.98,-1.75 2.98,-1.82 2.98,-1.89 2.98,-1.95 2.97,-2 2.98,-2.07 2.98,-2.13 2.98,-2.2 2.98,-2.25 2.98,-2.31 2.98,-2.37 2.98,-2.43 2.97,-2.5 2.98,-2.55 2.98,-2.61 2.98,-2.67 2.98,-2.73 2.98,-2.78 2.97,-2.85 2.98,-2.91 2.98,-2.96 2.98,-3.02 2.98,-3.07 2.98,-3.14 2.97,-3.18 2.99,-3.25 2.97,-3.3 2.98,-3.36 2.98,-3.41 2.98,-3.47 2.98,-3.52 2.98,-3.57 2.97,-3.64 2.98,-3.68 2.98,-3.73 2.98,-3.79 2.98,-3.84 2.98,-3.89 2.97,-3.95 2.98,-3.99 2.98,-4.05 2.98,-4.1 2.98,-4.14 2.98,-4.19 2.97,-4.25 2.99,-4.3 2.97,-4.33 2.98,-4.39 2.98,-4.44 2.98,-4.48 2.98,-4.53 2.98,-4.58 2.97,-4.61 2.98,-4.67 2.98,-4.72 2.98,-4.75 2.98,-4.8 2.98,-4.84 2.97,-4.88 2.98,-4.92 2.98,-4.98 2.98,-5.01 2.98,-5.05"
             style="fill:none;stroke:#ff0000;stroke-width:5.00206995;stroke-linecap:butt;stroke-linejoin:bevel;stroke-miterlimit:10;stroke-opacity:1;stroke-dasharray:60.6312, 22.7367, 15.1578, 22.7367;stroke-dashoffset:0"
             id="path3205" />
          <path
             inkscape:connector-curvature="0"
             d="m 3630.29,1038.35 1917.46,0 0,545.68 -1917.46,0 0,-545.68 z"
             style="fill:#ffffff;fill-opacity:1;fill-rule:nonzero;stroke:none"
             id="path3207" />
          <path
             inkscape:connector-curvature="0"
             d="m 4162.3,1429.64 0,16.93 10.3,0 0,-16.93 22.38,0 0,-9.24 -22.38,0 0,-17.29 27.83,0 0,-9.47 -27.83,0 0,-30.44 -10.3,0 0,30.44 -30.67,0 0,9.47 30.67,0 0,17.29 -15.99,0 c -1.89,-5.37 -4.14,-10.22 -6.74,-14.57 l -7.94,6.87 c 4.9,8.76 8.21,18.63 9.94,29.61 l 9.95,-1.78 c -0.86,-4.11 -1.69,-7.74 -2.48,-10.89 l 13.26,0 z m -53.29,39.31 18.6,0 0,-93.08 c 0,-4.58 -1.15,-7.62 -3.45,-9.12 -1.73,-1.34 -4.89,-2.01 -9.47,-2.01 -6.15,0 -11.99,0.35 -17.52,1.06 l -1.66,11.14 c 7.03,-1.19 12.79,-1.78 17.29,-1.78 3.24,0 4.86,1.5 4.86,4.5 l 0,27.47 -37.31,0 c -0.87,-16.81 -5.17,-32.01 -12.9,-45.59 l -8.18,8.41 c 7.74,12.32 11.61,29.25 11.61,50.8 l 0,32.69 c -2.05,-3.08 -4.93,-6.71 -8.64,-10.9 l -5.81,8.65 c 13.66,15.95 22.62,34.42 26.89,55.42 l 10.77,-2.01 c -0.79,-3.24 -1.42,-5.57 -1.89,-6.99 l -0.48,-1.66 23.68,0 4.98,-5.09 c -3.32,-7.42 -7.11,-14.73 -11.37,-21.91 z m -14.56,-8.76 -13.74,0 0,-17.53 13.74,0 0,17.53 z m 9.12,0 0,-17.53 14.09,0 0,17.53 -14.09,0 z m -9.12,-26.05 -13.74,0 0,-18.25 13.74,0 0,18.25 z m 9.12,0 0,-18.25 14.09,0 0,18.25 -14.09,0 z m -5.22,34.81 c 3.4,5.6 6.36,11.65 8.88,18.12 l -18.71,0 c -2.68,-7.19 -5.36,-13.23 -8.05,-18.12 l 17.88,0 z m 66.08,19.66 c -1.5,-18.71 -10.02,-32.81 -25.58,-42.28 l -7.46,8.17 c 13.11,6.64 20.57,18 22.39,34.11 l -21.91,0 0,9.47 62.88,0 c -0.48,-19.65 -1.38,-32.52 -2.72,-38.61 -0.8,-3.79 -2.26,-6.43 -4.39,-7.92 -1.9,-1.19 -4.97,-1.78 -9.23,-1.78 -5.37,0 -10.59,0.35 -15.64,1.06 l -1.41,9.95 c 5.28,-0.87 9.78,-1.31 13.49,-1.31 3.71,0 5.96,1.47 6.76,4.39 0.94,3.87 1.69,12.12 2.24,24.75 l -19.42,0 z m 78.04,-47.96 -0.23,-1.07 c -4.74,-16.19 -11.37,-31.46 -19.9,-45.83 l -7.23,11.84 c 11.45,16.58 20.06,35.53 25.82,56.85 l -22.5,0 0,10.3 24.04,0 0,33.4 11.01,0 0,-33.4 22.26,0 0,-10.3 -22.26,0 0,-15.16 c 9.48,-7.89 17.65,-15.71 24.52,-23.45 l -6.64,-11.37 c -6.07,8.61 -12.04,16.07 -17.88,22.38 l 0,-71.64 -11.01,0 0,77.45 z m 41.1,48.9 3.54,0.36 c 21.48,1.89 39.4,5.45 53.77,10.66 l 9.71,-9.95 c -16.19,-5.21 -34.78,-8.68 -55.78,-10.42 l 0,-25.93 65.14,0 0,-10.42 -23.69,0 0,-80.53 -11.25,0 0,80.53 -30.2,0 c 0,-19.82 -0.99,-34.94 -2.96,-45.37 -2.69,-14.44 -8.37,-26.83 -17.05,-37.18 l -8.17,7.47 c 8.53,11.84 13.66,24.67 15.4,38.48 1.02,7.42 1.54,17.88 1.54,31.38 l 0,50.92 z m 197.05,-59.91 0,16.93 10.29,0 0,-16.93 22.39,0 0,-9.24 -22.39,0 0,-17.29 27.84,0 0,-9.47 -27.84,0 0,-30.44 -10.29,0 0,30.44 -30.67,0 0,9.47 30.67,0 0,17.29 -15.99,0 c -1.9,-5.37 -4.15,-10.22 -6.75,-14.57 l -7.93,6.87 c 4.89,8.76 8.21,18.63 9.94,29.61 l 9.95,-1.78 c -0.87,-4.11 -1.7,-7.74 -2.49,-10.89 l 13.27,0 z m -53.3,39.31 18.6,0 0,-93.08 c 0,-4.58 -1.15,-7.62 -3.44,-9.12 -1.73,-1.34 -4.89,-2.01 -9.48,-2.01 -6.15,0 -11.99,0.35 -17.52,1.06 l -1.66,11.14 c 7.03,-1.19 12.79,-1.78 17.29,-1.78 3.24,0 4.86,1.5 4.86,4.5 l 0,27.47 -37.31,0 c -0.86,-16.81 -5.16,-32.01 -12.9,-45.59 l -8.17,8.41 c 7.73,12.32 11.6,29.25 11.6,50.8 l 0,32.69 c -2.05,-3.08 -4.93,-6.71 -8.64,-10.9 l -5.8,8.65 c 13.65,15.95 22.61,34.42 26.88,55.42 l 10.78,-2.01 c -0.8,-3.24 -1.43,-5.57 -1.9,-6.99 l -0.47,-1.66 23.68,0 4.97,-5.09 c -3.31,-7.42 -7.1,-14.73 -11.37,-21.91 z m -14.56,-8.76 -13.74,0 0,-17.53 13.74,0 0,17.53 z m 9.12,0 0,-17.53 14.09,0 0,17.53 -14.09,0 z m -9.12,-26.05 -13.74,0 0,-18.25 13.74,0 0,18.25 z m 9.12,0 0,-18.25 14.09,0 0,18.25 -14.09,0 z m -5.22,34.81 c 3.4,5.6 6.36,11.65 8.89,18.12 l -18.71,0 c -2.69,-7.19 -5.37,-13.23 -8.05,-18.12 l 17.87,0 z m 66.09,19.66 c -1.5,-18.71 -10.03,-32.81 -25.58,-42.28 l -7.46,8.17 c 13.1,6.64 20.56,18 22.38,34.11 l -21.91,0 0,9.47 62.88,0 c -0.47,-19.65 -1.38,-32.52 -2.72,-38.61 -0.79,-3.79 -2.25,-6.43 -4.39,-7.92 -1.89,-1.19 -4.97,-1.78 -9.23,-1.78 -5.37,0 -10.58,0.35 -15.63,1.06 l -1.42,9.95 c 5.29,-0.87 9.79,-1.31 13.5,-1.31 3.71,0 5.96,1.47 6.75,4.39 0.94,3.87 1.69,12.12 2.24,24.75 l -19.41,0"
             style="fill:#000000;fill-opacity:1;fill-rule:nonzero;stroke:none"
             id="path3209" />
          <path
             inkscape:connector-curvature="0"
             d="m 3694.77,1434.99 322.41,0"
             style="fill:none;stroke:#0000ff;stroke-width:5.00206995;stroke-linecap:butt;stroke-linejoin:round;stroke-miterlimit:10;stroke-opacity:1;stroke-dasharray:none"
             id="path3211" />
          <path
             inkscape:connector-curvature="0"
             d="m 4122.04,1217.31 c -5.93,10.19 -14.77,15.28 -26.53,15.28 -6.63,0 -11.92,-2.09 -15.87,-6.27 -3.08,-3.4 -4.62,-7.31 -4.62,-11.73 0,-4.98 1.98,-9 5.92,-12.08 2.92,-2.21 8.88,-5.21 17.89,-8.99 l 5.33,-2.26 c 12,-4.82 20.21,-10.15 24.63,-15.99 3.86,-5.13 5.8,-10.89 5.8,-17.29 0,-10.18 -3.79,-18.23 -11.37,-24.16 -6.79,-5.28 -15.35,-7.93 -25.69,-7.93 -17.45,0 -30.87,6.64 -40.27,19.9 l 10.9,8.28 c 7.5,-10.65 17.32,-15.98 29.48,-15.98 5.77,0 10.7,1.38 14.81,4.14 5.13,3.72 7.69,8.61 7.69,14.68 0,4.82 -1.89,9.09 -5.68,12.8 -3.95,3.79 -11.29,7.74 -22.03,11.84 l -4.61,1.78 c -18.09,6.94 -27.13,16.93 -27.13,29.96 0,8.68 2.92,15.87 8.77,21.55 6.63,6.24 15.39,9.36 26.29,9.36 16.26,0 28.66,-6.36 37.18,-19.07 l -10.89,-7.82 z m 49.76,7.11 -15.51,0 0,15.87 15.51,0 0,-15.87 z m -0.95,-96.16 -13.74,0 0,79.34 13.74,0 0,-79.34 z m 139.6,0 -13.74,0 0,49.62 c 0,13.42 -5.16,20.13 -15.5,20.13 -4.9,0 -9.4,-2.29 -13.51,-6.87 -2.92,-3.24 -4.97,-7.26 -6.15,-12.08 l 0,-50.8 -13.62,0 0,49.85 c 0,13.27 -4.9,19.9 -14.69,19.9 -5.21,0 -9.79,-2.29 -13.73,-6.87 -4.19,-4.74 -6.28,-9.28 -6.28,-13.62 l 0,-49.26 -13.74,0 0,79.34 12.8,0 0,-13.74 c 5.21,10.19 13.1,15.28 23.68,15.28 11.53,0 19.22,-5.52 23.09,-16.57 5.76,11.05 14.01,16.57 24.75,16.57 8.68,0 15.48,-3.08 20.37,-9.24 4.18,-5.13 6.27,-12.35 6.27,-21.67 l 0,-49.97 z m 95.43,0 -12.8,0 0,14.44 c -7.82,-10.65 -17.33,-15.98 -28.53,-15.98 -9.16,0 -16.31,3.12 -21.44,9.35 -4.02,4.98 -6.04,12.16 -6.04,21.56 l 0,49.97 13.62,0 0,-49.62 c 0,-13.1 5.52,-19.66 16.58,-19.66 11.13,0 19.42,6.83 24.86,20.49 l 0,48.79 13.75,0 0,-79.34 z m 42.59,0 -13.73,0 0,117.71 13.73,0 0,-117.71 z m 44.05,96.16 -15.51,0 0,15.87 15.51,0 0,-15.87 z m -0.95,-96.16 -13.73,0 0,79.34 13.73,0 0,-79.34 z m 97.45,0 -13.73,0 0,49.26 c 0,13.42 -5.57,20.13 -16.7,20.13 -11.21,0 -19.43,-6.71 -24.63,-20.13 l 0,-49.26 -13.75,0 0,79.34 12.8,0 0,-14.33 c 7.42,10.58 16.93,15.87 28.53,15.87 18.32,0 27.48,-10.3 27.48,-30.91 l 0,-49.97 z m 94,0 -16.57,0 -27.13,38.61 -9.12,-8.89 0,-29.72 -13.38,0 0,117.71 13.38,0 0,-75.31 33.4,36.94 17.17,0 -32.92,-33.04 35.17,-46.3 z m 22.53,-2.49 c -2.76,19.27 -4.14,36.83 -4.14,52.7 0,18.95 3.39,41.45 10.18,67.5 l 11.96,-2.72 c -7.02,-26.05 -10.53,-48.28 -10.53,-66.68 0,-5.76 0.43,-12.51 1.3,-20.25 2.29,4.27 5.76,10.55 10.42,18.84 l 7.81,-5.45 c -9.86,-16.74 -14.8,-29.65 -14.8,-38.73 0,-1.58 0.08,-2.96 0.24,-4.14 l -12.44,-1.07 z m 43.22,102.55 c 18.79,3.48 39.28,5.22 61.47,5.22 l 1.06,-12.2 c -22.81,0.16 -43.22,-1.62 -61.22,-5.33 l -1.31,12.31 z m 70.23,-95.2 c -10.11,-1.43 -19.38,-2.14 -27.83,-2.14 -15.08,0 -26.05,2.17 -32.92,6.52 -7.74,4.81 -11.61,13.97 -11.61,27.47 0,1.9 0.04,3.63 0.13,5.21 l 12.07,1.42 c 0,-0.95 -0.07,-2.37 -0.24,-4.26 0,-1.03 0,-1.66 0,-1.9 0,-8.68 2.17,-14.52 6.52,-17.52 4.26,-2.92 12.15,-4.38 23.68,-4.38 7.5,0 17.06,0.71 28.66,2.13 l 1.54,-12.55 z m 72.39,118.42 12.07,0 0,-33.99 c 12.71,0.86 24.95,2.96 36.71,6.28 l 3.56,-11.72 c -11.45,-2.61 -24.87,-4.55 -40.27,-5.81 l 0,-40.74 c 13.27,-3.39 28.78,-10.26 46.54,-20.6 l -7.81,-10.89 c -9.8,6.78 -20.14,12.43 -31.03,16.93 -1.5,0.55 -3.08,1.18 -4.74,1.89 -1.74,0.63 -2.72,0.99 -2.96,1.07 l 0,-5.09 c 0,-10.82 -2.6,-18.01 -7.82,-21.56 -3.23,-2.2 -8.36,-3.59 -15.39,-4.14 l -1.3,-0.12 c -0.4,0 -0.71,0.04 -0.95,0.12 -0.79,0 -1.77,0.04 -2.95,0.12 -9.09,0.16 -17.26,2.64 -24.52,7.46 -6.87,4.65 -10.3,10.14 -10.3,16.46 0,6.63 3.39,11.88 10.18,15.75 7.42,4.5 16.62,6.75 27.59,6.75 3.55,0 8.02,-0.36 13.39,-1.07 l 0,82.9 z m 0,-94.15 c -5.37,1.03 -10.03,1.54 -13.98,1.54 -7.03,0 -12.91,-1.14 -17.64,-3.43 -4.58,-1.98 -6.87,-4.58 -6.87,-7.82 0,-3 1.5,-5.64 4.49,-7.93 4.35,-3.63 10.27,-5.45 17.77,-5.45 10.82,0 16.23,4.54 16.23,13.62 l 0,9.47 z m 165.26,78.63 -44.28,-45 c 10.18,3.71 19.69,5.57 28.53,5.57 8.37,0 15.83,-1.54 22.38,-4.62 12.17,-5.92 18.24,-15.36 18.24,-28.3 0,-12.08 -5.68,-22.11 -17.05,-30.08 -10.5,-7.34 -24.2,-11.02 -41.09,-11.02 -8.21,0 -14.92,1.54 -20.13,4.62 -6.32,3.87 -9.47,9.24 -9.47,16.11 0,4.42 1.69,8.36 5.08,11.84 4.35,4.34 9.91,6.51 16.71,6.51 12.78,0 23.4,-8.09 31.85,-24.27 14.13,5.84 21.2,14.64 21.2,26.41 0,8.13 -3.36,14.21 -10.07,18.23 -5.06,3.01 -11.57,4.51 -19.54,4.51 -20.85,0 -41.13,-9.91 -60.87,-29.73 l -8.53,9.23 c 25.59,22.43 47.85,44.81 66.8,67.15 -16.35,-2.61 -32.85,-4.42 -49.51,-5.45 l -2.72,12.2 c 18.47,0.4 40.3,2.13 65.49,5.21 l 6.98,-9.12 z m -19.89,-101.84 c -5.76,12 -12.91,18 -21.44,18 -5.44,0 -8.72,-1.86 -9.83,-5.56 -0.31,-1.27 -0.47,-2.1 -0.47,-2.49 0,-7.42 5.96,-11.13 17.88,-11.13 3.95,0 8.57,0.39 13.86,1.18 z m 148.81,102.08 55.89,0 0,-10.66 -113.44,0 0,-26.4 c 0,-20.93 -0.95,-37.03 -2.84,-48.32 -2.22,-12.32 -6.48,-23.72 -12.79,-34.22 l -9.12,9.7 c 6,10.19 9.78,22 11.37,35.41 1.02,8.06 1.54,19.23 1.54,33.52 l 0,40.97 57.32,0 0,20.84 12.07,0 0,-20.84 z m -56.49,-101.49 c 6.08,12.79 10.5,29.61 13.26,50.45 l 11.26,-2.96 c -2.92,-21.79 -7.58,-39.79 -13.97,-54 l -10.55,6.51 z m 34.23,59.45 11.13,0 0,-57.2 c 0,-3.16 0.91,-5.17 2.72,-6.04 1.58,-0.71 5.37,-1.06 11.37,-1.06 8.21,0 12.95,0.95 14.21,2.84 1.5,2.29 2.41,10.11 2.72,23.45 l 0,2.84 11.73,-3.19 c -0.79,-18.01 -2.21,-28.35 -4.26,-31.03 -3,-3.95 -11.14,-5.92 -24.4,-5.92 -9.79,0 -16.58,0.9 -20.37,2.72 -3.23,1.58 -4.85,4.54 -4.85,8.88 l 0,63.71 z m 29.6,-6.27 c -8.05,9.86 -16.86,18.43 -26.4,25.69 l 7.93,7.46 c 8.76,-6.31 17.76,-14.45 27,-24.4 l -8.53,-8.75 z m 42.04,-54.24 c -8.6,21.32 -17.25,38.41 -25.93,51.27 l 10.18,5.57 c 10.26,-15.48 19.11,-32.05 26.53,-49.74 l -10.78,-7.1 z m 73.9,97.34 c 2.68,-5.29 5.36,-11.84 8.04,-19.66 l -11.12,-3.79 c -2.61,9.16 -5.53,16.97 -8.77,23.45 l -8.53,0 c -5.13,-9.79 -11.32,-18.63 -18.59,-26.52 l -8.64,7.1 c 11.05,11.92 19.38,27.08 24.99,45.47 l 11.25,-2.61 c -2.14,-6.86 -3.67,-11.44 -4.62,-13.73 l 38.96,0 0,-9.71 -22.97,0 z m 60.98,0 c 3.87,-5.6 7.62,-11.92 11.25,-18.94 l -11.48,-4.27 c -3.48,8.21 -7.51,15.95 -12.08,23.21 l -11.02,0 -0.59,-1.07 c -2.13,-3.63 -5.05,-7.77 -8.77,-12.43 l -9.35,5.8 c 7.58,9.32 13.54,20.61 17.88,33.87 l 11.01,-2.37 c -1.73,-5.29 -3.47,-9.99 -5.2,-14.09 l 50.09,0 0,-9.71 -31.74,0 z m -83.95,-65.13 93.43,0 0,-50.33 -11.26,0 0,8.52 -70.93,0 0,-8.52 -11.24,0 0,50.33 z m 82.17,-9.6 -70.93,0 0,-22.61 70.93,0 0,22.61 z m -3.67,27.36 0,-6.87 -60.98,0 0,5.93 c -11.13,-7.03 -23.33,-12.99 -36.6,-17.89 l -6.75,9.71 c 28.42,9.16 50.02,23.25 64.78,42.28 l 11.49,0 c 17.68,-16.34 40.89,-29.18 69.63,-38.49 l -6.28,-10.18 c -12.63,4.58 -24.39,9.75 -35.29,15.51 z m -55.3,3.08 50.1,0 c -10.58,5.92 -19.9,12.87 -27.95,20.84 -6.08,-7.34 -13.46,-14.29 -22.15,-20.84"
             style="fill:#000000;fill-opacity:1;fill-rule:nonzero;stroke:none"
             id="path3213" />
          <path
             inkscape:connector-curvature="0"
             d="m 3694.77,1187.39 322.41,0"
             style="fill:none;stroke:#ff0000;stroke-width:5.00206995;stroke-linecap:butt;stroke-linejoin:bevel;stroke-miterlimit:10;stroke-opacity:1;stroke-dasharray:60.6312, 22.7367, 15.1578, 22.7367;stroke-dashoffset:0"
             id="path3215" />
          <path
             inkscape:connector-curvature="0"
             d="m 3630.29,1038.35 1917.46,0 0,545.68 -1917.46,0 0,-545.68 z"
             style="fill:none;stroke:#262626;stroke-width:5.00206995;stroke-linecap:butt;stroke-linejoin:miter;stroke-miterlimit:10;stroke-opacity:1;stroke-dasharray:none"
             id="path3217" />
        </g>
      </g>
    </g>
  </g>
</svg>
