<?xml version="1.0" encoding="UTF-8" standalone="no"?>
<!-- Created with Inkscape (http://www.inkscape.org/) -->

<svg
   xmlns:dc="http://purl.org/dc/elements/1.1/"
   xmlns:cc="http://creativecommons.org/ns#"
   xmlns:rdf="http://www.w3.org/1999/02/22-rdf-syntax-ns#"
   xmlns:svg="http://www.w3.org/2000/svg"
   xmlns="http://www.w3.org/2000/svg"
   xmlns:sodipodi="http://sodipodi.sourceforge.net/DTD/sodipodi-0.dtd"
   xmlns:inkscape="http://www.inkscape.org/namespaces/inkscape"
   id="svg2"
   version="1.1"
   inkscape:version="0.48.4 r9939"
   width="1775"
   height="726.25"
   xml:space="preserve"
   sodipodi:docname="outputs.eps"><metadata
     id="metadata8"><rdf:RDF><cc:Work
         rdf:about=""><dc:format>image/svg+xml</dc:format><dc:type
           rdf:resource="http://purl.org/dc/dcmitype/StillImage" /><dc:title></dc:title></cc:Work></rdf:RDF></metadata><defs
     id="defs6"><clipPath
       clipPathUnits="userSpaceOnUse"
       id="clipPath18"><path
         d="m 0,0 14196,0 0,5810 L 0,5810 0,0 z"
         id="path20" /></clipPath></defs><sodipodi:namedview
     pagecolor="#ffffff"
     bordercolor="#666666"
     borderopacity="1"
     objecttolerance="10"
     gridtolerance="10"
     guidetolerance="10"
     inkscape:pageopacity="0"
     inkscape:pageshadow="2"
     inkscape:window-width="936"
     inkscape:window-height="1028"
     id="namedview4"
     showgrid="false"
     inkscape:zoom="0.5593115"
     inkscape:cx="581.46163"
     inkscape:cy="306.1227"
     inkscape:window-x="983"
     inkscape:window-y="157"
     inkscape:window-maximized="0"
     inkscape:current-layer="g12" /><g
     id="g10"
     inkscape:groupmode="layer"
     inkscape:label="ink_ext_XXXXXX"
     transform="matrix(1.25,0,0,-1.25,0,726.25)"><g
       id="g12"
       transform="scale(0.1,0.1)"><g
         id="g14" /><g
         id="g3138"><rect
           transform="matrix(8,0,0,-8,0,5810)"
           y="20.024584"
           x="42.909897"
           height="695.49792"
           width="976.2002"
           id="rect3135"
           style="fill:none;stroke:none" /><path
           id="path26"
           style="fill:#ffffff;fill-opacity:1;fill-rule:nonzero;stroke:none"
           d="m 818.52,606.348 7055.96,0 0,4736.81 -7055.96,0 0,-4736.81 z" /><path
           id="path28"
           style="fill:none;stroke:#262626;stroke-opacity:1;stroke-width:5.00207;stroke-linecap:square;stroke-linejoin:round;stroke-miterlimit:10;stroke-dasharray:none"
           d="m 818.52,606.348 7055.96,0" /><path
           id="path30"
           style="fill:none;stroke:#262626;stroke-opacity:1;stroke-width:5.00207;stroke-linecap:square;stroke-linejoin:round;stroke-miterlimit:10;stroke-dasharray:none"
           d="m 818.52,5343.16 7055.96,0" /><path
           id="path32"
           style="fill:none;stroke:#262626;stroke-opacity:1;stroke-width:5.00207;stroke-linecap:square;stroke-linejoin:round;stroke-miterlimit:10;stroke-dasharray:none"
           d="m 818.52,606.348 0,70.558" /><path
           id="path34"
           style="fill:none;stroke:#262626;stroke-opacity:1;stroke-width:5.00207;stroke-linecap:square;stroke-linejoin:round;stroke-miterlimit:10;stroke-dasharray:none"
           d="m 1524.12,606.348 0,70.558" /><path
           id="path36"
           style="fill:none;stroke:#262626;stroke-opacity:1;stroke-width:5.00207;stroke-linecap:square;stroke-linejoin:round;stroke-miterlimit:10;stroke-dasharray:none"
           d="m 2229.71,606.348 0,70.558" /><path
           id="path38"
           style="fill:none;stroke:#262626;stroke-opacity:1;stroke-width:5.00207;stroke-linecap:square;stroke-linejoin:round;stroke-miterlimit:10;stroke-dasharray:none"
           d="m 2935.31,606.348 0,70.558" /><path
           id="path40"
           style="fill:none;stroke:#262626;stroke-opacity:1;stroke-width:5.00207;stroke-linecap:square;stroke-linejoin:round;stroke-miterlimit:10;stroke-dasharray:none"
           d="m 3640.9,606.348 0,70.558" /><path
           id="path42"
           style="fill:none;stroke:#262626;stroke-opacity:1;stroke-width:5.00207;stroke-linecap:square;stroke-linejoin:round;stroke-miterlimit:10;stroke-dasharray:none"
           d="m 4346.5,606.348 0,70.558" /><path
           id="path44"
           style="fill:none;stroke:#262626;stroke-opacity:1;stroke-width:5.00207;stroke-linecap:square;stroke-linejoin:round;stroke-miterlimit:10;stroke-dasharray:none"
           d="m 5052.09,606.348 0,70.558" /><path
           id="path46"
           style="fill:none;stroke:#262626;stroke-opacity:1;stroke-width:5.00207;stroke-linecap:square;stroke-linejoin:round;stroke-miterlimit:10;stroke-dasharray:none"
           d="m 5757.69,606.348 0,70.558" /><path
           id="path48"
           style="fill:none;stroke:#262626;stroke-opacity:1;stroke-width:5.00207;stroke-linecap:square;stroke-linejoin:round;stroke-miterlimit:10;stroke-dasharray:none"
           d="m 6463.29,606.348 0,70.558" /><path
           id="path50"
           style="fill:none;stroke:#262626;stroke-opacity:1;stroke-width:5.00207;stroke-linecap:square;stroke-linejoin:round;stroke-miterlimit:10;stroke-dasharray:none"
           d="m 7168.88,606.348 0,70.558" /><path
           id="path52"
           style="fill:none;stroke:#262626;stroke-opacity:1;stroke-width:5.00207;stroke-linecap:square;stroke-linejoin:round;stroke-miterlimit:10;stroke-dasharray:none"
           d="m 7874.48,606.348 0,70.558" /><path
           id="path54"
           style="fill:none;stroke:#262626;stroke-opacity:1;stroke-width:5.00207;stroke-linecap:square;stroke-linejoin:round;stroke-miterlimit:10;stroke-dasharray:none"
           d="m 818.52,5343.16 0,-70.56" /><path
           id="path56"
           style="fill:none;stroke:#262626;stroke-opacity:1;stroke-width:5.00207;stroke-linecap:square;stroke-linejoin:round;stroke-miterlimit:10;stroke-dasharray:none"
           d="m 1524.12,5343.16 0,-70.56" /><path
           id="path58"
           style="fill:none;stroke:#262626;stroke-opacity:1;stroke-width:5.00207;stroke-linecap:square;stroke-linejoin:round;stroke-miterlimit:10;stroke-dasharray:none"
           d="m 2229.71,5343.16 0,-70.56" /><path
           id="path60"
           style="fill:none;stroke:#262626;stroke-opacity:1;stroke-width:5.00207;stroke-linecap:square;stroke-linejoin:round;stroke-miterlimit:10;stroke-dasharray:none"
           d="m 2935.31,5343.16 0,-70.56" /><path
           id="path62"
           style="fill:none;stroke:#262626;stroke-opacity:1;stroke-width:5.00207;stroke-linecap:square;stroke-linejoin:round;stroke-miterlimit:10;stroke-dasharray:none"
           d="m 3640.9,5343.16 0,-70.56" /><path
           id="path64"
           style="fill:none;stroke:#262626;stroke-opacity:1;stroke-width:5.00207;stroke-linecap:square;stroke-linejoin:round;stroke-miterlimit:10;stroke-dasharray:none"
           d="m 4346.5,5343.16 0,-70.56" /><path
           id="path66"
           style="fill:none;stroke:#262626;stroke-opacity:1;stroke-width:5.00207;stroke-linecap:square;stroke-linejoin:round;stroke-miterlimit:10;stroke-dasharray:none"
           d="m 5052.09,5343.16 0,-70.56" /><path
           id="path68"
           style="fill:none;stroke:#262626;stroke-opacity:1;stroke-width:5.00207;stroke-linecap:square;stroke-linejoin:round;stroke-miterlimit:10;stroke-dasharray:none"
           d="m 5757.69,5343.16 0,-70.56" /><path
           id="path70"
           style="fill:none;stroke:#262626;stroke-opacity:1;stroke-width:5.00207;stroke-linecap:square;stroke-linejoin:round;stroke-miterlimit:10;stroke-dasharray:none"
           d="m 6463.29,5343.16 0,-70.56" /><path
           id="path72"
           style="fill:none;stroke:#262626;stroke-opacity:1;stroke-width:5.00207;stroke-linecap:square;stroke-linejoin:round;stroke-miterlimit:10;stroke-dasharray:none"
           d="m 7168.88,5343.16 0,-70.56" /><path
           id="path74"
           style="fill:none;stroke:#262626;stroke-opacity:1;stroke-width:5.00207;stroke-linecap:square;stroke-linejoin:round;stroke-miterlimit:10;stroke-dasharray:none"
           d="m 7874.48,5343.16 0,-70.56" /><g
           transform="scale(10,10)"
           id="g76"><text
             id="text78"
             transform="matrix(1,0,0,-1,76.5473,41.0316)"><tspan
               id="tspan80"
               sodipodi:role="line"
               y="0"
               x="0 70.56018691 141.12037382 211.68024241 282.24042932 352.80029792 423.36048483 493.92067173 564.48054033 635.04072724 700.67436837 709.52349757"
               style="fill:#262626;fill-opacity:1;fill-rule:nonzero;stroke:none;font-family:Helvetica;font-variant:normal;font-weight:normal;font-size:15.9157;writing-mode:lr;-inkscape-font-specification:Helvetica">012345678910</tspan></text>
<text
             id="text82"
             transform="matrix(1,0,0,-1,419.8743,21.8421)"><tspan
               id="tspan84"
               sodipodi:role="line"
               y="0"
               x="0 4.845957 9.691914 14.537871 23.253621"
               style="fill:#262626;fill-opacity:1;fill-rule:nonzero;stroke:none;font-family:Helvetica;font-variant:normal;font-weight:normal;font-size:17.4315;writing-mode:lr;-inkscape-font-specification:Helvetica">t [s]</tspan></text>
</g><path
           id="path86"
           style="fill:none;stroke:#262626;stroke-opacity:1;stroke-width:5.00207;stroke-linecap:square;stroke-linejoin:round;stroke-miterlimit:10;stroke-dasharray:none"
           d="m 818.52,606.348 0,4736.812" /><path
           id="path88"
           style="fill:none;stroke:#262626;stroke-opacity:1;stroke-width:5.00207;stroke-linecap:square;stroke-linejoin:round;stroke-miterlimit:10;stroke-dasharray:none"
           d="m 7874.48,606.348 0,4736.812" /><path
           id="path90"
           style="fill:none;stroke:#262626;stroke-opacity:1;stroke-width:5.00207;stroke-linecap:square;stroke-linejoin:round;stroke-miterlimit:10;stroke-dasharray:none"
           d="m 818.52,606.348 70.562,0" /><path
           id="path92"
           style="fill:none;stroke:#262626;stroke-opacity:1;stroke-width:5.00207;stroke-linecap:square;stroke-linejoin:round;stroke-miterlimit:10;stroke-dasharray:none"
           d="m 818.52,1335.09 70.562,0" /><path
           id="path94"
           style="fill:none;stroke:#262626;stroke-opacity:1;stroke-width:5.00207;stroke-linecap:square;stroke-linejoin:round;stroke-miterlimit:10;stroke-dasharray:none"
           d="m 818.52,2063.83 70.562,0" /><path
           id="path96"
           style="fill:none;stroke:#262626;stroke-opacity:1;stroke-width:5.00207;stroke-linecap:square;stroke-linejoin:round;stroke-miterlimit:10;stroke-dasharray:none"
           d="m 818.52,2792.57 70.562,0" /><path
           id="path98"
           style="fill:none;stroke:#262626;stroke-opacity:1;stroke-width:5.00207;stroke-linecap:square;stroke-linejoin:round;stroke-miterlimit:10;stroke-dasharray:none"
           d="m 818.52,3521.31 70.562,0" /><path
           id="path100"
           style="fill:none;stroke:#262626;stroke-opacity:1;stroke-width:5.00207;stroke-linecap:square;stroke-linejoin:round;stroke-miterlimit:10;stroke-dasharray:none"
           d="m 818.52,4250.05 70.562,0" /><path
           id="path102"
           style="fill:none;stroke:#262626;stroke-opacity:1;stroke-width:5.00207;stroke-linecap:square;stroke-linejoin:round;stroke-miterlimit:10;stroke-dasharray:none"
           d="m 818.52,4978.79 70.562,0" /><path
           id="path104"
           style="fill:none;stroke:#262626;stroke-opacity:1;stroke-width:5.00207;stroke-linecap:square;stroke-linejoin:round;stroke-miterlimit:10;stroke-dasharray:none"
           d="m 7874.48,606.348 -70.56,0" /><path
           id="path106"
           style="fill:none;stroke:#262626;stroke-opacity:1;stroke-width:5.00207;stroke-linecap:square;stroke-linejoin:round;stroke-miterlimit:10;stroke-dasharray:none"
           d="m 7874.48,1335.09 -70.56,0" /><path
           id="path108"
           style="fill:none;stroke:#262626;stroke-opacity:1;stroke-width:5.00207;stroke-linecap:square;stroke-linejoin:round;stroke-miterlimit:10;stroke-dasharray:none"
           d="m 7874.48,2063.83 -70.56,0" /><path
           id="path110"
           style="fill:none;stroke:#262626;stroke-opacity:1;stroke-width:5.00207;stroke-linecap:square;stroke-linejoin:round;stroke-miterlimit:10;stroke-dasharray:none"
           d="m 7874.48,2792.57 -70.56,0" /><path
           id="path112"
           style="fill:none;stroke:#262626;stroke-opacity:1;stroke-width:5.00207;stroke-linecap:square;stroke-linejoin:round;stroke-miterlimit:10;stroke-dasharray:none"
           d="m 7874.48,3521.31 -70.56,0" /><path
           id="path114"
           style="fill:none;stroke:#262626;stroke-opacity:1;stroke-width:5.00207;stroke-linecap:square;stroke-linejoin:round;stroke-miterlimit:10;stroke-dasharray:none"
           d="m 7874.48,4250.05 -70.56,0" /><path
           id="path116"
           style="fill:none;stroke:#262626;stroke-opacity:1;stroke-width:5.00207;stroke-linecap:square;stroke-linejoin:round;stroke-miterlimit:10;stroke-dasharray:none"
           d="m 7874.48,4978.79 -70.56,0" /><g
           transform="scale(10,10)"
           id="g118"><text
             id="text120"
             transform="matrix(1,0,0,-1,60.7371,54.5684)"><tspan
               id="tspan122"
               sodipodi:role="line"
               y="0"
               x="0 5.2999281"
               style="fill:#262626;fill-opacity:1;fill-rule:nonzero;stroke:none;font-family:Helvetica;font-variant:normal;font-weight:normal;font-size:15.9157;writing-mode:lr;-inkscape-font-specification:Helvetica">-6</tspan><tspan
               id="tspan124"
               sodipodi:role="line"
               y="-72.8746"
               x="0 5.2999281"
               style="fill:#262626;fill-opacity:1;fill-rule:nonzero;stroke:none;font-family:Helvetica;font-variant:normal;font-weight:normal;font-size:15.9157;writing-mode:lr;-inkscape-font-specification:Helvetica">-4</tspan><tspan
               id="tspan126"
               sodipodi:role="line"
               y="-145.7492"
               x="0 5.2999281"
               style="fill:#262626;fill-opacity:1;fill-rule:nonzero;stroke:none;font-family:Helvetica;font-variant:normal;font-weight:normal;font-size:15.9157;writing-mode:lr;-inkscape-font-specification:Helvetica">-2</tspan><tspan
               id="tspan128"
               y="-218.6234"
               x="5.30508"
               style="fill:#262626;fill-opacity:1;fill-rule:nonzero;stroke:none;font-family:Helvetica;font-variant:normal;font-weight:normal;font-size:15.9157;writing-mode:lr;-inkscape-font-specification:Helvetica">0</tspan><tspan
               id="tspan130"
               y="-291.498"
               x="5.30508"
               style="fill:#262626;fill-opacity:1;fill-rule:nonzero;stroke:none;font-family:Helvetica;font-variant:normal;font-weight:normal;font-size:15.9157;writing-mode:lr;-inkscape-font-specification:Helvetica">2</tspan><tspan
               id="tspan132"
               y="-364.3726"
               x="5.30508"
               style="fill:#262626;fill-opacity:1;fill-rule:nonzero;stroke:none;font-family:Helvetica;font-variant:normal;font-weight:normal;font-size:15.9157;writing-mode:lr;-inkscape-font-specification:Helvetica">4</tspan><tspan
               id="tspan134"
               y="-437.2468"
               x="5.30508"
               style="fill:#262626;fill-opacity:1;fill-rule:nonzero;stroke:none;font-family:Helvetica;font-variant:normal;font-weight:normal;font-size:15.9157;writing-mode:lr;-inkscape-font-specification:Helvetica">6</tspan></text>
<text
             id="text136"
             transform="matrix(0,1,1,0,55.4633,284.211)"><tspan
               id="tspan138"
               sodipodi:role="line"
               y="0"
               x="0 8.71575 14.5204395 19.3663965"
               style="fill:#262626;fill-opacity:1;fill-rule:nonzero;stroke:none;font-family:Helvetica;font-variant:normal;font-weight:normal;font-size:17.4315;writing-mode:lr;-inkscape-font-specification:Helvetica">x(t)</tspan></text>
</g><path
           id="path140"
           style="fill:none;stroke:#0000ff;stroke-opacity:1;stroke-width:5.00207;stroke-linecap:butt;stroke-linejoin:round;stroke-miterlimit:10;stroke-dasharray:none"
           d="m 818.52,970.719 70.562,1320.941 70.559,882.97 70.559,587.03 70.56,386.33 70.56,249.55 70.56,155.69 70.56,90.75 70.56,45.3 70.56,13.08 70.56,-10.07 70.56,-27 70.55,-39.52 70.57,-48.9 70.56,-55.94 70.55,-61.15 70.56,-64.95 70.57,-67.53 70.55,-69.06 70.56,-69.65 70.56,-69.38 70.56,-68.3 70.56,-66.46 70.56,-63.92 70.56,-60.69 70.56,-56.83 70.56,-52.4 70.56,-47.44 70.56,-41.98 70.56,-36.1 70.56,-29.88 70.56,-23.33 70.56,-16.55 70.56,-9.62 70.56,-2.58 70.56,4.48 70.55,11.5 70.57,18.4 70.56,25.12 70.55,31.6 70.56,37.74 70.56,43.51 70.56,48.87 70.56,53.71 70.56,58.03 70.56,61.77 70.56,64.88 70.56,67.35 70.56,69.16 70.56,70.27" /><path
           id="path142"
           style="fill:none;stroke:#0000ff;stroke-opacity:1;stroke-width:5.00207;stroke-linecap:butt;stroke-linejoin:round;stroke-miterlimit:10;stroke-dasharray:none"
           d="m 4205.38,4139.25 70.56,70.27 70.56,70.66 70.56,70.36 70.56,69.37 70.56,67.66 70.56,65.29 70.56,62.27 70.56,58.62 70.56,54.38 70.56,49.61 70.56,44.33 70.55,38.63 70.56,32.51 70.56,26.09 70.56,19.41 70.56,12.52 70.56,5.52 70.56,-1.54 70.56,-8.59 70.56,-15.55 70.56,-22.36 70.56,-28.92 70.56,-35.23 70.56,-41.17 70.56,-46.69 70.56,-51.76 70.56,-56.3 70.56,-60.29 70.56,-63.67 70.56,-66.4 70.56,-68.49 70.56,-69.9 70.55,-70.58 70.57,-70.57 70.55,-69.86 70.56,-68.46 70.56,-66.36 70.56,-63.6 70.56,-60.21 70.56,-56.21 70.56,-51.66 70.56,-46.58 70.56,-41.05 70.56,-35.1 70.56,-28.8 70.56,-22.21 70.56,-15.41 70.56,-8.44 70.56,-1.4 70.56,5.66 70.56,12.68" /><path
           id="path144"
           style="fill:none;stroke:#0000ff;stroke-opacity:1;stroke-width:5.00207;stroke-linecap:butt;stroke-linejoin:round;stroke-miterlimit:10;stroke-dasharray:none"
           d="m 7733.36,3549.05 70.56,12.68 70.56,19.54" /><path
           id="path146"
           style="fill:none;stroke:#ff0000;stroke-opacity:1;stroke-width:5.00207;stroke-linecap:butt;stroke-linejoin:bevel;stroke-miterlimit:10;stroke-dasharray:60.6312,22.7367,15.1578,22.7367;stroke-dashoffset:0"
           d="m 818.52,970.719 16.113,349.871 80.566,1340.12 123.901,1159.03 133.3,580.66 141.12,244.45 141.12,57.44 141.12,-37.57 141.12,-88.7 141.12,-117.23 141.12,-132.55 141.12,-138.72 141.12,-137.64 141.12,-130.31 141.11,-117.41 141.12,-99.68 141.12,-77.9 141.12,-53 141.12,-25.97 141.12,2.12 141.12,30.11 141.12,56.91 141.12,81.45 141.11,102.72 141.13,119.91 141.12,132.32 141.11,139.45 141.12,141.02 141.12,136.97 141.12,127.47 141.12,112.88 141.12,93.77 141.12,70.95 141.12,45.3 141.12,17.82 141.12,-10.34 141.11,-38.12 141.12,-64.35 141.12,-88.03 141.12,-108.21 141.12,-124.05 141.12,-134.96 141.12,-140.49 141.12,-140.42 141.12,-134.75 141.12,-123.71 141.12,-107.72 141.11,-87.47 141.12,-63.7 141.12,-37.41 141.12,-9.63 141.12,18.56 69.48,19.29" /><path
           id="path148"
           style="fill:#ffffff;fill-opacity:1;fill-rule:nonzero;stroke:none"
           d="m 5441.65,1341.5 1917.46,0 0,522.945 -1917.46,0 0,-522.945 z" /><path
           id="path150"
           style="fill:#000000;fill-opacity:1;fill-rule:nonzero;stroke:none"
           d="m 5977.26,1716.27 0,16.93 10.3,0 0,-16.93 22.38,0 0,-9.24 -22.38,0 0,-17.29 27.83,0 0,-9.47 -27.83,0 0,-30.44 -10.3,0 0,30.44 -30.67,0 0,9.47 30.67,0 0,17.29 -15.99,0 c -1.89,-5.37 -4.14,-10.23 -6.74,-14.57 l -7.94,6.87 c 4.9,8.76 8.21,18.63 9.95,29.61 l 9.94,-1.78 c -0.86,-4.11 -1.69,-7.73 -2.48,-10.89 l 13.26,0 z m -53.29,39.31 18.6,0 0,-93.08 c 0,-4.57 -1.15,-7.61 -3.44,-9.12 -1.74,-1.34 -4.9,-2.01 -9.48,-2.01 -6.15,0 -11.99,0.35 -17.52,1.07 l -1.66,11.13 c 7.03,-1.19 12.79,-1.78 17.29,-1.78 3.24,0 4.85,1.5 4.85,4.5 l 0,27.48 -37.3,0 c -0.87,-16.82 -5.17,-32.02 -12.9,-45.6 l -8.18,8.41 c 7.74,12.31 11.61,29.25 11.61,50.8 l 0,32.69 c -2.05,-3.08 -4.93,-6.71 -8.64,-10.9 l -5.81,8.65 c 13.66,15.95 22.62,34.42 26.88,55.42 l 10.78,-2.01 c -0.79,-3.24 -1.42,-5.57 -1.89,-6.99 l -0.48,-1.66 23.68,0 4.98,-5.09 c -3.32,-7.42 -7.11,-14.73 -11.37,-21.91 z m -14.56,-8.76 -13.74,0 0,-17.53 13.74,0 0,17.53 z m 9.12,0 0,-17.53 14.08,0 0,17.53 -14.08,0 z m -9.12,-26.05 -13.74,0 0,-18.24 13.74,0 0,18.24 z m 9.12,0 0,-18.24 14.08,0 0,18.24 -14.08,0 z m -5.22,34.81 c 3.4,5.61 6.36,11.65 8.89,18.12 l -18.72,0 c -2.68,-7.18 -5.36,-13.23 -8.05,-18.12 l 17.88,0 z m 66.08,19.66 c -1.5,-18.71 -10.03,-32.8 -25.58,-42.28 l -7.45,8.17 c 13.1,6.64 20.56,18.01 22.37,34.11 l -21.91,0 0,9.47 62.89,0 c -0.48,-19.65 -1.39,-32.52 -2.72,-38.6 -0.79,-3.79 -2.26,-6.44 -4.39,-7.93 -1.9,-1.19 -4.97,-1.79 -9.23,-1.79 -5.37,0 -10.58,0.36 -15.64,1.07 l -1.41,9.95 c 5.29,-0.87 9.79,-1.3 13.49,-1.3 3.71,0 5.96,1.46 6.76,4.38 0.94,3.87 1.69,12.12 2.24,24.75 l -19.42,0 z m 78.04,-47.96 -0.23,-1.07 c -4.74,-16.18 -11.37,-31.46 -19.9,-45.83 l -7.23,11.85 c 11.45,16.57 20.06,35.52 25.82,56.84 l -22.5,0 0,10.3 24.04,0 0,33.4 11.02,0 0,-33.4 22.25,0 0,-10.3 -22.25,0 0,-15.16 c 9.47,-7.89 17.64,-15.71 24.5,-23.45 l -6.63,-11.37 c -6.07,8.61 -12.03,16.07 -17.87,22.38 l 0,-71.64 -11.02,0 0,77.45 z m 41.09,48.9 3.55,0.36 c 21.48,1.9 39.4,5.45 53.77,10.66 l 9.71,-9.95 c -16.19,-5.21 -34.78,-8.68 -55.78,-10.42 l 0,-25.93 65.14,0 0,-10.42 -23.69,0 0,-80.53 -11.26,0 0,80.53 -30.19,0 c 0,-19.82 -0.98,-34.94 -2.96,-45.36 -2.68,-14.45 -8.37,-26.84 -17.05,-37.19 l -8.17,7.47 c 8.52,11.84 13.66,24.67 15.39,38.49 1.03,7.41 1.54,17.87 1.54,31.37 l 0,50.92 z m 197.06,-59.91 0,16.93 10.3,0 0,-16.93 22.38,0 0,-9.24 -22.38,0 0,-17.29 27.83,0 0,-9.47 -27.83,0 0,-30.44 -10.3,0 0,30.44 -30.67,0 0,9.47 30.67,0 0,17.29 -15.99,0 c -1.9,-5.37 -4.15,-10.23 -6.75,-14.57 l -7.93,6.87 c 4.89,8.76 8.2,18.63 9.94,29.61 l 9.95,-1.78 c -0.87,-4.11 -1.7,-7.73 -2.49,-10.89 l 13.27,0 z m -53.3,39.31 18.6,0 0,-93.08 c 0,-4.57 -1.15,-7.61 -3.44,-9.12 -1.73,-1.34 -4.89,-2.01 -9.48,-2.01 -6.15,0 -11.99,0.35 -17.52,1.07 l -1.65,11.13 c 7.02,-1.19 12.78,-1.78 17.28,-1.78 3.24,0 4.86,1.5 4.86,4.5 l 0,27.48 -37.3,0 c -0.87,-16.82 -5.18,-32.02 -12.91,-45.6 l -8.17,8.41 c 7.74,12.31 11.6,29.25 11.6,50.8 l 0,32.69 c -2.05,-3.08 -4.93,-6.71 -8.64,-10.9 l -5.8,8.65 c 13.65,15.95 22.61,34.42 26.88,55.42 l 10.78,-2.01 c -0.8,-3.24 -1.43,-5.57 -1.9,-6.99 l -0.48,-1.66 23.69,0 4.97,-5.09 c -3.31,-7.42 -7.1,-14.73 -11.37,-21.91 z m -14.56,-8.76 -13.74,0 0,-17.53 13.74,0 0,17.53 z m 9.12,0 0,-17.53 14.09,0 0,17.53 -14.09,0 z m -9.12,-26.05 -13.74,0 0,-18.24 13.74,0 0,18.24 z m 9.12,0 0,-18.24 14.09,0 0,18.24 -14.09,0 z m -5.21,34.81 c 3.39,5.61 6.35,11.65 8.88,18.12 l -18.71,0 c -2.69,-7.18 -5.37,-13.23 -8.05,-18.12 l 17.88,0 z m 66.08,19.66 c -1.5,-18.71 -10.03,-32.8 -25.58,-42.28 l -7.46,8.17 c 13.1,6.64 20.56,18.01 22.38,34.11 l -21.91,0 0,9.47 62.88,0 c -0.47,-19.65 -1.38,-32.52 -2.72,-38.6 -0.79,-3.79 -2.26,-6.44 -4.39,-7.93 -1.89,-1.19 -4.97,-1.79 -9.23,-1.79 -5.37,0 -10.58,0.36 -15.63,1.07 l -1.42,9.95 c 5.29,-0.87 9.79,-1.3 13.5,-1.3 3.71,0 5.96,1.46 6.75,4.38 0.94,3.87 1.69,12.12 2.25,24.75 l -19.42,0" /><path
           id="path152"
           style="fill:none;stroke:#0000ff;stroke-opacity:1;stroke-width:5.00207;stroke-linecap:butt;stroke-linejoin:round;stroke-miterlimit:10;stroke-dasharray:none"
           d="m 5506.68,1721.62 325.17,0" /><path
           id="path154"
           style="fill:#000000;fill-opacity:1;fill-rule:nonzero;stroke:none"
           d="m 5919.94,1487.02 c -4.89,6.4 -11.09,9.6 -18.59,9.6 -9.87,0 -14.8,-3.79 -14.8,-11.37 0,-5.37 5.33,-9.79 15.99,-13.27 l 5.21,-1.66 c 15.07,-4.97 22.61,-13.1 22.61,-24.39 0,-7.66 -3.15,-13.66 -9.47,-18 -4.97,-3.39 -11.41,-5.09 -19.3,-5.09 -12.08,0 -22.34,4.46 -30.79,13.38 l 8.64,7.82 c 6.48,-7.03 14.02,-10.54 22.63,-10.54 10.26,0 15.39,3.98 15.39,11.96 0,6 -5.65,10.97 -16.93,14.92 l -5.45,1.9 c -14.22,4.97 -21.32,12.27 -21.32,21.9 0,6 2.09,11.09 6.28,15.28 4.97,4.97 11.8,7.46 20.49,7.46 11.68,0 21.23,-4.07 28.65,-12.2 l -9.24,-7.7 z m 47.24,34.35 -15.52,0 0,15.86 15.52,0 0,-15.86 z m -0.95,-96.16 -13.74,0 0,79.34 13.74,0 0,-79.34 z m 139.6,0 -13.74,0 0,49.62 c 0,13.42 -5.17,20.13 -15.51,20.13 -4.89,0 -9.39,-2.29 -13.5,-6.87 -2.92,-3.24 -4.97,-7.27 -6.15,-12.08 l 0,-50.8 -13.63,0 0,49.85 c 0,13.26 -4.89,19.9 -14.68,19.9 -5.21,0 -9.79,-2.29 -13.74,-6.87 -4.18,-4.74 -6.27,-9.28 -6.27,-13.62 l 0,-49.26 -13.74,0 0,79.34 12.79,0 0,-13.74 c 5.21,10.19 13.11,15.28 23.68,15.28 11.53,0 19.23,-5.52 23.1,-16.57 5.76,11.05 14.01,16.57 24.74,16.57 8.69,0 15.48,-3.08 20.37,-9.24 4.19,-5.13 6.28,-12.35 6.28,-21.67 l 0,-49.97 z m 95.42,0 -12.79,0 0,14.44 c -7.82,-10.65 -17.33,-15.98 -28.54,-15.98 -9.16,0 -16.3,3.12 -21.43,9.35 -4.03,4.98 -6.04,12.16 -6.04,21.55 l 0,49.98 13.62,0 0,-49.62 c 0,-13.11 5.52,-19.66 16.57,-19.66 11.13,0 19.42,6.83 24.87,20.49 l 0,48.79 13.74,0 0,-79.34 z m 42.6,0 -13.73,0 0,117.7 13.73,0 0,-117.7 z m 44.04,96.16 -15.5,0 0,15.86 15.5,0 0,-15.86 z m -0.94,-96.16 -13.74,0 0,79.34 13.74,0 0,-79.34 z m 97.44,0 -13.73,0 0,49.26 c 0,13.42 -5.57,20.13 -16.7,20.13 -11.21,0 -19.42,-6.71 -24.63,-20.13 l 0,-49.26 -13.74,0 0,79.34 12.8,0 0,-14.33 c 7.41,10.58 16.92,15.87 28.53,15.87 18.31,0 27.47,-10.3 27.47,-30.91 l 0,-49.97 z m 94,0 -16.57,0 -27.12,38.61 -9.12,-8.89 0,-29.72 -13.38,0 0,117.7 13.38,0 0,-75.3 33.4,36.94 17.16,0 -32.91,-33.04 35.16,-46.3 z m 22.54,-2.49 c -2.77,19.26 -4.15,36.83 -4.15,52.7 0,18.95 3.4,41.44 10.19,67.49 l 11.96,-2.71 c -7.03,-26.06 -10.54,-48.28 -10.54,-66.68 0,-5.76 0.44,-12.51 1.31,-20.25 2.28,4.27 5.76,10.55 10.42,18.84 l 7.81,-5.45 c -9.87,-16.74 -14.8,-29.65 -14.8,-38.73 0,-1.58 0.08,-2.96 0.23,-4.14 l -12.43,-1.07 z m 43.22,102.55 c 18.79,3.48 39.28,5.22 61.46,5.22 l 1.07,-12.2 c -22.82,0.16 -43.23,-1.62 -61.23,-5.33 l -1.3,12.31 z m 70.23,-95.2 c -10.11,-1.43 -19.39,-2.14 -27.83,-2.14 -15.08,0 -26.05,2.17 -32.93,6.52 -7.73,4.81 -11.6,13.97 -11.6,27.47 0,1.9 0.04,3.63 0.12,5.21 l 12.08,1.42 c 0,-0.95 -0.08,-2.37 -0.24,-4.26 0,-1.03 0,-1.66 0,-1.9 0,-8.68 2.17,-14.52 6.52,-17.52 4.26,-2.92 12.15,-4.38 23.68,-4.38 7.5,0 17.05,0.71 28.66,2.13 l 1.54,-12.55 z m 72.38,118.41 12.08,0 0,-33.98 c 12.71,0.86 24.95,2.96 36.71,6.28 l 3.55,-11.73 c -11.45,-2.6 -24.87,-4.54 -40.26,-5.8 l 0,-40.74 c 13.27,-3.39 28.78,-10.26 46.54,-20.61 l -7.82,-10.89 c -9.79,6.79 -20.13,12.43 -31.02,16.94 -1.5,0.55 -3.09,1.18 -4.74,1.89 -1.74,0.63 -2.73,0.99 -2.96,1.07 l 0,-5.09 c 0,-10.82 -2.61,-18.01 -7.82,-21.56 -3.23,-2.21 -8.36,-3.59 -15.39,-4.15 l -1.31,-0.11 c -0.39,0 -0.71,0.04 -0.94,0.11 -0.79,0 -1.78,0.05 -2.96,0.12 -9.08,0.16 -17.25,2.65 -24.52,7.47 -6.86,4.65 -10.29,10.14 -10.29,16.46 0,6.63 3.39,11.88 10.18,15.74 7.42,4.51 16.61,6.76 27.59,6.76 3.55,0 8.01,-0.36 13.38,-1.07 l 0,82.89 z m 0,-94.14 c -5.37,1.03 -10.03,1.54 -13.97,1.54 -7.03,0 -12.91,-1.15 -17.65,-3.43 -4.58,-1.98 -6.86,-4.58 -6.86,-7.82 0,-3 1.49,-5.64 4.49,-7.93 4.34,-3.63 10.27,-5.45 17.77,-5.45 10.81,0 16.22,4.54 16.22,13.62 l 0,9.47 z m 165.28,78.63 -44.3,-45 c 10.19,3.71 19.7,5.57 28.54,5.57 8.37,0 15.83,-1.54 22.38,-4.62 12.16,-5.92 18.24,-15.36 18.24,-28.3 0,-12.08 -5.69,-22.11 -17.05,-30.08 -10.5,-7.34 -24.2,-11.02 -41.1,-11.02 -8.21,0 -14.91,1.54 -20.12,4.62 -6.32,3.87 -9.48,9.24 -9.48,16.11 0,4.41 1.7,8.36 5.1,11.84 4.34,4.34 9.9,6.51 16.69,6.51 12.79,0 23.41,-8.09 31.86,-24.28 14.13,5.85 21.19,14.65 21.19,26.42 0,8.13 -3.35,14.21 -10.06,18.23 -5.05,3 -11.57,4.5 -19.55,4.5 -20.84,0 -41.13,-9.9 -60.86,-29.72 l -8.53,9.23 c 25.58,22.43 47.85,44.81 66.8,67.15 -16.35,-2.61 -32.85,-4.42 -49.51,-5.45 l -2.72,12.2 c 18.47,0.4 40.3,2.13 65.49,5.21 l 6.99,-9.12 z m -19.9,-101.84 c -5.76,12 -12.91,18 -21.44,18 -5.45,0 -8.72,-1.86 -9.82,-5.57 -0.32,-1.26 -0.48,-2.09 -0.48,-2.48 0,-7.42 5.96,-11.13 17.88,-11.13 3.95,0 8.57,0.39 13.86,1.18 z m 148.81,102.08 55.89,0 0,-10.66 -113.44,0 0,-26.41 c 0,-20.92 -0.95,-37.02 -2.85,-48.32 -2.21,-12.31 -6.47,-23.71 -12.79,-34.21 l -9.12,9.7 c 6,10.19 9.79,21.99 11.37,35.41 1.03,8.06 1.54,19.23 1.54,33.51 l 0,40.98 57.32,0 0,20.84 12.08,0 0,-20.84 z m -56.49,-101.49 c 6.08,12.79 10.5,29.61 13.26,50.45 l 11.26,-2.96 c -2.93,-21.79 -7.59,-39.79 -13.98,-54 l -10.54,6.51 z m 34.22,59.45 11.14,0 0,-57.2 c 0,-3.16 0.91,-5.17 2.72,-6.04 1.57,-0.71 5.37,-1.06 11.37,-1.06 8.21,0 12.95,0.95 14.21,2.84 1.5,2.29 2.4,10.11 2.72,23.45 l 0,2.84 11.72,-3.2 c -0.79,-18 -2.2,-28.34 -4.26,-31.03 -3,-3.94 -11.13,-5.91 -24.39,-5.91 -9.8,0 -16.59,0.9 -20.37,2.72 -3.24,1.58 -4.86,4.54 -4.86,8.88 l 0,63.71 z m 29.61,-6.28 c -8.06,9.87 -16.86,18.43 -26.41,25.7 l 7.94,7.46 c 8.76,-6.32 17.76,-14.45 26.99,-24.4 l -8.52,-8.76 z m 42.04,-54.23 c -8.61,21.31 -17.25,38.41 -25.94,51.27 l 10.19,5.57 c 10.26,-15.48 19.1,-32.06 26.53,-49.74 l -10.78,-7.1 z m 73.89,97.34 c 2.69,-5.29 5.37,-11.84 8.05,-19.66 l -11.13,-3.79 c -2.6,9.16 -5.53,16.97 -8.76,23.45 l -8.53,0 c -5.13,-9.79 -11.33,-18.63 -18.59,-26.53 l -8.64,7.1 c 11.05,11.93 19.38,27.09 24.99,45.48 l 11.25,-2.61 c -2.14,-6.87 -3.68,-11.44 -4.62,-13.73 l 38.96,0 0,-9.71 -22.98,0 z m 60.99,0 c 3.86,-5.61 7.61,-11.92 11.25,-18.95 l -11.48,-4.26 c -3.48,8.21 -7.51,15.94 -12.09,23.21 l -11.01,0 -0.59,-1.07 c -2.13,-3.63 -5.06,-7.78 -8.77,-12.43 l -9.35,5.8 c 7.58,9.32 13.54,20.61 17.88,33.87 l 11.01,-2.37 c -1.73,-5.29 -3.47,-9.99 -5.21,-14.09 l 50.09,0 0,-9.71 -31.73,0 z m -83.96,-65.13 93.43,0 0,-50.33 -11.25,0 0,8.52 -70.93,0 0,-8.52 -11.25,0 0,50.33 z m 82.18,-9.6 -70.93,0 0,-22.61 70.93,0 0,22.61 z m -3.67,27.36 0,-6.87 -60.99,0 0,5.92 c -11.13,-7.02 -23.32,-12.98 -36.59,-17.88 l -6.75,9.71 c 28.42,9.16 50.01,23.25 64.78,42.28 l 11.49,0 c 17.68,-16.34 40.89,-29.18 69.62,-38.49 l -6.27,-10.18 c -12.63,4.58 -24.4,9.75 -35.29,15.51 z m -55.3,3.08 50.09,0 c -10.58,5.92 -19.89,12.87 -27.95,20.84 -6.08,-7.34 -13.46,-14.29 -22.14,-20.84" /><path
           id="path156"
           style="fill:none;stroke:#ff0000;stroke-opacity:1;stroke-width:5.00207;stroke-linecap:butt;stroke-linejoin:bevel;stroke-miterlimit:10;stroke-dasharray:60.6312,22.7367,15.1578,22.7367;stroke-dashoffset:0"
           d="m 5506.68,1484.32 325.17,0" /><path
           id="path158"
           style="fill:none;stroke:#262626;stroke-opacity:1;stroke-width:5.00207;stroke-linecap:butt;stroke-linejoin:miter;stroke-miterlimit:10;stroke-dasharray:none"
           d="m 5441.65,1341.5 1917.46,0 0,522.945 -1917.46,0 0,-522.945 z" /></g></g></g></svg>