<?xml version="1.0" encoding="UTF-8" standalone="no"?>
<!-- Created with Inkscape (http://www.inkscape.org/) -->

<svg
   xmlns:dc="http://purl.org/dc/elements/1.1/"
   xmlns:cc="http://creativecommons.org/ns#"
   xmlns:rdf="http://www.w3.org/1999/02/22-rdf-syntax-ns#"
   xmlns:svg="http://www.w3.org/2000/svg"
   xmlns="http://www.w3.org/2000/svg"
   xmlns:sodipodi="http://sodipodi.sourceforge.net/DTD/sodipodi-0.dtd"
   xmlns:inkscape="http://www.inkscape.org/namespaces/inkscape"
   width="210mm"
   height="297mm"
   id="svg2"
   version="1.1"
   inkscape:version="0.48.4 r9939"
   sodipodi:docname="sim2.eps">
  <defs
     id="defs4">
    <clipPath
       id="clipPath3001"
       clipPathUnits="userSpaceOnUse">
      <path
         id="path3003"
         d="m 0,0.0390625 14195.3,0 0,6116.1700375 -14195.3,0 L 0,0.0390625 z" />
    </clipPath>
  </defs>
  <sodipodi:namedview
     id="base"
     pagecolor="#ffffff"
     bordercolor="#666666"
     borderopacity="1.0"
     inkscape:pageopacity="0.0"
     inkscape:pageshadow="2"
     inkscape:zoom="0.35"
     inkscape:cx="375"
     inkscape:cy="540"
     inkscape:document-units="px"
     inkscape:current-layer="g2995"
     showgrid="false"
     inkscape:window-width="936"
     inkscape:window-height="1028"
     inkscape:window-x="983"
     inkscape:window-y="157"
     inkscape:window-maximized="0" />
  <metadata
     id="metadata7">
    <rdf:RDF>
      <cc:Work
         rdf:about="">
        <dc:format>image/svg+xml</dc:format>
        <dc:type
           rdf:resource="http://purl.org/dc/dcmitype/StillImage" />
        <dc:title></dc:title>
      </cc:Work>
    </rdf:RDF>
  </metadata>
  <g
     inkscape:label="レイヤー 1"
     inkscape:groupmode="layer"
     id="layer1">
    <g
       transform="matrix(1.25,0,0,-1.25,-1.4919643,1027.937)"
       inkscape:label="ink_ext_XXXXXX"
       id="g2993">
      <g
         transform="matrix(0.1,0,0,0.1,-157.71429,121.14286)"
         id="g2995">
        <g
           id="g3191"
           transform="matrix(0.81849447,0,0,0.81849447,1820.0395,2850.1656)">
          <path
             inkscape:connector-curvature="0"
             d="m 469.891,409.301 5964.59,0 0,4335.13 -5964.59,0 0,-4335.13 z"
             style="fill:#ffffff;fill-opacity:1;fill-rule:nonzero;stroke:none"
             id="path3009" />
          <path
             inkscape:connector-curvature="0"
             d="m 469.891,409.301 5964.589,0"
             style="fill:none;stroke:#262626;stroke-width:5.00206995;stroke-linecap:square;stroke-linejoin:round;stroke-miterlimit:10;stroke-opacity:1;stroke-dasharray:none"
             id="path3011" />
          <path
             inkscape:connector-curvature="0"
             d="m 469.891,4744.43 5964.589,0"
             style="fill:none;stroke:#262626;stroke-width:5.00206995;stroke-linecap:square;stroke-linejoin:round;stroke-miterlimit:10;stroke-opacity:1;stroke-dasharray:none"
             id="path3013" />
          <path
             inkscape:connector-curvature="0"
             d="m 469.891,409.301 0,59.644"
             style="fill:none;stroke:#262626;stroke-width:5.00206995;stroke-linecap:square;stroke-linejoin:round;stroke-miterlimit:10;stroke-opacity:1;stroke-dasharray:none"
             id="path3015" />
          <path
             inkscape:connector-curvature="0"
             d="m 1066.35,409.301 0,59.644"
             style="fill:none;stroke:#262626;stroke-width:5.00206995;stroke-linecap:square;stroke-linejoin:round;stroke-miterlimit:10;stroke-opacity:1;stroke-dasharray:none"
             id="path3017" />
          <path
             inkscape:connector-curvature="0"
             d="m 1662.81,409.301 0,59.644"
             style="fill:none;stroke:#262626;stroke-width:5.00206995;stroke-linecap:square;stroke-linejoin:round;stroke-miterlimit:10;stroke-opacity:1;stroke-dasharray:none"
             id="path3019" />
          <path
             inkscape:connector-curvature="0"
             d="m 2259.27,409.301 0,59.644"
             style="fill:none;stroke:#262626;stroke-width:5.00206995;stroke-linecap:square;stroke-linejoin:round;stroke-miterlimit:10;stroke-opacity:1;stroke-dasharray:none"
             id="path3021" />
          <path
             inkscape:connector-curvature="0"
             d="m 2855.73,409.301 0,59.644"
             style="fill:none;stroke:#262626;stroke-width:5.00206995;stroke-linecap:square;stroke-linejoin:round;stroke-miterlimit:10;stroke-opacity:1;stroke-dasharray:none"
             id="path3023" />
          <path
             inkscape:connector-curvature="0"
             d="m 3452.19,409.301 0,59.644"
             style="fill:none;stroke:#262626;stroke-width:5.00206995;stroke-linecap:square;stroke-linejoin:round;stroke-miterlimit:10;stroke-opacity:1;stroke-dasharray:none"
             id="path3025" />
          <path
             inkscape:connector-curvature="0"
             d="m 4048.65,409.301 0,59.644"
             style="fill:none;stroke:#262626;stroke-width:5.00206995;stroke-linecap:square;stroke-linejoin:round;stroke-miterlimit:10;stroke-opacity:1;stroke-dasharray:none"
             id="path3027" />
          <path
             inkscape:connector-curvature="0"
             d="m 4645.11,409.301 0,59.644"
             style="fill:none;stroke:#262626;stroke-width:5.00206995;stroke-linecap:square;stroke-linejoin:round;stroke-miterlimit:10;stroke-opacity:1;stroke-dasharray:none"
             id="path3029" />
          <path
             inkscape:connector-curvature="0"
             d="m 5241.57,409.301 0,59.644"
             style="fill:none;stroke:#262626;stroke-width:5.00206995;stroke-linecap:square;stroke-linejoin:round;stroke-miterlimit:10;stroke-opacity:1;stroke-dasharray:none"
             id="path3031" />
          <path
             inkscape:connector-curvature="0"
             d="m 5838.03,409.301 0,59.644"
             style="fill:none;stroke:#262626;stroke-width:5.00206995;stroke-linecap:square;stroke-linejoin:round;stroke-miterlimit:10;stroke-opacity:1;stroke-dasharray:none"
             id="path3033" />
          <path
             inkscape:connector-curvature="0"
             d="m 6434.48,409.301 0,59.644"
             style="fill:none;stroke:#262626;stroke-width:5.00206995;stroke-linecap:square;stroke-linejoin:round;stroke-miterlimit:10;stroke-opacity:1;stroke-dasharray:none"
             id="path3035" />
          <path
             inkscape:connector-curvature="0"
             d="m 469.891,4744.43 0,-59.64"
             style="fill:none;stroke:#262626;stroke-width:5.00206995;stroke-linecap:square;stroke-linejoin:round;stroke-miterlimit:10;stroke-opacity:1;stroke-dasharray:none"
             id="path3037" />
          <path
             inkscape:connector-curvature="0"
             d="m 1066.35,4744.43 0,-59.64"
             style="fill:none;stroke:#262626;stroke-width:5.00206995;stroke-linecap:square;stroke-linejoin:round;stroke-miterlimit:10;stroke-opacity:1;stroke-dasharray:none"
             id="path3039" />
          <path
             inkscape:connector-curvature="0"
             d="m 1662.81,4744.43 0,-59.64"
             style="fill:none;stroke:#262626;stroke-width:5.00206995;stroke-linecap:square;stroke-linejoin:round;stroke-miterlimit:10;stroke-opacity:1;stroke-dasharray:none"
             id="path3041" />
          <path
             inkscape:connector-curvature="0"
             d="m 2259.27,4744.43 0,-59.64"
             style="fill:none;stroke:#262626;stroke-width:5.00206995;stroke-linecap:square;stroke-linejoin:round;stroke-miterlimit:10;stroke-opacity:1;stroke-dasharray:none"
             id="path3043" />
          <path
             inkscape:connector-curvature="0"
             d="m 2855.73,4744.43 0,-59.64"
             style="fill:none;stroke:#262626;stroke-width:5.00206995;stroke-linecap:square;stroke-linejoin:round;stroke-miterlimit:10;stroke-opacity:1;stroke-dasharray:none"
             id="path3045" />
          <path
             inkscape:connector-curvature="0"
             d="m 3452.19,4744.43 0,-59.64"
             style="fill:none;stroke:#262626;stroke-width:5.00206995;stroke-linecap:square;stroke-linejoin:round;stroke-miterlimit:10;stroke-opacity:1;stroke-dasharray:none"
             id="path3047" />
          <path
             inkscape:connector-curvature="0"
             d="m 4048.65,4744.43 0,-59.64"
             style="fill:none;stroke:#262626;stroke-width:5.00206995;stroke-linecap:square;stroke-linejoin:round;stroke-miterlimit:10;stroke-opacity:1;stroke-dasharray:none"
             id="path3049" />
          <path
             inkscape:connector-curvature="0"
             d="m 4645.11,4744.43 0,-59.64"
             style="fill:none;stroke:#262626;stroke-width:5.00206995;stroke-linecap:square;stroke-linejoin:round;stroke-miterlimit:10;stroke-opacity:1;stroke-dasharray:none"
             id="path3051" />
          <path
             inkscape:connector-curvature="0"
             d="m 5241.57,4744.43 0,-59.64"
             style="fill:none;stroke:#262626;stroke-width:5.00206995;stroke-linecap:square;stroke-linejoin:round;stroke-miterlimit:10;stroke-opacity:1;stroke-dasharray:none"
             id="path3053" />
          <path
             inkscape:connector-curvature="0"
             d="m 5838.03,4744.43 0,-59.64"
             style="fill:none;stroke:#262626;stroke-width:5.00206995;stroke-linecap:square;stroke-linejoin:round;stroke-miterlimit:10;stroke-opacity:1;stroke-dasharray:none"
             id="path3055" />
          <path
             inkscape:connector-curvature="0"
             d="m 6434.48,4744.43 0,-59.64"
             style="fill:none;stroke:#262626;stroke-width:5.00206995;stroke-linecap:square;stroke-linejoin:round;stroke-miterlimit:10;stroke-opacity:1;stroke-dasharray:none"
             id="path3057" />
          <g
             id="g3059"
             transform="scale(10,10)">
            <text
               transform="matrix(1,0,0,-1,41.6844,21.3266)"
               id="text3061">
              <tspan
                 style="font-size:15.91569996px;font-variant:normal;font-weight:normal;writing-mode:lr-tb;fill:#262626;fill-opacity:1;fill-rule:nonzero;stroke:none;font-family:Helvetica;-inkscape-font-specification:Helvetica"
                 x="0 59.646156 119.29263 178.93878 238.58525 293.30518 302.15433 352.95166 361.80078 412.59814 421.44727 472.24429 481.09341 531.89075 540.73987 591.53693 600.38605"
                 y="0"
                 sodipodi:role="line"
                 id="tspan3063">02468101214161820</tspan>
            </text>
            <text
               transform="matrix(1,0,0,-1,330.4424,2.1371)"
               id="text3065">
              <tspan
                 style="font-size:17.43149948px;font-variant:normal;font-weight:normal;writing-mode:lr-tb;fill:#262626;fill-opacity:1;fill-rule:nonzero;stroke:none;font-family:Helvetica;-inkscape-font-specification:Helvetica"
                 x="0 4.8459568 9.6919136 14.537871 23.25362"
                 y="0"
                 sodipodi:role="line"
                 id="tspan3067">t [s]</tspan>
            </text>
          </g>
          <path
             inkscape:connector-curvature="0"
             d="m 469.891,409.301 0,4335.129"
             style="fill:none;stroke:#262626;stroke-width:5.00206995;stroke-linecap:square;stroke-linejoin:round;stroke-miterlimit:10;stroke-opacity:1;stroke-dasharray:none"
             id="path3069" />
          <path
             inkscape:connector-curvature="0"
             d="m 6434.48,409.301 0,4335.129"
             style="fill:none;stroke:#262626;stroke-width:5.00206995;stroke-linecap:square;stroke-linejoin:round;stroke-miterlimit:10;stroke-opacity:1;stroke-dasharray:none"
             id="path3071" />
          <path
             inkscape:connector-curvature="0"
             d="m 469.891,409.301 59.648,0"
             style="fill:none;stroke:#262626;stroke-width:5.00206995;stroke-linecap:square;stroke-linejoin:round;stroke-miterlimit:10;stroke-opacity:1;stroke-dasharray:none"
             id="path3073" />
          <path
             inkscape:connector-curvature="0"
             d="m 469.891,1076.24 59.648,0"
             style="fill:none;stroke:#262626;stroke-width:5.00206995;stroke-linecap:square;stroke-linejoin:round;stroke-miterlimit:10;stroke-opacity:1;stroke-dasharray:none"
             id="path3075" />
          <path
             inkscape:connector-curvature="0"
             d="m 469.891,1743.18 59.648,0"
             style="fill:none;stroke:#262626;stroke-width:5.00206995;stroke-linecap:square;stroke-linejoin:round;stroke-miterlimit:10;stroke-opacity:1;stroke-dasharray:none"
             id="path3077" />
          <path
             inkscape:connector-curvature="0"
             d="m 469.891,2410.13 59.648,0"
             style="fill:none;stroke:#262626;stroke-width:5.00206995;stroke-linecap:square;stroke-linejoin:round;stroke-miterlimit:10;stroke-opacity:1;stroke-dasharray:none"
             id="path3079" />
          <path
             inkscape:connector-curvature="0"
             d="m 469.891,3077.07 59.648,0"
             style="fill:none;stroke:#262626;stroke-width:5.00206995;stroke-linecap:square;stroke-linejoin:round;stroke-miterlimit:10;stroke-opacity:1;stroke-dasharray:none"
             id="path3081" />
          <path
             inkscape:connector-curvature="0"
             d="m 469.891,3744.02 59.648,0"
             style="fill:none;stroke:#262626;stroke-width:5.00206995;stroke-linecap:square;stroke-linejoin:round;stroke-miterlimit:10;stroke-opacity:1;stroke-dasharray:none"
             id="path3083" />
          <path
             inkscape:connector-curvature="0"
             d="m 469.891,4410.96 59.648,0"
             style="fill:none;stroke:#262626;stroke-width:5.00206995;stroke-linecap:square;stroke-linejoin:round;stroke-miterlimit:10;stroke-opacity:1;stroke-dasharray:none"
             id="path3085" />
          <path
             inkscape:connector-curvature="0"
             d="m 6434.48,409.301 -59.64,0"
             style="fill:none;stroke:#262626;stroke-width:5.00206995;stroke-linecap:square;stroke-linejoin:round;stroke-miterlimit:10;stroke-opacity:1;stroke-dasharray:none"
             id="path3087" />
          <path
             inkscape:connector-curvature="0"
             d="m 6434.48,1076.24 -59.64,0"
             style="fill:none;stroke:#262626;stroke-width:5.00206995;stroke-linecap:square;stroke-linejoin:round;stroke-miterlimit:10;stroke-opacity:1;stroke-dasharray:none"
             id="path3089" />
          <path
             inkscape:connector-curvature="0"
             d="m 6434.48,1743.18 -59.64,0"
             style="fill:none;stroke:#262626;stroke-width:5.00206995;stroke-linecap:square;stroke-linejoin:round;stroke-miterlimit:10;stroke-opacity:1;stroke-dasharray:none"
             id="path3091" />
          <path
             inkscape:connector-curvature="0"
             d="m 6434.48,2410.13 -59.64,0"
             style="fill:none;stroke:#262626;stroke-width:5.00206995;stroke-linecap:square;stroke-linejoin:round;stroke-miterlimit:10;stroke-opacity:1;stroke-dasharray:none"
             id="path3093" />
          <path
             inkscape:connector-curvature="0"
             d="m 6434.48,3077.07 -59.64,0"
             style="fill:none;stroke:#262626;stroke-width:5.00206995;stroke-linecap:square;stroke-linejoin:round;stroke-miterlimit:10;stroke-opacity:1;stroke-dasharray:none"
             id="path3095" />
          <path
             inkscape:connector-curvature="0"
             d="m 6434.48,3744.02 -59.64,0"
             style="fill:none;stroke:#262626;stroke-width:5.00206995;stroke-linecap:square;stroke-linejoin:round;stroke-miterlimit:10;stroke-opacity:1;stroke-dasharray:none"
             id="path3097" />
          <path
             inkscape:connector-curvature="0"
             d="m 6434.48,4410.96 -59.64,0"
             style="fill:none;stroke:#262626;stroke-width:5.00206995;stroke-linecap:square;stroke-linejoin:round;stroke-miterlimit:10;stroke-opacity:1;stroke-dasharray:none"
             id="path3099" />
          <g
             id="g3101"
             transform="scale(10,10)">
            <text
               transform="matrix(1,0,0,-1,25.8738,34.8633)"
               id="text3103">
              <tspan
                 style="font-size:15.91569996px;font-variant:normal;font-weight:normal;writing-mode:lr-tb;fill:#262626;fill-opacity:1;fill-rule:nonzero;stroke:none;font-family:Helvetica;-inkscape-font-specification:Helvetica"
                 x="0 5.2999282"
                 y="0"
                 sodipodi:role="line"
                 id="tspan3105">-6</tspan>
              <tspan
                 style="font-size:15.91569996px;font-variant:normal;font-weight:normal;writing-mode:lr-tb;fill:#262626;fill-opacity:1;fill-rule:nonzero;stroke:none;font-family:Helvetica;-inkscape-font-specification:Helvetica"
                 x="0 5.2999282"
                 y="-66.694504"
                 sodipodi:role="line"
                 id="tspan3107">-4</tspan>
              <tspan
                 style="font-size:15.91569996px;font-variant:normal;font-weight:normal;writing-mode:lr-tb;fill:#262626;fill-opacity:1;fill-rule:nonzero;stroke:none;font-family:Helvetica;-inkscape-font-specification:Helvetica"
                 x="0 5.2999282"
                 y="-133.3894"
                 sodipodi:role="line"
                 id="tspan3109">-2</tspan>
              <tspan
                 style="font-size:15.91569996px;font-variant:normal;font-weight:normal;writing-mode:lr-tb;fill:#262626;fill-opacity:1;fill-rule:nonzero;stroke:none;font-family:Helvetica;-inkscape-font-specification:Helvetica"
                 x="5.3050799"
                 y="-200.08389"
                 id="tspan3111">0</tspan>
              <tspan
                 style="font-size:15.91569996px;font-variant:normal;font-weight:normal;writing-mode:lr-tb;fill:#262626;fill-opacity:1;fill-rule:nonzero;stroke:none;font-family:Helvetica;-inkscape-font-specification:Helvetica"
                 x="5.3050799"
                 y="-266.77881"
                 id="tspan3113">2</tspan>
              <tspan
                 style="font-size:15.91569996px;font-variant:normal;font-weight:normal;writing-mode:lr-tb;fill:#262626;fill-opacity:1;fill-rule:nonzero;stroke:none;font-family:Helvetica;-inkscape-font-specification:Helvetica"
                 x="5.3050799"
                 y="-333.4733"
                 id="tspan3115">4</tspan>
              <tspan
                 style="font-size:15.91569996px;font-variant:normal;font-weight:normal;writing-mode:lr-tb;fill:#262626;fill-opacity:1;fill-rule:nonzero;stroke:none;font-family:Helvetica;-inkscape-font-specification:Helvetica"
                 x="5.3050799"
                 y="-400.16821"
                 id="tspan3117">6</tspan>
            </text>
            <text
               transform="matrix(0,1,1,0,20.6,244.421)"
               id="text3119">
              <tspan
                 style="font-size:17.43149948px;font-variant:normal;font-weight:normal;writing-mode:lr-tb;fill:#262626;fill-opacity:1;fill-rule:nonzero;stroke:none;font-family:Helvetica;-inkscape-font-specification:Helvetica"
                 x="0 8.7157497 14.520439 19.366396"
                 y="0"
                 sodipodi:role="line"
                 id="tspan3121">x(t)</tspan>
            </text>
          </g>
          <path
             inkscape:connector-curvature="0"
             d="m 469.891,742.77 2.988,143.832 2.976,138.198 2.989,132.76 2.976,127.56 2.981,122.54 2.984,117.73 2.988,113.1 2.977,108.64 2.984,104.37 2.981,100.25 2.976,96.3 2.989,92.49 2.984,88.84 2.981,85.32 2.984,81.94 2.98,78.68 2.977,75.57 2.988,72.56 2.985,69.66 2.98,66.89 2.977,64.22 2.988,61.64 2.976,59.16 2.989,56.79 2.984,54.51 2.977,52.3 2.988,50.19 2.977,48.15 2.98,46.19 2.984,44.31 2.989,42.49 2.976,40.75 2.989,39.07 2.976,37.45 2.981,35.9 2.984,34.4 2.988,32.96 2.977,31.59 2.98,30.23 2.985,28.97 2.98,27.72 2.984,26.53 2.985,25.39 2.98,24.29 2.977,23.21 2.988,22.2 2.977,21.22 2.988,20.26 2.984,19.35 2.981,18.47 2.976,17.62 2.989,16.81 2.976,16.01 2.989,15.26 2.984,14.52 2.98,13.82 2.977,13.14 2.984,12.48 2.981,11.86 2.984,11.25 2.988,10.65 2.977,10.09 2.98,9.55 2.985,9.01 2.98,8.51 2.985,8.02 2.988,7.54 2.977,7.09 2.98,6.65 2.984,6.21 2.981,5.8 2.984,5.41 2.985,5.03 2.98,4.66 2.977,4.3 2.988,3.95 2.976,3.62 2.989,3.3 2.984,2.98 2.981,2.68 2.976,2.39 2.988,2.1 2.977,1.83 2.988,1.58 2.985,1.32 2.98,1.06 2.977,0.83 2.984,0.6 2.981,0.37 2.984,0.16 2.988,-0.06 2.977,-0.26 2.98,-0.45 2.985,-0.65 2.98,-0.83 2.984,-1.01 2.989,-1.18 2.976,-1.36 2.981,-1.52 2.984,-1.67 2.981,-1.83 2.984,-1.97 2.984,-2.13 2.981,-2.26 2.976,-2.4 2.989,-2.53 2.976,-2.66 2.988,-2.78 2.985,-2.9 2.98,-3.03 2.977,-3.13 2.988,-3.25 2.977,-3.35 2.988,-3.46 2.984,-3.57 2.981,-3.65 2.976,-3.76 2.989,-3.84 2.976,-3.94 2.985,-4.02 2.988,-4.11 2.976,-4.2 2.981,-4.28 2.984,-4.35 2.989,-4.43 2.976,-4.5 2.988,-4.58 2.977,-4.64 2.98,-4.71 2.985,-4.78 2.988,-4.85 2.977,-4.9 2.988,-4.97 2.977,-5.03 2.98,-5.08 2.984,-5.14 2.985,-5.19 2.98,-5.25 2.985,-5.29 2.98,-5.35 2.977,-5.39 2.988,-5.44 2.984,-5.49 2.981,-5.52 2.984,-5.57 2.981,-5.61 2.976,-5.66 2.988,-5.69 2.985,-5.72 2.98,-5.76 2.985,-5.8 2.976,-5.83 2.981,-5.87 2.984,-5.89 2.988,-5.93 2.977,-5.95 2.988,-5.98 2.977,-6.01 2.98,-6.04 2.985,-6.06 2.988,-6.08 2.976,-6.11 2.989,-6.12 2.976,-6.16 2.981,-6.17 2.984,-6.18 2.985,-6.21 2.98,-6.22 2.977,-6.24 2.988,-6.26 2.976,-6.27 2.989,-6.28 2.984,-6.29 2.981,-6.3 2.984,-6.33 2.98,-6.32 2.985,-6.33 2.978,-6.35 2.98,-6.35 2.99,-6.36 2.97,-6.36 2.99,-6.37 2.98,-6.37 2.98,-6.38 2.99,-6.38 2.98,-6.37 2.99,-6.38 2.97,-6.39 2.99,-6.37 2.98,-6.38 2.98,-6.38 2.98,-6.37 2.98,-6.37 2.99,-6.37 2.98,-6.36 2.98,-6.35 2.99,-6.35 2.98,-6.33 2.98,-6.34 2.98,-6.32 2.99,-6.32 2.98,-6.29 2.97,-6.3 2.99,-6.28 2.98,-6.26 2.99,-6.26 2.97,-6.24 2.99,-6.22 2.99,-6.22 2.98,-6.19 2.98,-6.18 2.98,-6.16 2.99,-6.15 2.97,-6.12 2.99,-6.11 2.98,-6.08 2.98,-6.06 2.98,-6.06 2.98,-6.02 2.99,-5.99 2.98,-5.99 2.98,-5.94 2.99,-5.94 2.98,-5.9 2.98,-5.88 2.98,-5.85 2.98,-5.82 2.99,-5.8 2.98,-5.78 2.98,-5.73 2.98,-5.72 2.99,-5.67 2.98,-5.66 2.98,-5.62 2.98,-5.59 2.98,-5.55 2.98,-5.53 2.99,-5.5 2.98,-5.45 2.98,-5.42 2.98,-5.39 2.99,-5.35 2.98,-5.32 2.98,-5.27 2.99,-5.25 2.98,-5.21 2.98,-5.16 2.98,-5.13 2.99,-5.08 2.97,-5.05 2.99,-5.01 2.98,-4.96 2.98,-4.93 2.98,-4.88 2.99,-4.84 2.98,-4.8 2.99,-4.75 2.97,-4.72 2.99,-4.66 2.98,-4.62 2.98,-4.58 2.98,-4.53 2.99,-4.49 2.98,-4.43 2.98,-4.39 2.98,-4.34 2.98,-4.3 2.99,-4.24 2.98,-4.2 2.98,-4.16 2.99,-4.09 2.98,-4.05 2.98,-4 2.98,-3.95 2.98,-3.89 2.99,-3.84 2.97,-3.79 2.99,-3.75 2.98,-3.68 2.98,-3.63 2.99,-3.59 2.98,-3.52 2.99,-3.47 2.97,-3.42 2.98,-3.36 2.99,-3.3 2.98,-3.25 2.98,-3.2 2.98,-3.14 2.99,-3.08 2.98,-3.02 2.98,-2.97 2.99,-2.9 2.98,-2.86 2.98,-2.79 2.98,-2.74 2.99,-2.67 2.98,-2.62 2.97,-2.56 2.99,-2.5 2.98,-2.43 2.99,-2.38 2.97,-2.32 2.99,-2.26 2.99,-2.2 2.98,-2.14 2.98,-2.06 2.98,-2.02 2.98,-1.95 2.98,-1.89 2.98,-1.83 2.99,-1.76 2.99,-1.71 2.97,-1.64 2.98,-1.58 2.99,-1.52 2.99,-1.45 2.97,-1.39 2.99,-1.32 2.98,-1.27 2.98,-1.2 2.98,-1.14 2.98,-1.07 2.99,-1.01 2.97,-0.94 2.99,-0.89 2.98,-0.8 2.99,-0.77 2.98,-0.68 2.98,-0.62 2.99,-0.56 2.98,-0.5 2.97,-0.42 2.99,-0.38 2.98,-0.29 2.99,-0.24 2.97,-0.17 2.99,-0.1 2.98,-0.05 2.98,0.02 2.99,0.08 2.98,0.16 2.98,0.21 2.98,0.29 2.99,0.34 2.98,0.41 2.98,0.48 2.98,0.54 2.98,0.6 2.99,0.67 2.98,0.73 2.98,0.8 2.99,0.86 2.98,0.93 2.98,0.98 2.98,1.05 2.98,1.13 2.98,1.17 2.98,1.24 2.99,1.32 2.98,1.37 2.98,1.43 2.98,1.49 2.99,1.56 2.98,1.63 2.98,1.68 2.99,1.75 2.98,1.81 2.98,1.87 2.98,1.93 2.98,2 2.98,2.05 2.99,2.13 2.98,2.17 2.99,2.24 2.97,2.3 2.99,2.36 2.98,2.42 2.99,2.48 2.97,2.54 2.98,2.61 2.99,2.65 2.98,2.72 2.98,2.77 2.98,2.84 2.99,2.89 2.98,2.95 2.98,3.01 2.99,3.06 2.98,3.12 2.98,3.18 2.98,3.24 2.99,3.29 2.98,3.34 2.97,3.4 2.99,3.45 2.98,3.52 2.99,3.57 2.98,3.61 2.98,3.68 2.99,3.72 2.97,3.78 2.99,3.83 2.98,3.88 2.99,3.93 2.97,3.98 2.99,4.04 2.98,4.08 2.99,4.14 2.97,4.19 2.99,4.23 2.98,4.29 2.99,4.33 2.97,4.37 2.99,4.44 2.98,4.47 2.98,4.51 2.98,4.57 2.98,4.61 2.99,4.66 2.97,4.7 2.99,4.75 2.99,4.78 2.98,4.84 2.98,4.88 2.98,4.91 2.99,4.96 2.98,5 2.97,5.05 2.99,5.08 2.98,5.12 2.99,5.16 2.97,5.2 2.99,5.24 2.99,5.27 2.97,5.31 2.98,5.36 2.99,5.39 2.98,5.41 2.98,5.46 2.98,5.5 2.99,5.52 2.98,5.56 2.98,5.59 2.98,5.62 2.99,5.66 2.98,5.68 2.98,5.72 2.98,5.75 2.99,5.77 2.98,5.81 2.98,5.83 2.99,5.86 2.98,5.89 2.98,5.91 2.98,5.94 2.98,5.97 2.99,6 2.98,6 2.98,6.05 2.98,6.06 2.98,6.08 2.99,6.11 2.98,6.13 2.98,6.14 2.98,6.16 2.98,6.2 2.99,6.19 2.98,6.23 2.98,6.24 2.99,6.26 2.98,6.27 2.98,6.29 2.98,6.31 2.99,6.31 2.97,6.34 2.99,6.34 2.98,6.36 2.98,6.36 2.98,6.39 2.98,6.39 2.99,6.4 2.98,6.41 2.98,6.41 2.99,6.43 2.98,6.43 2.98,6.44 2.98,6.45 2.98,6.45 2.99,6.46 2.98,6.45 2.98,6.47 2.98,6.46 2.99,6.47 2.98,6.47 2.98,6.47 2.98,6.47 2.98,6.47 2.98,6.46 2.99,6.48 2.99,6.46 2.97,6.46 2.99,6.46 2.98,6.45 2.98,6.45 2.98,6.44 2.99,6.44 2.98,6.43 2.99,6.42 2.97,6.41 2.98,6.41 2.99,6.39 2.98,6.39 2.98,6.37 2.98,6.36 2.99,6.35 2.98,6.34 2.98,6.32 2.99,6.32 2.98,6.3 2.97,6.27 2.99,6.27 2.99,6.25 2.98,6.22 2.97,6.22 2.99,6.2 2.99,6.18 2.97,6.15 2.98,6.14 2.99,6.12 2.98,6.09 2.98,6.07 2.99,6.05 2.98,6.02 2.98,6 2.98,5.98 2.99,5.95 2.98,5.93 2.98,5.9 2.98,5.88 2.98,5.85 2.99,5.81 2.98,5.79 2.98,5.76 2.98,5.74 2.99,5.7 2.98,5.67 2.98,5.63 2.98,5.61 2.99,5.57 2.98,5.55 2.98,5.5 2.98,5.48 2.99,5.44 2.98,5.39 2.98,5.38 2.99,5.33 2.98,5.28 2.97,5.27 2.99,5.21 2.98,5.19 2.98,5.13 2.98,5.1 2.99,5.07 2.98,5.01 2.98,4.98 2.99,4.94 2.98,4.9 2.98,4.85 2.98,4.81 2.99,4.77 2.98,4.72 2.98,4.68 2.98,4.63 2.98,4.59 2.99,4.54 2.97,4.49 2.99,4.45 2.98,4.41 2.99,4.35 2.98,4.31 2.98,4.25 2.98,4.21 2.98,4.16 2.99,4.11 2.98,4.06 2.98,4.01 2.98,3.95 2.98,3.91 2.99,3.86 2.98,3.8 2.98,3.75 2.98,3.7 2.99,3.64 2.98,3.59 2.98,3.54 2.98,3.48 2.98,3.42 2.99,3.38 2.98,3.32 2.98,3.25 2.98,3.21 2.99,3.15 2.98,3.09 2.98,3.03 2.98,2.98 2.98,2.92 2.99,2.86 2.98,2.81 2.98,2.74 2.98,2.69 2.99,2.62 2.98,2.57 2.98,2.51 2.99,2.45 2.98,2.39 2.97,2.33 2.99,2.27 2.99,2.2 2.98,2.15 2.97,2.09 2.99,2.02 2.99,1.96 2.97,1.9 2.99,1.84 2.98,1.78 2.98,1.71 2.98,1.66 2.99,1.58 2.98,1.53 2.98,1.46 2.98,1.41 2.99,1.33 2.98,1.27 2.98,1.22 2.98,1.14 2.98,1.08 2.99,1.02 2.98,0.96 2.98,0.89 2.98,0.82 2.99,0.77 2.98,0.7 2.98,0.64 2.98,0.56 2.99,0.51 2.97,0.44 2.99,0.37 2.99,0.31 2.98,0.25 2.98,0.19 2.98,0.12 2.99,0.04 2.97,0 2.98,-0.08 2.99,-0.15 2.99,-0.2 2.97,-0.27 2.98,-0.34 2.99,-0.4 2.99,-0.46 2.97,-0.53 2.99,-0.59 2.98,-0.66 2.98,-0.72 2.98,-0.79 2.99,-0.85 2.98,-0.92 2.98,-0.97 2.98,-1.04 2.99,-1.11 2.98,-1.17 2.98,-1.24 2.98,-1.3 2.98,-1.35 2.99,-1.43 2.98,-1.48 2.98,-1.56 2.98,-1.6 2.99,-1.68 2.98,-1.74 2.98,-1.8 2.98,-1.86 2.98,-1.92 2.98,-1.98 2.99,-2.05 2.98,-2.12 2.98,-2.16 2.98,-2.23 2.99,-2.29 2.98,-2.35 2.98,-2.41 2.98,-2.47 2.99,-2.53 2.98,-2.59 2.98,-2.66 2.99,-2.7 2.98,-2.77 2.98,-2.82 2.98,-2.88 2.98,-2.94 2.98,-3 2.98,-3.06 2.99,-3.12 2.98,-3.16 2.98,-3.22 2.98,-3.28 2.99,-3.35 2.98,-3.39 2.98,-3.44 2.99,-3.5 2.98,-3.56 2.98,-3.61 2.98,-3.67 2.99,-3.71 2.97,-3.77 2.99,-3.83 2.98,-3.87 2.99,-3.92 2.97,-3.97 2.99,-4.04 2.98,-4.07 2.98,-4.13 2.98,-4.18 2.99,-4.22 2.98,-4.27 2.98,-4.33 2.98,-4.38 2.99,-4.42 2.98,-4.46 2.98,-4.51 2.98,-4.56 2.98,-4.6 2.99,-4.65 2.98,-4.7 2.98,-4.74 2.98,-4.78 2.99,-4.82 2.98,-4.88 2.98,-4.91 2.98,-4.95 2.99,-4.99 2.97,-5.04 2.99,-5.07 2.99,-5.12 2.97,-5.16 2.98,-5.19 2.99,-5.23 2.98,-5.27 2.98,-5.31 2.99,-5.34 2.98,-5.38 2.99,-5.41 2.97,-5.46 2.98,-5.48 2.99,-5.52 2.99,-5.56 2.97,-5.58 2.99,-5.62 2.98,-5.65 2.98,-5.68 2.98,-5.72 2.99,-5.73 2.98,-5.78 2.97,-5.8 2.99,-5.83 2.99,-5.86 2.98,-5.87 2.98,-5.92 2.98,-5.94 2.98,-5.96 2.99,-5.99 2.98,-6 2.98,-6.05 2.98,-6.05 2.99,-6.08 2.98,-6.1 2.98,-6.12 2.98,-6.15 2.98,-6.16 2.98,-6.18 2.99,-6.21 2.99,-6.22 2.97,-6.23 2.98,-6.26 2.99,-6.27 2.98,-6.29 2.98,-6.3 2.98,-6.31 2.99,-6.33 2.98,-6.35 2.98,-6.35 2.99,-6.37 2.98,-6.38 2.97,-6.38 2.99,-6.4 2.99,-6.41 2.98,-6.42 2.97,-6.42 2.99,-6.44 2.98,-6.43 2.99,-6.45 2.97,-6.45 2.99,-6.46 2.98,-6.46 2.99,-6.45 2.97,-6.48 2.99,-6.46 2.98,-6.47 2.98,-6.46 2.98,-6.48 2.99,-6.47 2.98,-6.46 2.98,-6.47 2.98,-6.46 2.99,-6.47 2.98,-6.46 2.98,-6.45 2.98,-6.45 2.99,-6.45 2.98,-6.43 2.98,-6.43 2.98,-6.42 2.98,-6.42 2.99,-6.41 2.98,-6.4 2.98,-6.37 2.98,-6.39 2.98,-6.36 2.99,-6.36 2.98,-6.33 2.98,-6.33 2.98,-6.31 2.99,-6.3 2.98,-6.28 2.98,-6.27 2.98,-6.25 2.99,-6.23 2.98,-6.22 2.98,-6.2 2.99,-6.18 2.97,-6.15 2.99,-6.14 2.98,-6.13 2.99,-6.09 2.97,-6.08 2.99,-6.06 2.98,-6.02 2.98,-6.01 2.98,-5.98 2.98,-5.96 2.99,-5.93 2.98,-5.9 2.98,-5.88 2.99,-5.85 2.98,-5.83 2.97,-5.79 2.99,-5.77 2.99,-5.73 2.98,-5.71 2.97,-5.68 2.99,-5.64 2.99,-5.61 2.98,-5.58 2.97,-5.55 2.99,-5.51 2.98,-5.48 2.99,-5.44 2.97,-5.41 2.99,-5.37 2.98,-5.34 2.98,-5.3 2.98,-5.26 2.99,-5.23 2.99,-5.18 2.97,-5.15 2.99,-5.11 2.98,-5.06 2.99,-5.03 2.97,-4.99 2.99,-4.94 2.98,-4.9 2.99,-4.86 2.97,-4.82 2.99,-4.77 2.98,-4.73 2.98,-4.69 2.98,-4.64 2.99,-4.59 2.98,-4.55 2.97,-4.5 2.99,-4.46 2.99,-4.41 2.98,-4.36 2.97,-4.31 2.99,-4.27 2.99,-4.21 2.98,-4.17 2.98,-4.12 2.98,-4.07 2.99,-4.01 2.98,-3.97 2.97,-3.92 2.99,-3.85 2.98,-3.82 2.98,-3.76 2.98,-3.7 2.99,-3.65 2.98,-3.6 2.98,-3.54 2.98,-3.5 2.99,-3.43 2.98,-3.38 2.98,-3.33 2.98,-3.27 2.99,-3.21 2.98,-3.16 2.98,-3.1 2.98,-3.04 2.99,-2.99 2.98,-2.92 2.98,-2.88 2.98,-2.81 2.99,-2.76 2.97,-2.69 2.99,-2.64 2.98,-2.57 2.98,-2.52 2.98,-2.46 2.99,-2.4 2.98,-2.34 2.98,-2.27 2.98,-2.22 2.99,-2.16 2.98,-2.1 2.98,-2.03 2.99,-1.98 2.98,-1.91 2.98,-1.84 2.98,-1.78 2.99,-1.73 2.97,-1.66 2.99,-1.6 2.98,-1.54 2.98,-1.47 2.98,-1.41 2.99,-1.35 2.98,-1.28 2.98,-1.23 2.98,-1.15 2.99,-1.09 2.98,-1.03 2.98,-0.97 2.98,-0.9 2.99,-0.84 2.98,-0.77 2.98,-0.71 2.98,-0.64 2.99,-0.58 2.98,-0.52 2.98,-0.45 2.98,-0.39 2.98,-0.32 2.99,-0.26 2.97,-0.18 2.99,-0.13 2.98,-0.07 2.98,0 2.98,0.07 2.99,0.13 2.99,0.2 2.97,0.26 2.98,0.32 2.99,0.39 2.99,0.45 2.97,0.53 2.99,0.57 2.98,0.65 2.99,0.72 2.97,0.77 2.99,0.84 2.98,0.9 2.97,0.97 2.99,1.03 2.99,1.1 2.98,1.16 2.97,1.23 2.99,1.28 2.99,1.36 2.98,1.41 2.97,1.48 2.99,1.53 2.99,1.6 2.98,1.67 2.98,1.73 2.98,1.79 2.99,1.84 2.97,1.92 2.98,1.98 2.99,2.03 2.99,2.1 2.97,2.16 2.98,2.22 2.99,2.28 2.98,2.35 2.98,2.4 2.98,2.46 2.99,2.52 2.99,2.58 2.97,2.64 2.98,2.7 2.99,2.75 2.98,2.82 2.98,2.88 2.98,2.92 2.99,3 2.98,3.04 2.98,3.1 2.98,3.16 2.99,3.22 2.97,3.27 2.99,3.33 2.98,3.39 2.99,3.44 2.97,3.49 2.99,3.54 2.98,3.61 2.99,3.65 2.97,3.71 2.99,3.75 2.98,3.82 2.98,3.86 2.99,3.92 2.98,3.97 2.98,4.02 2.98,4.07 2.99,4.12 2.98,4.17 2.98,4.21 2.98,4.27 2.98,4.32 2.99,4.37 2.98,4.41 2.98,4.46 2.98,4.5 2.99,4.55 2.98,4.6 2.98,4.64 2.98,4.69 2.98,4.73 2.99,4.78 2.98,4.81 2.98,4.87 2.98,4.9 2.99,4.94 2.98,5 2.98,5.02 2.98,5.07 2.98,5.11 2.99,5.15 2.98,5.19 2.98,5.22 2.98,5.27 2.98,5.3 2.99,5.34 2.98,5.37 2.99,5.42 2.97,5.44 2.98,5.48 2.99,5.52 2.99,5.54 2.97,5.58 2.98,5.62 2.99,5.64 2.98,5.68 2.98,5.7 2.99,5.74 2.98,5.77 2.98,5.79 2.98,5.83 2.99,5.85 2.98,5.88 2.97,5.91 2.99,5.93 2.99,5.96 2.98,5.99 2.97,6 2.99,6.03 2.99,6.06 2.98,6.07 2.98,6.1 2.98,6.12 2.99,6.14 2.97,6.16 2.99,6.18 2.98,6.2 2.99,6.22 2.97,6.23 2.98,6.25 2.99,6.27 2.98,6.29 2.98,6.3 2.98,6.31 2.99,6.33 2.98,6.34 2.98,6.35 2.98,6.36 2.99,6.38 2.98,6.39 2.98,6.39 2.98,6.42 2.99,6.41 2.98,6.42 2.98,6.43 2.98,6.44 2.99,6.44 2.97,6.45 2.99,6.45 2.98,6.46 2.99,6.46 2.97,6.47 2.99,6.46 2.98,6.48 2.98,6.47 2.99,6.46 2.98,6.48 2.99,6.47 2.97,6.46 2.99,6.47 2.98,6.46 2.99,6.46 2.97,6.46 2.99,6.45 2.98,6.44 2.98,6.44 2.98,6.43 2.98,6.43 2.99,6.41 2.98,6.41 2.98,6.39 2.98,6.4 2.99,6.37 2.98,6.36 2.98,6.36 2.98,6.34 2.99,6.33 2.97,6.32 2.99,6.3 2.98,6.29 2.99,6.27 2.98,6.25 2.98,6.24 2.98,6.21 2.98,6.21 2.98,6.17 2.99,6.17 2.98,6.14 2.98,6.13 2.99,6.1 2.98,6.08 2.98,6.05 2.98,6.03 2.99,6.01 2.98,5.99 2.98,5.97 2.98,5.93 2.98,5.9 2.98,5.89 2.98,5.85 2.99,5.83 2.98,5.8 2.98,5.77 2.99,5.74 2.98,5.72 2.98,5.67 2.98,5.65 2.99,5.62 2.98,5.58 2.98,5.55 2.98,5.52 2.99,5.48 2.98,5.45 2.98,5.42 2.98,5.38 2.98,5.34 2.98,5.31 2.99,5.26 2.98,5.24 2.99,5.19 2.97,5.15 2.99,5.11 2.98,5.08 2.98,5.03 2.98,5 2.98,4.94 2.99,4.92 2.99,4.86 2.97,4.82 2.99,4.79 2.98,4.73 2.98,4.69 2.98,4.65 2.98,4.61 2.99,4.55 2.97,4.51 2.99,4.46 2.98,4.42 2.99,4.37 2.98,4.32 2.98,4.27 2.99,4.22 2.98,4.18 2.97,4.13 2.99,4.07 2.98,4.03 2.98,3.97 2.99,3.92 2.98,3.88 2.99,3.82 2.97,3.76 2.99,3.72 2.98,3.66 2.98,3.6 2.98,3.56 2.98,3.49 2.99,3.45 2.99,3.39 2.97,3.33 2.99,3.28 2.98,3.23 2.98,3.16 2.98,3.11 2.98,3.05 2.99,3 2.98,2.94 2.98,2.88 2.99,2.82 2.98,2.77 2.98,2.7 2.98,2.65 2.98,2.58 2.99,2.53 2.97,2.47 2.99,2.41 2.98,2.34 2.99,2.29 2.98,2.23 2.98,2.16 2.99,2.11 2.97,2.05 2.98,1.97 2.99,1.92 2.98,1.86 2.98,1.8 2.99,1.73 2.98,1.67 2.98,1.61 2.98,1.55 2.99,1.48 2.98,1.42 2.98,1.36 2.98,1.3 2.98,1.23 2.99,1.17 2.97,1.09 2.99,1.05 2.98,0.97 2.99,0.92 2.98,0.84 2.98,0.79 2.98,0.71 2.99,0.66 2.97,0.59 2.99,0.52 2.98,0.47 2.98,0.39 2.99,0.33 2.98,0.28 2.98,0.19 2.98,0.14 2.98,0.08 2.99,0 2.98,-0.05 2.98,-0.12 2.99,-0.19 2.98,-0.25 2.98,-0.31 2.98,-0.38 2.98,-0.45 2.98,-0.51 2.99,-0.57 2.98,-0.63 2.99,-0.71 2.97,-0.76 2.99,-0.83 2.98,-0.89 2.98,-0.96 2.98,-1.03 2.98,-1.08 2.99,-1.16 2.98,-1.21 2.98,-1.27 2.98,-1.34 2.99,-1.4 2.98,-1.48 2.98,-1.53 2.99,-1.59 2.98,-1.65 2.97,-1.72 2.99,-1.78 2.98,-1.84 2.98,-1.9 2.99,-1.97 2.98,-2.03 2.99,-2.08 2.97,-2.16 2.99,-2.2 2.98,-2.28 2.98,-2.33 2.98,-2.38 2.98,-2.46 2.99,-2.51 2.98,-2.57 2.98,-2.63 2.99,-2.69 2.98,-2.75 2.98,-2.8 2.98,-2.87 2.98,-2.93 2.99,-2.97 2.98,-3.04 2.98,-3.1 2.99,-3.15 2.98,-3.2 2.98,-3.27 2.98,-3.32 2.98,-3.37 2.99,-3.43 2.97,-3.48 2.99,-3.54 2.98,-3.6 2.99,-3.64 2.98,-3.7 2.98,-3.75 2.99,-3.8 2.97,-3.86 2.98,-3.91 2.99,-3.96 2.98,-4.02 2.98,-4.06 2.99,-4.11 2.98,-4.16 2.99,-4.21 2.97,-4.26 2.99,-4.31 2.98,-4.36 2.98,-4.4 2.98,-4.45 2.98,-4.5 2.99,-4.55 2.97,-4.58 2.99,-4.64 2.99,-4.68 2.98,-4.73 2.98,-4.76 2.98,-4.81 2.98,-4.86 2.99,-4.9 2.97,-4.94 2.99,-4.98 2.99,-5.02 2.98,-5.07 2.97,-5.1 2.99,-5.13 2.98,-5.19 2.98,-5.22 2.99,-5.26 2.98,-5.29 2.98,-5.34 2.98,-5.37 2.99,-5.4 2.98,-5.44 2.98,-5.47 2.98,-5.51 2.98,-5.55 2.99,-5.57 2.98,-5.61 2.98,-5.64 2.99,-5.67 2.98,-5.7 2.98,-5.73 2.98,-5.77 2.98,-5.79 2.98,-5.82 2.98,-5.85 2.99,-5.87 2.98,-5.91 2.98,-5.93 2.98,-5.94 2.99,-5.99 2.98,-6 2.98,-6.03 2.99,-6.05 2.98,-6.07 2.98,-6.1 2.98,-6.12 2.98,-6.13 2.98,-6.16 2.99,-6.18 2.98,-6.19 2.99,-6.21 2.97,-6.24 2.99,-6.25 2.98,-6.26 2.98,-6.29 2.98,-6.29 2.98,-6.31 2.99,-6.33 2.98,-6.33 2.98,-6.35 2.99,-6.37 2.98,-6.38 2.98,-6.38 2.98,-6.39 2.98,-6.41 2.99,-6.42 2.98,-6.42 2.98,-6.43 2.99,-6.43 2.98,-6.45 2.98,-6.45 2.98,-6.45 2.98,-6.45 2.99,-6.47 2.97,-6.46 2.99,-6.47 2.98,-6.47 2.98,-6.47 2.99,-6.47 2.98,-6.47 2.99,-6.47 2.97,-6.46 2.98,-6.47 2.99,-6.46 2.98,-6.46 2.98,-6.46 2.99,-6.45 2.98,-6.44 2.99,-6.44 2.97,-6.43 2.99,-6.43 2.98,-6.42 2.97,-6.41 2.99,-6.4 2.98,-6.38 2.99,-6.39 2.97,-6.36 2.99,-6.36 2.99,-6.35 2.98,-6.32 2.98,-6.32 2.98,-6.3 2.98,-6.29 2.99,-6.28 2.97,-6.25 2.99,-6.24 2.99,-6.22 2.98,-6.21 2.98,-6.18 2.98,-6.17 2.99,-6.15 2.97,-6.12 2.98,-6.1 2.99,-6.09 2.98,-6.06 2.98,-6.03 2.99,-6.02 2.98,-5.99 2.98,-5.96 2.98,-5.95 2.98,-5.91 2.99,-5.89 2.98,-5.85 2.98,-5.84 2.99,-5.8 2.98,-5.77 2.98,-5.75 2.98,-5.71 2.99,-5.69 2.98,-5.66 2.97,-5.61 2.99,-5.6 2.98,-5.55 2.99,-5.53 2.97,-5.48 2.99,-5.46 2.98,-5.42 2.99,-5.38 2.98,-5.35 2.98,-5.32 2.98,-5.27 2.98,-5.24 2.98,-5.19 2.99,-5.16 2.98,-5.12 2.98,-5.08 2.99,-5.04 2.98,-5 2.98,-4.96 2.98,-4.91 2.98,-4.87 2.99,-4.84 2.98,-4.78 2.98,-4.75 2.98,-4.69 2.98,-4.67 2.99,-4.6 2.98,-4.56 2.98,-4.52 2.98,-4.47 2.98,-4.43 2.99,-4.37 2.98,-4.33 2.98,-4.28 2.99,-4.24 2.98,-4.18 2.98,-4.13 2.98,-4.09 2.98,-4.03 2.98,-3.98 2.99,-3.93 2.98,-3.88 2.98,-3.83 2.98,-3.78 2.99,-3.72 2.98,-3.67 2.99,-3.61 2.97,-3.56 2.98,-3.51 2.99,-3.45 2.98,-3.4 2.98,-3.34 2.99,-3.29 2.98,-3.23 2.98,-3.18 2.98,-3.11 2.99,-3.07 2.98,-3 2.97,-2.95 2.99,-2.89 2.98,-2.84 2.99,-2.77 2.97,-2.71 2.99,-2.65 2.99,-2.6 2.98,-2.54 2.98,-2.47 2.98,-2.42 2.98,-2.36 2.99,-2.3 2.97,-2.24 2.99,-2.17 2.99,-2.12 2.97,-2.05 2.99,-1.99 2.98,-1.93 2.99,-1.87 2.97,-1.81 2.98,-1.74 2.99,-1.68 2.98,-1.62 2.98,-1.56 2.98,-1.49 2.99,-1.43 2.99,-1.37 2.97,-1.3 2.98,-1.24 2.99,-1.18 2.97,-1.11 2.99,-1.05 2.99,-0.99 2.98,-0.92 2.98,-0.86 2.98,-0.79 2.99,-0.74 2.98,-0.65 2.97,-0.61 2.99,-0.53 2.98,-0.47 2.99,-0.41 2.97,-0.34 2.99,-0.28 2.99,-0.21 2.97,-0.16 2.99,-0.08 2.98,-0.01 2.98,0.04 2.98,0.11 2.98,0.17 2.99,0.25 2.98,0.3 2.98,0.37 2.99,0.43 2.98,0.5 2.98,0.56 2.98,0.63 2.98,0.69 2.99,0.76 2.97,0.82 2.99,0.89 2.99,0.94 2.98,1.01 2.97,1.08 2.99,1.13 2.98,1.21 2.99,1.26 2.97,1.34 2.99,1.39 2.98,1.46 2.98,1.51 2.98,1.59 2.99,1.64 2.98,1.71 2.98,1.77 2.99,1.83 2.98,1.9 2.98,1.96 2.98,2.01 2.99,2.08 2.98,2.13 2.98,2.21 2.98,2.26 2.99,2.33 2.97,2.37 2.99,2.45 2.98,2.5 2.98,2.56 2.98,2.62 2.99,2.68 2.98,2.74 2.98,2.79 2.98,2.86 2.99,2.91 2.98,2.97 2.98,3.03 2.98,3.09 2.98,3.14 2.99,3.2 2.98,3.25 2.98,3.32 2.99,3.36 2.98,3.42 2.98,3.48 2.98,3.53 2.98,3.58 2.98,3.64 2.98,3.69 2.99,3.74 2.99,3.8 2.97,3.85 2.99,3.9 2.98,3.95 2.98,4 2.98,4.06 2.98,4.11 2.99,4.15 2.98,4.2 2.98,4.25 2.99,4.3 2.98,4.35 2.98,4.4 2.98,4.44 2.99,4.5 2.98,4.53 2.97,4.58 2.99,4.63 2.99,4.67 2.98,4.72 2.98,4.76 2.98,4.81 2.98,4.85 2.99,4.89 2.97,4.93 2.99,4.97 2.98,5.02 2.98,5.05 2.99,5.1 2.98,5.13 2.98,5.18 2.98,5.21 2.99,5.26 2.98,5.29 2.98,5.33 2.98,5.36 2.99,5.4 2.98,5.43 2.98,5.47 2.98,5.51 2.99,5.53 2.98,5.57 2.98,5.6 2.98,5.64 2.99,5.67 2.98,5.69 2.97,5.73 2.99,5.76 2.98,5.78 2.99,5.82 2.98,5.84 2.98,5.87 2.99,5.91 2.98,5.92 2.97,5.94 2.99,5.99 2.98,6 2.98,6.01 2.99,6.05 2.98,6.07 2.98,6.1 2.98,6.11 2.98,6.14 2.99,6.15 2.98,6.17 2.98,6.2 2.98,6.2 2.99,6.23 2.98,6.25 2.98,6.27 2.99,6.27 2.98,6.3 2.98,6.31 2.98,6.32 2.98,6.33 2.99,6.36 2.98,6.36 2.98,6.37 2.98,6.39 2.99,6.38 2.97,6.41 2.99,6.41 2.98,6.43 2.98,6.42 2.98,6.44 2.99,6.44 2.98,6.45 2.98,6.45 2.98,6.46 2.99,6.46 2.98,6.46 2.98,6.47 2.98,6.46 2.99,6.48 2.98,6.46 2.98,6.47 2.98,6.48 2.98,6.46 2.99,6.47 2.98,6.46 2.99,6.47 2.97,6.45 2.99,6.45 2.98,6.45 2.98,6.44 2.98,6.43 2.98,6.43 2.99,6.42 2.98,6.4 2.98,6.41 2.99,6.39 2.98,6.38 2.98,6.37 2.98,6.36 2.98,6.34 2.99,6.34 2.98,6.32 2.98,6.31 2.99,6.29 2.98,6.27 2.98,6.25 2.98,6.25 2.98,6.22 2.98,6.21 2.98,6.19 2.99,6.17 2.99,6.15 2.97,6.13 2.99,6.11 2.98,6.08 2.98,6.06 2.98,6.05 2.98,6.01 2.99,6 2.99,5.96 2.97,5.95 2.99,5.91 2.98,5.9 2.98,5.87 2.98,5.83 2.98,5.81 2.99,5.78 2.97,5.75 2.99,5.72 2.99,5.69 2.98,5.65 2.97,5.63 2.99,5.6 2.99,5.56 2.98,5.53 2.97,5.49 2.99,5.46 2.99,5.43 2.97,5.39 2.98,5.35 2.99,5.32 2.99,5.28 2.97,5.24 2.99,5.21 2.98,5.17 2.99,5.12 2.97,5.08 2.98,5.05 2.99,5 2.98,4.97 2.98,4.92 2.99,4.89 2.98,4.83 2.98,4.8 2.98,4.74 2.99,4.71 2.98,4.67 2.97,4.61 2.99,4.57 2.99,4.53 2.98,4.48 2.98,4.43 2.98,4.38 2.99,4.34 2.98,4.29 2.97,4.24 2.99,4.19 2.98,4.14 2.99,4.09 2.98,4.04 2.98,3.99 2.98,3.94 2.98,3.89 2.98,3.83 2.99,3.78 2.98,3.74 2.98,3.68 2.99,3.62 2.98,3.57 2.98,3.51 2.98,3.47 2.98,3.4 2.99,3.36 2.98,3.3 2.98,3.23 2.98,3.19 2.98,3.12 2.99,3.07 2.98,3.02 2.98,2.96 2.98,2.89 2.99,2.85 2.98,2.78 2.98,2.72 2.98,2.66 2.99,2.61 2.98,2.55 2.98,2.48 2.98,2.44 2.98,2.36 2.99,2.31 2.98,2.25 2.98,2.18 2.99,2.12 2.97,2.07 2.99,2 2.98,1.94 2.98,1.87 2.98,1.82 2.99,1.76 2.98,1.69 2.98,1.63 2.98,1.56 2.99,1.51 2.98,1.44 2.98,1.38 2.98,1.31 2.99,1.25 2.98,1.19 2.98,1.12 2.98,1.06 2.99,0.99 2.98,0.94 2.97,0.87 2.99,0.8 2.98,0.74 2.99,0.67 2.98,0.62 2.98,0.54 2.99,0.49 2.98,0.41 2.97,0.35 2.99,0.29 2.98,0.23 2.98,0.16 2.99,0.09 2.98,0.03 2.99,-0.04 2.97,-0.1 2.98,-0.16 2.99,-0.23 2.98,-0.3 2.98,-0.35 2.98,-0.43 2.99,-0.48 2.99,-0.56 2.97,-0.62 2.98,-0.67 2.99,-0.75 2.98,-0.81 2.98,-0.87 2.98,-0.95 2.99,-1 2.98,-1.06 2.98,-1.13 2.99,-1.19 2.98,-1.26 2.97,-1.32 2.99,-1.38 2.98,-1.45 2.99,-1.51 2.97,-1.57 2.99,-1.64 2.99,-1.7 2.98,-1.75 2.97,-1.82 2.99,-1.89 2.99,-1.95 2.97,-2 2.98,-2.07 2.99,-2.13 2.98,-2.2 2.98,-2.25 2.98,-2.31 2.99,-2.37 2.98,-2.43 2.98,-2.5 2.99,-2.55 2.98,-2.61 2.98,-2.67 2.98,-2.73 2.98,-2.78 2.99,-2.85 2.97,-2.91 2.99,-2.96 2.98,-3.02 2.99,-3.07 2.98,-3.14 2.98,-3.18 2.98,-3.25 2.99,-3.3 2.97,-3.36 2.99,-3.41 2.98,-3.47 2.98,-3.52 2.99,-3.57 2.98,-3.64 2.98,-3.68 2.98,-3.73 2.98,-3.79 2.99,-3.84 2.98,-3.89 2.98,-3.95 2.99,-3.99 2.98,-4.05 2.98,-4.1 2.98,-4.14 2.98,-4.19 2.98,-4.25 2.99,-4.3 2.98,-4.33 2.98,-4.39 2.98,-4.44 2.99,-4.48 2.98,-4.53 2.98,-4.58 2.98,-4.61 2.98,-4.67 2.99,-4.72 2.98,-4.75 2.98,-4.8 2.99,-4.84 2.98,-4.88 2.98,-4.92 2.98,-4.98 2.99,-5.01 2.97,-5.05"
             style="fill:none;stroke:#ff0000;stroke-width:5.00206995;stroke-linecap:butt;stroke-linejoin:bevel;stroke-miterlimit:10;stroke-opacity:1;stroke-dasharray:60.6312, 22.7367, 15.1578, 22.7367;stroke-dashoffset:0"
             id="path3123" />
        </g>
      </g>
    </g>
  </g>
</svg>
