<?xml version="1.0" encoding="UTF-8" standalone="no"?>
<!-- Created with Inkscape (http://www.inkscape.org/) -->

<svg
   xmlns:dc="http://purl.org/dc/elements/1.1/"
   xmlns:cc="http://creativecommons.org/ns#"
   xmlns:rdf="http://www.w3.org/1999/02/22-rdf-syntax-ns#"
   xmlns:svg="http://www.w3.org/2000/svg"
   xmlns="http://www.w3.org/2000/svg"
   xmlns:sodipodi="http://sodipodi.sourceforge.net/DTD/sodipodi-0.dtd"
   xmlns:inkscape="http://www.inkscape.org/namespaces/inkscape"
   id="svg2"
   version="1.1"
   inkscape:version="0.48.4 r9939"
   width="616.25"
   height="240"
   xml:space="preserve"
   sodipodi:docname="kalman.eps"><metadata
     id="metadata8"><rdf:RDF><cc:Work
         rdf:about=""><dc:format>image/svg+xml</dc:format><dc:type
           rdf:resource="http://purl.org/dc/dcmitype/StillImage" /><dc:title></dc:title></cc:Work></rdf:RDF></metadata><defs
     id="defs6" /><sodipodi:namedview
     pagecolor="#ffffff"
     bordercolor="#666666"
     borderopacity="1"
     objecttolerance="10"
     gridtolerance="10"
     guidetolerance="10"
     inkscape:pageopacity="0"
     inkscape:pageshadow="2"
     inkscape:window-width="640"
     inkscape:window-height="480"
     id="namedview4"
     showgrid="false"
     inkscape:zoom="0.56957404"
     inkscape:cx="308.125"
     inkscape:cy="120"
     inkscape:window-x="47"
     inkscape:window-y="157"
     inkscape:window-maximized="0"
     inkscape:current-layer="g12" /><g
     id="g10"
     inkscape:groupmode="layer"
     inkscape:label="ink_ext_XXXXXX"
     transform="matrix(1.25,0,0,-1.25,0,240)"><g
       id="g12"
       transform="scale(0.1,0.1)"><path
         d="m 931.988,1103.55 1354.96,0 0,468.359 -1354.96,0 0,-468.359 z"
         style="fill:none;stroke:#0000ff;stroke-opacity:1;stroke-width:7.30703;stroke-linecap:butt;stroke-linejoin:miter;stroke-miterlimit:4;stroke-dasharray:none"
         id="path14" /><path
         d="m 2284.18,13.8594 1748.87,0 0,573.359 -1748.87,0 0,-573.359 z"
         style="fill:#ffffff;fill-opacity:1;fill-rule:nonzero;stroke:none"
         id="path16" /><path
         d="m 2284.18,13.8555 1748.87,0 0,573.359 -1748.87,0 0,-573.359 z"
         style="fill:none;stroke:#ff0000;stroke-opacity:1;stroke-width:7.69588;stroke-linecap:butt;stroke-linejoin:miter;stroke-miterlimit:4;stroke-dasharray:none"
         id="path18" /><g
         id="g3177"
         transform="translate(48,0)"><path
           id="path20"
           style="fill:#000000;fill-opacity:1;fill-rule:nonzero;stroke:none"
           d="m 2489.49,466.129 -2.22,1.949 c 0,-0.156 -5.32,-6.558 -11.41,-6.558 -3.2,0 -6.68,2.109 -9.06,3.468 -3.64,2.114 -6.14,3.09 -8.48,3.09 -5.31,0 -7.93,-2.93 -15.04,-10.738 l 2.23,-2.07 c 0,0.152 5.27,6.679 11.4,6.679 3.21,0 6.68,-2.07 9.07,-3.48 3.59,-2.231 6.09,-3.199 8.47,-3.199 5.28,0 7.93,3.039 15.04,10.859 z"
           inkscape:connector-curvature="0" /><path
           id="path22"
           style="fill:#000000;fill-opacity:1;fill-rule:nonzero;stroke:none"
           d="m 2477.66,428 0,1.09 -0.16,0.281 0,0.43 -0.12,0.269 -0.15,0.43 -0.12,0.27 -0.16,0.281 -0.11,0.269 -0.16,0.43 -0.27,0.27 -0.16,0.281 -0.27,0.269 -0.12,0.27 -0.31,0.281 -0.28,0.309 -0.27,0.121 -0.27,0.269 -0.28,0.16 -0.27,0.27 -0.27,0.121 -0.28,0.309 -0.43,0.121 -0.27,0.148 -0.43,0.121 -0.27,0 -0.43,0.16 -0.28,0 -0.43,0.11 -0.82,0 c -4.61,0 -7.38,-3.86 -7.38,-7.34 0,-3.629 3.2,-7.27 7.27,-7.27 4.72,0 7.5,3.911 7.5,7.27 z"
           inkscape:connector-curvature="0" /><path
           id="path24"
           style="fill:#000000;fill-opacity:1;fill-rule:nonzero;stroke:none"
           d="m 2473.2,384.559 0,0.429 0.12,0.391 0.16,0.43 0.15,0.55 0.12,0.551 0.16,0.578 0.11,0.551 0.28,0.699 0.15,0.551 0.55,1.41 0.27,0.66 0.28,0.7 0.43,0.711 0.27,0.699 0.86,1.41 0.39,0.543 0.43,0.707 0.55,0.543 0.58,0.707 1.1,1.09 0.54,0.429 0.71,0.43 0.7,0.391 0.27,0.16 0.43,0.269 0.28,0.122 0.43,0.152 0.39,0.156 0.43,0 0.43,0.121 0.27,0.153 0.98,0 0.39,0.117 0.43,0 c 0.7,0 4.02,0 6.95,-1.797 -3.91,-0.703 -6.68,-4.184 -6.68,-7.5 0,-2.223 1.52,-4.883 5.31,-4.883 3.05,0 7.5,2.5 7.5,8.09 0,7.223 -8.2,9.172 -12.93,9.172 -8.08,0 -12.97,-7.379 -14.49,-10.582 -3.48,9.179 -10.98,10.582 -15.04,10.582 -14.34,0 -22.26,-17.961 -22.26,-21.281 0,-1.411 1.4,-1.411 1.68,-1.411 1.09,0 1.52,0.27 1.79,1.52 4.73,14.609 13.79,18.09 18.52,18.09 2.65,0 7.54,-1.25 7.54,-9.297 0,-4.332 -2.39,-13.512 -7.54,-32.852 -2.23,-8.629 -7.11,-14.492 -13.09,-14.492 -0.82,0 -4.02,0 -6.95,1.801 3.47,0.699 6.52,3.633 6.52,7.531 0,3.75 -3.05,4.852 -5.12,4.852 -4.17,0 -7.65,-3.602 -7.65,-8.051 0,-6.41 6.95,-9.063 13.08,-9.063 9.03,0 14.03,9.614 14.46,10.43 1.68,-5.117 6.68,-10.43 14.88,-10.43 14.34,0 22.3,17.813 22.3,21.293 0,1.399 -1.24,1.399 -1.67,1.399 -1.25,0 -1.53,-0.699 -1.8,-1.52 -4.61,-14.879 -14.06,-18.242 -18.52,-18.242 -5.31,0 -7.54,4.453 -7.54,9.184 0,3.078 0.86,6.129 2.39,12.109 l 4.72,18.938 z"
           inkscape:connector-curvature="0" /><path
           id="path26"
           style="fill:#000000;fill-opacity:1;fill-rule:nonzero;stroke:none"
           d="m 2639.8,388.039 1.14,0 0.27,0.121 0.98,0 0.11,0.149 0.43,0 0.16,0.16 0.12,0 0.27,0.121 0.16,0 0.11,0.148 0.16,0.121 0.12,0.161 0.15,0.109 0,0.16 0.16,0 0,0.16 0.12,0.11 0,0.16 0.15,0.121 0,0.699 0.12,0 0,0.27 c 0,2.781 -2.62,2.781 -4.57,2.781 l -82.97,0 c -1.95,0 -4.61,0 -4.61,-2.781 0,-2.77 2.66,-2.77 4.77,-2.77 l 82.65,0 z"
           inkscape:connector-curvature="0" /><path
           id="path28"
           style="fill:#000000;fill-opacity:1;fill-rule:nonzero;stroke:none"
           d="m 2639.96,361.32 2.07,0 0.16,0.121 0.39,0 0.15,0.149 0.16,0 0.27,0.121 0.12,0 0.16,0.16 0.11,0 0.43,0.43 0,0.109 0.16,0.16 0,0.121 0.12,0 0,0.309 0.15,0 0,0.66 0.12,0.16 0,0.27 c 0,2.66 -2.62,2.66 -4.73,2.66 l -82.65,0 c -2.11,0 -4.77,0 -4.77,-2.66 0,-2.77 2.66,-2.77 4.61,-2.77 l 82.97,0 z"
           inkscape:connector-curvature="0" /><path
           id="path30"
           style="fill:#000000;fill-opacity:1;fill-rule:nonzero;stroke:none"
           d="m 2715.82,358.82 -0.59,-0.859 -0.39,-0.82 -0.54,-0.86 -0.59,-0.66 -0.55,-0.711 -0.43,-0.539 -0.54,-0.711 -0.55,-0.539 -0.43,-0.59 -0.55,-0.551 -0.54,-0.429 -0.59,-0.391 -0.39,-0.43 -0.59,-0.429 -0.54,-0.27 -0.55,-0.429 -0.43,-0.274 -1.09,-0.547 -0.59,-0.269 -0.55,-0.16 -0.54,-0.122 -0.43,-0.269 -0.55,-0.16 -0.55,-0.11 -0.54,-0.16 -0.59,0 -0.55,-0.152 -1.13,-0.117 -1.09,-0.16 c -1.68,-0.122 -2.93,-0.122 -2.93,-2.774 0,-0.816 0.7,-1.527 1.8,-1.527 3.63,0 7.96,0.551 11.83,0.551 4.61,0 9.49,-0.551 13.95,-0.551 0.82,0 2.61,0 2.61,2.66 0,1.519 -1.25,1.641 -2.22,1.641 -3.21,0.277 -6.53,1.41 -6.53,4.878 0,1.68 0.82,3.211 1.96,5.161 l 10.58,17.66 34.65,0 -0.43,4.328 -31.72,0 27.27,45.672 4.45,-45.672 0.43,-4.328 c 0.27,-2.891 2.23,-21.68 2.23,-23.09 0,-4.18 -7.23,-4.609 -10.04,-4.609 -1.8,0 -3.2,0 -3.2,-2.774 0,-1.527 1.68,-1.527 1.95,-1.527 5.58,0 11.56,0.551 17.26,0.551 3.48,0 12.11,-0.551 15.59,-0.551 0.86,0 2.5,0 2.5,2.777 0,1.524 -1.37,1.524 -3.2,1.524 -8.48,0 -8.48,0.976 -8.91,5.039 l -8.48,86.41 c -0.27,2.808 -0.27,3.359 -2.65,3.359 -2.23,0 -2.78,-0.98 -3.6,-2.39 l -48.16,-80.7 z"
           inkscape:connector-curvature="0" /><path
           id="path32"
           style="fill:#000000;fill-opacity:1;fill-rule:nonzero;stroke:none"
           d="m 2861.41,433.121 -2.23,2.109 c 0,-0.16 -5.16,-6.679 -11.29,-6.679 -3.2,0 -6.68,2.07 -9.02,3.469 -3.79,2.23 -6.29,3.21 -8.64,3.21 -5.15,0 -7.81,-3.089 -14.92,-10.75 l 2.23,-2.07 c 0,0.16 5.31,6.57 11.44,6.57 3.05,0 6.53,-2.109 8.91,-3.359 3.75,-2.23 6.25,-3.211 8.63,-3.211 5.28,0 7.93,2.93 14.89,10.711 z"
           inkscape:connector-curvature="0" /><path
           id="path34"
           style="fill:#000000;fill-opacity:1;fill-rule:nonzero;stroke:none"
           d="m 2841.21,384.559 0.16,0.429 0.11,0.391 0.16,0.43 0.12,0.55 0.15,0.551 0.16,0.578 0.12,0.551 0.27,0.699 0.16,0.551 0.54,1.41 0.28,0.66 0.54,1.411 1.29,2.109 0.39,0.543 0.43,0.707 0.55,0.543 0.43,0.707 0.55,0.543 0.7,0.547 0.55,0.429 0.7,0.43 0.55,0.391 0.43,0.16 0.43,0.269 0.27,0.122 0.39,0.152 0.43,0.156 0.43,0 0.27,0.121 0.43,0.153 0.98,0 0.39,0.117 0.43,0 c 0.7,0 4.02,0 6.95,-1.797 -3.9,-0.703 -6.68,-4.184 -6.68,-7.5 0,-2.223 1.53,-4.883 5.32,-4.883 3.04,0 7.34,2.5 7.34,8.09 0,7.223 -8.05,9.172 -12.77,9.172 -8.09,0 -12.97,-7.379 -14.65,-10.582 -3.32,9.179 -10.86,10.582 -14.89,10.582 -14.45,0 -22.26,-17.961 -22.26,-21.281 0,-1.411 1.41,-1.411 1.68,-1.411 1.09,0 1.52,0.27 1.8,1.52 4.72,14.609 13.78,18.09 18.51,18.09 2.66,0 7.5,-1.25 7.5,-9.297 0,-4.332 -2.34,-13.512 -7.5,-32.852 -2.23,-8.629 -7.11,-14.492 -13.08,-14.492 -0.98,0 -4.03,0 -6.96,1.801 3.48,0.699 6.53,3.633 6.53,7.531 0,3.75 -3.05,4.852 -5.12,4.852 -4.18,0 -7.66,-3.602 -7.66,-8.051 0,-6.41 6.96,-9.063 12.93,-9.063 9.18,0 14.18,9.614 14.61,10.43 1.68,-5.117 6.68,-10.43 14.88,-10.43 14.34,0 22.27,17.813 22.27,21.293 0,1.399 -1.25,1.399 -1.64,1.399 -1.25,0 -1.52,-0.699 -1.84,-1.52 -4.57,-14.879 -14.02,-18.242 -18.51,-18.242 -5.28,0 -7.5,4.453 -7.5,9.184 0,3.078 0.82,6.129 2.38,12.109 l 4.57,18.938 z"
           inkscape:connector-curvature="0" /><path
           id="path36"
           style="fill:#000000;fill-opacity:1;fill-rule:nonzero;stroke:none"
           d="m 2961.76,374.68 38.55,0 c 1.96,0 4.61,0 4.61,2.769 0,2.781 -2.65,2.781 -4.61,2.781 l -38.55,0 0,38.711 c 0,1.95 0,4.61 -2.78,4.61 -2.77,0 -2.77,-2.66 -2.77,-4.61 l 0,-38.711 -38.87,0 c -1.79,0 -4.45,0 -4.45,-2.781 0,-2.769 2.66,-2.769 4.45,-2.769 l 38.87,0 0,-38.711 c 0,-1.949 0,-4.571 2.77,-4.571 2.78,0 2.78,2.622 2.78,4.571 l 0,38.711 z"
           inkscape:connector-curvature="0" /><path
           id="path38"
           style="fill:#000000;fill-opacity:1;fill-rule:nonzero;stroke:none"
           d="m 3076.88,437.301 0,0.429 -0.16,0 0,0.27 -0.12,0.16 0,0.11 -0.15,0 0,0.16 -0.12,0 0,0.121 -0.16,0 -0.15,0.148 -0.4,0 0,0.16 -0.54,0 c -3.2,0 -13.24,-1.129 -16.88,-1.41 -1.09,-0.148 -2.61,-0.269 -2.61,-2.769 0,-1.68 1.25,-1.68 3.32,-1.68 6.56,0 6.83,-0.98 6.83,-2.379 0,-0.98 -1.25,-5.551 -1.83,-8.48 L 3052.5,377.02 c -1.64,-6.95 -2.23,-9.18 -2.23,-13.899 0,-13.211 7.39,-21.723 17.54,-21.723 l 0,2.93 c -4.72,0 -9.18,3.75 -9.18,14.063 0,2.66 0,5.16 2.23,13.91 l 3.05,12.808 c 0.7,2.93 0.7,3.2 1.95,4.731 6.84,9.058 13.09,11.129 16.72,11.129 5,0 8.75,-4.18 8.75,-13.09 0,-8.039 -4.57,-23.938 -7.07,-29.219 -4.61,-9.332 -11.02,-14.332 -16.45,-14.332 l 0,-2.93 c 16.45,0 33.4,20.622 33.4,40.512 0,12.539 -7.34,22.141 -18.36,22.141 -6.4,0 -12.11,-4.063 -16.29,-8.352 l 10.32,41.602 z"
           inkscape:connector-curvature="0" /><path
           id="path40"
           style="fill:#000000;fill-opacity:1;fill-rule:nonzero;stroke:none"
           d="m 3151.76,350.578 0.12,-0.547 0.15,-0.429 0.27,-0.551 0.16,-0.391 0.27,-0.582 0.28,-0.387 0.15,-0.429 0.28,-0.434 0.39,-0.43 0.31,-0.386 0.27,-0.434 0.39,-0.43 0.28,-0.269 0.43,-0.399 0.43,-0.308 0.27,-0.274 0.43,-0.386 0.39,-0.16 0.43,-0.274 0.55,-0.277 0.43,-0.27 0.43,-0.152 0.54,-0.277 0.43,-0.153 0.55,-0.121 0.43,-0.156 0.55,-0.121 0.54,0 0.55,-0.153 1.68,0 c 4.73,0 7.93,3.082 10.16,7.543 2.38,5 4.18,13.469 4.18,13.75 0,1.399 -1.25,1.399 -1.68,1.399 -1.37,0 -1.53,-0.699 -1.96,-2.5 -1.91,-7.809 -4.57,-17.262 -10.27,-17.262 -2.93,0 -4.34,1.801 -4.34,6.402 0,3.051 1.68,9.61 2.82,14.34 l 3.86,15.039 c 0.28,2.071 1.68,7.231 2.23,9.34 0.7,3.16 2.11,8.473 2.11,9.289 0,2.5 -1.95,3.75 -4.06,3.75 -0.55,0 -4.14,-0.109 -5.28,-4.84 -2.65,-10.16 -8.75,-34.378 -10.43,-41.636 -0.15,-0.551 -5.7,-11.684 -15.74,-11.684 -7.22,0 -8.63,6.25 -8.63,11.402 0,7.661 3.91,18.68 7.54,28.29 1.64,4.019 2.34,5.968 2.34,8.589 0,6.289 -4.45,11.442 -11.4,11.442 -13.21,0 -18.25,-20.031 -18.25,-21.281 0,-1.411 1.41,-1.411 1.68,-1.411 1.41,0 1.53,0.27 2.23,2.5 3.36,11.95 8.63,17.11 13.91,17.11 1.25,0 3.47,-0.117 3.47,-4.571 0,-3.359 -1.52,-7.378 -2.34,-9.488 -5.16,-13.64 -8.09,-22.269 -8.09,-28.949 0,-13.199 9.61,-16.563 17.11,-16.563 9.07,0 14.07,6.133 16.45,9.18 z"
           inkscape:connector-curvature="0" /><path
           id="path42"
           style="fill:#000000;fill-opacity:1;fill-rule:nonzero;stroke:none"
           d="m 3270.08,374.68 38.67,0 c 1.95,0 4.61,0 4.61,2.769 0,2.781 -2.66,2.781 -4.61,2.781 l -38.67,0 0,38.711 c 0,1.95 0,4.61 -2.81,4.61 -2.78,0 -2.78,-2.66 -2.78,-4.61 l 0,-38.711 -38.67,0 c -1.95,0 -4.61,0 -4.61,-2.781 0,-2.769 2.66,-2.769 4.61,-2.769 l 38.67,0 0,-38.711 c 0,-1.949 0,-4.571 2.78,-4.571 2.81,0 2.81,2.622 2.81,4.571 l 0,38.711 z"
           inkscape:connector-curvature="0" /><path
           id="path44"
           style="fill:#000000;fill-opacity:1;fill-rule:nonzero;stroke:none"
           d="m 3387.81,437.301 0,0.578 -0.11,0.121 0,0.16 -0.16,0 0,0.11 -0.12,0.16 -0.15,0 0,0.121 -0.16,0 0,0.148 -0.39,0 -0.16,0.16 -0.39,0 c -3.2,0 -13.4,-1.129 -16.99,-1.41 -1.13,-0.148 -2.66,-0.269 -2.66,-2.929 0,-1.52 1.41,-1.52 3.48,-1.52 6.68,0 6.84,-1.25 6.84,-2.379 l -0.43,-2.781 -17.54,-69.02 c -0.43,-1.558 -0.55,-2.539 -0.55,-4.769 0,-7.922 5.98,-12.653 12.54,-12.653 4.57,0 8.05,2.653 10.43,7.653 2.34,5.32 4.18,13.359 4.18,13.64 0,1.399 -1.41,1.399 -1.84,1.399 -1.25,0 -1.36,-0.699 -1.79,-2.5 -2.39,-9.059 -5,-17.262 -10.59,-17.262 -4.18,0 -4.18,4.453 -4.18,6.402 0,3.321 0.16,4.032 0.86,6.68 l 19.88,79.891 z"
           inkscape:connector-curvature="0" /><path
           id="path46"
           style="fill:#000000;fill-opacity:1;fill-rule:nonzero;stroke:none"
           d="m 3442.11,309.68 0,0.39 -0.16,0 0,0.16 -0.11,0.149 0,0.121 -0.16,0 0,0.16 -0.27,0.27 0,0.121 -0.12,0 0,0.148 -0.16,0 0,0.16 -0.15,0 0,0.121 -0.12,0 0,0.149 -0.16,0 0,0.121 -0.11,0.16 -0.16,0.11 -0.12,0.16 -0.15,0.121 -0.16,0.148 -0.12,0.16 -0.15,0.121 c -17.23,17.418 -21.72,43.551 -21.72,64.719 0,24.102 5.31,48.172 22.3,65.43 1.8,1.68 1.8,1.961 1.8,2.351 0,0.969 -0.55,1.399 -1.41,1.399 -1.36,0 -13.9,-9.449 -21.99,-26.988 -7.07,-15.192 -8.75,-30.621 -8.75,-42.192 0,-10.859 1.52,-27.539 9.18,-43.16 8.36,-16.949 20.2,-26.019 21.56,-26.019 0.86,0 1.41,0.429 1.41,1.41 z"
           inkscape:connector-curvature="0" /><path
           id="path48"
           style="fill:#000000;fill-opacity:1;fill-rule:nonzero;stroke:none"
           d="m 3517.54,395.539 0,0.27 0.16,0.32 0,0.391 0.11,0.152 0,0.43 0.16,0.117 0,1.25 0.15,0.16 0,0.109 c 0,2.5 -1.95,3.75 -4.06,3.75 -1.36,0 -3.59,-0.816 -4.88,-2.886 -0.27,-0.704 -1.37,-5.043 -1.91,-7.543 -0.98,-3.59 -1.96,-7.219 -2.82,-10.969 l -6.25,-24.93 c -0.54,-2.109 -6.56,-11.832 -15.58,-11.832 -7.11,0 -8.64,6.133 -8.64,11.293 0,6.399 2.39,14.879 7.11,27.149 2.23,5.539 2.78,7.07 2.78,9.839 0,6.289 -4.46,11.442 -11.41,11.442 -13.08,0 -18.24,-20.031 -18.24,-21.281 0,-1.411 1.4,-1.411 1.68,-1.411 1.37,0 1.52,0.27 2.22,2.5 3.76,12.93 9.18,17.11 13.91,17.11 1.13,0 3.48,0 3.48,-4.449 0,-3.481 -1.37,-7.071 -2.35,-9.731 -5.58,-14.609 -8.08,-22.539 -8.08,-28.949 0,-12.379 8.75,-16.442 16.99,-16.442 5.43,0 10,2.231 13.91,6.133 -1.8,-7.109 -3.48,-13.902 -8.91,-21.293 -3.63,-4.718 -8.91,-8.629 -15.31,-8.629 -1.96,0 -8.09,0.43 -10.43,5.7 2.07,0 3.87,0 5.82,1.679 1.4,1.25 2.81,3.051 2.81,5.711 0,4.289 -3.79,4.879 -5.04,4.879 -3.2,0 -7.77,-2.226 -7.77,-9.058 0,-6.84 6.13,-12 14.61,-12 14.33,0 28.51,12.539 32.42,28.128 l 13.36,52.891 z"
           inkscape:connector-curvature="0" /><path
           id="path50"
           style="fill:#000000;fill-opacity:1;fill-rule:nonzero;stroke:none"
           d="m 3645.2,374.68 1.95,0 0.27,0.121 0.55,0 0.15,0.148 0.4,0 0.27,0.281 0.31,0 0.12,0.149 0.16,0.121 0.11,0.16 0.16,0.11 0,0.16 0.12,0 0,0.269 0.15,0 0,0.43 0.12,0.121 0,0.699 c 0,2.781 -2.5,2.781 -4.84,2.781 l -74.89,0 c -2.38,0 -4.88,0 -4.88,-2.781 0,-2.769 2.5,-2.769 4.88,-2.769 l 74.89,0 z"
           inkscape:connector-curvature="0" /><path
           id="path52"
           style="fill:#000000;fill-opacity:1;fill-rule:nonzero;stroke:none"
           d="m 3759.73,433.121 -2.23,2.109 c 0,-0.16 -5.27,-6.679 -11.25,-6.679 -3.2,0 -6.68,2.07 -9.06,3.469 -3.75,2.23 -6.25,3.21 -8.64,3.21 -5.27,0 -7.77,-3.089 -14.88,-10.75 l 2.23,-2.07 c 0,0.16 5.27,6.57 11.29,6.57 3.2,0 6.68,-2.109 9.02,-3.359 3.75,-2.23 6.29,-3.211 8.63,-3.211 5.16,0 7.82,2.93 14.89,10.711 z"
           inkscape:connector-curvature="0" /><path
           id="path54"
           style="fill:#000000;fill-opacity:1;fill-rule:nonzero;stroke:none"
           d="m 3759.88,395.539 0.12,0.16 0,0.43 0.16,0.109 0,0.434 0.15,0 0,0.547 0.12,0 0,1.519 c 0,2.5 -1.8,3.75 -3.91,3.75 -1.36,0 -3.59,-0.816 -4.84,-2.886 -0.27,-0.704 -1.41,-5.043 -1.95,-7.543 -0.98,-3.59 -1.96,-7.219 -2.78,-10.969 l -6.29,-24.93 c -0.54,-2.109 -6.52,-11.832 -15.58,-11.832 -7.11,0 -8.63,6.133 -8.63,11.293 0,6.399 2.38,14.879 7.1,27.149 2.23,5.539 2.78,7.07 2.78,9.839 0,6.289 -4.45,11.442 -11.41,11.442 -13.08,0 -18.24,-20.031 -18.24,-21.281 0,-1.411 1.41,-1.411 1.68,-1.411 1.41,0 1.52,0.27 2.23,2.5 3.63,12.93 9.18,17.11 13.9,17.11 1.13,0 3.48,0 3.48,-4.449 0,-3.481 -1.37,-7.071 -2.35,-9.731 -5.58,-14.609 -8.08,-22.539 -8.08,-28.949 0,-12.379 8.79,-16.442 16.99,-16.442 5.43,0 10,2.231 13.91,6.133 -1.8,-7.109 -3.48,-13.902 -8.91,-21.293 -3.63,-4.718 -8.91,-8.629 -15.31,-8.629 -1.95,0 -8.2,0.43 -10.43,5.7 2.07,0 3.91,0 5.86,1.679 1.37,1.25 2.77,3.051 2.77,5.711 0,4.289 -3.75,4.879 -5.15,4.879 -3.05,0 -7.66,-2.226 -7.66,-9.058 0,-6.84 5.98,-12 14.61,-12 14.33,0 28.55,12.539 32.42,28.128 l 13.24,52.891 z"
           inkscape:connector-curvature="0" /><path
           id="path56"
           style="fill:#000000;fill-opacity:1;fill-rule:nonzero;stroke:none"
           d="m 3805.55,377.449 0,4.34 -0.16,2.34 -0.12,2.391 -0.31,2.5 -0.27,2.652 -0.39,2.777 -0.43,2.77 -0.55,2.769 -0.59,2.934 -1.64,5.859 -0.97,2.93 -1.14,2.891 -0.54,1.558 -0.55,1.531 -0.7,1.399 -0.71,1.531 c -8.36,16.949 -20.19,26.008 -21.56,26.008 -0.86,0 -1.4,-0.539 -1.4,-1.399 0,-0.39 0,-0.671 2.65,-3.21 13.48,-13.75 21.45,-35.739 21.45,-64.571 0,-23.668 -5.16,-48 -22.31,-65.429 -1.79,-1.641 -1.79,-1.95 -1.79,-2.34 0,-0.86 0.54,-1.41 1.4,-1.41 1.37,0 13.79,9.46 21.99,27 7.07,15.191 8.64,30.5 8.64,42.179 z"
           inkscape:connector-curvature="0" /><path
           id="path58"
           style="fill:#000000;fill-opacity:1;fill-rule:nonzero;stroke:none"
           d="m 3020.31,266.789 -2.22,2.109 c 0,-0.16 -5.32,-6.679 -11.45,-6.679 -3.16,0 -6.68,2.07 -9.02,3.48 -3.75,2.223 -6.25,3.199 -8.48,3.199 -5.31,0 -7.97,-3.089 -15.04,-10.859 l 2.23,-2.109 c 0,0.16 5.27,6.679 11.4,6.679 3.21,0 6.53,-2.07 8.91,-3.48 3.75,-2.219 6.25,-3.199 8.63,-3.199 5.28,0 7.93,3.09 15.04,10.859 z"
           inkscape:connector-curvature="0" /><path
           id="path60"
           style="fill:#000000;fill-opacity:1;fill-rule:nonzero;stroke:none"
           d="m 3020.43,229.211 0,0.269 0.16,0.161 0,0.269 0.11,0.16 0,0.551 0.16,0 0,0.82 0.12,0.149 0,0.711 c 0,2.5 -1.92,3.75 -4.03,3.75 -1.36,0 -3.59,-0.86 -4.88,-2.93 -0.27,-0.711 -1.37,-4.891 -1.91,-7.391 -0.98,-3.628 -1.96,-7.378 -2.82,-11.128 l -6.25,-24.922 c -0.43,-2.071 -6.4,-11.68 -15.58,-11.68 -7.11,0 -8.63,6.129 -8.63,11.129 0,6.41 2.38,15.043 7.1,27.152 2.23,5.699 2.78,7.231 2.78,10 0,6.129 -4.46,11.289 -11.41,11.289 -13.08,0 -18.24,-20.039 -18.24,-21.289 0,-1.402 1.41,-1.402 1.68,-1.402 1.37,0 1.52,0.269 2.23,2.5 3.75,12.961 9.29,17.141 13.9,17.141 1.13,0 3.48,0 3.48,-4.45 0,-3.359 -1.41,-6.992 -2.35,-9.609 -5.43,-14.609 -7.96,-22.582 -7.96,-29.102 0,-12.269 8.63,-16.41 16.87,-16.41 5.43,0 10.16,2.352 14.02,6.25 -1.79,-7.219 -3.47,-14.058 -9.02,-21.289 -3.63,-4.719 -8.91,-8.781 -15.31,-8.781 -1.8,0 -8.09,0.422 -10.43,5.851 2.23,0 4.02,0 5.98,1.68 1.4,1.25 2.65,3.051 2.65,5.711 0,4.18 -3.63,4.719 -5.04,4.719 -3.2,0 -7.77,-2.219 -7.77,-8.899 0,-6.961 6.13,-12.113 14.61,-12.113 14.33,0 28.51,12.652 32.42,28.242 l 13.36,52.891 z"
           inkscape:connector-curvature="0" /><path
           id="path62"
           style="fill:#000000;fill-opacity:1;fill-rule:nonzero;stroke:none"
           d="m 3159.77,221.711 1.95,0 0.16,0.117 0.66,0 0.16,0.152 0.11,0 0.16,0.122 0.15,0 0.28,0.16 0.12,0.148 0.15,0 0.12,0.121 0,0.16 0.16,0.11 0.15,0.16 0,0.117 0.12,0 0,0.313 0.16,0.121 0,0.968 c 0,2.782 -2.5,2.782 -4.46,2.782 l -82.97,0 c -1.95,0 -4.61,0 -4.61,-2.782 0,-2.769 2.66,-2.769 4.77,-2.769 l 82.66,0 z"
           inkscape:connector-curvature="0" /><path
           id="path64"
           style="fill:#000000;fill-opacity:1;fill-rule:nonzero;stroke:none"
           d="m 3159.92,194.84 1.53,0 0.11,0.148 0.71,0 0.27,0.121 0.16,0 0.11,0.161 0.16,0 0.27,0.109 0.16,0 0.12,0.16 0.15,0.121 0.12,0.149 0.16,0.16 0.15,0.121 0,0.148 0.12,0.121 0,0.27 0.16,0 0,0.98 c 0,2.813 -2.5,2.813 -4.61,2.813 l -82.66,0 c -2.11,0 -4.77,0 -4.77,-2.813 0,-2.769 2.66,-2.769 4.61,-2.769 l 82.97,0 z"
           inkscape:connector-curvature="0" /><path
           id="path66"
           style="fill:#000000;fill-opacity:1;fill-rule:nonzero;stroke:none"
           d="m 3265.82,229.09 -0.39,-0.149 -2.23,0 -0.15,-0.121 -0.43,0 -0.12,-0.16 -0.43,0 -0.12,-0.148 -0.31,0 -0.27,-0.282 -0.28,0 -0.27,-0.269 -0.27,-0.121 -0.16,-0.149 -0.12,-0.16 -0.15,-0.121 -0.28,-0.148 -0.11,-0.121 c -2.23,-2.11 -2.54,-4.45 -2.54,-5.43 0,-3.359 2.54,-4.883 5.15,-4.883 4.07,0 7.82,3.363 7.82,8.902 0,6.68 -6.57,11.84 -16.45,11.84 -18.63,0 -37.03,-19.769 -37.03,-39.261 0,-12.539 7.97,-23.36 22.42,-23.36 19.77,0 31.45,14.61 31.45,16.25 0,0.86 -0.82,1.84 -1.64,1.84 -0.71,0 -0.98,-0.269 -1.84,-1.41 C 3256.09,178 3241.05,178 3239.38,178 c -8.76,0 -12.5,6.84 -12.5,15.039 0,5.699 2.77,19.063 7.5,27.691 4.29,7.782 11.83,13.79 19.49,13.79 4.72,0 10,-1.829 11.95,-5.43 z"
           inkscape:connector-curvature="0" /><path
           id="path68"
           style="fill:#000000;fill-opacity:1;fill-rule:nonzero;stroke:none"
           d="m 3337.38,266.789 -2.22,2.109 c 0,-0.16 -5.32,-6.679 -11.29,-6.679 -3.21,0 -6.68,2.07 -9.03,3.48 -3.79,2.223 -6.29,3.199 -8.63,3.199 -5.31,0 -7.81,-3.089 -14.92,-10.859 l 2.23,-2.109 c 0,0.16 5.15,6.679 11.28,6.679 3.21,0 6.68,-2.07 9.07,-3.48 3.75,-2.219 6.25,-3.199 8.63,-3.199 5.12,0 7.77,3.09 14.88,10.859 z"
           inkscape:connector-curvature="0" /><path
           id="path70"
           style="fill:#000000;fill-opacity:1;fill-rule:nonzero;stroke:none"
           d="m 3317.19,218.23 0.15,0.399 0.12,0.422 0,0.429 0.16,0.399 0.11,0.582 0.32,0.551 0.11,0.699 0.16,0.551 0.55,1.398 0.27,0.551 0.55,1.41 0.27,0.66 1.29,2.11 0.39,0.699 0.43,0.551 0.55,0.699 0.43,0.551 1.09,1.089 0.7,0.59 0.55,0.391 0.7,0.43 0.43,0.16 0.28,0.109 0.43,0.16 0.39,0.121 0.31,0.149 0.39,0.121 0.43,0.16 0.43,0 0.39,0.149 1.41,0 c 0.7,0 4.02,0 6.83,-1.829 -3.79,-0.711 -6.56,-4.179 -6.56,-7.39 0,-2.223 1.52,-4.84 5.27,-4.84 2.93,0 7.39,2.5 7.39,8.051 0,7.109 -8.05,9.058 -12.78,9.058 -8.08,0 -12.97,-7.379 -14.65,-10.429 -3.47,9.019 -10.86,10.429 -14.88,10.429 -14.45,0 -22.26,-17.808 -22.26,-21.289 0,-1.402 1.25,-1.402 1.68,-1.402 1.09,0 1.52,0.269 1.79,1.519 4.61,14.653 13.79,18.122 18.52,18.122 2.65,0 7.5,-1.25 7.5,-9.219 0,-4.289 -2.35,-13.629 -7.5,-32.961 -2.23,-8.481 -7.11,-14.34 -13.24,-14.34 -0.82,0 -4.03,0 -6.8,1.801 3.32,0.699 6.41,3.629 6.41,7.539 0,3.59 -3.09,4.719 -5.16,4.719 -4.02,0 -7.54,-3.629 -7.54,-7.93 0,-6.399 6.84,-9.18 12.97,-9.18 9.18,0 14.18,9.731 14.61,10.551 1.68,-5.16 6.56,-10.551 14.88,-10.551 14.34,0 22.15,17.821 22.15,21.289 0,1.371 -1.25,1.371 -1.68,1.371 -1.25,0 -1.41,-0.55 -1.68,-1.519 -4.57,-14.77 -14.06,-18.09 -18.52,-18.09 -5.43,0 -7.5,4.449 -7.5,9.059 0,3.05 0.71,6.101 2.23,12.23 l 4.73,18.941 z"
           inkscape:connector-curvature="0" /></g><path
         d="m 4605.94,467.84 -2.23,2.109 c 0,-0.148 -5.27,-6.679 -11.25,-6.679 -3.2,0 -6.68,2.07 -9.06,3.48 -3.75,2.23 -6.25,3.199 -8.63,3.199 -5.28,0 -7.78,-3.039 -14.89,-10.859 l 2.23,-2.07 c 0,0.121 5.16,6.679 11.25,6.679 3.2,0 6.68,-2.109 9.06,-3.508 3.75,-2.23 6.25,-3.171 8.63,-3.171 5.16,0 7.82,3.05 14.89,10.82 z"
         style="fill:#000000;fill-opacity:1;fill-rule:nonzero;stroke:none"
         id="path72" /><path
         d="m 4585.78,419.289 0.12,0.43 0.15,0.39 0,0.43 0.12,0.43 0.16,0.551 0.27,0.539 0.16,0.711 0.12,0.539 0.54,1.41 0.28,0.551 0.31,0.699 0.54,1.41 0.43,0.66 0.4,0.699 0.85,1.41 0.39,0.551 0.59,0.699 0.39,0.551 1.13,1.129 0.71,0.551 0.54,0.422 0.71,0.398 0.39,0.153 0.27,0.117 0.86,0.312 0.27,0.117 0.43,0.153 0.39,0.121 0.43,0 0.43,0.156 1.37,0 c 0.7,0 4.06,0 6.84,-1.84 -3.75,-0.66 -6.57,-4.136 -6.57,-7.34 0,-2.226 1.57,-4.878 5.32,-4.878 2.93,0 7.38,2.5 7.38,8.082 0,7.07 -8.09,9.027 -12.81,9.027 -8.09,0 -12.93,-7.391 -14.61,-10.43 -3.48,9.063 -10.86,10.43 -14.92,10.43 -14.46,0 -22.27,-17.82 -22.27,-21.289 0,-1.41 1.25,-1.41 1.68,-1.41 1.13,0 1.52,0.269 1.8,1.558 4.61,14.614 13.79,18.09 18.51,18.09 2.66,0 7.54,-1.25 7.54,-9.18 0,-4.339 -2.38,-13.668 -7.54,-33.007 -2.22,-8.481 -7.07,-14.34 -13.2,-14.34 -0.86,0 -4.02,0 -6.84,1.801 3.36,0.699 6.41,3.628 6.41,7.539 0,3.589 -3.05,4.73 -5.16,4.73 -4.02,0 -7.5,-3.641 -7.5,-7.93 0,-6.41 6.8,-9.179 12.93,-9.179 9.18,0 14.22,9.718 14.61,10.578 1.68,-5.149 6.57,-10.578 14.92,-10.578 14.34,0 22.11,17.808 22.11,21.289 0,1.398 -1.25,1.398 -1.68,1.398 -1.25,0 -1.36,-0.578 -1.64,-1.558 -4.61,-14.731 -14.06,-18.09 -18.51,-18.09 -5.43,0 -7.54,4.461 -7.54,9.07 0,3.039 0.7,6.09 2.23,12.219 l 4.76,18.949 z"
         style="fill:#000000;fill-opacity:1;fill-rule:nonzero;stroke:none"
         id="path74" /><path
         d="m 2287.73,1331.55 811.45,0"
         style="fill:none;stroke:#000000;stroke-opacity:1;stroke-width:8;stroke-linecap:butt;stroke-linejoin:miter;stroke-miterlimit:10.433;stroke-dasharray:none"
         id="path76" /><path
         d="m 3057.34,1312.18 52.43,19.3 -52.43,19.25 c 8.36,-11.36 8.32,-26.95 0,-38.55 z"
         style="fill:#000000;fill-opacity:1;fill-rule:evenodd;stroke:none"
         id="path78" /><path
         d="m 2600.9,1331.55 0,-742.843"
         style="fill:none;stroke:#000000;stroke-opacity:1;stroke-width:8;stroke-linecap:butt;stroke-linejoin:miter;stroke-miterlimit:10.433;stroke-dasharray:none"
         id="path80" /><path
         d="m 2620.27,630.539 -19.29,-52.461 -19.3,52.461 c 11.41,-8.398 26.95,-8.32 38.59,0 z"
         style="fill:#000000;fill-opacity:1;fill-rule:evenodd;stroke:none"
         id="path82" /><path
         d="m 916.328,1331.55 -714.297,0"
         style="fill:none;stroke:#000000;stroke-opacity:1;stroke-width:8;stroke-linecap:butt;stroke-linejoin:miter;stroke-miterlimit:10.433;stroke-dasharray:none"
         id="path84" /><path
         d="m 572.34,1328.71 0,-1025.753 1708.56,0"
         style="fill:none;stroke:#000000;stroke-opacity:1;stroke-width:8;stroke-linecap:butt;stroke-linejoin:miter;stroke-miterlimit:10.433;stroke-dasharray:none"
         id="path86" /><path
         d="m 2239.06,322.34 52.42,-19.301 -52.42,-19.258 c 8.36,11.367 8.32,26.949 0,38.559 z"
         style="fill:#000000;fill-opacity:1;fill-rule:evenodd;stroke:none"
         id="path88" /><path
         d="m 4035.2,302.957 880,0"
         style="fill:none;stroke:#000000;stroke-opacity:1;stroke-width:8;stroke-linecap:butt;stroke-linejoin:miter;stroke-miterlimit:10.433;stroke-dasharray:none"
         id="path90" /><path
         d="m 4873.32,322.34 52.46,-19.301 -52.46,-19.258 c 8.4,11.367 8.36,26.949 0,38.559 z"
         style="fill:#000000;fill-opacity:1;fill-rule:evenodd;stroke:none"
         id="path92" /><path
         d="m 1609.45,1577.26 0,337.15"
         style="fill:none;stroke:#000000;stroke-opacity:1;stroke-width:8;stroke-linecap:butt;stroke-linejoin:miter;stroke-miterlimit:10.433;stroke-dasharray:none"
         id="path94" /><path
         d="m 1628.83,1619.09 -19.3,-52.42 -19.26,52.42 c 11.37,-8.36 26.96,-8.32 38.56,0 z"
         style="fill:#000000;fill-opacity:1;fill-rule:evenodd;stroke:none"
         id="path96" /><path
         d="m 1609.45,1092.69 0,-260.002"
         style="fill:none;stroke:#000000;stroke-opacity:1;stroke-width:8;stroke-linecap:butt;stroke-linejoin:miter;stroke-miterlimit:10.433;stroke-dasharray:none"
         id="path98" /><path
         d="m 1628.83,1050.85 -19.3,52.42 -19.26,-52.42 c 11.37,8.36 26.96,8.32 38.56,0 z"
         style="fill:#000000;fill-opacity:1;fill-rule:evenodd;stroke:none"
         id="path100" /><path
         d="m 1287.7,800.379 0,0.281 0.11,0.231 0,0.269 0.16,0.391 0,0.277 0.12,0.274 0.15,0.668 0.24,1.32 0.27,0.672 0.16,0.66 0,0.277 0.11,0.391 0.12,0.269 0,0.231 0.16,0.281 0,0.539 0.11,0.281 0,0.11 0.12,0.277 0,0.781 0.16,0 c 0,2.379 -1.88,3.59 -3.87,3.59 -1.56,0 -3.94,-1.051 -4.88,-3.711 -0.39,-0.937 -6.64,-26.008 -7.58,-29.449 -0.94,-3.988 -1.17,-6.367 -1.17,-8.75 0,-1.449 0,-1.719 0.11,-2.379 -3.04,-6.922 -7.03,-11.019 -12.07,-11.019 -10.62,0 -10.62,9.687 -10.62,11.949 0,4.219 0.66,9.422 6.91,25.59 1.45,3.98 2.27,5.82 2.27,8.48 0,5.86 -4.38,10.738 -10.9,10.738 -12.46,0 -17.38,-19.097 -17.38,-20.269 0,-1.328 1.33,-1.328 1.6,-1.328 1.33,0 1.48,0.269 2.15,2.379 3.55,12.191 8.59,16.289 13.24,16.289 1.21,0 3.32,-0.117 3.32,-4.379 0,-3.16 -1.44,-6.871 -2.38,-9.141 -5.86,-15.5 -7.42,-21.597 -7.42,-26.64 0,-11.95 8.86,-16.598 18.82,-16.598 2.11,0 8.36,0 13.68,9.301 3.43,-8.481 12.57,-9.301 16.56,-9.301 9.8,0 15.66,8.359 19.1,16.168 4.49,10.351 8.63,28.012 8.63,34.262 0,7.269 -3.59,9.257 -5.7,9.257 -3.32,0 -6.64,-3.437 -6.64,-6.367 0,-1.601 0.78,-2.383 1.99,-3.441 1.45,-1.442 4.77,-4.918 4.77,-11.289 0,-4.492 -3.83,-17.379 -7.31,-24.141 -3.44,-6.871 -8.08,-11.519 -14.57,-11.519 -6.09,0 -9.69,3.988 -9.69,11.41 0,3.711 0.94,7.808 1.45,9.679 l 5.59,22.149 z"
         style="fill:#000000;fill-opacity:1;fill-rule:nonzero;stroke:none"
         id="path102" /><g
         id="g104"
         transform="scale(10,10)"><text
           transform="matrix(1,0,0,-1,87.6414,91.8789)"
           id="text106"><tspan
             style="fill:#000000;fill-opacity:1;fill-rule:nonzero;stroke:none;font-family:Cmr10;font-variant:normal;font-weight:normal;font-size:12.8;writing-mode:lr;-inkscape-font-specification:Cmr10"
             x="0 11.7248 17.408 22.4512 29.5552 34.56 40.2432 50.9056 56.5888 63.6928"
             y="0"
             sodipodi:role="line"
             id="tspan108">Mesurement</tspan><tspan
             style="fill:#000000;fill-opacity:1;fill-rule:nonzero;stroke:none;font-family:Cmr10;font-variant:normal;font-weight:normal;font-size:12.8;writing-mode:lr;-inkscape-font-specification:Cmr10"
             x="0 7.104 13.504 17.0496 22.0928"
             y="16"
             sodipodi:role="line"
             id="tspan110">noise</tspan></text>
</g><path
         d="m 3142.54,1525.85 0,0.28 0.16,0.11 0,0.28 0.11,0.11 0,0.55 0.16,0 0,0.78 0.12,0.16 0,0.66 c 0,2.38 -1.88,3.6 -3.87,3.6 -1.29,0 -3.44,-0.83 -4.61,-2.82 -0.27,-0.66 -1.33,-4.65 -1.88,-7.03 -0.93,-3.44 -1.83,-7.03 -2.65,-10.58 l -5.98,-23.75 c -0.39,-2 -6.09,-11.14 -14.84,-11.14 -6.76,0 -8.21,5.82 -8.21,10.59 0,6.09 2.23,14.33 6.76,25.86 2.11,5.47 2.66,6.91 2.66,9.57 0,5.82 -4.26,10.74 -10.9,10.74 -12.46,0 -17.38,-19.1 -17.38,-20.31 0,-1.33 1.33,-1.33 1.6,-1.33 1.33,0 1.44,0.27 2.11,2.42 3.59,12.31 8.9,16.29 13.28,16.29 1.05,0 3.32,0 3.32,-4.22 0,-3.2 -1.33,-6.64 -2.27,-9.18 -5.15,-13.9 -7.53,-21.48 -7.53,-27.69 0,-11.68 8.2,-15.67 16.01,-15.67 5.2,0 9.69,2.27 13.4,5.98 -1.72,-6.91 -3.28,-13.4 -8.59,-20.31 -3.48,-4.5 -8.52,-8.36 -14.61,-8.36 -1.72,0 -7.7,0.39 -9.93,5.58 2.11,0 3.83,0 5.71,1.61 1.33,1.17 2.5,2.89 2.5,5.42 0,3.99 -3.44,4.5 -4.77,4.5 -3.04,0 -7.42,-2.11 -7.42,-8.48 0,-6.64 5.82,-11.52 13.91,-11.52 13.67,0 27.18,12.07 30.89,26.91 l 12.74,50.39 z"
         style="fill:#000000;fill-opacity:1;fill-rule:nonzero;stroke:none"
         id="path112" /><g
         id="g114"
         transform="scale(10,10)"><text
           transform="matrix(1,0,0,-1,260.821,145.466)"
           id="text116"><tspan
             style="fill:#000000;fill-opacity:1;fill-rule:nonzero;stroke:none;font-family:Cmr10;font-variant:normal;font-weight:normal;font-size:12.8;writing-mode:lr;-inkscape-font-specification:Cmr10"
             x="0 9.9456 17.0496 22.016 29.12 36.224"
             y="0"
             sodipodi:role="line"
             id="tspan118">Output</tspan></text>
</g><g
         id="g120"
         transform="scale(10,10)"><text
           transform="matrix(1,0,0,-1,283.262,66.2738)"
           id="text122"><tspan
             style="fill:#ff0000;fill-opacity:1;fill-rule:nonzero;stroke:none;font-family:Cmr10;font-variant:normal;font-weight:normal;font-size:12.8;writing-mode:lr;-inkscape-font-specification:Cmr10"
             x="0 9.9456 16.3456 19.8912 30.5536 36.9536 44.0576 48.32 52.224 55.7696 59.35348122 64.31988122 70.00308122"
             y="0"
             sodipodi:role="line"
             id="tspan124">Kalman filter</tspan></text>
</g><g
         id="g126"
         transform="scale(10,10)"><text
           transform="matrix(1,0,0,-1,40.5797,170.47)"
           id="text128"><tspan
             style="fill:#0000ff;fill-opacity:1;fill-rule:nonzero;stroke:none;font-family:Cmr10;font-variant:normal;font-weight:normal;font-size:12.8;writing-mode:lr;-inkscape-font-specification:Cmr10"
             x="0 7.104 10.6496 15.6928 20.6592 26.3424 37.0048 41.2672 47.6672 51.5712 55.87188122 59.41748122 66.52148122 71.48788122 77.17108122 82.17588122 87.85908122 92.90228122"
             y="0"
             sodipodi:role="line"
             id="tspan130">Sistem of interest</tspan></text>
</g><path
         d="m 2511.21,1802.65 0,1.87 -0.12,0.24 0,0.82 -0.15,0.51 -0.24,1.09 -0.15,0.39 -0.24,0.78 -0.27,0.39 -0.16,0.28 -0.23,0.39 -0.16,0.27 -0.27,0.27 -0.12,0.28 -0.27,0.23 -0.28,0.16 -0.23,0.27 -0.27,0.12 -0.16,0.12 -0.23,0.15 -0.28,0.12 -0.27,0.15 -0.27,0.12 -0.28,0 -0.11,0.12 -0.55,0 -0.24,0.16 -0.15,0 c -3.32,0 -6.49,-3.44 -6.49,-6.37 0,-1.72 0.67,-2.54 2.11,-3.99 2.82,-2.65 4.53,-6.09 4.53,-10.74 0,-5.58 -8.08,-35.82 -23.63,-35.82 -6.64,0 -9.69,4.65 -9.69,11.56 0,7.43 3.6,16.96 7.58,27.86 0.94,2.22 1.72,4.1 1.72,6.6 0,5.97 -4.26,10.9 -10.86,10.9 -12.5,0 -17.38,-19.11 -17.38,-20.32 0,-1.33 1.33,-1.33 1.6,-1.33 1.17,0 1.33,0.28 1.99,2.39 3.83,13.28 9.53,16.33 13.36,16.33 1.1,0 3.32,0 3.32,-4.26 0,-3.28 -1.33,-6.88 -2.22,-9.26 -5.86,-15.27 -7.58,-21.37 -7.58,-26.95 0,-14.3 11.68,-16.29 17.77,-16.29 22.15,0 29.57,43.51 29.57,50.39 z"
         style="fill:#000000;fill-opacity:1;fill-rule:nonzero;stroke:none"
         id="path132" /><g
         id="g134"
         transform="scale(10,10)"><text
           transform="matrix(1,0,0,-1,165.924,175.386)"
           id="text136"><tspan
             style="fill:#000000;fill-opacity:1;fill-rule:nonzero;stroke:none;font-family:Cmr10;font-variant:normal;font-weight:normal;font-size:12.8;writing-mode:lr;-inkscape-font-specification:Cmr10"
             x="0 7.104 13.8496 18.8928 23.8592 29.5424 40.2048 44.4672 51.5712 57.9712 61.5168 66.59828122 72.28148122"
             y="0"
             sodipodi:role="line"
             id="tspan138">System noise </tspan></text>
</g><path
         d="m 401.719,1445.85 0.16,-0.55 0.109,-0.39 0.282,-0.54 0.109,-0.39 0.281,-0.55 0.27,-0.39 0.121,-0.39 0.269,-0.39 0.391,-0.39 0.269,-0.39 0.282,-0.43 1.047,-1.06 0.39,-0.27 0.281,-0.24 0.391,-0.43 0.391,-0.11 0.429,-0.28 0.508,-0.27 0.391,-0.23 0.43,-0.16 0.5,-0.27 0.39,-0.12 0.551,-0.12 0.391,-0.15 0.546,-0.12 0.512,0 0.539,-0.16 1.602,0 c 4.5,0 7.539,2.93 9.648,7.19 2.27,4.77 3.992,12.85 3.992,13.13 0,1.32 -1.171,1.32 -1.57,1.32 -1.32,0 -1.48,-0.66 -1.871,-2.38 -1.84,-7.42 -4.371,-16.44 -9.801,-16.44 -2.82,0 -4.109,1.71 -4.109,6.09 0,2.93 1.57,9.14 2.621,13.67 l 3.75,14.3 c 0.238,1.99 1.559,6.91 2.109,8.9 0.66,3.05 1.989,8.09 1.989,8.87 0,2.42 -1.868,3.59 -3.86,3.59 -0.508,0 -3.988,-0.11 -5.039,-4.64 -2.5,-9.69 -8.359,-32.74 -9.93,-39.65 -0.152,-0.55 -5.46,-11.13 -15,-11.13 -6.91,0 -8.242,5.97 -8.242,10.85 0,7.31 3.711,17.78 7.192,26.96 1.558,3.83 2.23,5.7 2.23,8.2 0,5.98 -4.219,10.86 -10.859,10.86 -12.621,0 -17.391,-19.06 -17.391,-20.27 0,-1.33 1.328,-1.33 1.61,-1.33 1.32,0 1.441,0.27 2.101,2.38 3.207,11.41 8.25,16.33 13.289,16.33 1.168,0 3.32,-0.16 3.32,-4.38 0,-3.2 -1.492,-7.03 -2.269,-9.02 -4.922,-13.01 -7.691,-21.21 -7.691,-27.58 0,-12.61 9.14,-15.78 16.32,-15.78 8.601,0 13.398,5.82 15.629,8.75 z"
         style="fill:#000000;fill-opacity:1;fill-rule:nonzero;stroke:none"
         id="path140" /><g
         id="g142"
         transform="scale(10,10)"><text
           transform="matrix(1,0,0,-1,-0.33125,143.804)"
           id="text144"><tspan
             style="fill:#000000;fill-opacity:1;fill-rule:nonzero;stroke:none;font-family:Cmr10;font-variant:normal;font-weight:normal;font-size:12.8;writing-mode:lr;-inkscape-font-specification:Cmr10"
             x="0 4.6208 11.7248 18.8288 25.9328"
             y="0"
             sodipodi:role="line"
             id="tspan146">Input</tspan><tspan
             style="fill:#000000;fill-opacity:1;fill-rule:nonzero;stroke:none;font-family:Cmr10;font-variant:normal;font-weight:normal;font-size:12.8;writing-mode:lr;-inkscape-font-specification:Cmr10"
             x="418.992 427.696 432.7392 437.7056 441.2512 451.9136 458.3136 463.28 468.9632"
             y="89.5062"
             sodipodi:role="line"
             id="tspan148">Estimated</tspan><tspan
             style="fill:#000000;fill-opacity:1;fill-rule:nonzero;stroke:none;font-family:Cmr10;font-variant:normal;font-weight:normal;font-size:12.8;writing-mode:lr;-inkscape-font-specification:Cmr10"
             x="418.992 424.0352 429.0016 435.4016 440.368"
             y="105.5062"
             sodipodi:role="line"
             id="tspan150">state</tspan></text>
</g><path
         d="m 2614.57,1331.71 c 0,-8.01 -6.45,-14.45 -14.45,-14.45 -7.97,0 -14.46,6.44 -14.46,14.45 0,7.97 6.49,14.45 14.46,14.45 8,0 14.45,-6.48 14.45,-14.45 z"
         style="fill:#000000;fill-opacity:1;fill-rule:nonzero;stroke:none"
         id="path152" /><g
         id="g154"
         transform="scale(1.04545,-0.954547)"><path
           d="m 2500.9,-1395.12 c 0,8.39 -6.2,15.14 -13.82,15.14 -7.63,0 -13.84,-6.75 -13.84,-15.14 0,-8.35 6.21,-15.14 13.84,-15.14 7.62,0 13.82,6.79 13.82,15.14 z"
           style="fill:none;stroke:#000000;stroke-opacity:1;stroke-width:2.607;stroke-linecap:butt;stroke-linejoin:miter;stroke-miterlimit:4;stroke-dasharray:none"
           id="path156" /></g><path
         d="m 586.449,1331.36 c 0,-7.97 -6.488,-14.45 -14.461,-14.45 -7.968,0 -14.449,6.48 -14.449,14.45 0,8.01 6.481,14.49 14.449,14.49 7.973,0 14.461,-6.48 14.461,-14.49 z"
         style="fill:#000000;fill-opacity:1;fill-rule:nonzero;stroke:none"
         id="path158" /><g
         id="g160"
         transform="scale(1.04545,-0.954547)"><path
           d="m 560.952,-1394.76 c 0,8.35 -6.206,15.14 -13.832,15.14 -7.622,0 -13.821,-6.79 -13.821,-15.14 0,-8.39 6.199,-15.18 13.821,-15.18 7.626,0 13.832,6.79 13.832,15.18 z"
           style="fill:none;stroke:#000000;stroke-opacity:1;stroke-width:2.607;stroke-linecap:butt;stroke-linejoin:miter;stroke-miterlimit:4;stroke-dasharray:none"
           id="path162" /></g><path
         d="m 876.719,1312.18 52.422,19.3 -52.422,19.25 c 8.402,-11.36 8.32,-26.95 0,-38.55 z"
         style="fill:#000000;fill-opacity:1;fill-rule:evenodd;stroke:none"
         id="path164" /><path
         d="m 1196.37,1473.9 0,1.05 -0.12,0.28 0,0.39 -0.16,0.27 -0.11,0.39 -0.12,0.27 -0.16,0.28 -0.11,0.23 -0.16,0.43 -0.23,0.24 -0.16,0.27 -0.27,0.27 -0.12,0.28 -0.51,0.5 -0.27,0.16 -0.28,0.27 -0.27,0.12 -0.27,0.28 -0.24,0.11 -0.27,0.28 -0.39,0.11 -0.27,0.16 -0.4,0.12 -0.27,0 -0.39,0.11 -0.27,0 -0.39,0.16 -0.82,0 c -4.38,0 -7.04,-3.71 -7.04,-7.03 0,-3.44 3.05,-6.92 6.92,-6.92 4.49,0 7.15,3.72 7.15,6.92 z"
         style="fill:#000000;fill-opacity:1;fill-rule:nonzero;stroke:none"
         id="path166" /><path
         d="m 1192.15,1432.53 0,0.39 0.23,0.78 0.16,0.55 0.12,0.51 0.15,0.54 0.12,0.51 0.27,0.67 0.12,0.54 0.82,2 0.24,0.66 0.39,0.66 0.27,0.67 0.39,0.66 0.43,0.67 0.39,0.5 0.39,0.67 0.55,0.54 0.51,0.67 0.54,0.51 0.51,0.54 0.55,0.39 0.66,0.39 0.66,0.43 0.28,0.12 0.39,0.28 0.27,0.11 0.39,0.16 0.39,0.12 0.39,0 0.39,0.11 0.28,0.16 0.94,0 0.39,0.12 0.39,0 c 0.66,0 3.86,0 6.64,-1.72 -3.71,-0.67 -6.37,-3.99 -6.37,-7.15 0,-2.15 1.45,-4.65 5.04,-4.65 2.93,0 7.19,2.38 7.19,7.7 0,6.87 -7.85,8.75 -12.35,8.75 -7.69,0 -12.34,-7.04 -13.79,-10.08 -3.32,8.75 -10.5,10.08 -14.33,10.08 -13.67,0 -21.21,-17.11 -21.21,-20.32 0,-1.32 1.33,-1.32 1.56,-1.32 1.09,0 1.48,0.27 1.72,1.48 4.53,13.91 13.16,17.23 17.66,17.23 2.53,0 7.14,-1.18 7.14,-8.87 0,-4.14 -2.22,-12.89 -7.14,-31.33 -2.11,-8.2 -6.76,-13.79 -12.47,-13.79 -0.78,0 -3.86,0 -6.64,1.72 3.32,0.66 6.25,3.48 6.25,7.19 0,3.55 -2.93,4.65 -4.92,4.65 -3.98,0 -7.3,-3.48 -7.3,-7.7 0,-6.13 6.64,-8.63 12.5,-8.63 8.59,0 13.36,9.14 13.79,9.96 1.56,-4.92 6.36,-9.96 14.18,-9.96 13.67,0 21.21,16.99 21.21,20.27 0,1.33 -1.18,1.33 -1.57,1.33 -1.21,0 -1.48,-0.66 -1.75,-1.45 -4.38,-14.17 -13.4,-17.38 -17.62,-17.38 -5.04,0 -7.19,4.26 -7.19,8.75 0,2.93 0.82,5.86 2.27,11.56 l 4.53,18.05 z"
         style="fill:#000000;fill-opacity:1;fill-rule:nonzero;stroke:none"
         id="path168" /><path
         d="m 1350.9,1435.81 1.05,0 0.28,0.16 0.93,0 0.12,0.12 0.39,0 0.16,0.15 0.12,0 0.27,0.12 0.12,0 0.15,0.12 0.12,0.15 0.16,0.12 0.11,0.16 0,0.11 0.12,0 0,0.12 0.16,0.16 0,0.11 0.11,0.16 0,0.66 0.16,0 0,0.24 c 0,2.66 -2.54,2.66 -4.41,2.66 l -79.03,0 c -1.87,0 -4.37,0 -4.37,-2.66 0,-2.66 2.5,-2.66 4.49,-2.66 l 78.79,0 z"
         style="fill:#000000;fill-opacity:1;fill-rule:nonzero;stroke:none"
         id="path170" /><path
         d="m 1351.02,1410.34 1.99,0 0.15,0.16 0.39,0 0.12,0.12 0.16,0 0.27,0.15 0.12,0 0.12,0.12 0.15,0 0.39,0.39 0,0.16 0.12,0.11 0,0.12 0.16,0 0,0.28 0.11,0 0,0.66 0.16,0.16 0,0.23 c 0,2.54 -2.54,2.54 -4.53,2.54 l -78.79,0 c -1.99,0 -4.49,0 -4.49,-2.54 0,-2.66 2.5,-2.66 4.37,-2.66 l 79.03,0 z"
         style="fill:#000000;fill-opacity:1;fill-rule:nonzero;stroke:none"
         id="path172" /><path
         d="m 1423.32,1407.96 -0.55,-0.78 -0.39,-0.78 -0.5,-0.82 -0.55,-0.67 -0.51,-0.66 -0.43,-0.51 -0.51,-0.66 -0.54,-0.55 -0.39,-0.51 -0.55,-0.54 -0.51,-0.39 -0.55,-0.39 -0.39,-0.43 -0.54,-0.39 -0.51,-0.28 -0.55,-0.39 -0.39,-0.27 -0.51,-0.24 -1.09,-0.54 -0.51,-0.12 -0.55,-0.16 -0.39,-0.27 -0.54,-0.12 -0.51,-0.11 -0.55,-0.16 -0.51,0 -0.54,-0.12 -1.06,-0.12 -1.05,-0.15 c -1.6,-0.12 -2.81,-0.12 -2.81,-2.66 0,-0.78 0.66,-1.44 1.75,-1.44 3.44,0 7.54,0.5 11.25,0.5 4.38,0 9.03,-0.5 13.28,-0.5 0.79,0 2.5,0 2.5,2.5 0,1.48 -1.17,1.6 -2.1,1.6 -3.05,0.27 -6.25,1.33 -6.25,4.65 0,1.6 0.82,3.04 1.87,4.92 l 10.08,16.83 33.01,0 -0.39,4.11 -30.24,0 26.02,43.51 4.22,-43.51 0.39,-4.11 c 0.27,-2.77 2.15,-20.7 2.15,-22.03 0,-3.98 -6.92,-4.37 -9.58,-4.37 -1.71,0 -3.04,0 -3.04,-2.66 0,-1.44 1.6,-1.44 1.87,-1.44 5.32,0 11.02,0.5 16.45,0.5 3.32,0 11.52,-0.5 14.84,-0.5 0.78,0 2.38,0 2.38,2.65 0,1.45 -1.32,1.45 -3.04,1.45 -8.09,0 -8.09,0.94 -8.48,4.76 l -8.08,82.39 c -0.28,2.65 -0.28,3.16 -2.54,3.16 -2.11,0 -2.66,-0.9 -3.44,-2.23 l -45.9,-76.95 z"
         style="fill:#000000;fill-opacity:1;fill-rule:nonzero;stroke:none"
         id="path174" /><path
         d="m 1542.81,1432.53 0.16,0.39 0.12,0.39 0.15,0.39 0.12,0.55 0.12,0.51 0.15,0.54 0.12,0.51 0.27,0.67 0.12,0.54 1.09,2.66 0.24,0.66 0.43,0.67 0.78,1.33 0.39,0.5 0.39,0.67 0.55,0.54 0.39,0.67 0.55,0.51 0.66,0.54 0.51,0.39 0.66,0.39 0.55,0.43 0.39,0.12 0.39,0.28 0.27,0.11 0.39,0.16 0.39,0.12 0.39,0 0.28,0.11 0.39,0.16 0.94,0 0.39,0.12 0.43,0 c 0.66,0 3.82,0 6.6,-1.72 -3.71,-0.67 -6.37,-3.99 -6.37,-7.15 0,-2.15 1.49,-4.65 5.04,-4.65 2.93,0 7.03,2.38 7.03,7.7 0,6.87 -7.69,8.75 -12.19,8.75 -7.69,0 -12.34,-7.04 -13.94,-10.08 -3.17,8.75 -10.31,10.08 -14.18,10.08 -13.79,0 -21.21,-17.11 -21.21,-20.32 0,-1.32 1.33,-1.32 1.6,-1.32 1.05,0 1.44,0.27 1.72,1.48 4.49,13.91 13.12,17.23 17.62,17.23 2.53,0 7.18,-1.18 7.18,-8.87 0,-4.14 -2.26,-12.89 -7.18,-31.33 -2.11,-8.2 -6.76,-13.79 -12.47,-13.79 -0.93,0 -3.82,0 -6.64,1.72 3.32,0.66 6.25,3.48 6.25,7.19 0,3.55 -2.93,4.65 -4.92,4.65 -3.98,0 -7.26,-3.48 -7.26,-7.7 0,-6.13 6.6,-8.63 12.3,-8.63 8.75,0 13.56,9.14 13.95,9.96 1.6,-4.92 6.36,-9.96 14.18,-9.96 13.67,0 21.21,16.99 21.21,20.27 0,1.33 -1.18,1.33 -1.57,1.33 -1.21,0 -1.48,-0.66 -1.71,-1.45 -4.38,-14.17 -13.4,-17.38 -17.66,-17.38 -5.04,0 -7.15,4.26 -7.15,8.75 0,2.93 0.78,5.86 2.23,11.56 l 4.37,18.05 z"
         style="fill:#000000;fill-opacity:1;fill-rule:nonzero;stroke:none"
         id="path176" /><path
         d="m 1657.7,1423.08 36.75,0 c 1.84,0 4.38,0 4.38,2.65 0,2.66 -2.54,2.66 -4.38,2.66 l -36.75,0 0,36.88 c 0,1.87 0,4.37 -2.66,4.37 -2.66,0 -2.66,-2.5 -2.66,-4.37 l 0,-36.88 -36.99,0 c -1.72,0 -4.26,0 -4.26,-2.66 0,-2.65 2.54,-2.65 4.26,-2.65 l 36.99,0 0,-36.88 c 0,-1.83 0,-4.37 2.66,-4.37 2.66,0 2.66,2.54 2.66,4.37 l 0,36.88 z"
         style="fill:#000000;fill-opacity:1;fill-rule:nonzero;stroke:none"
         id="path178" /><path
         d="m 1767.38,1482.77 0,0.43 -0.11,0 0,0.23 -0.16,0.16 0,0.11 -0.12,0 0,0.16 -0.15,0 0,0.12 -0.12,0 -0.12,0.11 -0.39,0 0,0.16 -0.55,0 c -3.04,0 -12.61,-1.05 -16.05,-1.33 -1.06,-0.15 -2.5,-0.27 -2.5,-2.65 0,-1.61 1.17,-1.61 3.16,-1.61 6.25,0 6.49,-0.93 6.49,-2.26 0,-0.9 -1.17,-5.27 -1.72,-8.09 l -10.86,-42.97 c -1.6,-6.64 -2.11,-8.75 -2.11,-13.24 0,-12.62 6.99,-20.7 16.68,-20.7 l 0,2.77 c -4.49,0 -8.75,3.6 -8.75,13.4 0,2.54 0,4.92 2.15,13.28 l 2.89,12.19 c 0.66,2.77 0.66,3.05 1.87,4.53 6.49,8.59 12.47,10.59 15.9,10.59 4.81,0 8.36,-3.99 8.36,-12.46 0,-7.7 -4.37,-22.82 -6.76,-27.86 -4.37,-8.9 -10.46,-13.67 -15.66,-13.67 l 0,-2.77 c 15.66,0 31.84,19.61 31.84,38.59 0,11.96 -7.04,21.1 -17.5,21.1 -6.1,0 -11.53,-3.87 -15.51,-7.97 l 9.8,39.65 z"
         style="fill:#000000;fill-opacity:1;fill-rule:nonzero;stroke:none"
         id="path180" /><path
         d="m 1838.75,1400.15 0.12,-0.55 0.15,-0.39 0.24,-0.51 0.15,-0.43 0.28,-0.5 0.23,-0.39 0.16,-0.4 0.27,-0.43 0.39,-0.39 0.28,-0.39 0.23,-0.39 0.43,-0.39 0.23,-0.27 0.43,-0.39 0.39,-0.28 0.67,-0.66 0.39,-0.16 0.39,-0.23 0.55,-0.27 0.39,-0.28 0.39,-0.11 0.54,-0.28 0.4,-0.15 0.5,-0.12 0.43,-0.12 0.51,-0.15 0.55,0 0.51,-0.12 1.6,0 c 4.53,0 7.57,2.93 9.68,7.15 2.27,4.76 3.99,12.89 3.99,13.12 0,1.33 -1.21,1.33 -1.6,1.33 -1.33,0 -1.45,-0.66 -1.84,-2.38 -1.87,-7.42 -4.41,-16.45 -9.84,-16.45 -2.78,0 -4.1,1.72 -4.1,6.1 0,2.93 1.6,9.18 2.65,13.67 l 3.71,14.33 c 0.28,2 1.6,6.88 2.11,8.87 0.67,3.05 1.99,8.09 1.99,8.91 0,2.38 -1.83,3.59 -3.82,3.59 -0.55,0 -3.99,-0.16 -5.04,-4.65 -2.54,-9.69 -8.36,-32.77 -9.96,-39.69 -0.12,-0.5 -5.43,-11.13 -15,-11.13 -6.88,0 -8.21,5.98 -8.21,10.9 0,7.27 3.71,17.77 7.15,26.91 1.6,3.83 2.27,5.71 2.27,8.21 0,5.97 -4.26,10.9 -10.86,10.9 -12.62,0 -17.38,-19.11 -17.38,-20.32 0,-1.32 1.32,-1.32 1.56,-1.32 1.33,0 1.48,0.27 2.15,2.42 3.16,11.4 8.2,16.29 13.24,16.29 1.21,0 3.32,-0.12 3.32,-4.38 0,-3.16 -1.45,-7.03 -2.27,-9.02 -4.88,-13.01 -7.65,-21.21 -7.65,-27.58 0,-12.62 9.14,-15.78 16.29,-15.78 8.63,0 13.39,5.82 15.66,8.75 z"
         style="fill:#000000;fill-opacity:1;fill-rule:nonzero;stroke:none"
         id="path182" /><path
         d="m 1951.48,1423.08 36.88,0 c 1.87,0 4.37,0 4.37,2.65 0,2.66 -2.5,2.66 -4.37,2.66 l -36.88,0 0,36.88 c 0,1.87 0,4.37 -2.65,4.37 -2.66,0 -2.66,-2.5 -2.66,-4.37 l 0,-36.88 -36.87,0 c -1.84,0 -4.38,0 -4.38,-2.66 0,-2.65 2.54,-2.65 4.38,-2.65 l 36.87,0 0,-36.88 c 0,-1.83 0,-4.37 2.66,-4.37 2.65,0 2.65,2.54 2.65,4.37 l 0,36.88 z"
         style="fill:#000000;fill-opacity:1;fill-rule:nonzero;stroke:none"
         id="path184" /><path
         d="m 2091.41,1441.79 0,1.87 -0.12,0.28 0,0.78 -0.12,0.51 -0.15,0.54 -0.12,0.55 -0.16,0.39 -0.23,0.78 -0.28,0.39 -0.15,0.28 -0.24,0.39 -0.15,0.27 -0.28,0.27 -0.11,0.28 -0.28,0.27 -0.27,0.12 -0.23,0.27 -0.28,0.12 -0.12,0.15 -0.54,0.24 -0.28,0.16 -0.27,0.11 -0.23,0 -0.16,0.12 -0.51,0 -0.27,0.16 -0.16,0 c -3.32,0 -6.48,-3.44 -6.48,-6.37 0,-1.72 0.66,-2.54 2.11,-3.99 2.81,-2.65 4.53,-6.09 4.53,-10.74 0,-5.58 -8.09,-35.82 -23.63,-35.82 -6.61,0 -9.65,4.65 -9.65,11.56 0,7.43 3.55,16.96 7.54,27.86 0.93,2.22 1.72,4.1 1.72,6.6 0,5.97 -4.22,10.9 -10.86,10.9 -12.46,0 -17.39,-19.11 -17.39,-20.32 0,-1.32 1.33,-1.32 1.61,-1.32 1.17,0 1.32,0.27 1.99,2.42 3.83,13.24 9.53,16.29 13.4,16.29 1.05,0 3.28,0 3.28,-4.22 0,-3.32 -1.29,-6.92 -2.23,-9.3 -5.86,-15.27 -7.58,-21.37 -7.58,-26.91 0,-14.34 11.68,-16.33 17.78,-16.33 22.14,0 29.57,43.51 29.57,50.39 z"
         style="fill:#000000;fill-opacity:1;fill-rule:nonzero;stroke:none"
         id="path186" /><path
         d="m 1356.17,1284.48 0,0.28 0.12,0.12 0,0.27 0.16,0.12 0,0.54 0.11,0 0,0.78 0.12,0.16 0,0.66 c 0,2.39 -1.84,3.56 -3.83,3.56 -1.33,0 -3.44,-0.78 -4.65,-2.77 -0.27,-0.67 -1.32,-4.65 -1.87,-7.04 -0.9,-3.43 -1.84,-7.03 -2.62,-10.58 l -5.98,-23.75 c -0.39,-1.99 -6.09,-11.13 -14.88,-11.13 -6.76,0 -8.2,5.82 -8.2,10.58 0,6.1 2.26,14.34 6.76,25.86 2.11,5.47 2.65,6.91 2.65,9.57 0,5.82 -4.26,10.74 -10.86,10.74 -12.5,0 -17.38,-19.1 -17.38,-20.31 0,-1.33 1.33,-1.33 1.56,-1.33 1.33,0 1.49,0.28 2.15,2.39 3.56,12.34 8.87,16.32 13.24,16.32 1.1,0 3.32,0 3.32,-4.25 0,-3.17 -1.32,-6.61 -2.22,-9.14 -5.2,-13.91 -7.58,-21.49 -7.58,-27.74 0,-11.64 8.24,-15.62 16.05,-15.62 5.16,0 9.69,2.26 13.4,5.97 -1.72,-6.91 -3.32,-13.4 -8.63,-20.31 -3.44,-4.49 -8.48,-8.36 -14.57,-8.36 -1.76,0 -7.7,0.39 -9.96,5.59 2.11,0 3.83,0 5.7,1.6 1.33,1.17 2.5,2.89 2.5,5.43 0,3.98 -3.44,4.49 -4.76,4.49 -3.05,0 -7.43,-2.11 -7.43,-8.48 0,-6.64 5.82,-11.56 13.95,-11.56 13.63,0 27.19,12.07 30.9,26.95 l 12.73,50.39 z"
         style="fill:#000000;fill-opacity:1;fill-rule:nonzero;stroke:none"
         id="path188" /><path
         d="m 1488.95,1277.34 1.83,0 0.16,0.11 0.66,0 0.12,0.16 0.12,0 0.15,0.12 0.12,0 0.27,0.11 0.12,0.16 0.16,0 0.11,0.12 0,0.11 0.28,0.28 0,0.15 0.11,0 0,0.24 0.16,0.15 0,0.94 c 0,2.66 -2.38,2.66 -4.26,2.66 l -79.06,0 c -1.84,0 -4.38,0 -4.38,-2.66 0,-2.65 2.54,-2.65 4.54,-2.65 l 78.79,0 z"
         style="fill:#000000;fill-opacity:1;fill-rule:nonzero;stroke:none"
         id="path190" /><path
         d="m 1489.06,1251.71 1.45,0 0.15,0.16 0.67,0 0.27,0.11 0.12,0 0.12,0.16 0.15,0 0.28,0.12 0.11,0 0.67,0.66 0,0.12 0.11,0.16 0,0.27 0.16,0 0,0.9 c 0,2.65 -2.38,2.65 -4.37,2.65 l -78.79,0 c -2,0 -4.54,0 -4.54,-2.65 0,-2.66 2.54,-2.66 4.38,-2.66 l 79.06,0 z"
         style="fill:#000000;fill-opacity:1;fill-rule:nonzero;stroke:none"
         id="path192" /><path
         d="m 1590,1284.37 -0.39,-0.16 -2.11,0 -0.16,-0.12 -0.39,0 -0.11,-0.11 -0.43,0 -0.12,-0.16 -0.27,0 -0.28,-0.27 -0.23,0 -0.16,-0.12 -0.12,-0.12 -0.27,-0.15 -0.39,-0.39 -0.27,-0.12 -0.12,-0.16 c -2.15,-1.99 -2.38,-4.26 -2.38,-5.15 0,-3.21 2.38,-4.65 4.88,-4.65 3.87,0 7.42,3.16 7.42,8.47 0,6.37 -6.21,11.29 -15.62,11.29 -17.78,0 -35.32,-18.82 -35.32,-37.42 0,-11.91 7.58,-22.26 21.37,-22.26 18.83,0 30,13.9 30,15.5 0,0.78 -0.82,1.72 -1.6,1.72 -0.66,0 -0.94,-0.27 -1.72,-1.33 -10.51,-12.96 -24.8,-12.96 -26.41,-12.96 -8.35,0 -11.95,6.48 -11.95,14.29 0,5.43 2.66,18.17 7.19,26.41 4.1,7.42 11.25,13.12 18.55,13.12 4.5,0 9.57,-1.72 11.41,-5.15 z"
         style="fill:#000000;fill-opacity:1;fill-rule:nonzero;stroke:none"
         id="path194" /><path
         d="m 1638.95,1274.02 0.11,0.39 0.16,0.39 0,0.39 0.12,0.43 0.15,0.51 0.24,0.54 0.15,0.67 0.12,0.5 0.55,1.33 0.27,0.55 0.23,0.66 0.55,1.33 0.78,1.33 0.28,0.66 0.54,0.67 0.39,0.51 0.39,0.66 1.61,1.6 0.66,0.55 0.51,0.39 0.66,0.39 0.43,0.12 0.24,0.15 0.39,0.12 0.43,0.16 0.23,0.11 0.43,0.12 0.39,0.16 0.39,0 0.39,0.11 1.33,0 c 0.66,0 3.87,0 6.52,-1.72 -3.59,-0.66 -6.25,-3.98 -6.25,-7.03 0,-2.11 1.45,-4.64 5.04,-4.64 2.78,0 7.03,2.38 7.03,7.69 0,6.76 -7.69,8.63 -12.18,8.63 -7.7,0 -12.35,-7.03 -13.95,-9.96 -3.32,8.64 -10.35,9.96 -14.18,9.96 -13.79,0 -21.25,-16.99 -21.25,-20.31 0,-1.33 1.21,-1.33 1.6,-1.33 1.06,0 1.49,0.28 1.6,1.49 4.5,13.9 13.25,17.22 17.78,17.22 2.5,0 7.15,-1.17 7.15,-8.75 0,-4.1 -2.23,-13 -7.15,-31.44 -2.11,-8.09 -6.76,-13.63 -12.62,-13.63 -0.78,0 -3.83,0 -6.48,1.71 3.16,0.67 6.09,3.44 6.09,7.15 0,3.44 -2.93,4.49 -4.88,4.49 -3.87,0 -7.19,-3.43 -7.19,-7.53 0,-6.1 6.52,-8.75 12.34,-8.75 8.75,0 13.52,9.29 13.91,10.07 1.6,-4.92 6.25,-10.07 14.22,-10.07 13.67,0 21.09,16.95 21.09,20.27 0,1.33 -1.21,1.33 -1.6,1.33 -1.21,0 -1.33,-0.51 -1.6,-1.45 -4.38,-14.06 -13.4,-17.22 -17.62,-17.22 -5.19,0 -7.3,4.21 -7.3,8.59 0,2.93 0.78,5.86 2.26,11.68 l 4.5,18.05 z"
         style="fill:#000000;fill-opacity:1;fill-rule:nonzero;stroke:none"
         id="path196" /><path
         d="m 1753.83,1264.6 36.72,0 c 1.87,0 4.37,0 4.37,2.5 0,2.66 -2.5,2.66 -4.37,2.66 l -36.72,0 0,36.87 c 0,1.88 0,4.38 -2.66,4.38 -2.65,0 -2.65,-2.5 -2.65,-4.38 l 0,-36.87 -37.04,0 c -1.83,0 -4.37,0 -4.37,-2.66 0,-2.5 2.54,-2.5 4.37,-2.5 l 37.04,0 0,-37.03 c 0,-1.84 0,-4.37 2.65,-4.37 2.66,0 2.66,2.53 2.66,4.37 l 0,37.03 z"
         style="fill:#000000;fill-opacity:1;fill-rule:nonzero;stroke:none"
         id="path198" /><path
         d="m 1892.93,1278.9 0,0.27 0.16,0.28 0,0.27 0.11,0.39 0,0.27 0.16,0.28 0.23,1.32 0.16,0.67 0.27,0.66 0.12,0.67 0,0.23 0.12,0.39 0.15,0.28 0,0.27 0.12,0.27 0,0.51 0.16,0.27 0,0.16 0.11,0.23 0,0.82 0.12,0 c 0,2.39 -1.83,3.56 -3.83,3.56 -1.6,0 -3.98,-1.06 -4.92,-3.71 -0.39,-0.9 -6.6,-25.98 -7.54,-29.42 -0.93,-3.98 -1.21,-6.36 -1.21,-8.79 0,-1.44 0,-1.71 0.16,-2.38 -3.05,-6.87 -7.03,-10.97 -12.07,-10.97 -10.63,0 -10.63,9.64 -10.63,11.91 0,4.26 0.67,9.41 6.92,25.59 1.44,3.98 2.22,5.85 2.22,8.51 0,5.82 -4.37,10.74 -10.86,10.74 -12.46,0 -17.38,-19.1 -17.38,-20.31 0,-1.33 1.33,-1.33 1.6,-1.33 1.33,0 1.45,0.28 2.11,2.39 3.6,12.22 8.63,16.32 13.28,16.32 1.18,0 3.32,-0.11 3.32,-4.37 0,-3.17 -1.48,-6.92 -2.42,-9.14 -5.82,-15.55 -7.42,-21.64 -7.42,-26.68 0,-11.92 8.91,-16.56 18.83,-16.56 2.15,0 8.36,0 13.67,9.29 3.44,-8.51 12.62,-9.29 16.6,-9.29 9.81,0 15.63,8.36 19.1,16.17 4.5,10.35 8.6,28.01 8.6,34.22 0,7.3 -3.56,9.29 -5.71,9.29 -3.32,0 -6.64,-3.43 -6.64,-6.36 0,-1.61 0.82,-2.39 2,-3.44 1.48,-1.49 4.8,-4.92 4.8,-11.29 0,-4.53 -3.87,-17.38 -7.3,-24.14 -3.44,-6.92 -8.09,-11.52 -14.61,-11.52 -6.1,0 -9.65,3.94 -9.65,11.4 0,3.71 0.9,7.81 1.44,9.65 l 5.55,22.15 z"
         style="fill:#000000;fill-opacity:1;fill-rule:nonzero;stroke:none"
         id="path200" /></g></g></svg>